<svg width="92" height="92" viewBox="0 0 92 92" fill="none" xmlns="http://www.w3.org/2000/svg">
<path d="M21.354 24.0361L28.6396 27.4191L19.3313 47.4657L12.0457 44.0828L21.354 24.0361Z" fill="#F4A7A3"/>
<path d="M64.3242 27.9902L71.78 25.0009L80.0052 45.5158L72.5494 48.5051L64.3242 27.9902Z" fill="#F4A7A3"/>
<path d="M21.5885 23.155C20.4458 23.5802 20.3528 23.7396 16.0476 33.134C12.3138 41.3058 12.0347 41.9702 11.9683 42.794C11.9019 43.8571 12.234 44.7075 12.925 45.2124C13.7488 45.8236 17.5491 47.458 18.2932 47.5244C19.0772 47.5909 19.994 47.3118 20.3793 46.8866C20.5122 46.7405 20.6849 46.6209 20.7647 46.6209C20.8444 46.6209 21.7214 46.9796 22.718 47.4314C23.9803 47.9895 24.5782 48.3217 24.6712 48.5343C24.7377 48.6937 24.8971 49.305 25.03 49.8763C25.1496 50.461 25.309 51.1254 25.3755 51.3645C25.4951 51.7499 25.4419 51.9226 24.844 53.0521C23.8341 54.9788 23.8075 56.4803 24.7377 57.8755C25.4685 58.965 26.2657 59.4434 27.7672 59.6959L28.2456 59.7756L28.312 60.6924C28.4316 62.2737 29.2554 63.4695 30.6772 64.1339C31.5409 64.5458 32.9228 64.599 33.8264 64.2535L34.3977 64.0409L34.5838 64.3997C34.8761 64.9577 35.6866 65.7151 36.3776 66.034C36.856 66.2732 37.228 66.3397 38.1183 66.3397C38.7428 66.3397 39.3673 66.2865 39.5002 66.1935C39.7261 66.0739 39.7925 66.1138 40.0051 66.5523C40.3639 67.2831 41.1346 68.0006 41.9451 68.3859C42.5829 68.665 42.7955 68.7049 43.8054 68.6517C45.1075 68.5853 45.7985 68.3062 46.516 67.5621L46.9545 67.1236L47.991 67.6684C48.8812 68.1335 49.1868 68.2132 50.0107 68.2531C51.2464 68.3195 52.1101 68.0538 52.9207 67.3229C53.7711 66.5788 54.2095 65.7949 54.2893 64.8382L54.369 64.0675L55.1795 64.001C57.0797 63.8416 58.5945 62.4065 58.9134 60.4665L59.0064 59.9085H59.7106C62.2751 59.9085 64.348 57.4503 63.7899 55.0452L63.6703 54.5137L64.3878 54.1416C65.6634 53.464 66.3943 52.3345 66.5404 50.833L66.6202 49.9029L68.7329 48.9994L70.8456 48.0958L71.1911 48.4678C71.7625 49.0791 72.3737 49.3315 73.264 49.3315C73.9283 49.3183 74.4333 49.1721 76.3201 48.428C77.5558 47.9363 78.765 47.3916 79.0042 47.2055C79.6553 46.7139 79.9742 45.9831 79.9742 45.0396C79.9742 44.3088 79.6686 43.4584 76.453 35.2467C74.513 30.3037 72.8122 26.0517 72.6527 25.7992C72.2142 25.095 71.324 24.6432 70.354 24.6565C69.6763 24.6565 69.1714 24.8159 67.2845 25.56C66.0488 26.0517 64.8396 26.5965 64.6137 26.7692C63.9228 27.2874 63.6039 28.1113 63.657 29.2407L63.6969 30.2107L61.9695 31.1275C59.7372 32.3234 59.3518 32.3766 57.4517 31.6723C54.1963 30.4632 53.1598 30.1443 52.0304 30.0247C50.024 29.7988 48.2567 30.1177 46.3566 31.0744L45.36 31.566L44.7621 31.2604C43.4333 30.5562 42.4235 30.3436 40.5765 30.3569C39.1148 30.3569 38.5568 30.4233 36.9224 30.8086C35.7664 31.0744 34.6236 31.2604 34.0656 31.2604C33.1886 31.2604 33.0291 31.2206 31.0094 30.2771C29.8401 29.7323 28.8568 29.2806 28.8302 29.254C28.8037 29.2407 28.8834 28.9882 29.003 28.6826C29.4149 27.6329 29.189 26.4104 28.4183 25.6265C28.0861 25.281 27.3155 24.8558 25.6412 24.0984C23.1432 22.9822 22.4921 22.8228 21.5885 23.155ZM24.5384 26.1181C26.5315 27.0217 26.9567 27.2741 26.9567 27.5532C26.9567 27.7392 19.1436 44.8802 18.9576 45.1194C18.7317 45.4117 18.4261 45.3187 16.4462 44.4151C14.2803 43.4186 14.2006 43.3654 14.2006 43.0066C14.2006 42.6346 22.0004 25.5866 22.2662 25.3873C22.3858 25.3076 22.5186 25.2278 22.5452 25.2278C22.5718 25.2278 23.4753 25.6265 24.5384 26.1181ZM74.2207 35.7915C76.0809 40.5484 77.6356 44.6144 77.6754 44.8536C77.7685 45.3851 77.6489 45.4648 75.1508 46.4348C73.2241 47.1657 73.1709 47.179 72.9318 46.9398C72.666 46.6474 65.8893 29.3736 65.8893 28.9749C65.8893 28.5896 66.0621 28.4966 68.2944 27.6329C70.0085 26.9685 70.3806 26.8622 70.5799 26.9951C70.7393 27.1014 72.0681 30.3037 74.2207 35.7915ZM30.159 32.3899C33.162 33.7585 33.7998 33.8249 37.321 33.041C39.5002 32.5626 41.0017 32.443 41.985 32.6689C43.4732 33.0144 43.4732 32.9214 42.0514 34.2767C39.7394 36.4824 37.6399 38.1035 35.2614 39.512C33.9593 40.2827 33.7334 40.5352 33.7334 41.1597C33.7334 42.0765 35.5671 43.9634 37.2944 44.827C39.5002 45.9299 41.9318 45.7439 46.0111 44.1361C49.8114 42.6479 50.8345 42.3954 51.9772 42.6346C52.4689 42.7409 54.2361 43.671 58.1825 45.9299C64.2018 49.3714 64.2948 49.4511 64.2948 50.5673C64.2948 51.0589 64.2151 51.2317 63.7899 51.6834C63.378 52.1352 63.1787 52.2415 62.6737 52.2947C62.0758 52.3611 61.9429 52.2947 58.0364 50.0889C55.5516 48.6937 53.8641 47.8168 53.6382 47.8168C53.4389 47.8168 53.12 47.9629 52.9207 48.1357C52.4157 48.5609 52.4024 49.3183 52.8808 49.7302C53.0535 49.8763 54.9669 50.9925 57.1062 52.2017C61.1855 54.4871 61.3981 54.6599 61.5842 55.6166C61.6905 56.1879 61.3051 56.9586 60.7205 57.344C59.8568 57.9286 59.7106 57.8622 54.7809 55.1249C52.2828 53.743 50.117 52.6003 49.9708 52.6003C49.3064 52.6003 48.7483 53.1318 48.7483 53.7829C48.7483 54.3011 49.3862 54.7662 52.5619 56.5334C54.3823 57.5566 55.9901 58.5 56.1495 58.6594C56.309 58.8189 56.5083 59.1776 56.588 59.47C56.7342 59.935 56.7209 60.0812 56.4817 60.6127C56.1628 61.3302 55.7243 61.6491 54.9537 61.7289C54.4354 61.782 54.1697 61.6624 51.6185 60.2407C50.0904 59.3902 48.6022 58.5 48.3099 58.2475C47.2336 57.3174 45.7321 56.9055 44.6159 57.2244C44.1376 57.3572 44.1243 57.344 43.9781 56.8523C43.7788 56.1746 42.8752 55.1781 42.0514 54.7529C41.4667 54.4473 41.201 54.3941 40.138 54.3808L38.9155 54.3675L38.57 53.6899C37.919 52.3877 36.7497 51.6569 35.1684 51.5639L34.1586 51.5107L33.9991 50.9261C33.5739 49.4246 32.3249 48.3217 30.7702 48.0426C29.6939 47.8699 28.7239 48.0559 27.8337 48.614C27.4085 48.893 27.1959 48.9595 27.156 48.8399C27.1294 48.7602 27.0098 48.3748 26.8903 47.9895C26.5182 46.8069 25.9468 46.3285 23.8075 45.3851C22.7711 44.9333 21.9074 44.5081 21.8941 44.455C21.8543 44.2291 27.8204 31.3401 27.9533 31.3933C28.0197 31.4199 29.0163 31.8716 30.159 32.3899ZM52.9207 32.4829C53.3459 32.5892 54.4354 32.9745 55.3257 33.3333C57.5979 34.2368 58.4217 34.4361 59.7239 34.3697C60.7072 34.3166 60.9198 34.2501 62.1821 33.6123C62.9395 33.2137 63.8032 32.7619 64.0955 32.5892L64.627 32.2836L67.258 39.0204C68.7063 42.7276 69.9022 45.8103 69.9022 45.8901C69.9022 45.9565 68.9455 46.4216 67.7762 46.9132L65.6369 47.8168L65.225 47.4447C64.72 46.9796 54.2095 40.9869 53.2396 40.6149C52.6948 40.4023 52.243 40.3358 51.273 40.3491C49.7848 40.3491 48.7085 40.6415 45.6391 41.8373C43.1011 42.8206 42.0514 43.1395 41.0017 43.2458C39.5799 43.392 37.919 42.8073 36.9888 41.8373C36.7762 41.6247 36.6301 41.4254 36.6699 41.3988C36.6965 41.3723 37.3609 40.9205 38.1448 40.4023C39.9785 39.1798 41.4003 38.0238 43.5396 36.0439C47.3133 32.5493 49.6785 31.6458 52.9207 32.4829ZM31.036 50.5407C31.5941 50.9128 31.8997 51.5373 31.8332 52.2017C31.7668 52.866 29.8268 56.6131 29.3352 57.0118C28.5778 57.6363 27.5015 57.5433 26.8371 56.7859C26.1329 55.9753 26.1462 55.5501 26.9434 54.0088C28.3652 51.2582 28.6841 50.7666 29.2687 50.4743C29.88 50.1687 30.4912 50.1952 31.036 50.5407ZM36.1251 54.2612C36.5902 54.6997 36.8427 55.404 36.7497 55.8956C36.6434 56.4138 34.039 61.2372 33.6271 61.6757C32.471 62.8982 30.3849 61.9282 30.5842 60.2539C30.6241 59.9085 31.129 58.8056 32.006 57.1845C32.7501 55.7893 33.4278 54.5801 33.5208 54.4738C34.1453 53.7032 35.4342 53.5969 36.1251 54.2612ZM41.0017 56.8125C41.6262 57.1048 41.9717 57.7027 41.9717 58.4468C41.9717 58.9518 41.7591 59.4168 40.7359 61.2904C39.3673 63.815 39.1016 64.0941 38.1183 64.0941C37.0287 64.0941 36.1783 63.1772 36.2979 62.1541C36.3643 61.7023 38.3176 57.8622 38.7694 57.3307C39.3806 56.6131 40.1911 56.4271 41.0017 56.8125ZM46.4496 59.7092C46.9147 60.0148 47.2867 60.6924 47.2867 61.2372C47.2867 61.9415 45.2404 65.7151 44.6425 66.1138C43.7788 66.6984 42.5032 66.3928 42.0381 65.5025C41.6395 64.7186 41.7724 64.2402 42.9417 62.0345C43.9648 60.1211 44.0844 59.9483 44.6292 59.6693C45.2936 59.3238 45.8782 59.3504 46.4496 59.7092ZM51.7779 63.2304C52.3493 64.0808 52.0437 65.3564 51.1534 65.8214C50.4093 66.1935 49.5589 66.0208 48.3896 65.2501L48.084 65.064L48.6686 63.9745C48.9875 63.3898 49.333 62.6457 49.426 62.3401L49.5855 61.7687L50.5289 62.2737C51.1003 62.5793 51.5919 62.9646 51.7779 63.2304Z" fill="#50265C"/>
</svg>
