<svg width="101" height="100" viewBox="0 0 101 100" fill="none" xmlns="http://www.w3.org/2000/svg">
<path d="M71.3798 52.8432C71.3798 64.8799 61.6221 74.6376 49.5854 74.6376C37.5487 74.6376 27.791 64.8799 27.791 52.8432C27.791 40.8065 37.5487 31.0488 49.5854 31.0488C61.6221 31.0488 71.3798 40.8065 71.3798 52.8432Z" fill="#F4A7A3"/>
<path fill-rule="evenodd" clip-rule="evenodd" d="M49.5854 72.0315C60.1828 72.0315 68.7736 63.4406 68.7736 52.8432C68.7736 42.2459 60.1828 33.655 49.5854 33.655C38.988 33.655 30.3972 42.2459 30.3972 52.8432C30.3972 63.4406 38.988 72.0315 49.5854 72.0315ZM49.5854 74.6376C61.6221 74.6376 71.3798 64.8799 71.3798 52.8432C71.3798 40.8065 61.6221 31.0488 49.5854 31.0488C37.5487 31.0488 27.791 40.8065 27.791 52.8432C27.791 64.8799 37.5487 74.6376 49.5854 74.6376Z" fill="#50265C"/>
<path d="M37.5781 56.5542C37.5781 52.6227 40.7652 49.4355 44.6967 49.4355H54.4742C58.4057 49.4355 61.5928 52.6227 61.5928 56.5542V64.7697H37.5781V56.5542Z" fill="white"/>
<path fill-rule="evenodd" clip-rule="evenodd" d="M54.4742 52.0417H44.6967C42.2046 52.0417 40.1843 54.062 40.1843 56.5542V62.1636H58.9866V56.5542C58.9866 54.062 56.9663 52.0417 54.4742 52.0417ZM44.6967 49.4355C40.7652 49.4355 37.5781 52.6227 37.5781 56.5542V64.7697H61.5928V56.5542C61.5928 52.6227 58.4057 49.4355 54.4742 49.4355H44.6967Z" fill="#50265C"/>
<path d="M55.3817 44.9692C55.3817 48.171 52.7862 50.7665 49.5844 50.7665C46.3827 50.7665 43.7871 48.171 43.7871 44.9692C43.7871 41.7674 46.3827 39.1719 49.5844 39.1719C52.7862 39.1719 55.3817 41.7674 55.3817 44.9692Z" fill="white"/>
<path fill-rule="evenodd" clip-rule="evenodd" d="M49.5844 48.1603C51.3468 48.1603 52.7756 46.7316 52.7756 44.9692C52.7756 43.2068 51.3468 41.778 49.5844 41.778C47.822 41.778 46.3933 43.2068 46.3933 44.9692C46.3933 46.7316 47.822 48.1603 49.5844 48.1603ZM49.5844 50.7665C52.7862 50.7665 55.3817 48.171 55.3817 44.9692C55.3817 41.7674 52.7862 39.1719 49.5844 39.1719C46.3827 39.1719 43.7871 41.7674 43.7871 44.9692C43.7871 48.171 46.3827 50.7665 49.5844 50.7665Z" fill="#50265C"/>
<path fill-rule="evenodd" clip-rule="evenodd" d="M43.7875 57.4766C44.5071 57.4766 45.0905 58.06 45.0905 58.7796L45.0905 62.6894C45.0905 63.4091 44.5071 63.9925 43.7875 63.9925C43.0678 63.9925 42.4844 63.4091 42.4844 62.6894L42.4844 58.7796C42.4844 58.06 43.0678 57.4766 43.7875 57.4766Z" fill="#50265C"/>
<path fill-rule="evenodd" clip-rule="evenodd" d="M55.3832 57.4766C56.1028 57.4766 56.6862 58.06 56.6862 58.7796L56.6862 62.6894C56.6862 63.4091 56.1028 63.9925 55.3832 63.9925C54.6635 63.9925 54.0801 63.4091 54.0801 62.6894L54.0801 58.7796C54.0801 58.06 54.6635 57.4766 55.3832 57.4766Z" fill="#50265C"/>
<path fill-rule="evenodd" clip-rule="evenodd" d="M41.805 17.3031C41.805 16.5834 42.3884 16 43.1081 16H55.4605C56.1801 16 56.7636 16.5834 56.7636 17.3031V23.0781L65.4178 26.5931L70.5341 22.8988C71.0746 22.5085 71.8225 22.5892 72.2674 23.0857L79.0771 30.6862C79.529 31.1906 79.5192 31.9571 79.0545 32.4498L74.6972 37.0699L78.067 45.4549H85.2042C85.9239 45.4549 86.5073 46.0383 86.5073 46.758V57.5904C86.5073 58.2475 86.018 58.8019 85.3659 58.8834L79.0117 59.678L76.5602 65.4323C76.2781 66.0944 75.5127 66.4025 74.8506 66.1204C74.1885 65.8383 73.8805 65.0729 74.1626 64.4109L76.9077 57.9673C77.0895 57.5405 77.4845 57.2425 77.9448 57.185L83.9011 56.4401V48.061H77.1863C76.6542 48.061 76.1756 47.7376 75.9772 47.2439L71.9682 37.2682C71.7787 36.7967 71.8806 36.258 72.2293 35.8883L76.3367 31.5331L71.1089 25.6983L66.3586 29.1283C65.9947 29.391 65.5212 29.448 65.1054 29.2791L54.9701 25.1626C54.4788 24.963 54.1574 24.4856 54.1574 23.9553V18.6062H44.4112V23.9553C44.4112 24.4718 44.1061 24.9395 43.6335 25.1478L34.29 29.2643C33.8289 29.4674 33.2921 29.3866 32.9113 29.0567L29.009 25.6754L21.9778 31.7014L25.5731 35.9393C25.8969 36.321 25.9735 36.8543 25.7702 37.3116L21.3361 47.2872C21.1269 47.7578 20.6603 48.061 20.1453 48.061H15.2722V57.3601L20.3435 58.1406C20.7475 58.2028 21.0989 58.4509 21.2927 58.8108L25.7268 67.047C25.9526 67.4664 25.9316 67.9754 25.6721 68.3748L22.6953 72.9556L29.1057 80.1528L32.8821 76.6765C33.2711 76.3184 33.8381 76.2309 34.317 76.4551L43.6605 80.8285C44.0128 80.9934 44.273 81.3071 44.37 81.6838L45.7373 86.9948L54.382 86.2594L55.3188 81.7439C55.396 81.3721 55.6315 81.0524 55.9639 80.8685L61.4116 77.8542C62.0414 77.5057 62.8343 77.7337 63.1827 78.3635C63.5311 78.9932 63.3031 79.7861 62.6734 80.1345L57.7491 82.8592L56.7364 87.7402C56.6193 88.3046 56.1453 88.725 55.5709 88.7738L44.8605 89.685C44.2268 89.7389 43.6467 89.3274 43.4881 88.7115L41.9993 82.9285L34.004 79.1861L29.8962 82.9674C29.6392 83.204 29.298 83.3275 28.9491 83.3102C28.6003 83.2929 28.2729 83.1362 28.0406 82.8754L20.0876 73.9463C19.697 73.5077 19.648 72.862 19.968 72.3696L23.0659 67.6023L19.3056 60.6177L13.7709 59.7659C13.1352 59.6681 12.666 59.1211 12.666 58.478V46.758C12.666 46.0383 13.2494 45.4549 13.9691 45.4549H19.2985L23.0562 37.0011L19.1516 32.3987C18.6877 31.8519 18.7528 31.0329 19.2973 30.5663L28.1657 22.9659C28.6557 22.5459 29.3793 22.5479 29.867 22.9705L33.9943 26.5467L41.805 23.1055V17.3031Z" fill="#50265C"/>
<path fill-rule="evenodd" clip-rule="evenodd" d="M71.3809 83.7083C76.3888 83.7083 80.4485 79.6486 80.4485 74.6406C80.4485 69.6327 76.3888 65.573 71.3809 65.573C66.3729 65.573 62.3132 69.6327 62.3132 74.6406C62.3132 79.6486 66.3729 83.7083 71.3809 83.7083ZM71.3809 86.3145C77.8281 86.3145 83.0547 81.0879 83.0547 74.6406C83.0547 68.1934 77.8281 62.9668 71.3809 62.9668C64.9336 62.9668 59.707 68.1934 59.707 74.6406C59.707 81.0879 64.9336 86.3145 71.3809 86.3145Z" fill="#50265C"/>
<path fill-rule="evenodd" clip-rule="evenodd" d="M78.5682 69.6431C79.1504 70.2325 79.1446 71.1822 78.5552 71.7644L70.5718 79.6507C70.0073 80.2084 69.1062 80.2299 68.5157 79.6999L64.2578 75.8781C63.6413 75.3247 63.5901 74.3764 64.1435 73.7599C64.6969 73.1434 65.6452 73.0922 66.2617 73.6455L69.4684 76.5238L76.4469 69.6301C77.0363 69.0479 77.986 69.0538 78.5682 69.6431Z" fill="#50265C"/>
</svg>
