<svg width="92" height="92" viewBox="0 0 92 92" fill="none" xmlns="http://www.w3.org/2000/svg">
<path fill-rule="evenodd" clip-rule="evenodd" d="M45.5451 16.6666C28.9131 16.6666 15.4303 30.1495 15.4303 46.7815C15.4303 63.4134 28.9131 76.8963 45.5451 76.8963C62.1771 76.8963 75.66 63.4134 75.66 46.7815C75.66 43.5054 75.05 39.9373 74.08 36.9788L76.5888 36.1562C77.6415 39.3667 78.3002 43.2122 78.3002 46.7815C78.3002 64.8716 63.6353 79.5365 45.5451 79.5365C27.455 79.5365 12.79 64.8716 12.79 46.7815C12.79 28.6913 27.455 14.0264 45.5451 14.0264C47.7726 14.0264 49.9494 14.2489 52.0542 14.6734C53.8032 15.0261 55.5018 15.5181 57.1379 16.1373L56.2033 18.6066C54.7001 18.0377 53.1394 17.5856 51.5323 17.2615C49.5984 16.8715 47.5963 16.6666 45.5451 16.6666Z" fill="#50265C"/>
<path fill-rule="evenodd" clip-rule="evenodd" d="M43.5291 24.6135C44.1929 24.5539 44.8654 24.5235 45.5453 24.5235C47.0615 24.5235 48.5412 24.6749 49.9704 24.9631L50.4347 22.6608C48.8535 22.342 47.2183 22.1748 45.5453 22.1748C44.4099 22.1748 43.2919 22.2518 42.1964 22.4009L41.1804 22.5392V30.6313H43.5291V24.6135ZM23.3186 45.6063C23.7043 38.1842 27.7255 31.7234 33.6403 27.9714L32.3822 25.9881C25.507 30.3493 20.9395 38.0311 20.9395 46.7806V47.955H29.2368V45.6063H23.3186ZM61.2225 45.6063H70.1511V46.7806C70.1511 56.1334 64.9325 64.2656 57.2538 68.4273L56.1347 66.3624C62.7624 62.7703 67.3582 55.9152 67.772 47.955H61.2225V45.6063ZM44.3709 69.0073C34.9883 68.5196 27.1409 62.2206 24.3643 53.6384L22.1297 54.3614C25.3256 64.2399 34.5993 71.3865 45.5453 71.3865H46.7196V63.5028H44.3709V69.0073Z" fill="#50265C"/>
<path fill-rule="evenodd" clip-rule="evenodd" d="M51.0198 46.0363H39.8907C38.3609 46.0363 37.1208 47.2764 37.1208 48.8062V55.5235H53.7897V48.8062C53.7897 47.2765 52.5496 46.0363 51.0198 46.0363ZM39.8907 44.4365C37.4774 44.4365 35.521 46.3929 35.521 48.8062V57.1232H55.3895V48.8062C55.3895 46.3929 53.4331 44.4365 51.0198 44.4365H39.8907Z" fill="#50265C"/>
<path fill-rule="evenodd" clip-rule="evenodd" d="M45.4551 43.9383C47.2205 43.9383 48.6517 42.5072 48.6517 40.7417C48.6517 38.9763 47.2205 37.5451 45.4551 37.5451C43.6896 37.5451 42.2585 38.9763 42.2585 40.7417C42.2585 42.5072 43.6896 43.9383 45.4551 43.9383ZM45.4551 45.5381C48.1041 45.5381 50.2515 43.3907 50.2515 40.7417C50.2515 38.0927 48.1041 35.9453 45.4551 35.9453C42.8061 35.9453 40.6587 38.0927 40.6587 40.7417C40.6587 43.3907 42.8061 45.5381 45.4551 45.5381Z" fill="#50265C"/>
<path fill-rule="evenodd" clip-rule="evenodd" d="M62.1672 14.1763C62.1672 13.5957 62.6378 13.125 63.2185 13.125H67.7957C68.3763 13.125 68.847 13.5957 68.847 14.1763V15.9336L71.4077 16.9737L73.0485 15.789C73.4845 15.4741 74.088 15.5392 74.4469 15.9398L76.9702 18.7561C77.3348 19.163 77.3269 19.7814 76.952 20.1789L75.5869 21.6264L76.5567 24.0396H78.8173C79.3979 24.0396 79.8686 24.5103 79.8686 25.0909V29.1049C79.8686 29.635 79.4738 30.0822 78.9477 30.148L76.9344 30.3998L76.0155 32.7103L77.0587 34.2564C77.3224 34.6472 77.2937 35.1657 76.9885 35.525L74.4652 38.496C74.1308 38.8898 73.5598 38.9822 73.1182 38.7141L71.4954 37.7285L69.1403 38.8728L68.825 40.3924C68.7306 40.8478 68.3481 41.1869 67.8848 41.2264L63.916 41.564C63.4047 41.6075 62.9367 41.2755 62.8088 40.7786L62.3239 38.8952L59.9493 37.7837L58.7077 38.9266C58.5004 39.1175 58.2251 39.2171 57.9437 39.2031C57.6622 39.1892 57.3981 39.0628 57.2107 38.8524L54.2637 35.5437C53.9485 35.1898 53.909 34.6689 54.1672 34.2716L55.1316 32.7876L54.0321 30.7454L52.261 30.4728C51.7482 30.3939 51.3696 29.9526 51.3696 29.4338V25.0909C51.3696 24.5103 51.8403 24.0396 52.4209 24.0396H54.0264L55.1237 21.5709L53.9079 20.1377C53.5336 19.6966 53.5861 19.0359 54.0254 18.6594L57.3116 15.843C57.7069 15.5042 58.2907 15.5058 58.6842 15.8468L59.9415 16.9362L62.1672 15.9557V14.1763ZM64.2697 15.2276V16.6413C64.2697 17.058 64.0236 17.4353 63.6423 17.6033L60.1801 19.1287C59.8081 19.2926 59.375 19.2274 59.0678 18.9612L57.992 18.029L56.1879 19.5752L57.1543 20.7143C57.4155 21.0222 57.4773 21.4524 57.3133 21.8214L55.6702 25.5179C55.5014 25.8975 55.125 26.1422 54.7095 26.1422H53.4722V28.5319L54.8694 28.7469C55.1954 28.7971 55.4789 28.9973 55.6352 29.2876L57.2783 32.3396C57.4604 32.6779 57.4435 33.0886 57.2341 33.4108L56.3675 34.7444L58.07 36.6559L59.0442 35.7591C59.3581 35.4701 59.8155 35.3995 60.2019 35.5804L63.6641 37.201C63.9484 37.334 64.1583 37.5871 64.2365 37.891L64.6234 39.3936L66.9255 39.1978L67.1866 37.9396C67.2528 37.6204 67.4634 37.35 67.7565 37.2076L71.0919 35.587C71.4132 35.4309 71.7917 35.4486 72.097 35.634L73.4431 36.4515L74.8698 34.7716L73.9619 33.426C73.7675 33.1379 73.7281 32.7724 73.8565 32.4494L75.2104 29.0453C75.352 28.689 75.6764 28.4382 76.0568 28.3906L77.766 28.1769V26.1422H75.8462C75.417 26.1422 75.0308 25.8812 74.8708 25.4829L73.3852 21.7864C73.2323 21.406 73.3146 20.9714 73.5959 20.6731L74.7594 19.4394L73.5123 18.0475L72.1668 19.019C71.8732 19.231 71.4912 19.2769 71.1557 19.1407L67.4001 17.6153C67.0037 17.4543 66.7444 17.0691 66.7444 16.6413V15.2276H64.2697Z" fill="#50265C"/>
<path d="M72.7266 27.3472C72.7266 31.2723 69.5447 34.4542 65.6197 34.4542C61.6946 34.4542 58.5127 31.2723 58.5127 27.3472C58.5127 23.4221 61.6946 20.2402 65.6197 20.2402C69.5447 20.2402 72.7266 23.4221 72.7266 27.3472Z" fill="#F4A7A3"/>
<path fill-rule="evenodd" clip-rule="evenodd" d="M65.6197 32.3516C68.3835 32.3516 70.6241 30.111 70.6241 27.3472C70.6241 24.5833 68.3835 22.3428 65.6197 22.3428C62.8558 22.3428 60.6153 24.5833 60.6153 27.3472C60.6153 30.111 62.8558 32.3516 65.6197 32.3516ZM65.6197 34.4542C69.5447 34.4542 72.7266 31.2723 72.7266 27.3472C72.7266 23.4221 69.5447 20.2402 65.6197 20.2402C61.6946 20.2402 58.5127 23.4221 58.5127 27.3472C58.5127 31.2723 61.6946 34.4542 65.6197 34.4542Z" fill="#50265C"/>
</svg>
