<svg width="93" height="92" viewBox="0 0 93 92" fill="none" xmlns="http://www.w3.org/2000/svg">
<path d="M58.3278 28.9534C58.3278 35.7568 52.8125 41.2721 46.0091 41.2721C39.2057 41.2721 33.6904 35.7568 33.6904 28.9534C33.6904 22.15 39.2057 16.6348 46.0091 16.6348C52.8125 16.6348 58.3278 22.15 58.3278 28.9534Z" fill="#F4A7A3"/>
<path fill-rule="evenodd" clip-rule="evenodd" d="M17.0174 27.2814C16.3693 30.4532 14.8738 37.9316 14.0465 42.6196C13.2971 46.8666 15.2487 48.9131 15.9617 49.3326C16.0406 49.379 16.114 49.4342 16.1805 49.4971L23.9419 56.8427C24.184 57.0718 24.3211 57.3904 24.3211 57.7237V60.8765H37.1159C37.1056 59.8977 37.1063 58.4632 37.1409 56.6609C37.1877 54.2265 35.8695 52.0247 35.1926 51.222L24.1091 41.0063C23.5864 41.0498 23.231 41.1669 22.9922 41.296C22.5359 41.5429 22.3137 41.9445 22.2542 42.5252C22.1996 43.0584 22.3013 43.6562 22.463 44.1487L31.0449 52.6016C31.5222 53.0717 31.5281 53.8398 31.0579 54.3171C30.5878 54.7943 29.8198 54.8002 29.3425 54.33L20.5646 45.684C20.4435 45.5648 20.3488 45.4214 20.2867 45.2631C19.9821 44.4873 19.7274 43.3852 19.8408 42.2779C19.9372 41.3364 20.3149 40.3292 21.1946 39.596C21.1731 37.524 21.1525 33.4511 21.2022 29.5734C21.2283 27.5337 20.8798 26.4234 20.5613 25.8693C20.35 25.5016 20.1814 25.413 20.1415 25.3955C20.0668 25.3921 19.9926 25.3817 19.9197 25.3646C18.91 25.127 18.2939 25.4112 17.875 25.7927C17.4012 26.224 17.1174 26.8502 17.0174 27.2814ZM23.612 38.6197C23.9138 38.5813 24.231 38.5622 24.5633 38.5622C24.868 38.5622 25.1615 38.6768 25.3855 38.8833L36.889 49.4862C36.9214 49.5161 36.9522 49.5477 36.9812 49.581C37.8886 50.6218 39.6296 53.4254 39.5665 56.7076C39.5114 59.5762 39.5439 61.4733 39.5659 62.0429C39.5785 62.3725 39.4565 62.693 39.2278 62.9306C38.9991 63.1683 38.6835 63.3026 38.3537 63.3026H23.1081C22.4382 63.3026 21.8951 62.7595 21.8951 62.0895V58.2459L14.6034 51.3448C12.9699 50.297 10.7672 47.2422 11.6574 42.198C12.492 37.4684 13.9963 29.9472 14.6433 26.7817C14.645 26.7734 14.6468 26.765 14.6487 26.7567C14.8282 25.9642 15.3128 24.8444 16.2417 23.9987C17.2084 23.1186 18.597 22.5979 20.3596 22.9769C21.2451 23.0443 22.0899 23.6604 22.6647 24.6603C23.2782 25.7278 23.6573 27.3201 23.628 29.6045C23.5854 32.932 23.5949 36.4078 23.612 38.6197Z" fill="#50265C"/>
<path fill-rule="evenodd" clip-rule="evenodd" d="M40.6772 63.2513H21.4046V69.3985H40.6772V63.2513ZM21.4046 60.8252C20.0647 60.8252 18.9785 61.9114 18.9785 63.2513V69.3985C18.9785 70.7384 20.0647 71.8246 21.4046 71.8246H40.6772C42.0171 71.8246 43.1033 70.7384 43.1033 69.3985V63.2513C43.1033 61.9114 42.0171 60.8252 40.6772 60.8252H21.4046Z" fill="#50265C"/>
<path fill-rule="evenodd" clip-rule="evenodd" d="M73.7829 27.2834C74.431 30.4551 75.9265 37.9336 76.7538 42.6216C77.5032 46.8686 75.5516 48.9151 74.8386 49.3345C74.7597 49.3809 74.6863 49.4361 74.6198 49.4991L66.8584 56.8447C66.6163 57.0738 66.4792 57.3924 66.4792 57.7257V60.8784H53.6844C53.6947 59.8996 53.694 58.4651 53.6594 56.6629C53.6126 54.2285 54.9308 52.0266 55.6077 51.2239L66.6912 41.0082C67.2138 41.0518 67.5693 41.1688 67.8081 41.298C68.2644 41.5448 68.4866 41.9465 68.5461 42.5271C68.6007 43.0603 68.499 43.6581 68.3373 44.1506L59.7553 52.6036C59.2781 53.0737 59.2722 53.8417 59.7424 54.319C60.2125 54.7963 60.9805 54.8021 61.4578 54.332L70.2357 45.686C70.3568 45.5667 70.4515 45.4233 70.5136 45.2651C70.8182 44.4893 71.0729 43.3871 70.9595 42.2799C70.8631 41.3383 70.4854 40.3312 69.6057 39.5979C69.6272 37.526 69.6478 33.4531 69.5981 29.5754C69.572 27.5356 69.9205 26.4254 70.239 25.8713C70.4503 25.5036 70.6189 25.4149 70.6588 25.3975C70.7335 25.394 70.8077 25.3837 70.8806 25.3665C71.8903 25.129 72.5064 25.4132 72.9253 25.7946C73.3991 26.2259 73.6829 26.8521 73.7829 27.2834ZM67.1883 38.6216C66.8865 38.5832 66.5693 38.5642 66.2369 38.5642C65.9323 38.5642 65.6388 38.6788 65.4148 38.8853L53.9113 49.4881C53.8789 49.518 53.8481 49.5497 53.8191 49.583C52.9117 50.6237 51.1706 53.4273 51.2338 56.7095C51.2889 59.5782 51.2563 61.4752 51.2344 62.0449C51.2218 62.3744 51.3438 62.6949 51.5725 62.9326C51.8012 63.1702 52.1168 63.3045 52.4466 63.3045H67.6922C68.3621 63.3045 68.9052 62.7614 68.9052 62.0915V58.2478L76.1969 51.3467C77.8304 50.2989 80.0331 47.2442 79.1429 42.2C78.3083 37.4703 76.8039 29.9492 76.157 26.7837C76.1553 26.7753 76.1535 26.767 76.1516 26.7587C75.9721 25.9661 75.4875 24.8463 74.5586 24.0006C73.5918 23.1206 72.2033 22.5998 70.4407 22.9789C69.5552 23.0462 68.7104 23.6623 68.1356 24.6623C67.5221 25.7297 67.143 27.3221 67.1723 29.6065C67.2149 32.9339 67.2054 36.4098 67.1883 38.6216Z" fill="#50265C"/>
<path fill-rule="evenodd" clip-rule="evenodd" d="M50.498 63.2532H69.7707V69.4005H50.498V63.2532ZM69.7707 60.8271C71.1106 60.8271 72.1968 61.9133 72.1968 63.2532V69.4005C72.1968 70.7404 71.1106 71.8266 69.7707 71.8266H50.498C49.1582 71.8266 48.072 70.7404 48.072 69.4005V63.2532C48.072 61.9133 49.1582 60.8271 50.498 60.8271H69.7707Z" fill="#50265C"/>
<path fill-rule="evenodd" clip-rule="evenodd" d="M46.009 40.6505C52.4705 40.6505 57.7086 35.4124 57.7086 28.9509C57.7086 22.4894 52.4705 17.2513 46.009 17.2513C39.5475 17.2513 34.3094 22.4894 34.3094 28.9509C34.3094 35.4124 39.5475 40.6505 46.009 40.6505ZM46.009 43.0765C53.8104 43.0765 60.1346 36.7523 60.1346 28.9509C60.1346 21.1495 53.8104 14.8252 46.009 14.8252C38.2076 14.8252 31.8833 21.1495 31.8833 28.9509C31.8833 36.7523 38.2076 43.0765 46.009 43.0765Z" fill="#50265C"/>
<path fill-rule="evenodd" clip-rule="evenodd" d="M40.8496 23.192C40.8496 22.6205 41.3129 22.1572 41.8844 22.1572H50.1336C50.7051 22.1572 51.1684 22.6205 51.1684 23.192C51.1684 23.7635 50.7051 24.2268 50.1336 24.2268H41.8844C41.3129 24.2268 40.8496 23.7635 40.8496 23.192Z" fill="#50265C"/>
<path fill-rule="evenodd" clip-rule="evenodd" d="M40.8496 26.0787C40.8496 25.5072 41.3129 25.0439 41.8844 25.0439H50.1336C50.7051 25.0439 51.1684 25.5072 51.1684 26.0787C51.1684 26.6502 50.7051 27.1135 50.1336 27.1135H41.8844C41.3129 27.1135 40.8496 26.6502 40.8496 26.0787Z" fill="#50265C"/>
<path fill-rule="evenodd" clip-rule="evenodd" d="M44.0454 23.2367C44.2199 22.6925 44.8025 22.3928 45.3467 22.5673C46.6593 22.9881 47.629 24.3667 47.8414 25.7448C47.9536 26.4729 47.8705 27.2727 47.4677 28.0108C47.0612 28.7554 46.375 29.3534 45.4284 29.7474C45.3024 29.7999 45.1672 29.8269 45.0307 29.8269H44.2011L47.965 34.0273C48.3464 34.4529 48.3105 35.1071 47.8849 35.4885C47.4593 35.8699 46.805 35.834 46.4237 35.4084L41.1138 29.4827C40.8413 29.1786 40.7731 28.7428 40.9396 28.3701C41.1061 27.9973 41.4762 27.7573 41.8844 27.7573H44.8092C45.2728 27.5307 45.5191 27.2611 45.6511 27.0192C45.8025 26.7418 45.8506 26.4144 45.796 26.0601C45.6747 25.2736 45.1188 24.6676 44.7148 24.538C44.1706 24.3635 43.8709 23.7809 44.0454 23.2367Z" fill="#50265C"/>
</svg>
