<svg width="100" height="100" viewBox="0 0 100 100" fill="none" xmlns="http://www.w3.org/2000/svg">
<path fill-rule="evenodd" clip-rule="evenodd" d="M53.9977 26.5584H47.6561C44.9183 26.5584 42.699 28.7777 42.699 31.5154V35.5306H58.9547V31.5154C58.9547 28.7777 56.7354 26.5584 53.9977 26.5584ZM47.6561 24.6113C43.843 24.6113 40.752 27.7024 40.752 31.5154V37.4777H60.9018V31.5154C60.9018 27.7024 57.8107 24.6113 53.9977 24.6113H47.6561Z" fill="#50265C"/>
<path fill-rule="evenodd" clip-rule="evenodd" d="M50.8253 23.7826C52.4364 23.7826 53.7425 22.4765 53.7425 20.8653C53.7425 19.2541 52.4364 17.948 50.8253 17.948C49.2141 17.948 47.908 19.2541 47.908 20.8653C47.908 22.4765 49.2141 23.7826 50.8253 23.7826ZM50.8253 25.7296C53.5118 25.7296 55.6896 23.5518 55.6896 20.8653C55.6896 18.1788 53.5118 16.001 50.8253 16.001C48.1388 16.001 45.9609 18.1788 45.9609 20.8653C45.9609 23.5518 48.1388 25.7296 50.8253 25.7296Z" fill="#50265C"/>
<path fill-rule="evenodd" clip-rule="evenodd" d="M80.2477 65.5584H73.9061C71.1683 65.5584 68.949 67.7777 68.949 70.5154V74.5306H85.2047V70.5154C85.2047 67.7777 82.9854 65.5584 80.2477 65.5584ZM73.9061 63.6113C70.093 63.6113 67.002 66.7024 67.002 70.5154V76.4777H87.1518V70.5154C87.1518 66.7024 84.0607 63.6113 80.2477 63.6113H73.9061Z" fill="#50265C"/>
<path fill-rule="evenodd" clip-rule="evenodd" d="M77.0753 62.7826C78.6864 62.7826 79.9925 61.4765 79.9925 59.8653C79.9925 58.2541 78.6864 56.948 77.0753 56.948C75.4641 56.948 74.158 58.2541 74.158 59.8653C74.158 61.4765 75.4641 62.7826 77.0753 62.7826ZM77.0753 64.7296C79.7618 64.7296 81.9396 62.5518 81.9396 59.8653C81.9396 57.1788 79.7618 55.001 77.0753 55.001C74.3888 55.001 72.2109 57.1788 72.2109 59.8653C72.2109 62.5518 74.3888 64.7296 77.0753 64.7296Z" fill="#50265C"/>
<path fill-rule="evenodd" clip-rule="evenodd" d="M26.9996 65.5584H20.658C17.9203 65.5584 15.7009 67.7777 15.7009 70.5154V74.5306H31.9567V70.5154C31.9567 67.7777 29.7373 65.5584 26.9996 65.5584ZM20.658 63.6113C16.845 63.6113 13.7539 66.7024 13.7539 70.5154V76.4777H33.9037V70.5154C33.9037 66.7024 30.8127 63.6113 26.9996 63.6113H20.658Z" fill="#50265C"/>
<path fill-rule="evenodd" clip-rule="evenodd" d="M23.8272 62.7826C25.4384 62.7826 26.7445 61.4765 26.7445 59.8653C26.7445 58.2541 25.4384 56.948 23.8272 56.948C22.216 56.948 20.9099 58.2541 20.9099 59.8653C20.9099 61.4765 22.216 62.7826 23.8272 62.7826ZM23.8272 64.7296C26.5137 64.7296 28.6915 62.5518 28.6915 59.8653C28.6915 57.1788 26.5137 55.001 23.8272 55.001C21.1407 55.001 18.9629 57.1788 18.9629 59.8653C18.9629 62.5518 21.1407 64.7296 23.8272 64.7296Z" fill="#50265C"/>
<path d="M28.9376 28.9824C28.63 29.1582 28.5714 30.0225 28.8644 30.2422C28.9522 30.3301 29.377 30.4766 29.7726 30.5791C30.1827 30.6816 30.5489 30.7988 30.6075 30.8281C30.6808 30.8574 29.963 31.6191 29.0401 32.5127C26.2276 35.208 24.3673 37.7715 22.7413 41.1699C21.2325 44.3193 20.1778 48.1572 19.9435 51.3213C19.8409 52.7715 19.9874 53.1377 20.6905 53.1377C21.2765 53.1377 21.4522 52.8008 21.5694 51.4971C22.0089 46.3408 23.8839 41.4482 27.0333 37.1709C27.9122 35.999 30.0802 33.6846 31.2081 32.7471L31.9112 32.1465L31.8673 33.2158C31.8233 34.1094 31.8673 34.2998 32.1017 34.4756C32.4679 34.7393 32.7901 34.7393 33.1417 34.4756C33.3761 34.2998 33.42 34.0215 33.4786 32.249C33.5372 30.4033 33.5226 30.1982 33.2735 29.9785C33.0245 29.7588 29.8019 28.8213 29.3624 28.8213C29.2599 28.8213 29.0694 28.8945 28.9376 28.9824Z" fill="#50265C"/>
<path d="M64.5906 29.2022C64.0633 29.5684 64.1658 30.1982 64.825 30.667C66.9783 32.249 67.7107 32.8643 68.9558 34.0947C72.1638 37.2734 74.449 40.9648 75.826 45.1689C76.3972 46.9121 76.9539 49.2852 76.8221 49.417C76.7781 49.4609 76.4119 49.2852 76.0017 49.0361C75.1375 48.4941 74.6101 48.5234 74.3465 49.1094C74.2293 49.3877 74.2293 49.5342 74.4197 49.8125C74.6834 50.2227 77.5691 51.9658 77.9793 51.9658C78.3455 51.9658 81.114 49.1973 81.114 48.8457C81.114 47.8057 80.2351 47.7324 79.239 48.6553L78.5359 49.3145L78.2722 47.9668C77.6424 44.8027 75.9431 40.5986 74.2293 37.9766C72.076 34.6953 69.615 32.1025 66.5828 29.9053C65.3084 28.9971 65.0154 28.8945 64.5906 29.2022Z" fill="#50265C"/>
<path d="M38.4876 78.4793C37.638 78.9627 36.8616 79.4754 36.7591 79.6365C36.5979 79.8855 36.6272 80.1785 37.0374 81.7312C37.3011 82.7273 37.6087 83.6502 37.7259 83.7967C38.0188 84.1189 38.7513 84.075 38.9856 83.7234C39.1321 83.4891 38.9856 82.3611 38.7073 81.6727C38.6341 81.4822 38.9417 81.5408 40.3772 82.0096C42.6624 82.7273 44.6985 83.1229 47.3352 83.3279C51.8763 83.6941 57.135 82.7713 61.3538 80.8816C62.8479 80.2225 63.097 80.0174 63.097 79.5047C63.097 78.5965 62.4378 78.5525 60.7239 79.3436C56.6809 81.2186 51.6565 82.1121 47.3206 81.7312C44.9768 81.5262 42.97 81.1307 40.9925 80.5008C40.2161 80.2664 39.5276 80.0174 39.4544 79.9881C39.3958 79.9441 39.6888 79.7098 40.1136 79.49C40.5384 79.2557 40.9485 78.9773 41.0071 78.8748C41.344 78.3475 40.9485 77.5857 40.3479 77.615C40.1722 77.615 39.3372 78.0105 38.4876 78.4793Z" fill="#50265C"/>
<path fill-rule="evenodd" clip-rule="evenodd" d="M40.3984 64.9309C40.3984 64.2566 40.9451 63.71 41.6194 63.71H59.5271C60.2014 63.71 60.748 64.2566 60.748 64.9309C60.748 65.6053 60.2014 66.1519 59.5271 66.1519H41.6194C40.9451 66.1519 40.3984 65.6053 40.3984 64.9309Z" fill="#50265C"/>
<path fill-rule="evenodd" clip-rule="evenodd" d="M40.3984 69.9622C40.3984 69.2879 40.9451 68.7412 41.6194 68.7412H52.2012C52.8755 68.7412 53.4222 69.2879 53.4222 69.9622C53.4222 70.6365 52.8755 71.1832 52.2012 71.1832H41.6194C40.9451 71.1832 40.3984 70.6365 40.3984 69.9622Z" fill="#50265C"/>
<path d="M60.6675 51.8338C60.6675 57.9557 55.7047 62.9185 49.5828 62.9185C43.4609 62.9185 38.498 57.9557 38.498 51.8338C38.498 45.7118 43.4609 40.749 49.5828 40.749C55.7047 40.749 60.6675 45.7118 60.6675 51.8338Z" fill="#F4A7A3"/>
<path d="M60.9998 51.8406C60.9998 50.384 60.7129 48.9417 60.1555 47.596C59.5981 46.2503 58.7811 45.0276 57.7511 43.9977C56.7212 42.9677 55.4984 42.1507 54.1528 41.5933C52.8071 41.0359 51.3648 40.749 49.9082 40.749L49.9082 51.8406H60.9998Z" fill="#50265C"/>
</svg>
