<svg width="101" height="100" viewBox="0 0 101 100" fill="none" xmlns="http://www.w3.org/2000/svg">
<path d="M46.822 11.9375C43.3376 12.6094 40.6501 13.9688 38.1657 16.3594C36.5407 17.8906 35.5407 19.2344 34.6345 21.0625L33.9001 22.5156L33.5564 22.1875C32.8532 21.5312 31.6032 22.0156 31.6032 22.9531C31.6032 23.1719 31.9157 23.8906 32.2907 24.5469L32.9782 25.75L32.9001 27.8281C32.8532 29.0156 32.8845 30.4062 32.9939 31.0312C33.5876 34.875 35.3532 38.2969 38.1032 40.9375C39.8689 42.6406 40.5407 42.8906 41.3376 42.2188C41.6189 41.9688 41.697 41.2344 41.4626 40.7969C41.3845 40.6562 40.9157 40.2188 40.4314 39.8438C38.4782 38.2969 36.5407 35.2969 35.7439 32.5625C35.3064 31.0625 35.072 28.4375 35.2595 27.1406C35.3689 26.4375 35.4001 26.3906 36.4939 25.7656C37.8532 24.9844 38.0095 24.7969 38.0095 24.0312C38.0095 23.3281 37.4939 22.8906 36.7751 23L36.3064 23.0625L36.5407 22.5156C37.2282 20.8594 38.9939 18.6406 40.697 17.2812C43.322 15.1875 46.4939 14.0625 49.8064 14.0625C55.4001 14.0625 60.322 17.1406 62.9001 22.2656L63.447 23.3594L62.7595 24.5312C61.947 25.9219 61.8845 26.5469 62.4782 27.0156C62.9782 27.4062 63.4314 27.4375 63.9001 27.1094C64.2282 26.875 64.2595 26.8906 64.3532 27.2812C64.5407 28 64.2907 30.9688 63.9626 32.2656C63.5564 33.7812 62.6032 35.8281 61.697 37.0938C60.9001 38.2031 59.0407 40.0312 57.9626 40.7656C56.8845 41.5 54.7751 42.4531 53.3689 42.8594C52.1814 43.1875 51.8689 43.1875 40.6189 43.2812L29.072 43.3594L28.7751 43.7344C28.3689 44.2344 28.4001 44.7812 28.8689 45.25L29.2595 45.6406L40.8689 45.5938L52.4626 45.5312L54.0251 45.1094C55.9001 44.6094 58.6345 43.2812 60.0564 42.2031C63.0095 39.9531 65.2595 36.5781 66.2439 32.8906C66.6189 31.5 66.6657 31.0312 66.6657 28.6406C66.6814 26.125 66.697 25.9844 66.9626 26.125C67.6189 26.4688 68.4782 25.8281 68.4782 25C68.4782 24.3281 68.3532 24.2031 66.8532 23.3438C65.8376 22.7656 65.7595 22.6719 65.1814 21.4844C64.2439 19.5312 63.3845 18.3281 61.7751 16.7031C59.447 14.375 57.0564 13 53.947 12.1875C52.2595 11.75 48.5095 11.6094 46.822 11.9375Z" fill="#50265C"/>
<path d="M47.5254 18.1094C47.2754 18.3594 47.0723 18.7031 47.0723 18.875C47.0723 19.5156 46.7285 20.125 46.2754 20.3281C45.8535 20.4844 45.7441 20.4688 45.3379 20.1719C44.1035 19.2656 43.291 19.4375 41.8691 20.9219C40.8379 21.9844 40.7285 22.2344 40.8223 23.2031C40.8379 23.375 41.0254 23.7812 41.2441 24.0938C41.6035 24.625 41.6191 24.7344 41.4473 25.1562C41.3066 25.5156 41.1035 25.6562 40.6035 25.7969C40.2598 25.875 39.8379 25.9844 39.6973 26.0312C39.541 26.0781 39.2754 26.2969 39.1035 26.5156C38.8379 26.8594 38.791 27.1406 38.791 28.5469C38.791 30.7969 39.0254 31.1719 40.6191 31.4844C41.1348 31.5938 41.6035 32.0625 41.6035 32.4844C41.6035 32.6094 41.416 32.9844 41.1973 33.3125C40.7598 33.9375 40.666 34.875 40.9629 35.4375C41.041 35.5938 41.5879 36.1562 42.1504 36.6875C43.1191 37.5938 43.2285 37.6562 43.916 37.6562C44.4785 37.6562 44.8066 37.5469 45.1973 37.2656C45.4941 37.0469 45.8379 36.875 45.9785 36.875C46.4629 36.875 46.8848 37.3281 46.9941 38C47.2441 39.4062 47.7129 39.6875 49.9004 39.6875C51.4785 39.6875 51.4785 39.6875 51.9785 39.1719C52.3223 38.8438 52.5254 38.4531 52.5879 38.0156C52.6973 37.3594 53.1348 36.875 53.6348 36.875C53.7754 36.875 54.1191 37.0469 54.416 37.2656C54.8066 37.5625 55.1348 37.6562 55.7129 37.6562C56.4629 37.6562 56.5098 37.625 57.6348 36.5C58.7598 35.375 58.791 35.3281 58.791 34.5781C58.791 34 58.6973 33.6719 58.4004 33.2812C58.1816 32.9844 58.0098 32.6406 58.0098 32.5C58.0098 32 58.4941 31.5625 59.1504 31.4531C59.5879 31.3906 59.9785 31.1875 60.3223 30.8438C60.8223 30.3438 60.8223 30.3438 60.8223 28.7188C60.8223 26.7188 60.5879 26.2031 59.541 25.9375C58.4629 25.6719 58.1816 25.5 58.0723 25.0781C57.9941 24.7812 58.0879 24.5156 58.3848 24.0938C58.6816 23.6562 58.791 23.2969 58.791 22.75C58.791 22.0312 58.7441 21.9531 57.7441 20.9219C57.0879 20.2344 56.5098 19.7969 56.1816 19.7031C55.5879 19.5312 54.8379 19.7031 54.3848 20.0938C54.0254 20.4219 53.2285 20.4375 52.916 20.125C52.7754 20 52.6348 19.5938 52.5879 19.2344C52.5254 18.7969 52.3379 18.4219 52.041 18.1094C51.5879 17.6562 51.5566 17.6562 49.7754 17.6562C48.0098 17.6562 47.9785 17.6562 47.5254 18.1094ZM50.5879 20.4062C50.7285 21.2031 51.791 22.2188 52.7441 22.4844C53.5879 22.7188 54.5566 22.625 55.2285 22.2188C55.6504 21.9688 55.6816 21.9688 56.0566 22.3594L56.4629 22.75L56.1191 23.5156C55.3223 25.3125 56.3691 27.5312 58.2129 27.9219C58.6191 28 58.6504 28.0625 58.6035 28.625C58.5566 29.1875 58.5098 29.2656 57.9473 29.4531C56.2285 30.0469 55.3535 32.1562 56.1191 33.8594L56.416 34.5L56.0098 34.8906L55.5879 35.2656L54.9629 34.9844C53.291 34.2188 51.2129 35.0781 50.6191 36.7969C50.416 37.375 50.3535 37.4219 49.7754 37.4688C49.166 37.5156 49.1348 37.5 49.041 36.9531C48.9785 36.6562 48.7129 36.1406 48.4316 35.8281C47.4629 34.7188 45.9316 34.3906 44.5879 35.0156L43.8848 35.3281L43.4941 34.9219C43.1035 34.5469 43.1035 34.5312 43.3691 34.0781C43.7441 33.4375 43.8535 32.3906 43.6348 31.5781C43.416 30.7188 42.4941 29.7344 41.6816 29.4688C41.1035 29.2656 41.0566 29.2031 41.0098 28.625C40.9629 28.0625 40.9941 28 41.4004 27.9219C43.2285 27.5312 44.291 25.3125 43.4941 23.5156L43.1504 22.75L43.5566 22.3594C43.9316 21.9688 43.9473 21.9688 44.4004 22.2344C45.4473 22.8438 46.9004 22.7188 47.9785 21.9219C48.4785 21.5469 49.1035 20.5312 49.1035 20.0781C49.1035 19.9062 49.2754 19.8438 49.791 19.8438C50.4473 19.8438 50.4785 19.8594 50.5879 20.4062Z" fill="#50265C"/>
<path d="M48.6512 22.9844C47.5887 23.1875 46.6044 23.75 45.745 24.6094C43.8856 26.4531 43.5106 29.0781 44.7606 31.4531C45.3231 32.5 46.1044 33.25 47.2606 33.8594C48.0106 34.25 48.245 34.2969 49.7294 34.2969C51.1825 34.2969 51.4794 34.25 52.2606 33.875C53.3856 33.3437 54.495 32.25 54.995 31.1562C56.5887 27.6562 54.5731 23.6875 50.8387 22.9687C49.8856 22.7969 49.62 22.7969 48.6512 22.9844ZM51.8075 25.7344C52.6981 26.3594 53.3231 27.5312 53.3231 28.5937C53.3075 32.2187 48.6669 33.5469 46.7919 30.4687C46.3075 29.6719 46.2762 29.5312 46.3231 28.5C46.37 27.6094 46.4637 27.2656 46.8075 26.75C47.9012 25.0781 50.1981 24.6094 51.8075 25.7344Z" fill="#50265C"/>
<path d="M66.6973 41.1091C66.1816 41.5153 66.1504 42.281 66.6191 42.8747L66.9316 43.281H63.4004H59.8691L59.4941 43.6716C59.2754 43.8747 59.1035 44.2341 59.1035 44.4528C59.1035 44.6716 59.2754 45.031 59.4941 45.2341L59.8691 45.6247H63.4004H66.9316L66.6191 46.031C66.1504 46.6247 66.1816 47.3903 66.6973 47.7966C67.4629 48.3903 67.7754 48.2497 69.4785 46.5778C70.9004 45.1716 71.041 44.9685 71.041 44.4528C71.041 43.9372 70.9004 43.7341 69.4785 42.3278C67.7754 40.656 67.4629 40.5153 66.6973 41.1091Z" fill="#50265C"/>
<path d="M49.041 46.7344L48.6348 47.0469V51.5001V55.9376H34.0723C26.0566 55.9376 19.416 56.0001 19.3223 56.0626C18.8379 56.3751 18.791 56.9063 18.791 61.8438C18.791 66.6563 18.8066 66.8438 19.1191 67.2501C19.5254 67.7657 20.3535 67.8126 20.8223 67.3438C21.1191 67.0469 21.1348 66.8282 21.1348 62.6563V58.2813H34.8848H48.6348V62.6563C48.6348 66.8282 48.6504 67.0469 48.9473 67.3438C49.3848 67.7813 50.2129 67.7501 50.6348 67.2969C50.9785 66.9376 50.9785 66.8282 50.9785 62.6094V58.2813H64.7285H78.4785V62.6563C78.4785 66.8282 78.4941 67.0469 78.791 67.3438C79.2598 67.8126 80.0879 67.7657 80.4941 67.2501C80.8066 66.8438 80.8223 66.6563 80.8223 61.7969C80.8223 56.9376 80.8066 56.7501 80.4941 56.3438L80.1816 55.9376H65.5723H50.9785V51.5626V47.1719L50.5879 46.7969C50.1191 46.3282 49.5879 46.2969 49.041 46.7344Z" fill="#50265C"/>
<path d="M12.7754 68.7344C12.0566 69.0625 11.541 69.5781 11.3066 70.2031C11.0723 70.8125 11.0723 86.6875 11.3066 87.2969C11.541 87.9219 12.0566 88.4375 12.7754 88.7656C13.3535 89.0312 13.916 89.0625 19.8848 89.0625C23.666 89.0625 26.5879 89 26.9004 88.9062C27.5098 88.7344 28.2441 88.1094 28.5723 87.4688C28.9004 86.8438 28.9004 70.6562 28.5723 70.0312C28.2441 69.3906 27.5098 68.7656 26.9004 68.5938C26.5879 68.5 23.666 68.4375 19.8848 68.4375C13.916 68.4375 13.3535 68.4688 12.7754 68.7344ZM26.3066 70.7812C26.5879 70.9375 26.6035 71.2031 26.6035 78.75C26.6035 86.2969 26.5879 86.5625 26.3066 86.7188C25.8848 86.9375 14.041 86.9375 13.6191 86.7188C13.3379 86.5625 13.3223 86.2969 13.3223 78.75C13.3223 71.4844 13.3379 70.9375 13.6035 70.7969C13.9785 70.5781 25.8848 70.5625 26.3066 70.7812Z" fill="#50265C"/>
<path d="M15.5098 74.0625C15.1035 74.4688 15.1035 75.0625 15.5098 75.4688C15.8066 75.7656 16.0254 75.7812 20.0098 75.7812C23.8848 75.7812 24.2285 75.7656 24.4629 75.5C24.8535 75.0781 24.8066 74.2812 24.3848 74C24.0879 73.7812 23.3848 73.75 19.9316 73.75C16.0254 73.75 15.8066 73.7656 15.5098 74.0625Z" fill="#50265C"/>
<path d="M15.6035 77.9844C15.3379 78.1875 15.1973 78.4531 15.1973 78.75C15.1973 79.0469 15.3379 79.3125 15.6035 79.5156C15.9941 79.8281 16.2129 79.8438 19.9004 79.8438C22.5254 79.8438 23.9004 79.7812 24.1816 79.6562C24.6191 79.4531 24.8066 78.9531 24.666 78.3906C24.5098 77.7344 24.0254 77.6562 19.9004 77.6562C16.2129 77.6562 15.9941 77.6719 15.6035 77.9844Z" fill="#50265C"/>
<path d="M15.5098 82.0312C15.1035 82.4375 15.1035 83.0312 15.5098 83.4375C15.8066 83.7344 16.0254 83.75 19.9316 83.75C24.541 83.75 24.7285 83.7031 24.7285 82.75C24.7285 81.7344 24.6348 81.7188 19.9941 81.7188C16.0254 81.7188 15.8066 81.7344 15.5098 82.0312Z" fill="#50265C"/>
<path d="M42.7754 68.625C42.1504 68.8438 41.4629 69.5 41.1973 70.1094C41.0254 70.5156 40.9785 72.1875 40.9785 78.75C40.9785 87.5938 40.9629 87.4844 41.8535 88.2969C42.666 89.0312 42.9473 89.0625 49.8692 89.0625C55.8535 89.0625 56.416 89.0312 56.9942 88.7656C57.7129 88.4375 58.2285 87.9219 58.4629 87.2969C58.5723 87 58.6348 84.1094 58.6348 78.75C58.6348 73.3906 58.5723 70.5 58.4629 70.2031C58.2285 69.5781 57.7129 69.0625 56.9942 68.7344C56.416 68.4688 55.8692 68.4375 49.8067 68.4531C45.666 68.4531 43.0723 68.5156 42.7754 68.625ZM56.1504 70.7812C56.4317 70.9375 56.4473 71.2031 56.4473 78.75C56.4473 86.2969 56.4317 86.5625 56.1504 86.7188C55.7285 86.9375 43.8848 86.9375 43.4629 86.7188C43.1817 86.5625 43.166 86.2969 43.166 78.75C43.166 71.4844 43.1817 70.9375 43.4473 70.7969C43.8223 70.5781 55.7285 70.5625 56.1504 70.7812Z" fill="#50265C"/>
<path d="M45.3535 74.0625C45.1816 74.2344 45.041 74.5469 45.041 74.7656C45.041 74.9844 45.1816 75.2969 45.3535 75.4688C45.6504 75.7656 45.8691 75.7812 49.8066 75.7812C53.7441 75.7812 53.9629 75.7656 54.2598 75.4688C54.4316 75.2969 54.5723 74.9844 54.5723 74.7656C54.5723 74.5469 54.4316 74.2344 54.2598 74.0625C53.9629 73.7656 53.7441 73.75 49.8066 73.75C45.8691 73.75 45.6504 73.7656 45.3535 74.0625Z" fill="#50265C"/>
<path d="M45.4473 77.9844C45.1816 78.1875 45.041 78.4531 45.041 78.75C45.041 79.0469 45.1816 79.3125 45.4473 79.5156C45.8379 79.8281 46.0566 79.8438 49.8066 79.8438C53.5566 79.8438 53.7754 79.8281 54.166 79.5156C54.4316 79.3125 54.5723 79.0469 54.5723 78.75C54.5723 78.4531 54.4316 78.1875 54.166 77.9844C53.7754 77.6719 53.5566 77.6562 49.8066 77.6562C46.0566 77.6562 45.8379 77.6719 45.4473 77.9844Z" fill="#50265C"/>
<path d="M45.3535 82.0312C45.1816 82.2031 45.041 82.5156 45.041 82.7344C45.041 82.9531 45.1816 83.2656 45.3535 83.4375C45.6504 83.7344 45.8691 83.75 49.8066 83.75C53.7441 83.75 53.9629 83.7344 54.2598 83.4375C54.4316 83.2656 54.5723 82.9531 54.5723 82.7344C54.5723 82.5156 54.4316 82.2031 54.2598 82.0312C53.9629 81.7344 53.7441 81.7188 49.8066 81.7188C45.8691 81.7188 45.6504 81.7344 45.3535 82.0312Z" fill="#50265C"/>
<path d="M72.6816 68.5937C72.0098 68.7968 71.5254 69.1874 71.166 69.828C70.8223 70.4218 70.8223 70.4843 70.8223 78.7499C70.8223 87.0468 70.8223 87.0624 71.166 87.6874C71.3535 88.0155 71.7598 88.453 72.0723 88.6405C72.6191 88.9843 72.6816 88.9843 79.5723 88.9843C87.3379 88.9843 87.0879 89.0155 87.9629 87.8593L88.4004 87.2968V78.7499V70.203L87.9473 69.6249C87.0566 68.4374 87.041 68.4374 79.6504 68.453C76.041 68.453 72.9004 68.5155 72.6816 68.5937ZM86.041 70.8749C86.2598 71.0937 86.291 72.0155 86.291 78.7499C86.291 85.4843 86.2598 86.4062 86.041 86.6249C85.8379 86.8437 85.041 86.8749 79.7129 86.8749C75.8066 86.8749 73.5098 86.8124 73.3066 86.7187C73.0254 86.5624 73.0098 86.2968 73.0098 78.7499C73.0098 71.4843 73.0254 70.9374 73.291 70.7968C73.4629 70.6874 75.8066 70.6249 79.6816 70.6249C85.041 70.6249 85.8379 70.6562 86.041 70.8749Z" fill="#50265C"/>
<path d="M75.1505 74.0312C74.8068 74.4219 74.8224 75.2031 75.1661 75.5156C75.4161 75.75 75.963 75.7812 79.6193 75.7812C83.588 75.7812 83.8068 75.7656 84.1036 75.4688C84.2755 75.2969 84.4161 74.9844 84.4161 74.7656C84.4161 74.5469 84.2755 74.2344 84.1036 74.0625C83.8068 73.7656 83.588 73.75 79.6036 73.75C75.7286 73.75 75.3849 73.7656 75.1505 74.0312Z" fill="#50265C"/>
<path d="M75.385 77.8438C74.7132 78.1719 74.7288 79.3438 75.4319 79.6562C75.7132 79.7812 77.0882 79.8438 79.7444 79.8438H83.6507L84.0257 79.4531C84.2444 79.25 84.4163 78.9219 84.4163 78.75C84.4163 78.5781 84.2444 78.25 84.0257 78.0469L83.6507 77.6562L79.6975 77.6719C77.1819 77.6719 75.6194 77.7344 75.385 77.8438Z" fill="#50265C"/>
<path d="M75.1505 82C74.8068 82.3906 74.8224 83.1719 75.1661 83.4844C75.4161 83.7188 75.963 83.75 79.6193 83.75C83.588 83.75 83.8068 83.7344 84.1036 83.4375C84.2755 83.2656 84.4161 82.9531 84.4161 82.7344C84.4161 82.5156 84.2755 82.2031 84.1036 82.0312C83.8068 81.7344 83.588 81.7188 79.6036 81.7188C75.7286 81.7188 75.3849 81.7344 75.1505 82Z" fill="#50265C"/>
<path d="M49.1816 20.5C48.9941 21.2969 47.7598 22.4219 46.791 22.6406C45.9316 22.8594 45.0566 22.7656 44.416 22.4219C44.0723 22.2344 43.9941 22.25 43.6816 22.5312C43.3535 22.8281 43.3535 22.8906 43.5723 23.2969C44.4629 25.0156 43.541 27.3125 41.6973 27.9844C41.2129 28.1562 41.1348 28.25 41.1348 28.6719C41.1348 29.1094 41.1973 29.1875 41.7285 29.3438C42.3848 29.5469 43.2129 30.2812 43.6035 31C43.9473 31.6562 43.9473 33.3594 43.6035 34C43.3535 34.4531 43.3535 34.5 43.666 34.7969L43.9785 35.125L44.6973 34.8125C45.5098 34.4531 46.6973 34.4844 47.4941 34.8906C48.1973 35.2656 48.9316 36.0938 49.1348 36.75C49.291 37.2812 49.3691 37.3438 49.8066 37.3438C50.2285 37.3438 50.3379 37.2656 50.4316 36.9062C50.8535 35.125 53.1816 34.0469 54.916 34.8125L55.6348 35.125L55.9473 34.7969C56.2598 34.5 56.2598 34.4531 56.0098 34C55.8535 33.6875 55.7598 33.1406 55.7441 32.5C55.7441 31.6719 55.8223 31.3594 56.166 30.75C56.6035 30.0156 57.291 29.4844 58.0566 29.2969C58.416 29.2031 58.4785 29.1094 58.4785 28.6719C58.4785 28.2188 58.416 28.1406 57.9941 28.0469C57.291 27.8906 56.041 26.625 55.8379 25.8594C55.5879 24.9531 55.6348 24.2344 55.9629 23.5C56.2598 22.8594 56.2598 22.8438 55.9473 22.5469C55.6504 22.2344 55.6348 22.25 54.7441 22.5625C53.9316 22.8438 53.7598 22.8594 52.9316 22.6719C51.8223 22.4219 50.7598 21.5312 50.4785 20.6094C50.3223 20.0625 50.2441 20 49.791 20C49.3535 20 49.2754 20.0625 49.1816 20.5ZM52.3066 23.2812C53.4004 23.8125 54.5098 24.9062 55.0879 26.0156C55.5566 26.8906 55.5879 27.0625 55.5879 28.5938C55.5879 30.1406 55.5566 30.2969 55.0879 31.2656C54.4785 32.5 53.4941 33.4531 52.2598 34.0312C51.4785 34.4062 51.166 34.4531 49.8066 34.4531C48.4473 34.4531 48.1348 34.4062 47.3535 34.0312C46.166 33.4844 45.1973 32.5469 44.5566 31.375C44.041 30.4219 44.0254 30.3281 44.0254 28.6719C44.0254 26.6406 44.2754 25.9375 45.4473 24.6875C46.8379 23.2031 47.8535 22.7969 50.041 22.8594C51.2285 22.8906 51.6816 22.9688 52.3066 23.2812Z" fill="#F4A7A3"/>
<path d="M13.5566 70.9688C13.5098 71.0781 13.4941 74.6562 13.5098 78.9062L13.5566 86.6406H19.9629H26.3691V78.75V70.8594L19.9941 70.8125C14.9785 70.7812 13.6035 70.8125 13.5566 70.9688ZM24.4941 73.9844C24.9941 74.4688 24.9941 75.0625 24.4941 75.5469L24.1191 75.9375H20.0566C17.8223 75.9375 15.8848 75.8906 15.7441 75.8438C15.6191 75.7812 15.3848 75.5312 15.2598 75.2812C15.0566 74.8906 15.0566 74.7344 15.2129 74.3438C15.3223 74.0938 15.5566 73.8125 15.7285 73.75C15.916 73.6719 17.8691 73.6094 20.0879 73.6094L24.1191 73.5938L24.4941 73.9844ZM24.5566 78.0625C24.9629 78.5938 24.9629 78.9062 24.5566 79.4375L24.2441 79.8438H19.9629H15.6816L15.3691 79.4375C15.1816 79.2031 15.041 78.9062 15.041 78.75C15.041 78.5938 15.1816 78.2969 15.3691 78.0625L15.6816 77.6562H19.9629H24.2441L24.5566 78.0625ZM24.4941 81.9531C24.9941 82.4375 24.9941 83.0312 24.4941 83.5156L24.1191 83.9062H20.1348C17.9473 83.9062 15.9785 83.8438 15.7754 83.7656C15.5723 83.6875 15.3223 83.4062 15.2129 83.1562C15.0566 82.7656 15.0566 82.6094 15.2598 82.2188C15.4004 81.9531 15.5879 81.7188 15.6973 81.6719C15.8066 81.625 17.7441 81.5781 20.0098 81.5781L24.1191 81.5625L24.4941 81.9531Z" fill="white"/>
<path d="M43.4004 70.9688C43.3535 71.0781 43.3379 74.6562 43.3535 78.9062L43.4004 86.6406H49.8066H56.2129V78.75V70.8594L49.8379 70.8125C44.8223 70.7812 43.4473 70.8125 43.4004 70.9688ZM54.2754 73.8906C54.7754 74.2969 54.7754 75.2344 54.2754 75.6406C53.9473 75.9219 53.5879 75.9375 49.7754 75.9375H45.6504L45.2754 75.5469C45.0566 75.3438 44.8848 74.9844 44.8848 74.7656C44.8848 74.5469 45.0566 74.1875 45.2754 73.9844L45.6504 73.5938H49.7754C53.5879 73.5938 53.9473 73.6094 54.2754 73.8906ZM54.4004 78.0625C54.5879 78.2969 54.7285 78.5938 54.7285 78.75C54.7285 78.9062 54.5879 79.2031 54.4004 79.4375L54.0879 79.8438H49.8066H45.5254L45.2129 79.4375C45.0254 79.2031 44.8848 78.9062 44.8848 78.75C44.8848 78.5938 45.0254 78.2969 45.2129 78.0625L45.5254 77.6562H49.8066H54.0879L54.4004 78.0625ZM54.2754 81.8594C54.7754 82.2656 54.7754 83.2031 54.2754 83.6094C53.9473 83.8906 53.5879 83.9062 49.7754 83.9062H45.6504L45.2754 83.5156C45.0566 83.3125 44.8848 82.9531 44.8848 82.7344C44.8848 82.5156 45.0566 82.1562 45.2754 81.9531L45.6504 81.5625H49.7754C53.5879 81.5625 53.9473 81.5781 54.2754 81.8594Z" fill="white"/>
<path d="M73.2441 70.9688C73.1973 71.0781 73.1816 74.6562 73.1973 78.9062L73.2441 86.6406H79.6504H86.0566V78.75V70.8594L79.6816 70.8125C74.666 70.7812 73.291 70.8125 73.2441 70.9688ZM83.8379 73.7656C84.6973 74.1562 84.6973 75.375 83.8535 75.7656C83.5879 75.875 82.1035 75.9375 79.4785 75.9375H75.4941L75.1191 75.5469C74.9004 75.3438 74.7285 74.9844 74.7285 74.7656C74.7285 74.5469 74.9004 74.1875 75.1191 73.9844L75.4941 73.5938H79.4785C82.0723 73.5938 83.6035 73.6562 83.8379 73.7656ZM84.1816 77.9688C84.3379 78.1406 84.4629 78.5 84.4629 78.75C84.4629 79 84.3379 79.3594 84.1816 79.5312C83.916 79.8281 83.7129 79.8438 79.6348 79.8438C75.4473 79.8438 75.3535 79.8438 75.041 79.5C74.8691 79.3125 74.7285 78.9688 74.7285 78.75C74.7285 78.5312 74.8691 78.1875 75.041 78C75.3535 77.6562 75.4473 77.6562 79.6348 77.6562C83.7129 77.6562 83.916 77.6719 84.1816 77.9688ZM83.8379 81.7344C84.6973 82.125 84.6973 83.3438 83.8535 83.7344C83.5879 83.8438 82.1035 83.9062 79.4785 83.9062H75.4941L75.1191 83.5156C74.9004 83.3125 74.7285 82.9531 74.7285 82.7344C74.7285 82.5156 74.9004 82.1562 75.1191 81.9531L75.4941 81.5625H79.4785C82.0723 81.5625 83.6035 81.625 83.8379 81.7344Z" fill="white"/>
</svg>
