<svg width="93" height="92" viewBox="0 0 93 92" fill="none" xmlns="http://www.w3.org/2000/svg">
<path fill-rule="evenodd" clip-rule="evenodd" d="M31.4951 16.1546C31.4951 15.4204 32.0903 14.8252 32.8245 14.8252H74.2159C74.9501 14.8252 75.5453 15.4204 75.5453 16.1546V40.9339C75.5453 41.2896 75.4027 41.6305 75.1495 41.8803C74.8963 42.1301 74.5535 42.268 74.1978 42.2632L32.8064 41.7C32.0793 41.6901 31.4951 41.0979 31.4951 40.3708V32.0174H34.1539V39.0594L72.8865 39.5864V17.4839H34.1539V27.2309H31.4951V16.1546Z" fill="#50265C"/>
<path fill-rule="evenodd" clip-rule="evenodd" d="M43.7637 23.7591C43.7637 23.0249 44.3588 22.4297 45.093 22.4297H53.6342C54.3684 22.4297 54.9635 23.0249 54.9635 23.7591C54.9635 24.4932 54.3684 25.0884 53.6342 25.0884H45.093C44.3588 25.0884 43.7637 24.4932 43.7637 23.7591Z" fill="#F4A7A3"/>
<path fill-rule="evenodd" clip-rule="evenodd" d="M43.7637 28.801C43.7637 28.0669 44.3588 27.4717 45.093 27.4717H69.4466C70.1808 27.4717 70.776 28.0669 70.776 28.801C70.776 29.5352 70.1808 30.1304 69.4466 30.1304H45.093C44.3588 30.1304 43.7637 29.5352 43.7637 28.801Z" fill="#F4A7A3"/>
<path fill-rule="evenodd" clip-rule="evenodd" d="M43.7637 34.1565C43.7637 33.4223 44.3588 32.8271 45.093 32.8271H69.4466C70.1808 32.8271 70.776 33.4223 70.776 34.1565C70.776 34.8907 70.1808 35.4859 69.4466 35.4859H45.093C44.3588 35.4859 43.7637 34.8907 43.7637 34.1565Z" fill="#F4A7A3"/>
<path fill-rule="evenodd" clip-rule="evenodd" d="M17.2247 34.1706V40.3984H21.2318V34.3659C19.6574 32.2333 18.788 32.3848 18.5743 32.4562C18.3549 32.5296 18.0835 32.726 17.801 33.1026C17.5651 33.4172 17.3681 33.7971 17.2247 34.1706ZM23.8905 40.3984V33.9392C23.8905 33.6678 23.8074 33.4029 23.6525 33.1801C21.7851 30.4954 19.7609 29.2563 17.7315 29.9346C16.8242 30.2379 16.148 30.8753 15.674 31.5074C15.1943 32.1472 14.8521 32.8718 14.6355 33.5147C14.5894 33.6515 14.5659 33.7949 14.5659 33.9392V41.7278C14.5659 42.462 15.1611 43.0571 15.8953 43.0571H27.9639V40.3984H23.8905Z" fill="#50265C"/>
<path fill-rule="evenodd" clip-rule="evenodd" d="M38.6984 26.8013L26.1733 31.918L23.4082 34.5523L21.5742 32.6274L24.5212 29.8198C24.6413 29.7053 24.7818 29.6144 24.9354 29.5516L37.7274 24.326C37.7487 24.3172 37.7703 24.3091 37.792 24.3015C38.4078 24.0866 39.402 23.8513 40.3506 23.9339C40.8315 23.9759 41.4132 24.109 41.9235 24.4769C42.4767 24.8757 42.8347 25.4717 42.9354 26.1993C43.0334 26.9067 42.7026 27.4822 42.4527 27.8195C42.1796 28.1881 41.8138 28.5272 41.4358 28.8295C40.6724 29.4401 39.639 30.0729 38.5466 30.6709C36.375 31.8596 33.7624 33.0228 31.9919 33.7435L29.1701 35.27L29.2857 43.0467L26.6273 43.0862L26.4997 34.5039C26.4923 34.0088 26.7608 33.5505 27.1964 33.3149L30.7911 31.3702C30.8342 31.3469 30.8786 31.326 30.924 31.3076C32.6396 30.6117 35.1908 29.4769 37.2699 28.3387C38.3168 27.7656 39.1917 27.2198 39.7751 26.7532C39.8547 26.6896 39.925 26.6304 39.9867 26.5759C39.5821 26.5689 39.0784 26.6724 38.6984 26.8013ZM40.3505 26.1844C40.351 26.1844 40.3485 26.1895 40.3417 26.2003C40.3466 26.1899 40.3501 26.1845 40.3505 26.1844Z" fill="#50265C"/>
<path fill-rule="evenodd" clip-rule="evenodd" d="M22.4914 26.1415C23.5044 26.1415 24.3256 25.3203 24.3256 24.3073C24.3256 23.2944 23.5044 22.4732 22.4914 22.4732C21.4784 22.4732 20.6573 23.2944 20.6573 24.3073C20.6573 25.3203 21.4784 26.1415 22.4914 26.1415ZM22.4914 28.8002C24.9728 28.8002 26.9843 26.7887 26.9843 24.3073C26.9843 21.826 24.9728 19.8145 22.4914 19.8145C20.0101 19.8145 17.9985 21.826 17.9985 24.3073C17.9985 26.7887 20.0101 28.8002 22.4914 28.8002Z" fill="#50265C"/>
<path fill-rule="evenodd" clip-rule="evenodd" d="M37.2737 62.8179H26.8401C23.1547 62.8179 20.167 65.8056 20.167 69.491V76.08H43.9468V69.491C43.9468 65.8056 40.9591 62.8179 37.2737 62.8179ZM26.8401 60.1592C21.6863 60.1592 17.5083 64.3372 17.5083 69.491V78.7387H46.6055V69.491C46.6055 64.3372 42.4275 60.1592 37.2737 60.1592H26.8401Z" fill="#50265C"/>
<path fill-rule="evenodd" clip-rule="evenodd" d="M32.057 58.4933C34.468 58.4933 36.4225 56.5388 36.4225 54.1278C36.4225 51.7168 34.468 49.7622 32.057 49.7622C29.646 49.7622 27.6914 51.7168 27.6914 54.1278C27.6914 56.5388 29.646 58.4933 32.057 58.4933ZM32.057 61.1521C35.9364 61.1521 39.0813 58.0072 39.0813 54.1278C39.0813 50.2484 35.9364 47.1035 32.057 47.1035C28.1776 47.1035 25.0327 50.2484 25.0327 54.1278C25.0327 58.0072 28.1776 61.1521 32.057 61.1521Z" fill="#50265C"/>
<path fill-rule="evenodd" clip-rule="evenodd" d="M70.0959 62.8179H59.6624C55.9769 62.8179 52.9893 65.8056 52.9893 69.491V76.08H76.769V69.491C76.769 65.8056 73.7814 62.8179 70.0959 62.8179ZM59.6624 60.1592C54.5086 60.1592 50.3306 64.3372 50.3306 69.491V78.7387H79.4278V69.491C79.4278 64.3372 75.2498 60.1592 70.0959 60.1592H59.6624Z" fill="#50265C"/>
<path fill-rule="evenodd" clip-rule="evenodd" d="M64.8793 58.4933C67.2903 58.4933 69.2448 56.5388 69.2448 54.1278C69.2448 51.7168 67.2903 49.7622 64.8793 49.7622C62.4682 49.7622 60.5137 51.7168 60.5137 54.1278C60.5137 56.5388 62.4682 58.4933 64.8793 58.4933ZM64.8793 61.1521C68.7586 61.1521 71.9035 58.0072 71.9035 54.1278C71.9035 50.2484 68.7586 47.1035 64.8793 47.1035C60.9999 47.1035 57.855 50.2484 57.855 54.1278C57.855 58.0072 60.9999 61.1521 64.8793 61.1521Z" fill="#50265C"/>
</svg>
