<svg width="101" height="100" viewBox="0 0 101 100" fill="none" xmlns="http://www.w3.org/2000/svg">
<path d="M25.8613 15.2871C25.0684 15.6426 24.2891 16.3945 23.8379 17.2559L23.4688 17.9395V50V82.0605L23.8379 82.7441C24.2891 83.6055 25.0684 84.3574 25.8613 84.7129C26.4766 84.9863 26.6406 85 50.334 85C74.0273 85 74.1914 84.9863 74.8066 84.7129C75.5996 84.3574 76.3789 83.6055 76.8301 82.7441L77.1992 82.0605L77.2402 57.7109L77.2676 33.3613L76.9805 33.0059C76.6113 32.5137 75.8047 32.4863 75.3809 32.9512L75.0801 33.2656L75.0527 57.4102L75.0117 81.5684L74.7246 81.9375C74.5742 82.1426 74.2734 82.4434 74.0684 82.5938L73.6992 82.8809H50.334H26.9688L26.5996 82.5938C26.3945 82.4434 26.0938 82.1426 25.9434 81.9375L25.6562 81.5684V50V18.4316L25.9434 18.0625C26.0938 17.8574 26.3945 17.5566 26.5996 17.4062C26.9688 17.1191 27.0098 17.1191 47.0527 17.0781L67.1367 17.0508L67.1777 20.7012C67.2188 24.7617 67.2734 24.9941 68.1484 25.5273C68.5449 25.7734 68.8594 25.8008 71.8398 25.8008H75.0801V27.5508C75.0801 28.8633 75.1348 29.3691 75.2852 29.5879C75.709 30.1895 76.8027 30.0938 77.1172 29.4102C77.2129 29.2051 77.2676 28.1934 77.2676 26.7852C77.2676 24.8438 77.2266 24.4473 77.0352 24.1602C76.748 23.7363 69.7344 15.8887 69.1875 15.3691L68.791 15H47.627C26.6543 15 26.4766 15.0137 25.8613 15.2871ZM71.0605 20.7695C71.9492 21.7676 72.9199 22.8477 73.2207 23.1621L73.7539 23.75H71.5391H69.3379V21.3574C69.3379 20.0449 69.3652 18.9648 69.3926 18.9648C69.4199 18.9648 70.1719 19.7852 71.0605 20.7695Z" fill="#50265C"/>
<path d="M30.4416 23.4764C30.2912 23.5311 29.9904 23.7772 29.758 24.0233L29.3479 24.4471L29.3068 29.1912C29.2658 35.6307 29.0061 35.2752 33.7229 35.3436L36.7307 35.3846L37.8381 36.4784C39.3283 37.9276 40.1486 38.242 41.2151 37.7772C41.4611 37.6678 43.5393 35.6854 45.9182 33.3065C49.4592 29.7245 50.1975 28.9178 50.3205 28.4666C50.7443 26.908 50.2385 25.4998 48.967 24.7342C48.3381 24.3651 48.092 24.2967 47.3674 24.2967C46.8889 24.2967 46.2736 24.3924 46.0002 24.5018C45.6858 24.6385 44.6604 25.5409 43.4162 26.785L41.3381 28.8358L41.2834 26.8123C41.2424 24.9803 41.2151 24.7205 40.9279 24.283C40.3674 23.3534 40.2307 23.3397 35.1994 23.3534C32.7385 23.3534 30.592 23.408 30.4416 23.4764ZM39.1233 27.0995C39.1233 27.9608 39.0959 28.6717 39.0549 28.6717C39.0002 28.6717 38.7815 28.576 38.549 28.453C38.2483 28.2889 37.8518 28.2479 37.1408 28.2889C35.9787 28.3436 35.2541 28.7401 34.6526 29.6424C34.174 30.367 34.051 31.7479 34.3928 32.5545C34.5158 32.8416 34.6115 33.1014 34.6115 33.1287C34.6115 33.1561 33.9006 33.1834 33.0393 33.1834H31.467V29.3553V25.5272H35.2951H39.1233V27.0995ZM47.969 26.785C48.6252 27.4002 48.5568 27.4959 44.3186 31.7479L40.3537 35.7127L38.3713 33.7303C36.2522 31.6112 36.0744 31.3104 36.6623 30.7225C37.1955 30.1893 37.674 30.3534 38.8498 31.4745C40.4631 33.0057 40.1897 33.1151 43.8401 29.492C47.1076 26.2381 47.2717 26.1287 47.969 26.785Z" fill="#F4A7A3"/>
<path d="M53 24.9121C52.7812 25.1172 52.6582 25.4043 52.6582 25.6641C52.6582 25.9238 52.7812 26.2109 53 26.416L53.3281 26.7578H58.332H63.3359L63.6641 26.416C63.8828 26.2109 64.0059 25.9238 64.0059 25.6641C64.0059 25.4043 63.8828 25.1172 63.6641 24.9121L63.3359 24.5703H58.332H53.3281L53 24.9121Z" fill="#50265C"/>
<path d="M53.247 29.6289C52.6044 29.8887 52.4541 30.8867 52.9736 31.3789L53.288 31.6797H62.0654C70.665 31.6797 70.8427 31.6797 71.1162 31.4063C71.499 31.0234 71.4853 30.1758 71.1025 29.8203C70.8291 29.5742 70.4599 29.5605 62.1748 29.5332C57.3623 29.5195 53.4111 29.5605 53.247 29.6289Z" fill="#50265C"/>
<path d="M52.9593 34.865C52.3304 35.5212 52.7132 36.4919 53.6429 36.6697C53.889 36.7107 57.8675 36.738 62.4749 36.7107L70.8695 36.6697L71.1292 36.3415C71.471 35.9177 71.471 35.1794 71.1156 34.824C70.8421 34.5505 70.6644 34.5505 62.0511 34.5505H53.2464L52.9593 34.865Z" fill="#50265C"/>
<path d="M30.8232 42.7405C30.1943 42.9046 29.7295 43.2327 29.4834 43.7112C29.292 44.0667 29.2783 44.7913 29.3056 48.8382L29.3466 53.555L29.8662 54.0609L30.372 54.5804L33.5576 54.6214L36.7295 54.6624L37.8916 55.7972C38.5341 56.4261 39.2041 57.014 39.3818 57.1097C39.833 57.3421 40.9131 57.3148 41.3916 57.0687C41.6103 56.9456 43.6201 55.0179 45.8486 52.7757C48.8291 49.7816 49.9912 48.5374 50.1826 48.0862C51.3994 45.3929 48.5283 42.6448 45.8896 43.9437C45.6709 44.053 44.5498 45.0784 43.4013 46.1995L41.3369 48.264L41.2822 46.2269C41.2412 43.93 41.0908 43.4788 40.2158 42.9593C39.7646 42.6995 39.4912 42.6859 35.499 42.6585C33.1748 42.6448 31.0556 42.6859 30.8232 42.7405ZM39.122 46.4456V48.0999L38.6845 47.8538C38.0283 47.5257 36.6064 47.5394 35.9091 47.9085C35.2119 48.2776 34.6787 48.8382 34.4189 49.4808C34.1455 50.1234 34.1318 51.3675 34.3916 51.9827L34.5966 52.4612H33.0244H31.4658V48.6331V44.805H35.2939H39.122V46.4456ZM48.0498 46.1995C48.5966 46.8421 48.5146 46.9515 44.3174 51.1624L40.3525 55.1273L38.3701 53.1448C36.6474 51.4222 36.3877 51.1077 36.3877 50.7249C36.3877 50.1644 36.9619 49.6722 37.4814 49.7952C37.6728 49.8362 38.2607 50.3011 38.7802 50.8069C39.792 51.805 40.1611 51.9827 40.749 51.764C40.9404 51.6819 42.4443 50.3011 44.0713 48.6741C46.833 45.9261 47.0654 45.7347 47.4209 45.8167C47.6259 45.8714 47.9131 46.0355 48.0498 46.1995Z" fill="#F4A7A3"/>
<path d="M52.9594 44.2988C52.5902 44.6953 52.5766 45.3516 52.9184 45.7754L53.1781 46.1035H58.3324H63.4867L63.7465 45.7754C64.102 45.3379 64.0883 44.6543 63.6918 44.2852C63.3773 43.9844 63.3227 43.9844 58.3188 43.9844H53.2465L52.9594 44.2988Z" fill="#50265C"/>
<path d="M53 49.248C52.7812 49.4531 52.6582 49.7402 52.6582 50C52.6582 50.2598 52.7812 50.5469 53 50.752L53.3281 51.0938H61.9961C70.5684 51.0938 70.6777 51.0938 71.0332 50.8066C71.5391 50.4102 71.5391 49.5898 71.0332 49.1934C70.6777 48.9062 70.5684 48.9062 61.9961 48.9062H53.3281L53 49.248Z" fill="#50265C"/>
<path d="M53.247 53.9648C52.6044 54.2246 52.4541 55.2227 52.9736 55.7148L53.288 56.0156H62.0654C70.665 56.0156 70.8427 56.0156 71.1162 55.7422C71.499 55.3594 71.4853 54.5117 71.1025 54.1563C70.8291 53.9102 70.4599 53.8965 62.1748 53.8691C57.3623 53.8555 53.4111 53.8965 53.247 53.9648Z" fill="#50265C"/>
<path d="M30.373 62.2771C30.1133 62.4001 29.7578 62.7146 29.5938 62.9743C29.2793 63.4392 29.2793 63.4802 29.2793 68.0466C29.2793 72.613 29.2793 72.654 29.5938 73.1189C30.168 73.9939 30.4961 74.0622 33.791 74.0622H36.7305L37.8242 75.1696C38.4258 75.7849 39.1094 76.3591 39.3555 76.4685C39.9297 76.7146 40.8184 76.7146 41.3652 76.4548C41.5977 76.3454 43.6211 74.4177 45.8496 72.1755C50.1562 67.8689 50.457 67.4724 50.4707 66.2829C50.4707 65.3122 50.1836 64.615 49.5137 63.9314C48.543 62.9607 47.0254 62.7146 45.7949 63.3435C45.5488 63.4665 44.4414 64.4646 43.334 65.5446L41.3379 67.5271L41.2832 65.4763C41.2422 63.6579 41.2148 63.3708 40.9551 63.0427C40.3262 62.195 40.0801 62.0993 38.166 62.0583C36.4297 62.0036 36.3887 62.0173 36.0469 62.3591C35.5957 62.8103 35.5957 63.4392 36.0469 63.8767C36.3477 64.1911 36.4707 64.2185 37.7559 64.2185H39.123V65.8454V67.4724L38.6855 67.2536C38.084 66.9528 36.4707 66.9528 35.9102 67.2536C35.3086 67.5818 34.748 68.1696 34.4609 68.7985C34.1465 69.4685 34.1191 70.6989 34.4062 71.3825L34.6113 71.8747H33.0391H31.4668V68.0466V64.2185H31.9453C32.9707 64.2185 33.4766 63.07 32.7656 62.3728C32.4922 62.0857 32.3008 62.031 31.6445 62.031C31.166 62.031 30.6602 62.1267 30.373 62.2771ZM47.9414 65.5173C48.6523 66.2146 48.6113 66.2556 44.3184 70.5622L40.3535 74.5407L38.3711 72.5446C36.2246 70.3845 36.0742 70.111 36.6895 69.4548C37.1816 68.9216 37.5371 69.0446 38.7129 70.1657C39.7109 71.1091 39.834 71.1911 40.3672 71.1911C40.9414 71.1911 40.9824 71.1501 43.9629 68.1833C46.1367 66.0232 47.0664 65.1755 47.2988 65.1755C47.4766 65.1755 47.7637 65.3259 47.9414 65.5173Z" fill="#F4A7A3"/>
<path d="M53.2601 63.4531C52.5765 63.7539 52.4261 64.6426 52.973 65.1484C53.2874 65.4492 53.3421 65.4492 58.3734 65.4492C63.4183 65.4492 63.4456 65.4492 63.7327 65.1484C64.2523 64.5742 64.0335 63.6719 63.3089 63.4121C62.6253 63.1797 53.807 63.2207 53.2601 63.4531Z" fill="#50265C"/>
<path d="M52.9594 68.6348C52.5902 69.0312 52.5766 69.6875 52.9184 70.1113L53.1781 70.4395H62.0238H70.8695L71.1293 70.1113C71.4711 69.6875 71.4711 68.9492 71.1156 68.5938C70.8422 68.3203 70.6645 68.3203 62.0512 68.3203H53.2465L52.9594 68.6348Z" fill="#50265C"/>
<path d="M53 73.584C52.7812 73.7891 52.6582 74.0762 52.6582 74.3359C52.6582 74.5957 52.7812 74.8828 53 75.0879L53.3281 75.4297H61.9961C70.5684 75.4297 70.6777 75.4297 71.0332 75.1426C71.5391 74.7461 71.5391 73.9258 71.0332 73.5293C70.6777 73.2422 70.5684 73.2422 61.9961 73.2422H53.3281L53 73.584Z" fill="#50265C"/>
<rect x="75.0801" y="28.125" width="2.1875" height="6.42578" fill="#50265C"/>
<rect x="38.3027" y="62.0312" width="2.1875" height="6.5625" transform="rotate(90 38.3027 62.0312)" fill="#F4A7A3"/>
</svg>
