<svg width="100" height="100" viewBox="0 0 100 100" fill="none" xmlns="http://www.w3.org/2000/svg">
<path fill-rule="evenodd" clip-rule="evenodd" d="M67.0723 16H29.8161L11.9997 33.8164V82.4505H67.0723V16ZM64.5131 18.5592V79.8913H14.5589V34.8765L30.8761 18.5592H64.5131Z" fill="#50265C"/>
<path fill-rule="evenodd" clip-rule="evenodd" d="M32.5742 17.2793H30.015V33.4122L13.3086 33.0325L13.2505 35.591L32.5742 36.0302V17.2793Z" fill="#50265C"/>
<path fill-rule="evenodd" clip-rule="evenodd" d="M18.2402 51.4739C18.2402 50.7672 18.8131 50.1943 19.5198 50.1943H59.5545C60.2611 50.1943 60.834 50.7672 60.834 51.4739C60.834 52.1806 60.2611 52.7535 59.5545 52.7535H19.5198C18.8131 52.7535 18.2402 52.1806 18.2402 51.4739Z" fill="#50265C"/>
<path fill-rule="evenodd" clip-rule="evenodd" d="M18.2402 59.7464C18.2402 59.0397 18.8131 58.4668 19.5198 58.4668H59.5545C60.2611 58.4668 60.834 59.0397 60.834 59.7464C60.834 60.4531 60.2611 61.026 59.5545 61.026H19.5198C18.8131 61.026 18.2402 60.4531 18.2402 59.7464Z" fill="#50265C"/>
<path fill-rule="evenodd" clip-rule="evenodd" d="M18.2383 69.5999C18.2383 68.8932 18.8112 68.3203 19.5179 68.3203H59.5525C60.2592 68.3203 60.8321 68.8932 60.8321 69.5999C60.8321 70.3066 60.2592 70.8795 59.5525 70.8795H19.5179C18.8112 70.8795 18.2383 70.3066 18.2383 69.5999Z" fill="#50265C"/>
<path fill-rule="evenodd" clip-rule="evenodd" d="M18.2383 41.9231C18.2383 41.2164 18.8112 40.6436 19.5179 40.6436L40.9849 40.6436C41.6916 40.6436 42.2645 41.2164 42.2645 41.9231C42.2645 42.6298 41.6916 43.2027 40.9849 43.2027L19.5179 43.2027C18.8112 43.2027 18.2383 42.6298 18.2383 41.9231Z" fill="#50265C"/>
<path fill-rule="evenodd" clip-rule="evenodd" d="M81.6438 82.6793H49.9415C49.4704 82.6793 49.0885 83.0612 49.0885 83.5324V85.8086C49.0885 86.2798 49.4704 86.6617 49.9415 86.6617H81.6438C82.1149 86.6617 82.4969 86.2798 82.4969 85.8086V83.5324C82.4969 83.0612 82.1149 82.6793 81.6438 82.6793ZM49.9415 80.1201C48.057 80.1201 46.5293 81.6478 46.5293 83.5324V85.8086C46.5293 87.6932 48.057 89.2209 49.9415 89.2209H81.6438C83.5283 89.2209 85.0561 87.6932 85.0561 85.8086V83.5324C85.0561 81.6478 83.5283 80.1201 81.6438 80.1201H49.9415Z" fill="#50265C"/>
<path fill-rule="evenodd" clip-rule="evenodd" d="M81.6438 89.3307H49.9415C49.4704 89.3307 49.0885 89.7126 49.0885 90.1837V92.46C49.0885 92.9311 49.4704 93.3131 49.9415 93.3131H81.6438C82.1149 93.3131 82.4969 92.9311 82.4969 92.46V90.1837C82.4969 89.7126 82.1149 89.3307 81.6438 89.3307ZM49.9415 86.7715C48.057 86.7715 46.5293 88.2992 46.5293 90.1837V92.46C46.5293 94.3445 48.057 95.8722 49.9415 95.8722H81.6438C83.5283 95.8722 85.0561 94.3445 85.0561 92.46V90.1837C85.0561 88.2992 83.5283 86.7715 81.6438 86.7715H49.9415Z" fill="#50265C"/>
<path d="M85 61C85 71.4934 76.4934 80 66 80C55.5066 80 47 71.4934 47 61C47 50.5066 55.5066 42 66 42C76.4934 42 85 50.5066 85 61Z" fill="#F4A7A3"/>
<path fill-rule="evenodd" clip-rule="evenodd" d="M62.3662 47.1088C62.3662 46.4964 62.8617 46 63.4729 46H68.2912C68.9024 46 69.3979 46.4964 69.3979 47.1088V48.9623L72.0935 50.0594L73.8207 48.8098C74.2797 48.4777 74.9149 48.5463 75.2927 48.9689L77.949 51.9394C78.3328 52.3686 78.3245 53.0209 77.9298 53.4401L76.4928 54.9668L77.5137 57.5121H79.8933C80.5045 57.5121 81 58.0086 81 58.621V62.8547C81 63.4139 80.5844 63.8856 80.0307 63.955L77.9113 64.2206L76.944 66.6576L78.0421 68.2883C78.3197 68.7005 78.2895 69.2474 77.9682 69.6263L75.312 72.7601C74.96 73.1754 74.3589 73.2729 73.8941 72.99L72.1858 71.9505L69.7067 73.1575L69.3748 74.7603C69.2753 75.2406 68.8728 75.5983 68.385 75.6399L64.2072 75.996C63.669 76.0418 63.1763 75.6917 63.0417 75.1676L62.5313 73.181L60.0316 72.0087L58.7246 73.2142C58.5064 73.4155 58.2166 73.5206 57.9203 73.5059C57.624 73.4911 57.346 73.3578 57.1487 73.1359L54.0465 69.646C53.7147 69.2728 53.6731 68.7234 53.9449 68.3043L54.9601 66.7391L53.8027 64.5851L51.9383 64.2976C51.3985 64.2143 51 63.7489 51 63.2016V58.621C51 58.0086 51.4955 57.5121 52.1067 57.5121H53.7967L54.9518 54.9083L53.6719 53.3967C53.2779 52.9313 53.3332 52.2345 53.7957 51.8374L57.255 48.8668C57.6711 48.5095 58.2856 48.5112 58.6998 48.8708L60.0234 50.0199L62.3662 48.9856V47.1088ZM64.5796 48.2177V49.7088C64.5796 50.1483 64.3205 50.5463 63.9191 50.7235L60.2745 52.3324C59.8829 52.5053 59.427 52.4365 59.1036 52.1557L57.9711 51.1725L56.072 52.8033L57.0893 54.0048C57.3643 54.3295 57.4293 54.7833 57.2567 55.1725L55.5271 59.0714C55.3494 59.4718 54.9531 59.7298 54.5158 59.7298H53.2133V62.2504L54.6841 62.4772C55.0272 62.5301 55.3257 62.7413 55.4902 63.0475L57.2198 66.2666C57.4116 66.6234 57.3937 67.0566 57.1734 67.3964L56.2611 68.8031L58.0533 70.8192L59.0788 69.8733C59.4092 69.5685 59.8907 69.494 60.2974 69.6848L63.942 71.3941C64.2413 71.5344 64.4622 71.8014 64.5446 72.1219L64.9518 73.7068L67.3753 73.5002L67.6501 72.1731C67.7198 71.8365 67.9414 71.5513 68.25 71.401L71.761 69.6917C72.0992 69.5271 72.4977 69.5458 72.8191 69.7413L74.2361 70.6035L75.738 68.8317L74.7822 67.4124C74.5776 67.1085 74.5361 66.723 74.6713 66.3824L76.0964 62.7919C76.2456 62.4161 76.587 62.1515 76.9874 62.1014L78.7867 61.8759V59.7298H76.7658C76.3139 59.7298 75.9074 59.4546 75.7389 59.0345L74.1752 55.1356C74.0142 54.7343 74.1008 54.2759 74.3969 53.9613L75.6217 52.6601L74.3089 51.192L72.8925 52.2167C72.5835 52.4403 72.1814 52.4888 71.8282 52.345L67.8748 50.7361C67.4575 50.5663 67.1845 50.1601 67.1845 49.7088V48.2177H64.5796Z" fill="#50265C"/>
<path fill-rule="evenodd" clip-rule="evenodd" d="M73.8084 56.4458C74.3906 57.0352 74.3848 57.9849 73.7955 58.5671L65.812 66.4535C65.2475 67.0111 64.3464 67.0327 63.7559 66.5026L59.4981 62.6808C58.8816 62.1275 58.8304 61.1791 59.3837 60.5626C59.9371 59.9461 60.8855 59.8949 61.502 60.4483L64.7086 63.3265L71.6872 56.4329C72.2765 55.8507 73.2262 55.8565 73.8084 56.4458Z" fill="#50265C"/>
</svg>
