<svg width="101" height="100" viewBox="0 0 101 100" fill="none" xmlns="http://www.w3.org/2000/svg">
<path d="M23.2793 41.9141L31.0631 45.5283L21.1183 66.9458L13.3345 63.3315L23.2793 41.9141Z" fill="#F4A7A3"/>
<path d="M69.1875 46.1396L77.1531 42.9459L85.9407 64.8636L77.9752 68.0573L69.1875 46.1396Z" fill="#F4A7A3"/>
<path d="M23.6946 41.1493C22.465 41.6068 22.3649 41.7784 17.7324 51.887C13.7147 60.6802 13.4144 61.3951 13.3429 62.2815C13.2715 63.4254 13.6289 64.3404 14.3724 64.8838C15.2589 65.5415 19.3481 67.3001 20.1487 67.3716C20.9923 67.4431 21.9789 67.1428 22.3935 66.6853C22.5365 66.528 22.7224 66.3993 22.8082 66.3993C22.8939 66.3993 23.8376 66.7854 24.9099 67.2715C26.2682 67.872 26.9116 68.2295 27.0117 68.4582C27.0832 68.6298 27.2548 69.2875 27.3978 69.9023C27.5265 70.5314 27.698 71.2463 27.7695 71.5037C27.8982 71.9183 27.841 72.1042 27.1976 73.3195C26.111 75.3927 26.0824 77.0084 27.0832 78.5097C27.8696 79.6821 28.7275 80.1968 30.3431 80.4685L30.8579 80.5543L30.9294 81.5408C31.058 83.2423 31.9445 84.5291 33.4744 85.244C34.4037 85.6872 35.8907 85.7444 36.863 85.3726L37.4778 85.1439L37.678 85.5299C37.9925 86.1304 38.8647 86.9454 39.6082 87.2886C40.1229 87.5459 40.5232 87.6174 41.4812 87.6174C42.1532 87.6174 42.8252 87.5602 42.9682 87.4601C43.2112 87.3315 43.2827 87.3743 43.5115 87.8462C43.8975 88.6326 44.7268 89.4046 45.599 89.8193C46.2853 90.1195 46.5141 90.1624 47.6007 90.1052C49.0019 90.0338 49.7454 89.7335 50.5175 88.9328L50.9893 88.461L52.1045 89.0472C53.0625 89.5476 53.3913 89.6334 54.2778 89.6763C55.6075 89.7478 56.5369 89.4618 57.4091 88.6755C58.3241 87.8748 58.796 87.0312 58.8817 86.0017L58.9675 85.1725L59.8397 85.101C61.8843 84.9294 63.5143 83.3852 63.8574 81.2977L63.9575 80.6972H64.7153C67.4748 80.6972 69.7052 78.0521 69.1047 75.4642L68.9761 74.8923L69.7481 74.4919C71.1207 73.7628 71.9071 72.5474 72.0644 70.9318L72.1502 69.9309L74.4236 68.9587L76.6969 67.9864L77.0687 68.3867C77.6835 69.0444 78.3412 69.3161 79.2991 69.3161C80.014 69.3018 80.5574 69.1445 82.5877 68.3438C83.9174 67.8148 85.2185 67.2286 85.4758 67.0284C86.1764 66.4994 86.5196 65.713 86.5196 64.6979C86.5196 63.9115 86.1907 62.9964 82.7306 54.1603C80.6431 48.8415 78.813 44.2662 78.6414 43.9945C78.1696 43.2367 77.2116 42.7506 76.1679 42.7649C75.4387 42.7649 74.8954 42.9365 72.8651 43.7372C71.5354 44.2662 70.2343 44.8524 69.9912 45.0383C69.2477 45.5959 68.9046 46.4824 68.9618 47.6977L69.0047 48.7414L67.1459 49.728C64.7439 51.0148 64.3292 51.072 62.2846 50.3142C58.7817 49.0131 57.6664 48.6699 56.4511 48.5413C54.2921 48.2982 52.3905 48.6413 50.3459 49.6708L49.2736 50.1998L48.6301 49.871C47.2004 49.1132 46.1137 48.8844 44.1263 48.8987C42.5535 48.8987 41.953 48.9702 40.1944 49.3848C38.9505 49.6708 37.7209 49.871 37.1203 49.871C36.1767 49.871 36.0051 49.8281 33.8318 48.8129C32.5736 48.2267 31.5156 47.7406 31.487 47.712C31.4584 47.6977 31.5442 47.426 31.6728 47.0972C32.1161 45.9676 31.873 44.6522 31.0437 43.8087C30.6863 43.4369 29.857 42.9794 28.0555 42.1644C25.3675 40.9634 24.6669 40.7918 23.6946 41.1493ZM26.8688 44.3377C29.0134 45.3099 29.471 45.5816 29.471 45.8819C29.471 46.082 21.0638 64.5263 20.8636 64.7837C20.6206 65.0982 20.2917 64.9981 18.1613 64.0259C15.8308 62.9535 15.745 62.8964 15.745 62.5103C15.745 62.11 24.1379 43.7658 24.4238 43.5513C24.5525 43.4655 24.6955 43.3797 24.7241 43.3797C24.7527 43.3797 25.7249 43.8087 26.8688 44.3377ZM80.3286 54.7465C82.3303 59.8652 84.0031 64.2404 84.046 64.4977C84.1461 65.0696 84.0174 65.1554 81.3294 66.1992C79.2562 66.9855 79.1991 66.9998 78.9417 66.7425C78.6557 66.4279 71.3638 47.8407 71.3638 47.4117C71.3638 46.9971 71.5497 46.897 73.9517 45.9676C75.7962 45.2528 76.1965 45.1384 76.411 45.2813C76.5825 45.3957 78.0123 48.8415 80.3286 54.7465ZM32.9168 51.0863C36.1481 52.559 36.8344 52.6305 40.6233 51.7869C42.9682 51.2722 44.5838 51.1435 45.6419 51.3865C47.2433 51.7583 47.2433 51.6582 45.7134 53.1166C43.2255 55.49 40.9665 57.2344 38.4072 58.75C37.006 59.5792 36.7629 59.8509 36.7629 60.5229C36.7629 61.5095 38.736 63.5398 40.5947 64.4691C42.9682 65.6558 45.5847 65.4557 49.9742 63.7256C54.0634 62.1243 55.1643 61.8526 56.3939 62.11C56.9229 62.2243 58.8245 63.2252 63.071 65.6558C69.548 69.359 69.6481 69.4448 69.6481 70.6458C69.6481 71.1748 69.5623 71.3607 69.1047 71.8468C68.6615 72.333 68.447 72.4473 67.9037 72.5045C67.2603 72.576 67.1173 72.5045 62.9137 70.1311C60.24 68.6298 58.4242 67.6861 58.1811 67.6861C57.9667 67.6861 57.6235 67.8434 57.4091 68.0293C56.8657 68.4868 56.8514 69.3018 57.3662 69.745C57.552 69.9023 59.6109 71.1033 61.9129 72.4045C66.3023 74.8637 66.5311 75.0496 66.7313 76.079C66.8457 76.6938 66.431 77.5231 65.8019 77.9377C64.8726 78.5668 64.7153 78.4954 59.4108 75.55C56.7228 74.063 54.3922 72.8334 54.2349 72.8334C53.52 72.8334 52.9195 73.4053 52.9195 74.1059C52.9195 74.6635 53.6058 75.1639 57.023 77.0656C58.9818 78.1665 60.7119 79.1817 60.8834 79.3532C61.055 79.5248 61.2695 79.9108 61.3553 80.2254C61.5126 80.7258 61.4983 80.8831 61.2409 81.455C60.8977 82.2271 60.4259 82.5703 59.5966 82.656C59.039 82.7132 58.7531 82.5846 56.0079 81.0547C54.3636 80.1396 52.7622 79.1817 52.4477 78.91C51.2896 77.9091 49.6739 77.4659 48.4729 77.8091C47.9581 77.952 47.9439 77.9377 47.7866 77.4087C47.5721 76.6795 46.5998 75.6072 45.7134 75.1496C45.0843 74.8208 44.7983 74.7636 43.6545 74.7493L42.3391 74.735L41.9673 74.0058C41.2667 72.6046 40.0085 71.8182 38.3071 71.7182L37.2204 71.661L37.0489 71.0319C36.5913 69.4162 35.2473 68.2295 33.5745 67.9292C32.4163 67.7433 31.3726 67.9435 30.4146 68.544C29.9571 68.8443 29.7283 68.9158 29.6854 68.7871C29.6568 68.7013 29.5282 68.2867 29.3995 67.872C28.9991 66.5995 28.3843 66.0848 26.0824 65.0696C24.9671 64.5835 24.0378 64.126 24.0235 64.0688C23.9806 63.8257 30.4003 49.9568 30.5433 50.0139C30.6148 50.0425 31.6871 50.5287 32.9168 51.0863ZM57.4091 51.1864C57.8666 51.3008 59.039 51.7154 59.997 52.1014C62.4419 53.0737 63.3284 53.2882 64.7296 53.2167C65.7876 53.1595 66.0164 53.088 67.3747 52.4017C68.1897 51.9728 69.119 51.4866 69.4336 51.3008L70.0055 50.9719L72.8365 58.2209C74.395 62.21 75.6818 65.5272 75.6818 65.613C75.6818 65.6844 74.6523 66.1849 73.3941 66.7139L71.0921 67.6861L70.6489 67.2858C70.1056 66.7854 58.796 60.337 57.7522 59.9367C57.166 59.7079 56.6799 59.6364 55.6361 59.6507C54.0348 59.6507 52.8766 59.9653 49.5738 61.2521C46.8429 62.3101 45.7134 62.6533 44.5838 62.7677C43.054 62.9249 41.2667 62.2958 40.2659 61.2521C40.0371 61.0233 39.8798 60.8089 39.9227 60.7803C39.9513 60.7517 40.6662 60.2655 41.5098 59.7079C43.4829 58.3925 45.0128 57.1486 47.3147 55.0182C51.3753 51.2579 53.9204 50.2856 57.4091 51.1864ZM33.8604 70.6172C34.4609 71.0176 34.7898 71.6896 34.7183 72.4045C34.6468 73.1193 32.5593 77.1514 32.0303 77.5803C31.2153 78.2523 30.0572 78.1522 29.3423 77.3372C28.5845 76.4651 28.5988 76.0075 29.4567 74.349C30.9865 71.3893 31.3297 70.8603 31.9588 70.5457C32.6165 70.2169 33.2742 70.2455 33.8604 70.6172ZM39.3365 74.6206C39.8369 75.0925 40.1086 75.8502 40.0085 76.3793C39.8941 76.9369 37.0917 82.127 36.6485 82.5989C35.4046 83.9143 33.1598 82.8705 33.3743 81.069C33.4172 80.6972 33.9605 79.5105 34.9042 77.7662C35.7049 76.2649 36.434 74.9638 36.5341 74.8494C37.2061 74.0201 38.593 73.9057 39.3365 74.6206ZM44.5838 77.3658C45.2558 77.6804 45.6276 78.3238 45.6276 79.1245C45.6276 79.6678 45.3988 80.1682 44.2979 82.1842C42.8252 84.9008 42.5392 85.2011 41.4812 85.2011C40.3088 85.2011 39.3937 84.2145 39.5224 83.1136C39.5939 82.6274 41.6957 78.4954 42.1818 77.9234C42.8395 77.1514 43.7117 76.9512 44.5838 77.3658ZM50.446 80.4828C50.9464 80.8116 51.3467 81.5408 51.3467 82.127C51.3467 82.8848 49.1449 86.9454 48.5015 87.3743C47.5721 88.0035 46.1995 87.6746 45.6991 86.7166C45.2701 85.8731 45.4131 85.3583 46.6713 82.9849C47.7723 80.926 47.901 80.7401 48.4872 80.4399C49.2021 80.0681 49.8312 80.0967 50.446 80.4828ZM56.1794 84.2717C56.7942 85.1868 56.4654 86.5594 55.5074 87.0598C54.7068 87.4601 53.7917 87.2743 52.5335 86.445L52.2046 86.2448L52.8337 85.0724C53.1769 84.4433 53.5486 83.6426 53.6487 83.3137L53.8203 82.6989L54.8354 83.2423C55.4502 83.5711 55.9793 83.9857 56.1794 84.2717Z" fill="#50265C"/>
<path fill-rule="evenodd" clip-rule="evenodd" d="M68.8436 22.6116C69.9285 22.6116 70.8079 21.7322 70.8079 20.6473C70.8079 19.5624 69.9285 18.683 68.8436 18.683C67.7587 18.683 66.8793 19.5624 66.8793 20.6473C66.8793 21.7322 67.7587 22.6116 68.8436 22.6116ZM68.8436 25.2077C71.3622 25.2077 73.404 23.1659 73.404 20.6473C73.404 18.1287 71.3622 16.0869 68.8436 16.0869C66.325 16.0869 64.2832 18.1287 64.2832 20.6473C64.2832 23.1659 66.325 25.2077 68.8436 25.2077Z" fill="#50265C"/>
<path fill-rule="evenodd" clip-rule="evenodd" d="M32.6563 26.5943C31.0711 26.5896 29.3484 26.678 27.9329 26.8676C26.9052 27.0053 26.1571 27.5273 25.6286 28.1725C25.1086 28.8072 24.8403 29.5171 24.764 29.9704V34.4991H37.4948V27.4023C37.0117 27.0814 36.5905 26.9008 36.3552 26.8517C35.6268 26.6993 34.2642 26.599 32.6563 26.5943ZM36.8864 24.3105C35.8896 24.1021 34.3104 24.003 32.6639 23.9982C30.9944 23.9934 29.1496 24.0854 27.5882 24.2946C25.7983 24.5344 24.4896 25.4663 23.6204 26.5273C22.7714 27.5636 22.3014 28.7684 22.1789 29.7073L22.168 29.7909V37.0951H40.0909V26.1271L39.6088 25.7374C38.7519 25.0448 37.744 24.4898 36.8864 24.3105Z" fill="#50265C"/>
<path fill-rule="evenodd" clip-rule="evenodd" d="M69.3104 26.5943C67.7253 26.5896 66.0026 26.678 64.5871 26.8676C64.3564 26.8985 64.1417 26.9484 63.9418 27.0136V34.4991H76.2548C76.2716 33.3552 76.2755 31.7624 76.2269 30.2328C76.2065 29.5896 75.7759 28.8132 75.0063 28.0846C74.2367 27.3559 73.4 26.9333 73.0094 26.8517C72.2809 26.6993 70.9184 26.599 69.3104 26.5943ZM64.2287 37.0951L63.8505 38.0498L61.3457 37.5718V25.4303L61.9939 25.0555C62.6429 24.6801 63.393 24.4084 64.2423 24.2946C65.8038 24.0854 67.6486 23.9934 69.318 23.9982C70.9646 24.003 72.5437 24.1021 73.5406 24.3105M64.2287 37.0951H78.7805L78.8216 35.8396C78.8524 34.9014 78.8951 32.4643 78.8217 30.1504C78.7698 28.5153 77.7774 27.1331 76.7911 26.1994C75.805 25.2657 74.5531 24.5222 73.5406 24.3105" fill="#50265C"/>
<path fill-rule="evenodd" clip-rule="evenodd" d="M32.0506 22.6116C33.1355 22.6116 34.015 21.7322 34.015 20.6473C34.015 19.5624 33.1355 18.683 32.0506 18.683C30.9658 18.683 30.0863 19.5624 30.0863 20.6473C30.0863 21.7322 30.9658 22.6116 32.0506 22.6116ZM32.0506 25.2077C34.5693 25.2077 36.611 23.1659 36.611 20.6473C36.611 18.1287 34.5693 16.0869 32.0506 16.0869C29.532 16.0869 27.4902 18.1287 27.4902 20.6473C27.4902 23.1659 29.532 25.2077 32.0506 25.2077Z" fill="#50265C"/>
<path fill-rule="evenodd" clip-rule="evenodd" d="M55.0887 24.0785H46.6332C42.9829 24.0785 40.0238 27.0376 40.0238 30.6879V36.0415H61.6981V30.6879C61.6981 27.0376 58.739 24.0785 55.0887 24.0785ZM46.6332 21.4824C41.5492 21.4824 37.4277 25.6038 37.4277 30.6879V38.6375H64.2942V30.6879C64.2942 25.6038 60.1727 21.4824 55.0887 21.4824H46.6332Z" fill="#50265C"/>
<path fill-rule="evenodd" clip-rule="evenodd" d="M50.8607 21.1273C53.4242 21.1273 55.5023 19.0492 55.5023 16.4857C55.5023 13.9223 53.4242 11.8441 50.8607 11.8441C48.2973 11.8441 46.2191 13.9223 46.2191 16.4857C46.2191 19.0492 48.2973 21.1273 50.8607 21.1273ZM50.8607 22.9715C54.4427 22.9715 57.3465 20.0677 57.3465 16.4857C57.3465 12.9038 54.4427 10 50.8607 10C47.2788 10 44.375 12.9038 44.375 16.4857C44.375 20.0677 47.2788 22.9715 50.8607 22.9715Z" fill="#50265C"/>
<path fill-rule="evenodd" clip-rule="evenodd" d="M63.6997 29.9619C63.9719 29.9619 64.1925 30.1825 64.1925 30.4546L64.1925 34.4612C64.1925 34.7334 63.9719 34.954 63.6997 34.954C63.4276 34.954 63.207 34.7334 63.207 34.4612L63.207 30.4546C63.207 30.1825 63.4276 29.9619 63.6997 29.9619Z" fill="#50265C"/>
<path fill-rule="evenodd" clip-rule="evenodd" d="M50.8608 20.3765C53.009 20.3765 54.7505 18.635 54.7505 16.4867C54.7505 14.3385 53.009 12.597 50.8608 12.597C48.7125 12.597 46.9711 14.3385 46.9711 16.4867C46.9711 18.635 48.7125 20.3765 50.8608 20.3765ZM50.8608 22.9725C54.4428 22.9725 57.3465 20.0687 57.3465 16.4867C57.3465 12.9048 54.4428 10.001 50.8608 10.001C47.2788 10.001 44.375 12.9048 44.375 16.4867C44.375 20.0687 47.2788 22.9725 50.8608 22.9725Z" fill="#50265C"/>
</svg>
