<svg width="26" height="32" viewBox="0 0 26 32" fill="none" xmlns="http://www.w3.org/2000/svg">
<path d="M13.0006 0.892578C16.3252 0.892578 19.5137 2.2133 21.8646 4.5642C24.2155 6.91511 25.5363 10.1036 25.5363 13.4283C25.5363 18.7254 21.8141 24.4983 14.4663 30.8086C14.0577 31.1596 13.5368 31.3523 12.9982 31.3519C12.4595 31.3514 11.9389 31.1577 11.531 30.806L11.045 30.3843C4.02242 24.2386 0.464844 18.6071 0.464844 13.4283C0.464844 10.1036 1.78557 6.91511 4.13647 4.5642C6.48737 2.2133 9.67588 0.892578 13.0006 0.892578ZM13.0006 2.82115C10.1874 2.82115 7.4894 3.93868 5.50018 5.92791C3.51095 7.91713 2.39342 10.6151 2.39342 13.4283C2.39342 17.9309 5.66941 23.1187 12.3114 28.9301L12.791 29.3454C12.8493 29.3956 12.9237 29.4231 13.0006 29.4231C13.0775 29.4231 13.1518 29.3956 13.2101 29.3454C20.1736 23.3643 23.6077 18.0376 23.6077 13.4283C23.6077 12.0353 23.3333 10.656 22.8003 9.36911C22.2672 8.0822 21.4859 6.91287 20.5009 5.92791C19.516 4.94295 18.3467 4.16163 17.0597 3.62857C15.7728 3.09551 14.3935 2.82115 13.0006 2.82115ZM13.0006 8.60686C14.2793 8.60686 15.5056 9.11483 16.4098 10.019C17.314 10.9232 17.822 12.1496 17.822 13.4283C17.822 14.707 17.314 15.9334 16.4098 16.8376C15.5056 17.7418 14.2793 18.2497 13.0006 18.2497C11.7218 18.2497 10.4955 17.7418 9.59129 16.8376C8.6871 15.9334 8.17913 14.707 8.17913 13.4283C8.17913 12.1496 8.6871 10.9232 9.59129 10.019C10.4955 9.11483 11.7218 8.60686 13.0006 8.60686ZM13.0006 10.5354C12.2333 10.5354 11.4975 10.8402 10.955 11.3827C10.4125 11.9252 10.1077 12.6611 10.1077 13.4283C10.1077 14.1955 10.4125 14.9313 10.955 15.4739C11.4975 16.0164 12.2333 16.3211 13.0006 16.3211C13.7678 16.3211 14.5036 16.0164 15.0461 15.4739C15.5886 14.9313 15.8934 14.1955 15.8934 13.4283C15.8934 12.6611 15.5886 11.9252 15.0461 11.3827C14.5036 10.8402 13.7678 10.5354 13.0006 10.5354Z" fill="#50265C"/>
</svg>
