<svg width="177" height="55" viewBox="0 0 177 55" fill="none" xmlns="http://www.w3.org/2000/svg">
<path d="M41.8902 14.3891V53.3745H29.5066V49.7817C28.1306 51.2086 26.5253 52.3298 24.6907 53.1451C22.8561 53.9096 20.8432 54.2918 18.6518 54.2918C16.0018 54.2918 13.5302 53.7822 11.237 52.7629C8.99466 51.6927 7.03265 50.2658 5.35093 48.4822C3.66921 46.6476 2.34422 44.4817 1.37595 41.9846C0.458651 39.4875 0 36.7866 0 33.8818C0 30.977 0.458651 28.276 1.37595 25.7789C2.34422 23.2818 3.66921 21.1415 5.35093 19.3578C7.03265 17.5232 8.99466 16.0963 11.237 15.0771C13.5302 14.0069 16.0018 13.4718 18.6518 13.4718C20.8432 13.4718 22.8561 13.8795 24.6907 14.6949C26.5253 15.4593 28.1306 16.5549 29.5066 17.9819V14.3891H41.8902ZM21.098 42.2904C23.5441 42.2904 25.5571 41.5005 27.1369 39.9207C28.7167 38.3409 29.5066 36.3279 29.5066 33.8818C29.5066 31.4356 28.7167 29.4227 27.1369 27.8429C25.5571 26.2631 23.5441 25.4732 21.098 25.4732C18.6518 25.4732 16.6388 26.2631 15.0591 27.8429C13.5302 29.4227 12.7658 31.4356 12.7658 33.8818C12.7658 36.3279 13.5302 38.3409 15.0591 39.9207C16.6388 41.5005 18.6518 42.2904 21.098 42.2904Z" fill="#E85046"/>
<path d="M55.953 21.3004L55.9532 0.0153809H34.6681V8.94137H47.027V21.3004H55.953Z" fill="#E85046"/>
<path d="M92.0604 28.7046H78.2269L76.1024 34.6827H67.9011L80.6971 0.592864H89.7384L102.584 34.6827H94.1848L92.0604 28.7046ZM89.5901 21.6396L85.1436 9.0412L80.6971 21.6396H89.5901Z" fill="#50265C"/>
<path d="M116.801 35.2755C115.089 35.2755 113.491 35.012 112.009 34.485C110.56 33.9251 109.292 33.1676 108.205 32.2124C107.118 31.2243 106.262 30.0715 105.636 28.754C105.043 27.4365 104.746 26.0038 104.746 24.4557H112.602C112.602 25.5756 113.014 26.5308 113.837 27.3212C114.66 28.0788 115.682 28.4576 116.9 28.4576C118.053 28.4576 119.008 28.1447 119.766 27.5189C120.556 26.8931 120.951 26.119 120.951 25.1968C120.951 24.6039 120.787 24.0934 120.457 23.6652C120.128 23.2041 119.683 22.8089 119.123 22.4795C118.596 22.1172 117.954 21.8043 117.197 21.5408C116.472 21.2444 115.714 20.9973 114.924 20.7997C113.705 20.5033 112.503 20.0916 111.317 19.5646C110.165 19.0046 109.127 18.2965 108.205 17.4401C107.316 16.5838 106.591 15.5627 106.031 14.377C105.504 13.1583 105.24 11.742 105.24 10.1281C105.24 8.6789 105.52 7.34495 106.08 6.12628C106.673 4.87467 107.48 3.80422 108.501 2.91492C109.555 1.99269 110.774 1.28454 112.157 0.790487C113.574 0.263496 115.089 0 116.703 0C118.382 0 119.93 0.263496 121.347 0.790487C122.763 1.31748 123.982 2.04209 125.003 2.96433C126.057 3.88657 126.864 4.98995 127.424 6.2745C128.016 7.5261 128.313 8.89299 128.313 10.3752H120.457C120.457 9.35411 120.095 8.51421 119.37 7.85547C118.679 7.1638 117.789 6.81796 116.703 6.81796C115.649 6.81796 114.776 7.11439 114.084 7.70726C113.425 8.26719 113.096 8.97533 113.096 9.83169C113.096 10.9186 113.606 11.7914 114.628 12.4502C115.649 13.076 116.999 13.6194 118.679 14.0806C119.963 14.4099 121.215 14.8381 122.434 15.3651C123.652 15.8921 124.723 16.5673 125.645 17.3907C126.6 18.2142 127.358 19.2187 127.918 20.4045C128.51 21.5902 128.807 23.023 128.807 24.7027C128.807 26.2178 128.494 27.6177 127.868 28.9022C127.275 30.1868 126.435 31.3066 125.349 32.2618C124.295 33.184 123.026 33.9251 121.544 34.485C120.095 35.012 118.514 35.2755 116.801 35.2755Z" fill="#50265C"/>
<path d="M165.457 0.592864L152.118 34.6827H144.213L130.873 0.592864H139.421L148.264 24.4557L157.058 0.592864H165.457Z" fill="#50265C"/>
<path d="M169.257 0.592864H176.915V34.6827H169.257V0.592864Z" fill="#50265C"/>
<path d="M73.8114 47.9003H71.8342V54.2661H69.7605V47.9003H67.7832V45.9472H73.8114V47.9003Z" fill="#50265C"/>
<path d="M82.7679 45.9472V54.2661H80.6941V51.0591H77.7041V54.2661H75.6304V45.9472H77.7041V49.106H80.6941V45.9472H82.7679Z" fill="#50265C"/>
<path d="M89.0474 54.4108C88.4204 54.4108 87.8377 54.3023 87.2992 54.0853C86.7607 53.8682 86.2945 53.5668 85.9006 53.181C85.5068 52.7952 85.1974 52.3411 84.9723 51.8187C84.7472 51.2882 84.6347 50.7175 84.6347 50.1066C84.6347 49.4958 84.7472 48.9291 84.9723 48.4067C85.1974 47.8762 85.5068 47.4181 85.9006 47.0322C86.2945 46.6464 86.7607 46.345 87.2992 46.128C87.8377 45.911 88.4204 45.8025 89.0474 45.8025C89.6743 45.8025 90.257 45.911 90.7956 46.128C91.3341 46.345 91.8003 46.6464 92.1941 47.0322C92.5879 47.4181 92.8974 47.8762 93.1225 48.4067C93.3475 48.9291 93.46 49.4958 93.46 50.1066C93.46 50.7175 93.3475 51.2882 93.1225 51.8187C92.8974 52.3411 92.5879 52.7952 92.1941 53.181C91.8003 53.5668 91.3341 53.8682 90.7956 54.0853C90.257 54.3023 89.6743 54.4108 89.0474 54.4108ZM89.0474 52.4094C89.3689 52.4094 89.6663 52.3532 89.9396 52.2406C90.2209 52.1201 90.462 51.9593 90.6629 51.7584C90.8719 51.5494 91.0327 51.3042 91.1452 51.0229C91.2658 50.7416 91.326 50.4362 91.326 50.1066C91.326 49.7771 91.2658 49.4717 91.1452 49.1904C91.0327 48.909 90.8719 48.6679 90.6629 48.467C90.462 48.258 90.2209 48.0972 89.9396 47.9847C89.6663 47.8641 89.3689 47.8039 89.0474 47.8039C88.7259 47.8039 88.4245 47.8641 88.1431 47.9847C87.8618 48.0972 87.6167 48.258 87.4077 48.467C87.2068 48.6679 87.046 48.909 86.9254 49.1904C86.8129 49.4717 86.7567 49.7771 86.7567 50.1066C86.7567 50.4362 86.8129 50.7416 86.9254 51.0229C87.046 51.3042 87.2068 51.5494 87.4077 51.7584C87.6167 51.9593 87.8618 52.1201 88.1431 52.2406C88.4245 52.3532 88.7259 52.4094 89.0474 52.4094Z" fill="#50265C"/>
<path d="M98.6812 54.4108C98.1909 54.4108 97.7328 54.3264 97.3068 54.1576C96.8808 53.9808 96.5111 53.7437 96.1976 53.4463C95.8841 53.1408 95.639 52.7832 95.4622 52.3733C95.2853 51.9553 95.1969 51.5052 95.1969 51.0229V45.9472H97.2586V50.9868C97.2586 51.1877 97.2947 51.3766 97.3671 51.5534C97.4394 51.7302 97.5399 51.883 97.6685 52.0116C97.7971 52.1321 97.9458 52.2286 98.1146 52.3009C98.2914 52.3733 98.4803 52.4094 98.6812 52.4094C98.8902 52.4094 99.0791 52.3733 99.2479 52.3009C99.4247 52.2286 99.5734 52.1321 99.694 52.0116C99.8226 51.883 99.923 51.7302 99.9954 51.5534C100.068 51.3766 100.104 51.1877 100.104 50.9868V45.9472H102.178V51.0229C102.178 51.5052 102.089 51.9553 101.912 52.3733C101.736 52.7832 101.49 53.1408 101.177 53.4463C100.863 53.7437 100.494 53.9808 100.068 54.1576C99.6417 54.3264 99.1796 54.4108 98.6812 54.4108Z" fill="#50265C"/>
<path d="M112.639 49.4074V50.1308C112.639 50.7416 112.526 51.3083 112.301 51.8307C112.084 52.3532 111.783 52.8073 111.397 53.1931C111.011 53.5709 110.557 53.8682 110.034 54.0853C109.512 54.3023 108.945 54.4108 108.334 54.4108C107.707 54.4108 107.125 54.3023 106.586 54.0853C106.048 53.8682 105.581 53.5668 105.188 53.181C104.794 52.7952 104.484 52.3411 104.259 51.8187C104.034 51.2882 103.922 50.7175 103.922 50.1066C103.922 49.4958 104.034 48.9291 104.259 48.4067C104.484 47.8762 104.794 47.4181 105.188 47.0322C105.581 46.6464 106.048 46.345 106.586 46.128C107.125 45.911 107.707 45.8025 108.334 45.8025C108.784 45.8025 109.21 45.8588 109.612 45.9713C110.022 46.0838 110.396 46.2446 110.734 46.4535C111.071 46.6545 111.369 46.8956 111.626 47.1769C111.891 47.4582 112.1 47.7717 112.253 48.1173C112.269 48.1575 112.285 48.2017 112.301 48.2499C112.317 48.2901 112.333 48.3303 112.349 48.3705H109.866C109.44 47.9927 108.929 47.8039 108.334 47.8039C108.013 47.8039 107.711 47.8641 107.43 47.9847C107.149 48.0972 106.904 48.258 106.695 48.467C106.494 48.6679 106.333 48.909 106.212 49.1904C106.1 49.4717 106.044 49.7771 106.044 50.1066C106.044 50.4362 106.1 50.7416 106.212 51.0229C106.333 51.3042 106.494 51.5494 106.695 51.7584C106.904 51.9593 107.149 52.1201 107.43 52.2406C107.711 52.3532 108.013 52.4094 108.334 52.4094C108.784 52.4094 109.182 52.309 109.528 52.108C109.882 51.899 110.147 51.6258 110.324 51.2882H108.395V49.4074H112.639Z" fill="#50265C"/>
<path d="M121.601 45.9472V54.2661H119.527V51.0591H116.537V54.2661H114.463V45.9472H116.537V49.106H119.527V45.9472H121.601Z" fill="#50265C"/>
<path d="M129.424 47.9003H127.446V54.2661H125.373V47.9003H123.395V45.9472H129.424V47.9003Z" fill="#50265C"/>
<path d="M143.888 45.9472L140.958 54.2661H138.872L137.269 49.1301L135.653 54.2661H133.58L130.65 45.9472H132.941L134.653 51.3967L136.353 45.9472H138.221L139.945 51.4208L141.645 45.9472H143.888Z" fill="#50265C"/>
<path d="M148.969 54.4108C148.342 54.4108 147.759 54.3023 147.221 54.0853C146.682 53.8682 146.216 53.5668 145.822 53.181C145.428 52.7952 145.119 52.3411 144.894 51.8187C144.669 51.2882 144.556 50.7175 144.556 50.1066C144.556 49.4958 144.669 48.9291 144.894 48.4067C145.119 47.8762 145.428 47.4181 145.822 47.0322C146.216 46.6464 146.682 46.345 147.221 46.128C147.759 45.911 148.342 45.8025 148.969 45.8025C149.596 45.8025 150.178 45.911 150.717 46.128C151.256 46.345 151.722 46.6464 152.116 47.0322C152.509 47.4181 152.819 47.8762 153.044 48.4067C153.269 48.9291 153.381 49.4958 153.381 50.1066C153.381 50.7175 153.269 51.2882 153.044 51.8187C152.819 52.3411 152.509 52.7952 152.116 53.181C151.722 53.5668 151.256 53.8682 150.717 54.0853C150.178 54.3023 149.596 54.4108 148.969 54.4108ZM148.969 52.4094C149.29 52.4094 149.588 52.3532 149.861 52.2406C150.142 52.1201 150.383 51.9593 150.584 51.7584C150.793 51.5494 150.954 51.3042 151.067 51.0229C151.187 50.7416 151.247 50.4362 151.247 50.1066C151.247 49.7771 151.187 49.4717 151.067 49.1904C150.954 48.909 150.793 48.6679 150.584 48.467C150.383 48.258 150.142 48.0972 149.861 47.9847C149.588 47.8641 149.29 47.8039 148.969 47.8039C148.647 47.8039 148.346 47.8641 148.065 47.9847C147.783 48.0972 147.538 48.258 147.329 48.467C147.128 48.6679 146.967 48.909 146.847 49.1904C146.734 49.4717 146.678 49.7771 146.678 50.1066C146.678 50.4362 146.734 50.7416 146.847 51.0229C146.967 51.3042 147.128 51.5494 147.329 51.7584C147.538 51.9593 147.783 52.1201 148.065 52.2406C148.346 52.3532 148.647 52.4094 148.969 52.4094Z" fill="#50265C"/>
<path d="M157.469 51.5534H157.325V54.2661H155.251V45.9472H158.301C158.727 45.9472 159.121 46.0195 159.483 46.1642C159.844 46.3089 160.158 46.5098 160.423 46.767C160.688 47.0162 160.897 47.3176 161.05 47.6712C161.203 48.0169 161.279 48.3946 161.279 48.8045C161.279 49.3591 161.139 49.8494 160.857 50.2754C160.576 50.7014 160.202 51.0269 159.736 51.252L161.52 54.2661H158.94L157.469 51.5534ZM157.325 49.7449H158.253C158.51 49.7449 158.723 49.6565 158.892 49.4797C159.069 49.3029 159.157 49.0818 159.157 48.8166C159.157 48.5594 159.069 48.3424 158.892 48.1656C158.723 47.9887 158.51 47.9003 158.253 47.9003H157.325V49.7449Z" fill="#50265C"/>
<path d="M167.763 54.2661L165.232 50.9506V54.2661H163.158V45.9472H165.232V49.2265L167.739 45.9472H170.271L167.088 50.0825L170.343 54.2661H167.763Z" fill="#50265C"/>
<path d="M173.998 54.4108C173.572 54.4108 173.174 54.3425 172.805 54.2058C172.443 54.0692 172.126 53.8843 171.852 53.6512C171.587 53.4101 171.378 53.1288 171.225 52.8073C171.073 52.4777 170.996 52.1201 170.996 51.7343H173.13C173.13 51.9674 173.215 52.1643 173.383 52.325C173.56 52.4858 173.777 52.5662 174.034 52.5662C174.268 52.5662 174.464 52.5059 174.625 52.3853C174.786 52.2567 174.866 52.1 174.866 51.9151C174.866 51.7865 174.826 51.674 174.746 51.5775C174.673 51.4811 174.573 51.3967 174.444 51.3243C174.316 51.252 174.167 51.1877 173.998 51.1314C173.838 51.0752 173.669 51.0229 173.492 50.9747C173.203 50.9024 172.913 50.8019 172.624 50.6733C172.343 50.5367 172.089 50.3638 171.864 50.1549C171.639 49.9378 171.458 49.6806 171.322 49.3833C171.185 49.0859 171.117 48.7322 171.117 48.3223C171.117 47.9606 171.189 47.627 171.334 47.3216C171.478 47.0162 171.679 46.7509 171.937 46.5259C172.194 46.3008 172.495 46.124 172.841 45.9954C173.195 45.8668 173.576 45.8025 173.986 45.8025C174.396 45.8025 174.778 45.8668 175.132 45.9954C175.485 46.124 175.791 46.3048 176.048 46.5379C176.313 46.763 176.518 47.0322 176.663 47.3457C176.807 47.6592 176.88 48.0008 176.88 48.3705H174.758C174.758 48.1615 174.681 47.9887 174.529 47.8521C174.384 47.7154 174.199 47.6471 173.974 47.6471C173.765 47.6471 173.588 47.7034 173.444 47.8159C173.307 47.9284 173.239 48.0691 173.239 48.2379C173.239 48.479 173.359 48.6679 173.6 48.8045C173.842 48.9331 174.147 49.0497 174.517 49.1542C174.822 49.2346 175.124 49.339 175.421 49.4676C175.718 49.5882 175.984 49.749 176.217 49.9499C176.45 50.1508 176.639 50.4 176.783 50.6974C176.928 50.9948 177 51.3565 177 51.7825C177 52.1522 176.924 52.4978 176.771 52.8193C176.619 53.1408 176.406 53.4222 176.132 53.6633C175.867 53.8964 175.55 54.0812 175.18 54.2179C174.818 54.3465 174.424 54.4108 173.998 54.4108Z" fill="#50265C"/>
</svg>
