<svg width="177" height="55" viewBox="0 0 177 55" fill="none" xmlns="http://www.w3.org/2000/svg">
<path d="M41.8902 14.3893V53.3747H29.5066V49.7819C28.1306 51.2089 26.5253 52.33 24.6907 53.1454C22.8561 53.9098 20.8432 54.292 18.6518 54.292C16.0018 54.292 13.5302 53.7824 11.237 52.7632C8.99466 51.693 7.03265 50.2661 5.35093 48.4824C3.66921 46.6478 2.34422 44.482 1.37595 41.9849C0.458651 39.4878 0 36.7868 0 33.882C0 30.9772 0.458651 28.2763 1.37595 25.7792C2.34422 23.2821 3.66921 21.1417 5.35093 19.3581C7.03265 17.5235 8.99466 16.0965 11.237 15.0773C13.5302 14.0071 16.0018 13.472 18.6518 13.472C20.8432 13.472 22.8561 13.8797 24.6907 14.6951C26.5253 15.4595 28.1306 16.5552 29.5066 17.9821V14.3893H41.8902ZM21.098 42.2906C23.5441 42.2906 25.5571 41.5007 27.1369 39.9209C28.7167 38.3411 29.5066 36.3282 29.5066 33.882C29.5066 31.4359 28.7167 29.4229 27.1369 27.8431C25.5571 26.2633 23.5441 25.4734 21.098 25.4734C18.6518 25.4734 16.6388 26.2633 15.0591 27.8431C13.5302 29.4229 12.7658 31.4359 12.7658 33.882C12.7658 36.3282 13.5302 38.3411 15.0591 39.9209C16.6388 41.5007 18.6518 42.2906 21.098 42.2906Z" fill="#E85046"/>
<path d="M55.953 21.3007L55.9532 0.015625H34.6681V8.94162H47.027V21.3007H55.953Z" fill="#E85046"/>
<path d="M92.0602 28.7046H78.2266L76.1022 34.6827H67.9009L80.6969 0.592864H89.7381L102.584 34.6827H94.1846L92.0602 28.7046ZM89.5899 21.6396L85.1434 9.0412L80.6969 21.6396H89.5899Z" fill="#50265C"/>
<path d="M116.801 35.2755C115.088 35.2755 113.491 35.012 112.009 34.485C110.56 33.9251 109.291 33.1676 108.205 32.2124C107.118 31.2243 106.261 30.0715 105.635 28.754C105.043 27.4365 104.746 26.0038 104.746 24.4557H112.602C112.602 25.5756 113.013 26.5308 113.837 27.3212C114.66 28.0788 115.681 28.4576 116.9 28.4576C118.053 28.4576 119.008 28.1447 119.765 27.5189C120.556 26.8931 120.951 26.119 120.951 25.1968C120.951 24.6039 120.786 24.0934 120.457 23.6652C120.128 23.2041 119.683 22.8089 119.123 22.4795C118.596 22.1172 117.954 21.8043 117.196 21.5408C116.472 21.2444 115.714 20.9973 114.924 20.7997C113.705 20.5033 112.503 20.0916 111.317 19.5646C110.164 19.0046 109.127 18.2965 108.205 17.4401C107.315 16.5838 106.591 15.5627 106.031 14.377C105.504 13.1583 105.24 11.742 105.24 10.1281C105.24 8.6789 105.52 7.34495 106.08 6.12628C106.673 4.87467 107.48 3.80422 108.501 2.91492C109.555 1.99269 110.774 1.28454 112.157 0.790487C113.573 0.263496 115.088 0 116.702 0C118.382 0 119.93 0.263496 121.346 0.790487C122.763 1.31748 123.981 2.04209 125.002 2.96433C126.056 3.88657 126.863 4.98995 127.423 6.2745C128.016 7.5261 128.313 8.89299 128.313 10.3752H120.457C120.457 9.35411 120.095 8.51421 119.37 7.85547C118.679 7.1638 117.789 6.81796 116.702 6.81796C115.648 6.81796 114.775 7.11439 114.084 7.70726C113.425 8.26719 113.096 8.97533 113.096 9.83169C113.096 10.9186 113.606 11.7914 114.627 12.4502C115.648 13.076 116.999 13.6194 118.679 14.0806C119.963 14.4099 121.215 14.8381 122.433 15.3651C123.652 15.8921 124.722 16.5673 125.645 17.3907C126.6 18.2142 127.357 19.2187 127.917 20.4045C128.51 21.5902 128.807 23.023 128.807 24.7027C128.807 26.2178 128.494 27.6177 127.868 28.9022C127.275 30.1868 126.435 31.3066 125.348 32.2618C124.294 33.184 123.026 33.9251 121.544 34.485C120.095 35.012 118.514 35.2755 116.801 35.2755Z" fill="#50265C"/>
<path d="M165.457 0.592864L152.118 34.6827H144.213L130.873 0.592864H139.42L148.264 24.4557L157.058 0.592864H165.457Z" fill="#50265C"/>
<path d="M169.257 0.592864H176.915V34.6827H169.257V0.592864Z" fill="#50265C"/>
<path d="M73.8109 47.9006H71.8337V54.2664H69.76V47.9006H67.7827V45.9474H73.8109V47.9006Z" fill="#50265C"/>
<path d="M82.7674 45.9474V54.2664H80.6937V51.0593H77.7037V54.2664H75.63V45.9474H77.7037V49.1062H80.6937V45.9474H82.7674Z" fill="#50265C"/>
<path d="M89.0469 54.411C88.42 54.411 87.8372 54.3025 87.2987 54.0855C86.7602 53.8685 86.294 53.5671 85.9002 53.1813C85.5063 52.7955 85.1969 52.3413 84.9718 51.8189C84.7468 51.2884 84.6342 50.7177 84.6342 50.1069C84.6342 49.496 84.7468 48.9294 84.9718 48.4069C85.1969 47.8764 85.5063 47.4183 85.9002 47.0325C86.294 46.6467 86.7602 46.3453 87.2987 46.1283C87.8372 45.9112 88.42 45.8027 89.0469 45.8027C89.6738 45.8027 90.2565 45.9112 90.7951 46.1283C91.3336 46.3453 91.7998 46.6467 92.1936 47.0325C92.5875 47.4183 92.8969 47.8764 93.122 48.4069C93.347 48.9294 93.4595 49.496 93.4595 50.1069C93.4595 50.7177 93.347 51.2884 93.122 51.8189C92.8969 52.3413 92.5875 52.7955 92.1936 53.1813C91.7998 53.5671 91.3336 53.8685 90.7951 54.0855C90.2565 54.3025 89.6738 54.411 89.0469 54.411ZM89.0469 52.4097C89.3684 52.4097 89.6658 52.3534 89.9391 52.2409C90.2204 52.1203 90.4615 51.9596 90.6625 51.7586C90.8714 51.5496 91.0322 51.3045 91.1447 51.0232C91.2653 50.7419 91.3256 50.4364 91.3256 50.1069C91.3256 49.7773 91.2653 49.4719 91.1447 49.1906C91.0322 48.9093 90.8714 48.6681 90.6625 48.4672C90.4615 48.2582 90.2204 48.0975 89.9391 47.985C89.6658 47.8644 89.3684 47.8041 89.0469 47.8041C88.7254 47.8041 88.424 47.8644 88.1427 47.985C87.8613 48.0975 87.6162 48.2582 87.4072 48.4672C87.2063 48.6681 87.0455 48.9093 86.925 49.1906C86.8124 49.4719 86.7562 49.7773 86.7562 50.1069C86.7562 50.4364 86.8124 50.7419 86.925 51.0232C87.0455 51.3045 87.2063 51.5496 87.4072 51.7586C87.6162 51.9596 87.8613 52.1203 88.1427 52.2409C88.424 52.3534 88.7254 52.4097 89.0469 52.4097Z" fill="#50265C"/>
<path d="M98.6807 54.411C98.1904 54.411 97.7323 54.3266 97.3063 54.1578C96.8803 53.981 96.5106 53.7439 96.1971 53.4465C95.8836 53.1411 95.6385 52.7834 95.4617 52.3735C95.2848 51.9555 95.1964 51.5054 95.1964 51.0232V45.9474H97.2581V50.987C97.2581 51.1879 97.2942 51.3768 97.3666 51.5537C97.4389 51.7305 97.5394 51.8832 97.668 52.0118C97.7966 52.1324 97.9453 52.2288 98.1141 52.3012C98.2909 52.3735 98.4798 52.4097 98.6807 52.4097C98.8897 52.4097 99.0786 52.3735 99.2474 52.3012C99.4242 52.2288 99.5729 52.1324 99.6935 52.0118C99.8221 51.8832 99.9225 51.7305 99.9949 51.5537C100.067 51.3768 100.103 51.1879 100.103 50.987V45.9474H102.177V51.0232C102.177 51.5054 102.089 51.9555 101.912 52.3735C101.735 52.7834 101.49 53.1411 101.176 53.4465C100.863 53.7439 100.493 53.981 100.067 54.1578C99.6412 54.3266 99.1791 54.411 98.6807 54.411Z" fill="#50265C"/>
<path d="M112.638 49.4076V50.131C112.638 50.7419 112.526 51.3085 112.3 51.831C112.083 52.3534 111.782 52.8075 111.396 53.1933C111.01 53.5711 110.556 53.8685 110.034 54.0855C109.511 54.3025 108.945 54.411 108.334 54.411C107.707 54.411 107.124 54.3025 106.586 54.0855C106.047 53.8685 105.581 53.5671 105.187 53.1813C104.793 52.7955 104.484 52.3413 104.259 51.8189C104.034 51.2884 103.921 50.7177 103.921 50.1069C103.921 49.496 104.034 48.9294 104.259 48.4069C104.484 47.8764 104.793 47.4183 105.187 47.0325C105.581 46.6467 106.047 46.3453 106.586 46.1283C107.124 45.9112 107.707 45.8027 108.334 45.8027C108.784 45.8027 109.21 45.859 109.612 45.9715C110.022 46.0841 110.396 46.2448 110.733 46.4538C111.071 46.6547 111.368 46.8959 111.625 47.1772C111.891 47.4585 112.1 47.772 112.252 48.1176C112.268 48.1578 112.284 48.202 112.3 48.2502C112.317 48.2904 112.333 48.3306 112.349 48.3708H109.865C109.439 47.993 108.929 47.8041 108.334 47.8041C108.012 47.8041 107.711 47.8644 107.43 47.985C107.148 48.0975 106.903 48.2582 106.694 48.4672C106.493 48.6681 106.333 48.9093 106.212 49.1906C106.099 49.4719 106.043 49.7773 106.043 50.1069C106.043 50.4364 106.099 50.7419 106.212 51.0232C106.333 51.3045 106.493 51.5496 106.694 51.7586C106.903 51.9596 107.148 52.1203 107.43 52.2409C107.711 52.3534 108.012 52.4097 108.334 52.4097C108.784 52.4097 109.182 52.3092 109.527 52.1083C109.881 51.8993 110.146 51.626 110.323 51.2884H108.394V49.4076H112.638Z" fill="#50265C"/>
<path d="M121.6 45.9474V54.2664H119.527V51.0593H116.537V54.2664H114.463V45.9474H116.537V49.1062H119.527V45.9474H121.6Z" fill="#50265C"/>
<path d="M129.423 47.9006H127.446V54.2664H125.372V47.9006H123.395V45.9474H129.423V47.9006Z" fill="#50265C"/>
<path d="M143.887 45.9474L140.958 54.2664H138.872L137.268 49.1303L135.653 54.2664H133.579L130.649 45.9474H132.94L134.652 51.3969L136.352 45.9474H138.221L139.945 51.421L141.645 45.9474H143.887Z" fill="#50265C"/>
<path d="M148.968 54.411C148.341 54.411 147.759 54.3025 147.22 54.0855C146.682 53.8685 146.215 53.5671 145.822 53.1813C145.428 52.7955 145.118 52.3413 144.893 51.8189C144.668 51.2884 144.556 50.7177 144.556 50.1069C144.556 49.496 144.668 48.9294 144.893 48.4069C145.118 47.8764 145.428 47.4183 145.822 47.0325C146.215 46.6467 146.682 46.3453 147.22 46.1283C147.759 45.9112 148.341 45.8027 148.968 45.8027C149.595 45.8027 150.178 45.9112 150.717 46.1283C151.255 46.3453 151.721 46.6467 152.115 47.0325C152.509 47.4183 152.818 47.8764 153.043 48.4069C153.268 48.9294 153.381 49.496 153.381 50.1069C153.381 50.7177 153.268 51.2884 153.043 51.8189C152.818 52.3413 152.509 52.7955 152.115 53.1813C151.721 53.5671 151.255 53.8685 150.717 54.0855C150.178 54.3025 149.595 54.411 148.968 54.411ZM148.968 52.4097C149.29 52.4097 149.587 52.3534 149.861 52.2409C150.142 52.1203 150.383 51.9596 150.584 51.7586C150.793 51.5496 150.954 51.3045 151.066 51.0232C151.187 50.7419 151.247 50.4364 151.247 50.1069C151.247 49.7773 151.187 49.4719 151.066 49.1906C150.954 48.9093 150.793 48.6681 150.584 48.4672C150.383 48.2582 150.142 48.0975 149.861 47.985C149.587 47.8644 149.29 47.8041 148.968 47.8041C148.647 47.8041 148.345 47.8644 148.064 47.985C147.783 48.0975 147.538 48.2582 147.329 48.4672C147.128 48.6681 146.967 48.9093 146.846 49.1906C146.734 49.4719 146.678 49.7773 146.678 50.1069C146.678 50.4364 146.734 50.7419 146.846 51.0232C146.967 51.3045 147.128 51.5496 147.329 51.7586C147.538 51.9596 147.783 52.1203 148.064 52.2409C148.345 52.3534 148.647 52.4097 148.968 52.4097Z" fill="#50265C"/>
<path d="M157.469 51.5537H157.324V54.2664H155.251V45.9474H158.301C158.727 45.9474 159.121 46.0197 159.482 46.1644C159.844 46.3091 160.157 46.51 160.423 46.7672C160.688 47.0164 160.897 47.3178 161.05 47.6715C161.202 48.0171 161.279 48.3949 161.279 48.8048C161.279 49.3594 161.138 49.8497 160.857 50.2757C160.575 50.7017 160.202 51.0272 159.735 51.2522L161.52 54.2664H158.94L157.469 51.5537ZM157.324 49.7452H158.253C158.51 49.7452 158.723 49.6568 158.892 49.4799C159.068 49.3031 159.157 49.0821 159.157 48.8168C159.157 48.5596 159.068 48.3426 158.892 48.1658C158.723 47.989 158.51 47.9006 158.253 47.9006H157.324V49.7452Z" fill="#50265C"/>
<path d="M167.763 54.2664L165.231 50.9508V54.2664H163.157V45.9474H165.231V49.2268L167.739 45.9474H170.271L167.088 50.0828L170.343 54.2664H167.763Z" fill="#50265C"/>
<path d="M173.998 54.411C173.572 54.411 173.174 54.3427 172.804 54.2061C172.443 54.0694 172.125 53.8846 171.852 53.6515C171.587 53.4103 171.378 53.129 171.225 52.8075C171.072 52.478 170.996 52.1203 170.996 51.7345H173.13C173.13 51.9676 173.214 52.1645 173.383 52.3253C173.56 52.486 173.777 52.5664 174.034 52.5664C174.267 52.5664 174.464 52.5061 174.625 52.3856C174.785 52.257 174.866 52.1002 174.866 51.9154C174.866 51.7867 174.826 51.6742 174.745 51.5778C174.673 51.4813 174.572 51.3969 174.444 51.3246C174.315 51.2522 174.167 51.1879 173.998 51.1317C173.837 51.0754 173.668 51.0232 173.491 50.9749C173.202 50.9026 172.913 50.8021 172.623 50.6735C172.342 50.5369 172.089 50.3641 171.864 50.1551C171.639 49.9381 171.458 49.6809 171.321 49.3835C171.185 49.0861 171.116 48.7324 171.116 48.3225C171.116 47.9608 171.189 47.6273 171.333 47.3218C171.478 47.0164 171.679 46.7512 171.936 46.5261C172.193 46.3011 172.495 46.1242 172.84 45.9956C173.194 45.867 173.576 45.8027 173.986 45.8027C174.396 45.8027 174.777 45.867 175.131 45.9956C175.485 46.1242 175.79 46.3051 176.047 46.5382C176.313 46.7632 176.518 47.0325 176.662 47.346C176.807 47.6594 176.879 48.001 176.879 48.3708H174.757C174.757 48.1618 174.681 47.989 174.528 47.8523C174.384 47.7157 174.199 47.6474 173.974 47.6474C173.765 47.6474 173.588 47.7036 173.443 47.8162C173.307 47.9287 173.238 48.0693 173.238 48.2381C173.238 48.4793 173.359 48.6681 173.6 48.8048C173.841 48.9334 174.146 49.0499 174.516 49.1544C174.822 49.2348 175.123 49.3393 175.42 49.4679C175.718 49.5885 175.983 49.7492 176.216 49.9502C176.449 50.1511 176.638 50.4003 176.783 50.6976C176.928 50.995 177 51.3567 177 51.7827C177 52.1525 176.923 52.4981 176.771 52.8196C176.618 53.1411 176.405 53.4224 176.132 53.6635C175.867 53.8966 175.549 54.0815 175.179 54.2181C174.818 54.3467 174.424 54.411 173.998 54.411Z" fill="#50265C"/>
</svg>
