<svg width="101" height="100" viewBox="0 0 101 100" fill="none" xmlns="http://www.w3.org/2000/svg">
<path d="M63.2552 31.2477C63.2552 38.5901 57.303 44.5423 49.9606 44.5423C42.6182 44.5423 36.666 38.5901 36.666 31.2477C36.666 23.9053 42.6182 17.9531 49.9606 17.9531C57.303 17.9531 63.2552 23.9053 63.2552 31.2477Z" fill="#F4A7A3"/>
<path fill-rule="evenodd" clip-rule="evenodd" d="M18.6716 29.4439C17.9721 32.8669 16.3583 40.9379 15.4654 45.9973C14.6566 50.5808 16.7628 52.7894 17.5323 53.242C17.6175 53.2921 17.6967 53.3517 17.7685 53.4196L26.1448 61.3472C26.406 61.5944 26.554 61.9383 26.554 62.298V65.7005H40.3624C40.3513 64.6442 40.352 63.096 40.3894 61.151C40.44 58.5237 39.0173 56.1474 38.2867 55.2811L26.3252 44.2561C25.7611 44.3031 25.3775 44.4294 25.1198 44.5688C24.6273 44.8352 24.3875 45.2687 24.3233 45.8953C24.2644 46.4708 24.3742 47.1159 24.5487 47.6474L33.8105 56.7701C34.3256 57.2774 34.3319 58.1063 33.8245 58.6214C33.3172 59.1365 32.4883 59.1428 31.9732 58.6354L22.4998 49.3045C22.3691 49.1757 22.2669 49.021 22.1999 48.8502C21.8712 48.013 21.5963 46.8235 21.7187 45.6285C21.8228 44.6124 22.2304 43.5254 23.1798 42.734C23.1566 40.4979 23.1343 36.1024 23.188 31.9175C23.2162 29.7161 22.84 28.5179 22.4963 27.9199C22.2682 27.5231 22.0863 27.4274 22.0432 27.4086C21.9626 27.4049 21.8825 27.3937 21.8039 27.3752C20.7142 27.1188 20.0493 27.4256 19.5971 27.8372C19.0859 28.3027 18.7796 28.9785 18.6716 29.4439ZM25.7887 41.6804C26.1144 41.639 26.4568 41.6184 26.8154 41.6184C27.1442 41.6184 27.4609 41.7421 27.7027 41.9649L40.1176 53.4078C40.1526 53.4401 40.1858 53.4743 40.2171 53.5102C41.1963 54.6334 43.0753 57.6591 43.0072 61.2013C42.9477 64.2973 42.9828 66.3446 43.0065 66.9594C43.0202 67.315 42.8884 67.6609 42.6416 67.9174C42.3948 68.1739 42.0543 68.3188 41.6983 68.3188H25.2449C24.5219 68.3188 23.9357 67.7327 23.9357 67.0097V62.8615L16.0664 55.4137C14.3035 54.2829 11.9263 50.9861 12.887 45.5423C13.7878 40.4379 15.4113 32.3209 16.1095 28.9046C16.1113 28.8956 16.1132 28.8866 16.1153 28.8776C16.309 28.0223 16.832 26.8138 17.8345 25.9011C18.8778 24.9513 20.3764 24.3893 22.2786 24.7984C23.2343 24.8711 24.146 25.536 24.7663 26.6151C25.4285 27.7671 25.8376 29.4856 25.806 31.9511C25.76 35.5421 25.7702 39.2933 25.7887 41.6804Z" fill="#50265C"/>
<path fill-rule="evenodd" clip-rule="evenodd" d="M44.2069 68.2628H23.4073V74.8971H44.2069V68.2628ZM23.4073 65.6445C21.9613 65.6445 20.7891 66.8168 20.7891 68.2628V74.8971C20.7891 76.3431 21.9613 77.5154 23.4073 77.5154H44.2069C45.6529 77.5154 46.8251 76.3431 46.8251 74.8971V68.2628C46.8251 66.8168 45.6529 65.6445 44.2069 65.6445H23.4073Z" fill="#50265C"/>
<path fill-rule="evenodd" clip-rule="evenodd" d="M79.9358 29.4439C80.6353 32.8669 82.2492 40.9379 83.142 45.9973C83.9509 50.5808 81.8446 52.7894 81.0751 53.242C80.9899 53.2921 80.9107 53.3517 80.839 53.4196L72.4627 61.3472C72.2014 61.5944 72.0534 61.9383 72.0534 62.298V65.7005H58.245C58.2561 64.6442 58.2554 63.096 58.218 61.151C58.1675 58.5237 59.5901 56.1474 60.3207 55.2811L72.2822 44.2561C72.8463 44.3031 73.2299 44.4294 73.4876 44.5688C73.9801 44.8352 74.2199 45.2687 74.2841 45.8953C74.343 46.4708 74.2332 47.1159 74.0587 47.6474L64.7969 56.7701C64.2818 57.2774 64.2755 58.1063 64.7829 58.6214C65.2902 59.1365 66.1191 59.1428 66.6342 58.6354L76.1076 49.3045C76.2383 49.1757 76.3405 49.021 76.4075 48.8502C76.7362 48.013 77.0111 46.8235 76.8887 45.6285C76.7846 44.6124 76.3771 43.5254 75.4276 42.734C75.4508 40.4979 75.4731 36.1024 75.4195 31.9175C75.3912 29.7161 75.7674 28.5179 76.1111 27.9199C76.3392 27.5231 76.5212 27.4274 76.5642 27.4086C76.6448 27.4049 76.7249 27.3937 76.8035 27.3752C77.8932 27.1188 78.5581 27.4256 79.0103 27.8372C79.5216 28.3027 79.8278 28.9785 79.9358 29.4439ZM72.8187 41.6804C72.493 41.639 72.1507 41.6184 71.792 41.6184C71.4632 41.6184 71.1465 41.7421 70.9048 41.9649L58.4899 53.4078C58.4548 53.4401 58.4216 53.4743 58.3903 53.5102C57.4111 54.6334 55.5321 57.6591 55.6002 61.2013C55.6597 64.2973 55.6246 66.3446 55.6009 66.9594C55.5872 67.315 55.719 67.6609 55.9658 67.9174C56.2126 68.1739 56.5532 68.3188 56.9091 68.3188H73.3625C74.0856 68.3188 74.6717 67.7327 74.6717 67.0097V62.8615L82.5411 55.4137C84.3039 54.2829 86.6811 50.9861 85.7204 45.5423C84.8197 40.4379 83.1962 32.3209 82.498 28.9046C82.4961 28.8956 82.4942 28.8866 82.4921 28.8776C82.2985 28.0223 81.7754 26.8138 80.7729 25.9011C79.7296 24.9513 78.231 24.3893 76.3288 24.7984C75.3731 24.8711 74.4614 25.536 73.8411 26.6151C73.1789 27.7671 72.7698 29.4856 72.8014 31.9511C72.8475 35.5421 72.8372 39.2933 72.8187 41.6804Z" fill="#50265C"/>
<path fill-rule="evenodd" clip-rule="evenodd" d="M54.8049 68.2638H75.6044V74.8981H54.8049V68.2638ZM75.6044 65.6455C77.0504 65.6455 78.2227 66.8177 78.2227 68.2638V74.8981C78.2227 76.3441 77.0504 77.5163 75.6044 77.5163H54.8049C53.3588 77.5163 52.1866 76.3441 52.1866 74.8981V68.2638C52.1866 66.8177 53.3588 65.6455 54.8049 65.6455H75.6044Z" fill="#50265C"/>
<path fill-rule="evenodd" clip-rule="evenodd" d="M49.9596 43.8713C56.933 43.8713 62.5861 38.2182 62.5861 31.2448C62.5861 24.2713 56.933 18.6183 49.9596 18.6183C42.9862 18.6183 37.3331 24.2713 37.3331 31.2448C37.3331 38.2182 42.9862 43.8713 49.9596 43.8713ZM49.9596 46.4896C58.3791 46.4896 65.2044 39.6642 65.2044 31.2448C65.2044 22.8253 58.3791 16 49.9596 16C41.5402 16 34.7148 22.8253 34.7148 31.2448C34.7148 39.6642 41.5402 46.4896 49.9596 46.4896Z" fill="#50265C"/>
<path fill-rule="evenodd" clip-rule="evenodd" d="M44.3926 25.0289C44.3926 24.4121 44.8926 23.9121 45.5093 23.9121H54.4121C55.0289 23.9121 55.5289 24.4121 55.5289 25.0289C55.5289 25.6457 55.0289 26.1457 54.4121 26.1457H45.5093C44.8926 26.1457 44.3926 25.6457 44.3926 25.0289Z" fill="#50265C"/>
<path fill-rule="evenodd" clip-rule="evenodd" d="M44.3926 28.1431C44.3926 27.5264 44.8926 27.0264 45.5093 27.0264H54.4121C55.0289 27.0264 55.5289 27.5264 55.5289 28.1431C55.5289 28.7599 55.0289 29.2599 54.4121 29.2599H45.5093C44.8926 29.2599 44.3926 28.7599 44.3926 28.1431Z" fill="#50265C"/>
<path fill-rule="evenodd" clip-rule="evenodd" d="M47.8415 25.0769C48.0298 24.4895 48.6586 24.1661 49.2459 24.3544C50.6625 24.8086 51.709 26.2964 51.9383 27.7837C52.0594 28.5694 51.9697 29.4327 51.535 30.2292C51.0963 31.0328 50.3557 31.6782 49.3341 32.1034C49.1981 32.16 49.0523 32.1892 48.905 32.1892H48.0096L52.0716 36.7224C52.4833 37.1817 52.4446 37.8877 51.9852 38.2993C51.5259 38.7109 50.8198 38.6722 50.4082 38.2129L44.6777 31.8177C44.3836 31.4896 44.31 31.0192 44.4897 30.617C44.6694 30.2147 45.0688 29.9556 45.5094 29.9556H48.6659C49.1662 29.7111 49.432 29.4201 49.5745 29.1591C49.7379 28.8597 49.7898 28.5063 49.7308 28.124C49.6 27.2752 49 26.6211 48.564 26.4813C47.9767 26.293 47.6532 25.6642 47.8415 25.0769Z" fill="#50265C"/>
</svg>
