<svg width="101" height="100" viewBox="0 0 101 100" fill="none" xmlns="http://www.w3.org/2000/svg">
<rect width="100" height="100" transform="translate(0.333984)" fill="white"/>
<g clip-path="url(#clip0_2503_21417)">
<path d="M14.0287 11.9014C11.4554 12.5986 9.39685 14.541 8.66638 16.9482C8.33435 18.0273 8.33435 18.4092 8.36755 41.5518L8.41736 65.043L9.03162 66.2881C9.81189 67.8652 11.1898 69.2266 12.767 69.9736L13.8959 70.5049L25.2181 70.5547L36.557 70.6045V74.2402V77.8926H32.0912C29.6508 77.8926 27.2435 77.9756 26.7455 78.0586C24.6537 78.457 22.7611 79.8018 21.931 81.4951C21.5658 82.2256 21.5326 82.5244 21.4828 85.3965L21.4164 88.501L21.848 88.9326L22.2631 89.3477H50.8344H79.4056L79.8207 88.9326L80.2523 88.501L80.1859 85.3965C80.1361 82.5244 80.1029 82.2256 79.7377 81.4951C78.9076 79.8018 77.015 78.457 74.9232 78.0586C74.4252 77.9756 72.0179 77.8926 69.5775 77.8926H65.1117V74.2402V70.6045L76.4506 70.5547L87.7728 70.5049L88.9017 69.9736C90.4955 69.2266 91.8734 67.8486 92.6371 66.2715L93.2514 65.0264V41.2031V17.3799L92.8861 16.4668C92.1224 14.5908 90.4125 12.9307 88.3871 12.1172L87.4408 11.7354L51.1664 11.7021C20.2875 11.6689 14.7592 11.7021 14.0287 11.9014ZM87.1586 14.7236C88.2875 15.0557 89.6654 16.3174 90.1967 17.4961L90.5951 18.376V41.0371C90.5951 59.9961 90.5619 63.8145 90.3627 64.3623C89.8314 65.873 88.6195 67.085 87.1088 67.6162C86.1459 67.9482 15.7885 67.9648 14.6263 67.6328C13.3812 67.2676 12.3187 66.3379 11.6547 65.043L11.0736 63.8975V41.1367V18.376L11.472 17.4961C11.9867 16.3672 13.3978 15.0557 14.4437 14.7402C15.1078 14.5244 20.3207 14.4912 50.7679 14.4912C82.1117 14.4746 86.3949 14.5078 87.1586 14.7236ZM62.2894 74.2402V77.8926H50.8344H39.3793V74.2402V70.5879H50.8344H62.2894V74.2402ZM74.807 80.9473C75.7367 81.2295 76.6498 81.8936 77.0814 82.6074C77.3305 83.0225 77.3969 83.4375 77.3969 84.8154V86.5254H50.8344H24.2719V84.8154C24.2719 82.9062 24.4545 82.4248 25.5004 81.6279C26.7289 80.6982 25.6166 80.7314 50.7679 80.7314C70.3744 80.7148 74.143 80.748 74.807 80.9473Z" fill="#50265C"/>
<path d="M14.8924 17.1304C14.3778 17.3296 13.8299 18.0103 13.6473 18.6411C13.3983 19.4712 13.4315 58.4185 13.6639 59.1157C13.7635 59.3979 13.9794 59.7134 14.1454 59.7964C14.577 60.0288 87.0926 60.0288 87.5243 59.7964C87.6903 59.7134 87.9061 59.3979 88.0057 59.1157C88.2548 58.4185 88.2714 19.4878 88.0223 18.6079C87.9393 18.2925 87.6239 17.811 87.3417 17.5288L86.8436 17.0474L51.034 17.0142C31.3446 16.9976 15.0751 17.0474 14.8924 17.1304ZM85.3661 38.4634V57.1401H50.8348H16.3036V38.4634V19.7866H50.8348H85.3661V38.4634Z" fill="#50265C"/>
<path d="M51.3154 23.0576C50.5186 23.7383 50.3359 24.3525 50.3359 26.4277C50.3359 28.5029 50.5186 29.1172 51.3154 29.7979C51.8467 30.2295 51.9131 30.2461 54.0049 30.2461H56.1465V31.3584V32.4873L53.4736 35.1602C50.9668 37.667 50.8008 37.8828 50.8008 38.4639C50.8008 39.0449 50.9668 39.2607 53.4736 41.7676L56.1465 44.4404V45.5527V46.6484L53.9219 46.7148C51.8135 46.7646 51.6641 46.7812 51.2324 47.1797C50.502 47.8604 50.3359 48.4912 50.3359 50.5332C50.3359 52.6748 50.6182 53.5215 51.5312 54.0693C52.0459 54.3848 52.3945 54.4014 57.4746 54.4014C62.5713 54.4014 62.9033 54.3848 63.418 54.0693C64.3809 53.5049 64.6133 52.791 64.6133 50.5C64.6133 48.3418 64.4971 47.9268 63.7002 47.1797C63.2852 46.7812 63.1357 46.7646 61.1104 46.7148L58.9688 46.6484V45.4697V44.2744L61.1768 42.0664L63.3682 39.875H67.4023H71.4199V43.2783V46.6816H69.3945C67.668 46.6816 67.2695 46.7314 66.8213 47.0137C65.8086 47.6279 65.6924 47.9932 65.6924 50.5166C65.6924 53.0068 65.7754 53.2725 66.8379 54.0527C67.2695 54.3848 67.502 54.4014 72.7148 54.4014C77.8779 54.4014 78.1768 54.3848 78.7246 54.0693C79.6875 53.5049 79.8867 52.8906 79.8867 50.5332C79.8867 47.1133 79.4717 46.6816 76.251 46.6816H74.2422V42.3486V38.0156L73.7607 37.5342L73.2793 37.0527H68.3154H63.3682L61.1768 34.8613L58.9688 32.6533V31.458V30.2461H60.9775C63.2686 30.2461 63.7002 30.0967 64.2646 29.084C64.5635 28.5361 64.6133 28.1875 64.6133 26.4277C64.6133 24.668 64.5635 24.3193 64.2646 23.7715C63.6006 22.6094 63.6504 22.6094 57.4248 22.6094H51.8633L51.3154 23.0576ZM61.791 26.5107V27.5898H57.4746H53.1582V26.5107V25.4316H57.4746H61.791V26.5107ZM59.1846 36.8535L60.7949 38.4639L59.1348 40.124L57.4746 41.7842L55.8145 40.124L54.1543 38.4639L55.7646 36.8535C56.6611 35.957 57.4248 35.2266 57.4746 35.2266C57.5244 35.2266 58.2881 35.957 59.1846 36.8535ZM61.791 50.583V51.6621H57.4746H53.1582V50.583V49.5039H57.4746H61.791V50.583ZM77.0645 50.583V51.6621H72.748H68.4316V50.583V49.5039H72.748H77.0645V50.583Z" fill="#50265C"/>
<path d="M68.2662 23.9038C67.9508 24.0532 67.5191 24.4351 67.3199 24.7505C66.9547 25.2984 66.9381 25.4312 66.9381 29.482C66.9381 35.5249 66.6226 35.2261 73.064 35.2261C79.522 35.2261 79.2232 35.5083 79.2232 29.3657C79.2232 25.4312 79.2066 25.2984 78.8414 24.7505C78.1275 23.6714 77.8121 23.605 73.0806 23.605C69.3785 23.605 68.7808 23.6382 68.2662 23.9038ZM76.4009 29.4155V32.4038H73.0806H69.7603V29.4155V26.4273H73.0806H76.4009V29.4155Z" fill="#50265C"/>
<path d="M31.1778 25.3154C30.8125 25.6807 30.4141 27.208 30.4141 28.2207C30.4141 28.5693 29.8496 29.084 29.4678 29.084C29.3516 29.084 28.7207 28.7021 28.0733 28.2207C26.3135 26.9258 26.1143 26.9756 24.1719 28.9512C22.2461 30.8936 22.2295 31.0098 23.5078 32.8027C24.3379 33.9482 24.4043 34.0811 24.2383 34.5293C24.0557 34.9941 23.9561 35.0273 22.4951 35.2764C20.2539 35.6416 20.2871 35.5918 20.2871 38.4805C20.2871 40.7881 20.3037 40.8545 20.6856 41.1699C20.9512 41.3691 21.6319 41.5684 22.5782 41.7012C23.9727 41.9004 24.0557 41.9336 24.2383 42.3984C24.4043 42.8467 24.3545 42.9795 23.5078 44.1416C22.1963 45.9678 22.2295 46.167 24.0723 48.0098C24.9356 48.8896 25.7158 49.5371 25.9981 49.6035C26.5459 49.7363 27.0772 49.4873 28.4219 48.5078C29.2354 47.9102 29.4014 47.8438 29.7832 47.9932C30.2813 48.1758 30.3145 48.2754 30.5801 49.9854C30.8955 51.9111 31.0449 51.9941 33.7842 51.9941C36.5401 51.9941 36.6065 51.9443 36.9551 49.7861C37.2373 48.126 37.2539 48.0762 37.8018 47.9434C38.1338 47.8604 38.4492 48.0098 39.3457 48.6572C41.2383 50.0352 41.5205 49.9854 43.5791 47.877C45.2061 46.1836 45.2559 45.8682 44.0274 44.1748C43.5791 43.5439 43.1973 42.9131 43.1973 42.7637C43.1973 42.083 43.4961 41.9004 44.9737 41.7012C46.1856 41.5186 46.501 41.4189 46.8828 41.0205C47.3477 40.5723 47.3477 40.5391 47.3477 38.4639C47.3477 36.3887 47.3477 36.3555 46.8994 35.9072C46.5176 35.542 46.1856 35.4258 44.9737 35.2432C43.6621 35.0439 43.4961 34.9775 43.2803 34.5625C43.0645 34.1309 43.0811 34.0645 43.9444 32.8857C45.2725 31.0928 45.2393 30.7607 43.5791 29.0508C42.2344 27.6562 41.4209 27.1582 40.8233 27.3574C40.6407 27.4238 39.9766 27.8389 39.3623 28.2871C38.4658 28.9346 38.1504 29.0674 37.8184 28.9844C37.2539 28.8516 37.2373 28.8184 36.9551 27.125C36.6231 25.0166 36.5069 24.9336 33.7178 24.9336C31.6758 24.9336 31.543 24.9502 31.1778 25.3154ZM34.3819 29.0342C34.6309 30.5947 34.8633 30.9932 35.6768 31.2422C36.0254 31.3584 36.6563 31.624 37.0879 31.8398C38.2002 32.4043 38.5987 32.3545 39.8106 31.4912C40.9561 30.6611 41.0723 30.6279 41.3711 30.9932C41.5371 31.1924 41.4375 31.4248 40.8067 32.3047C39.9434 33.5166 39.8604 34.0479 40.3584 35.0273C40.5244 35.3594 40.7569 35.957 40.8731 36.3389C40.9893 36.7373 41.2217 37.1689 41.3711 37.3018C41.5703 37.4844 43.9112 38.0488 44.4922 38.0488C44.5088 38.0488 44.5254 38.2314 44.5254 38.4639C44.5254 38.9121 44.5254 38.9121 42.7158 39.1943C41.4707 39.3936 41.1719 39.626 40.8731 40.5889C40.7569 40.9707 40.5244 41.5684 40.3584 41.9004C39.8604 42.8799 39.9434 43.4111 40.8067 44.623C41.5371 45.6523 41.5703 45.7188 41.2881 46.0176C41.0059 46.333 40.9893 46.3164 40.1426 45.7021C38.5655 44.54 38.4326 44.5068 37.1709 45.0879C36.6895 45.3037 36.0254 45.5693 35.6768 45.6689C34.8633 45.9512 34.6309 46.333 34.3819 47.877C34.1992 49.1221 34.166 49.1719 33.7344 49.1719C33.3028 49.1719 33.2862 49.1387 33.1035 47.8105C32.8877 46.3164 32.6719 45.9678 31.7588 45.6689C31.4268 45.5693 30.8125 45.3037 30.3809 45.0879C29.9492 44.8721 29.418 44.6895 29.2022 44.6895C28.9864 44.6895 28.2725 45.0547 27.6416 45.5029C26.4961 46.2998 26.4629 46.3164 26.1807 46.0176C25.9151 45.7188 25.9317 45.6689 26.5957 44.7725C27.6582 43.3281 27.708 43.0957 27.1104 41.8008C26.8282 41.2031 26.5957 40.6055 26.5957 40.4727C26.5957 39.9082 25.8653 39.377 24.8526 39.2109C23.126 38.9121 23.1094 38.9121 23.1094 38.4639C23.1094 38.0156 23.2588 37.9492 24.6866 37.7832C25.4502 37.7002 25.7823 37.5674 26.1309 37.2021C26.3799 36.9531 26.5957 36.6377 26.5957 36.5049C26.5957 36.3721 26.8282 35.7578 27.1104 35.1602C27.708 33.8652 27.6748 33.6162 26.5957 32.1553C25.9317 31.2588 25.9151 31.209 26.1807 30.9102C26.4629 30.6113 26.4961 30.6113 27.3262 31.2256C28.9532 32.4375 29.1026 32.4541 30.6133 31.7402C31.1778 31.4746 31.7754 31.2422 31.9248 31.2422C32.4893 31.2422 32.9043 30.5117 33.1035 29.1172C33.2862 27.7891 33.3028 27.7559 33.7344 27.7559C34.166 27.7559 34.1992 27.8057 34.3819 29.0342Z" fill="#50265C"/>
<path d="M31.9585 32.4873C30.1821 33.0352 28.5386 34.5459 27.9243 36.1895C27.4263 37.4844 27.4263 39.4434 27.9243 40.7383C28.3892 42 29.6675 43.3945 30.979 44.0752C31.9253 44.5732 32.0913 44.6064 33.7349 44.6064C35.312 44.6064 35.5776 44.5566 36.4243 44.1416C37.7358 43.4941 38.7983 42.415 39.4292 41.0703C39.9106 40.0742 39.9604 39.8086 39.9604 38.4639C39.9438 37.2021 39.8774 36.8203 39.4956 36.0068C38.6987 34.2803 37.4868 33.1514 35.7769 32.5869C34.5981 32.1885 33.021 32.1387 31.9585 32.4873ZM35.229 35.4258C36.6899 36.1895 37.4702 37.8164 37.0718 39.2607C36.7729 40.2734 35.9097 41.2695 34.98 41.6348C32.0415 42.7471 29.2358 39.5264 30.813 36.8203C31.7759 35.1768 33.6021 34.5957 35.229 35.4258Z" fill="#50265C"/>
<circle cx="33.9004" cy="38.5469" r="6.47461" fill="#F4A7A3"/>
<rect x="66.4395" y="23.2734" width="13.4473" height="12.9492" rx="3.32031" fill="#F4A7A3"/>
</g>
<defs>
<clipPath id="clip0_2503_21417">
<rect width="85" height="85" fill="white" transform="translate(8.33398 8)"/>
</clipPath>
</defs>
</svg>
