<svg width="100" height="100" viewBox="0 0 100 100" fill="none" xmlns="http://www.w3.org/2000/svg">
<path d="M46.0303 10.8594C45.749 11.1562 45.7021 11.2812 45.3271 13.0938C45.1709 13.9062 44.9678 14.6094 44.9053 14.6875C44.8271 14.75 44.1709 15.0469 43.4678 15.3438L42.1553 15.8906L40.6865 14.8906C38.5303 13.4531 38.7334 13.3906 35.6709 16.4531C32.6084 19.5156 32.6709 19.3125 34.124 21.4531L35.1084 22.9062L34.5771 24.2344C34.2646 24.9531 33.9678 25.625 33.8896 25.7188C33.8115 25.8125 33.2334 25.9688 32.6084 26.0781C31.999 26.1719 31.2178 26.3281 30.9053 26.4219C29.8271 26.7031 29.8428 26.6406 29.8428 30.7812C29.8428 34.8438 29.8584 34.8906 30.749 35.0938C30.9834 35.1406 31.374 35.2344 31.6084 35.2969L32.0615 35.3906L31.249 36.0781C29.249 37.7656 26.2959 41.7344 25.0771 44.4062L24.4677 45.75L23.4052 45.8125C21.3427 45.9688 19.3896 47.3594 18.4678 49.3438C18.0928 50.125 18.0459 50.4219 18.0459 51.7969C18.0459 53.1562 18.0928 53.4688 18.4521 54.2188C18.6709 54.7031 19.0928 55.3594 19.374 55.6719C19.6553 56 19.8584 56.2812 19.8271 56.2969C19.7959 56.3125 19.2959 56.5625 18.7334 56.8438C15.499 58.4531 13.0771 61.8906 12.7178 65.4219C12.624 66.3281 12.6396 66.4531 12.9678 66.7969L13.3271 67.1875H18.8896H24.4521L25.1865 68.7188C27.9834 74.5938 33.5303 79.7188 39.7334 82.1719C40.2178 82.375 40.624 82.5625 40.624 82.5938C40.624 82.625 40.4209 82.9844 40.1709 83.3906C39.5303 84.4375 39.124 85.5469 38.8115 87.0312C38.5303 88.4531 38.6709 89.1562 39.2803 89.2969C39.4521 89.3438 44.3896 89.3594 50.2178 89.3438L60.8271 89.2969L61.1396 88.875C61.4521 88.4531 61.4521 88.4219 61.1865 87.0781C60.9678 85.8906 60.4365 84.5938 59.4053 82.6406C59.3896 82.5781 59.8428 82.3438 60.4209 82.125C62.0146 81.4844 64.2803 80.25 65.9209 79.0938C67.7021 77.8594 70.4521 75.25 71.8428 73.4531C73.0459 71.9219 74.6396 69.3281 75.1396 68.0781L75.499 67.1875H81.0771H86.6709L87.0303 66.7969C87.3584 66.4531 87.374 66.3281 87.2803 65.4219C86.9209 61.8906 84.499 58.4531 81.2646 56.8438C80.7021 56.5625 80.2021 56.3125 80.1709 56.2969C80.1396 56.2812 80.3428 56 80.624 55.6719C80.9053 55.3594 81.3271 54.7031 81.5459 54.2188C81.8896 53.4688 81.9521 53.1562 81.9521 51.7969C81.9521 50.3438 81.9209 50.1562 81.4521 49.2031C80.499 47.2656 78.6084 45.9688 76.5771 45.8125L75.5303 45.75L74.9209 44.4062C73.6865 41.7188 70.4834 37.4219 68.5771 35.9375L67.9209 35.4062L68.374 35.2969C68.624 35.2344 69.0146 35.1406 69.249 35.0938C70.1396 34.8906 70.1553 34.8438 70.1553 30.7812C70.1553 26.6406 70.1709 26.7031 69.0928 26.4219C68.7803 26.3281 67.999 26.1719 67.3896 26.0781C66.7646 25.9688 66.1865 25.8125 66.1084 25.7188C66.0303 25.625 65.7178 24.9531 65.4209 24.2344L64.874 22.9062L65.874 21.4375C67.3271 19.3125 67.3896 19.5156 64.3271 16.4531C61.2646 13.3906 61.4678 13.4531 59.3115 14.8906L57.8428 15.8906L56.5303 15.3438C55.8271 15.0625 55.1553 14.7344 55.0615 14.6406C54.9678 14.5312 54.7646 13.7812 54.6084 12.9688C54.3271 11.4531 54.1553 10.9531 53.8428 10.75C53.749 10.6875 51.999 10.625 49.9678 10.625C46.8896 10.625 46.2334 10.6562 46.0303 10.8594ZM52.499 13.7031C52.6084 14.2031 52.749 14.9375 52.8428 15.3438C52.9209 15.7344 53.1084 16.1719 53.249 16.2969C53.5771 16.5781 57.6865 18.2812 58.0459 18.2812C58.1709 18.2812 58.9365 17.8438 59.7178 17.3281L61.1396 16.375L62.7646 18.0156L64.4053 19.6406L63.4521 21.0625C62.9365 21.8438 62.499 22.5938 62.499 22.7344C62.499 23.0938 64.2021 27.2188 64.4834 27.5312C64.6084 27.6719 65.0459 27.8594 65.4365 27.9375C65.8428 28.0312 66.5771 28.1719 67.0771 28.2812L67.9678 28.4531V30.7812V33.0938L67.2334 33.25C66.8115 33.3438 66.0928 33.4844 65.6084 33.5938C65.124 33.6875 64.6084 33.8906 64.4834 34.0312C64.2021 34.3438 62.499 38.4688 62.499 38.8281C62.499 38.9688 62.9053 39.6875 63.4209 40.4375L64.3428 41.8125L62.749 43.5L61.1553 45.2031L59.7178 44.25C58.9365 43.7188 58.1865 43.2812 58.0459 43.2812C57.6865 43.2812 53.5615 44.9844 53.249 45.2656C53.1084 45.3906 52.9209 45.8281 52.8428 46.2188C52.749 46.625 52.6084 47.3594 52.499 47.8438L52.3271 48.75H49.999H47.6865L47.5303 48C47.4365 47.5938 47.2959 46.875 47.1865 46.3906C47.0928 45.9062 46.8896 45.3906 46.749 45.2656C46.4365 44.9844 42.3115 43.2812 41.9521 43.2812C41.8115 43.2812 41.0615 43.7188 40.2803 44.2344L38.8584 45.1875L37.2334 43.5469L35.5928 41.9219L36.5459 40.5C37.0615 39.7188 37.499 38.9688 37.499 38.8281C37.499 38.4375 35.7803 34.3281 35.499 34.0312C35.3428 33.875 34.5615 33.625 33.6396 33.4219L32.0303 33.0781V30.7656V28.4531L32.9365 28.2812C33.4209 28.1719 34.1553 28.0312 34.5615 27.9375C34.9521 27.8594 35.3896 27.6719 35.5146 27.5312C35.7959 27.2188 37.499 23.0781 37.499 22.7344C37.499 22.5938 37.0615 21.8438 36.5459 21.0625L35.5928 19.6406L37.2334 18.0156L38.8584 16.375L40.2803 17.3281C41.0615 17.8438 41.8115 18.2812 41.9521 18.2812C42.3115 18.2812 46.4365 16.5781 46.749 16.2969C46.8896 16.1719 47.0771 15.7344 47.1553 15.3438C47.249 14.9375 47.3896 14.2031 47.499 13.7031L47.6709 12.8125H49.999H52.3271L52.499 13.7031ZM34.6709 37.5156C34.8428 37.9688 34.999 38.4219 34.999 38.5312C34.999 38.6406 34.5771 39.3906 34.0615 40.1719C33.4209 41.1406 33.124 41.75 33.124 42.0781C33.124 42.5 33.4678 42.9219 35.6709 45.1094C38.7334 48.1719 38.5303 48.1094 40.6553 46.6562L42.124 45.6562L43.4521 46.2031C44.1709 46.5 44.8428 46.8125 44.9365 46.8906C45.0303 46.9688 45.1865 47.5469 45.2959 48.1719C45.3896 48.7812 45.5459 49.5625 45.6396 49.875C45.9209 50.9531 45.8584 50.9375 49.9678 50.9375C51.999 50.9375 53.749 50.875 53.8428 50.8125C54.1553 50.6094 54.3271 50.1094 54.6084 48.5938C54.7646 47.7812 54.9678 47.0312 55.0615 46.9219C55.1553 46.8281 55.8271 46.5 56.5459 46.2031L57.8584 45.6562L59.3271 46.6562C61.4678 48.1094 61.2646 48.1719 64.3271 45.1094C67.3896 42.0469 67.3271 42.25 65.8896 40.0938L64.8896 38.625L65.2803 37.6719C65.4834 37.1406 65.7021 36.7188 65.7803 36.7188C65.8428 36.7188 66.499 37.2969 67.249 37.9844C69.374 39.9844 70.9678 42.0625 72.4053 44.7031C73.124 46.0312 73.2803 46.5625 72.9521 46.5625C72.5459 46.5625 70.9521 48.3281 70.5303 49.2656C70.124 50.125 70.0771 50.4062 70.0771 51.7969C70.0771 53.1875 70.124 53.4688 70.5146 54.2969C70.749 54.8125 71.1709 55.4531 71.4365 55.7344L71.9053 56.2188L71.0771 56.6406C68.8428 57.7656 66.999 59.5312 65.9365 61.5781C64.8896 63.5938 64.3896 66.1094 64.9053 66.8125C65.1084 67.0938 65.4053 67.1094 69.0459 67.1875L72.9678 67.2656L72.0615 68.8438C69.0615 74.0156 64.624 77.8906 59.249 80.0156C57.7334 80.6094 57.6084 80.625 57.2959 80.3906C56.3115 79.6875 55.2646 79.0469 54.7021 78.8125L54.0615 78.5625L54.6865 77.8594C55.5928 76.8281 55.9834 75.6875 55.9834 74.0625C55.9834 72.1562 55.5771 71.1719 54.2334 69.8281C52.8896 68.5 51.9053 68.0781 49.999 68.0781C48.0928 68.0781 47.1084 68.5 45.7646 69.8281C44.4209 71.1719 44.0146 72.1562 44.0146 74.0625C44.0146 75.6875 44.4053 76.8281 45.3115 77.8594L45.9365 78.5625L45.4053 78.75C45.1084 78.8438 44.2959 79.3125 43.5928 79.7812L42.3271 80.625L40.7334 80C37.5303 78.75 34.749 76.9219 32.2646 74.4531C30.4365 72.6562 29.2178 71.0625 27.9365 68.8438L27.0302 67.2656L30.9521 67.1875C34.5928 67.1094 34.8896 67.0938 35.0928 66.8125C35.3896 66.3906 35.374 65.4219 34.999 64C34.2334 60.9844 31.999 58.2188 29.2334 56.8438C28.6709 56.5625 28.1709 56.3125 28.1396 56.2812C28.0927 56.2656 28.2802 56.0156 28.5615 55.7344C28.8271 55.4688 29.249 54.8125 29.4834 54.2969C29.874 53.4688 29.9209 53.1875 29.9209 51.7969C29.9209 50.3438 29.8896 50.1562 29.4053 49.1875C28.9365 48.2344 27.4209 46.5625 27.0146 46.5625C26.5459 46.5625 27.4209 44.7344 29.0771 42.25C29.8584 41.0781 30.8115 39.9531 32.124 38.625C33.1709 37.5781 34.1084 36.7188 34.1865 36.7188C34.2646 36.7188 34.4834 37.0781 34.6709 37.5156ZM25.7177 48.4062C26.9677 49.0469 27.8115 50.4062 27.8115 51.7969C27.8115 54.4844 24.9209 56.3906 22.499 55.2969C20.9834 54.6094 20.249 53.4688 20.2334 51.7969C20.2334 50.875 20.2959 50.5781 20.6709 49.9688C21.7177 48.1719 23.9209 47.4844 25.7177 48.4062ZM77.8896 48.5156C79.2021 49.2812 79.9678 50.7656 79.7959 52.2188C79.4834 54.8125 76.7803 56.3438 74.4521 55.25C71.2021 53.7188 71.5459 49.2344 74.999 48.1094C75.7178 47.875 77.1396 48.0625 77.8896 48.5156ZM26.249 58.0469C28.8584 58.7344 31.0615 60.5312 32.1709 62.8594C32.499 63.5625 32.8271 64.3281 32.874 64.5625L32.9678 65H23.9834H14.9834L15.0928 64.6406C15.6865 62.7188 16.3584 61.5781 17.7021 60.2656C18.6709 59.3281 20.2646 58.4375 21.6396 58.0469C22.6865 57.7656 25.1865 57.7656 26.249 58.0469ZM78.2803 58.0469C79.7803 58.4375 81.3271 59.3125 82.3896 60.375C83.6709 61.625 84.3271 62.75 84.9053 64.6406L85.0146 65H76.0146H67.0303L67.124 64.5625C67.1709 64.3281 67.499 63.5469 67.8428 62.8281C68.9365 60.5625 71.0303 58.8125 73.5146 58.1094C74.7021 57.7656 77.1084 57.7344 78.2803 58.0469ZM51.6553 70.6406C52.9834 71.2656 53.7803 72.5781 53.7803 74.0625C53.7803 76.2188 52.1553 77.8438 49.999 77.8438C47.8428 77.8438 46.2178 76.2188 46.2178 74.0625C46.2178 72.5781 47.0146 71.2969 48.3271 70.6406C49.2178 70.1875 50.749 70.1875 51.6553 70.6406ZM51.9053 80.2344C53.2646 80.5156 54.749 81.2344 55.8428 82.125C57.2021 83.2188 58.499 85.2031 58.8271 86.6875L58.9365 87.1875H50.0146C42.1396 87.1875 41.0928 87.1562 41.0928 86.9531C41.0928 86.4688 41.8896 84.7969 42.5771 83.8281C44.6709 80.8906 48.3584 79.4688 51.9053 80.2344Z" fill="#50265C"/>
<path d="M47.375 20.2965C45.4062 20.7809 44.0156 21.609 42.4219 23.2027C41.3437 24.2652 40.875 24.8902 40.4219 25.7809C38.8281 28.9996 38.8281 32.5621 40.4219 35.7809C41.25 37.4371 43.3594 39.5465 45.0156 40.359C48.5937 42.109 52.6562 41.9215 55.7969 39.8746C60.5312 36.7809 62.1094 30.8746 59.5781 25.7809C58.7031 24.0465 56.6406 22.0152 54.8437 21.1402C54.1094 20.7809 53.0156 20.3902 52.3906 20.2496C50.9375 19.9215 48.8125 19.9527 47.375 20.2965ZM52.0937 22.3434C53.7969 22.7809 54.7344 23.3277 56.1094 24.6871C57.4531 26.0309 58.1562 27.2652 58.5156 28.984C58.7969 30.3434 58.8125 31.2027 58.5312 32.5152C58.3125 33.484 57.7031 35.1559 57.5469 35.1559C57.5156 35.1559 57.0312 34.7184 56.5 34.1715C55.9219 33.5934 55.0781 32.9527 54.4844 32.6559L53.4687 32.1246L53.7656 31.7027C54.7812 30.2809 55 28.2652 54.3125 26.7809C53.875 25.8434 53.0625 24.984 52.1406 24.4996C51.5937 24.2027 51.2344 24.1402 50 24.1402C48.7656 24.1402 48.4062 24.2027 47.8594 24.4996C45.2187 25.9059 44.4687 29.2184 46.2344 31.7027L46.5469 32.1402L45.8437 32.4684C44.8906 32.9371 43.5469 33.9684 43.0469 34.6246C42.8281 34.9215 42.5781 35.1559 42.5156 35.1559C42.4375 35.1559 42.2344 34.8121 42.0469 34.3902C40.5469 30.9059 41.2344 27.3277 43.8906 24.6871C45.2344 23.3434 46.2031 22.7809 47.8437 22.3434C49.3281 21.9527 50.5937 21.9527 52.0937 22.3434ZM51.2031 26.4215C53.6562 27.609 52.75 31.4059 50 31.4059C47.2656 31.4059 46.3437 27.6402 48.7812 26.4215C49.625 25.9996 50.3437 25.9996 51.2031 26.4215ZM52.7187 34.109C53.9375 34.6715 55.0312 35.4996 55.625 36.2965L56.1094 36.9527L55.4844 37.5152C54.2344 38.6246 51.7969 39.5309 50 39.5309C48.1719 39.5309 45.7812 38.6559 44.5 37.4996L43.8594 36.9371L44.5469 36.109C45.2812 35.2184 46.7969 34.2027 47.9687 33.8277C48.4375 33.6715 49.1875 33.609 50.2344 33.6402C51.5469 33.6715 51.9375 33.7496 52.7187 34.109Z" fill="#50265C"/>
<path d="M53.3262 55.0312L49.998 58.3438L48.8574 57.2344C48.248 56.6094 47.5449 56.0312 47.3105 55.9531C46.5137 55.6562 45.7793 56.1562 45.7793 57.0156C45.7793 57.5312 45.9512 57.75 47.623 59.4219C49.2637 61.0625 49.5137 61.25 49.998 61.25C50.5137 61.25 50.8418 60.9531 54.498 57.2969C58.1855 53.6094 58.4355 53.3281 58.4355 52.7969C58.4355 52.0781 58.0449 51.7188 57.2637 51.7188C56.6855 51.7188 56.5137 51.8594 53.3262 55.0312Z" fill="#50265C"/>
<path d="M47.75 13.0781C47.7031 13.2344 47.5469 13.9844 47.4062 14.7344C47.2031 15.7812 47.0625 16.1719 46.7812 16.3906C46.4219 16.6719 42.9062 18.1719 42.1719 18.3594C41.8594 18.4375 41.4688 18.25 40.3125 17.5L38.8594 16.5312L37.3125 18.0938L35.75 19.6406L36.7188 21.0938C37.4688 22.25 37.6562 22.6406 37.5781 22.9531C37.3906 23.6875 35.8906 27.2031 35.6094 27.5625C35.3906 27.8438 35 27.9844 33.9531 28.1875C33.2031 28.3281 32.4531 28.4844 32.3125 28.5312C32.0625 28.6094 32.0312 28.8594 32.0312 30.7812C32.0312 32.7031 32.0625 32.9531 32.3125 33.0312C32.4531 33.0781 33.2031 33.2344 33.9531 33.375C35 33.5781 35.3906 33.7188 35.6094 34C35.8906 34.3594 37.3906 37.875 37.5781 38.6094C37.6562 38.9219 37.4688 39.3125 36.7031 40.4688L35.75 41.9375L37.3438 43.4531L38.9531 44.9688L40.3594 44.0469C41.125 43.5312 41.8281 43.125 41.9375 43.125C42.2812 43.125 46.4844 44.9062 46.8125 45.1875C47.0469 45.4062 47.2188 45.8906 47.4062 46.8438C47.5625 47.5938 47.7031 48.3281 47.75 48.4688C47.8281 48.7188 48.0781 48.75 50 48.75C51.9219 48.75 52.1719 48.7188 52.25 48.4688C52.2969 48.3281 52.4375 47.5938 52.5938 46.8438C52.75 46.0156 52.9531 45.3906 53.125 45.2344C53.4219 44.9531 57.7031 43.125 58.0469 43.125C58.1562 43.125 58.875 43.5469 59.6562 44.0469L61.0469 44.9688L62.5625 43.4531C63.3906 42.625 64.0625 41.8906 64.0625 41.8281C64.0625 41.7656 63.6094 41.0469 63.0625 40.2188L62.0781 38.7344L63.0938 36.2812C63.6406 34.9375 64.1094 33.8125 64.125 33.7969C64.1406 33.7812 64.9375 33.6094 65.9062 33.4062L67.6562 33.0469V30.7812V28.5L66.25 28.2344C64.0469 27.8125 64.2344 28 63.0938 25.2188L62.0625 22.75L63.125 21.1562L64.1875 19.5781L62.6719 18.0625L61.1406 16.5312L59.6875 17.5C58.5312 18.25 58.1406 18.4375 57.8281 18.3594C57.0938 18.1719 53.5781 16.6719 53.2188 16.3906C52.9375 16.1719 52.7969 15.7812 52.5938 14.7344C52.4531 13.9844 52.2969 13.2344 52.25 13.0781C52.1719 12.8438 51.9219 12.8125 50 12.8125C48.0781 12.8125 47.8281 12.8438 47.75 13.0781ZM52.1406 20.0781C52.9219 20.2188 53.8906 20.5625 54.8438 21.0312C56.0781 21.6406 56.5625 22 57.6719 23.1094C58.7969 24.2344 59.1406 24.7031 59.7344 25.9375C61.3281 29.2031 61.3281 32.3594 59.7344 35.625C59.125 36.875 58.8125 37.3281 57.6562 38.4688C56.5156 39.5938 56.0469 39.9375 54.8281 40.5156C51.5469 42.1094 48.4062 42.1094 45.1875 40.5312C43.3906 39.6562 41.7656 38.1875 40.6562 36.4375C39.2344 34.1719 38.8125 32.6719 38.9375 30.1875C39.0312 28.2812 39.5156 26.8438 40.625 25.1406C43.2656 21.125 47.5938 19.2188 52.1406 20.0781Z" fill="#F4A7A3"/>
<path d="M48.5 33.8281C46.9531 34.1562 45.4531 35.0938 44.5 36.2812L44 36.9219L44.6094 37.4531C47.5 39.9688 52.5 39.9688 55.3906 37.4531L56 36.9219L55.125 36C53.9844 34.7969 52.8281 34.1094 51.4688 33.8281C50.1719 33.5469 49.75 33.5469 48.5 33.8281Z" fill="white"/>
<path d="M47.9059 22.4375C44.9216 23.1562 42.3591 25.75 41.6403 28.7656C41.2028 30.6406 41.4216 32.875 42.2028 34.4219L42.5153 35.0312L43.2497 34.2656C44.0309 33.4531 45.1872 32.6094 45.9372 32.2812L46.4059 32.0938L46.0153 31.5625C44.6716 29.75 44.9216 26.9844 46.5778 25.3281C47.5934 24.3125 48.4372 23.9844 49.9997 23.9844C51.5622 23.9844 52.4059 24.3125 53.4216 25.3281C55.0778 26.9844 55.3278 29.75 53.9841 31.5625L53.5934 32.0938L54.0622 32.2812C54.8122 32.5938 55.8591 33.375 56.7028 34.2344L57.4841 35.0312L57.7966 34.3906C58.5622 32.9062 58.7809 30.6094 58.3591 28.7812C57.6403 25.75 55.0466 23.1406 52.0153 22.4219C50.7809 22.1406 49.1247 22.1406 47.9059 22.4375Z" fill="#ECECEC"/>
</svg>
