<svg width="100" height="100" viewBox="0 0 100 100" fill="none" xmlns="http://www.w3.org/2000/svg">
<rect width="100" height="100" fill="white"/>
<path d="M17.8566 13.7233C16.1336 14.3459 14.8593 15.5043 14.034 17.1839L13.5706 18.1396L13.5272 52.0948C13.4838 83.9359 13.4982 86.0789 13.7299 86.5278C13.8747 86.7884 14.1933 87.1214 14.4394 87.2807C14.9028 87.5703 15.2648 87.5703 41.7482 87.5703C67.7973 87.5703 68.6082 87.5558 69.0136 87.2952C69.8824 86.716 69.9693 86.4119 69.9693 84.0083V81.8218L71.8951 81.7349C76.0797 81.5757 79.7721 79.9539 82.7839 76.9276C84.8834 74.8281 86.3459 72.3086 87.1567 69.3837C87.5332 68.037 87.5622 67.7764 87.5622 65.1266C87.5622 62.4768 87.5332 62.2162 87.1567 60.8551C85.535 55.0052 81.1187 50.5744 75.3268 48.9816C74.2842 48.692 73.4734 48.5762 71.9675 48.5183L69.9693 48.4314V40.3516V32.2574H73.6037C76.9775 32.2574 77.2816 32.2429 77.7159 31.9678C78.6861 31.3597 78.6861 31.4466 78.6282 24.4383L78.5847 18.1396L78.0924 17.126C77.4408 15.7939 76.2969 14.65 74.9648 13.9984L73.9512 13.5061L46.2949 13.4771C19.2901 13.4481 18.6241 13.4481 17.8566 13.7233ZM65.7557 18.241C65.6833 18.5306 65.6253 25.0175 65.6253 34.0095V49.3146L65.2344 49.416C64.5828 49.5753 62.2805 50.7771 61.2814 51.4866C59.9348 52.4278 57.9945 54.426 57.0823 55.8306L56.2859 57.0179H46.4397C37.0423 57.0179 36.579 57.0324 36.1735 57.293C35.5075 57.7419 35.2179 58.2921 35.2179 59.1899C35.2179 60.0876 35.5075 60.6379 36.1735 61.0867C36.579 61.3474 37.0278 61.3618 45.6288 61.3618H54.6497L54.5628 61.7528C54.5194 61.9845 54.4325 62.9546 54.3746 63.9248L54.2877 65.7058H45.4406C37.0134 65.7058 36.579 65.7203 36.1735 65.9809C35.5075 66.4298 35.2179 66.98 35.2179 67.8778C35.2179 68.7755 35.5075 69.3257 36.1735 69.7746C36.579 70.0353 37.0278 70.0497 45.8026 70.0497H55.0117L55.1999 70.6579C55.3013 71.0054 55.7067 71.9321 56.1266 72.7285C56.5321 73.5249 56.8796 74.2199 56.9085 74.2778C56.9375 74.3502 52.3764 74.3937 46.7727 74.3937C37.0423 74.3937 36.579 74.4082 36.1735 74.6688C35.5075 75.1177 35.2179 75.6679 35.2179 76.5657C35.2179 77.4634 35.5075 78.0136 36.1735 78.4625C36.579 78.7231 37.0858 78.7376 48.8578 78.7376H61.1366L62.3964 79.4616C63.1059 79.8671 64.105 80.3738 64.6407 80.591L65.6253 80.982V82.0969V83.2264H41.7338H17.8422L17.8711 51.3273L17.9146 19.4428L18.2331 18.936C18.5806 18.3713 19.0005 18.0672 19.6521 17.9079C19.8983 17.85 30.3961 17.8066 42.9935 17.7921L65.9005 17.7776L65.7557 18.241ZM73.1838 18.1686C73.4155 18.3134 73.7485 18.6609 73.9222 18.936C74.2263 19.4283 74.2408 19.6165 74.2842 23.6709L74.3277 27.9135H72.1412H69.9548L69.9982 23.6709C70.0417 19.66 70.0562 19.4138 70.3457 18.965C70.9829 17.9658 72.2281 17.6183 73.1838 18.1686ZM73.2272 53.1228C77.4698 53.8758 81.1476 57.1048 82.5811 61.3618C83.0011 62.5782 83.059 62.9691 83.1169 64.6922C83.1748 66.8642 83.03 67.8054 82.306 69.6733C81.1476 72.6416 78.3965 75.3638 75.4137 76.4933C73.7919 77.1014 72.648 77.3041 70.9249 77.3041C67.5656 77.2896 64.6262 76.0444 62.2226 73.5828C60.9773 72.3086 59.9927 70.7013 59.3701 68.8914C58.9067 67.5592 58.8923 67.4579 58.8923 65.1266C58.8923 62.7954 58.9067 62.694 59.3701 61.3618C60.0362 59.4505 60.9773 57.9157 62.3819 56.5256C65.2634 53.6296 69.1729 52.4133 73.2272 53.1228Z" fill="#50265C"/>
<path d="M39.1554 22.5413C37.5047 23.0192 36.4042 23.6852 35.0721 25.0174C33.1173 26.9722 32.3209 28.8835 32.3209 31.6781C32.3209 33.7487 32.7843 35.3705 33.7834 36.8619C34.0151 37.2094 34.2033 37.5135 34.1743 37.5424C34.1454 37.5569 33.5951 37.8465 32.9436 38.194C30.844 39.2945 29.0485 41.1189 27.9336 43.2475C26.8621 45.2891 26.6449 46.1724 26.558 48.8222C26.4856 51.4286 26.5869 51.834 27.4702 52.3842C27.9336 52.6738 28.2521 52.6738 41.7328 52.6738C55.2134 52.6738 55.532 52.6738 55.9953 52.3842C56.8786 51.834 56.9799 51.4286 56.9075 48.8222C56.8496 46.8385 56.7772 46.3606 56.4587 45.3615C55.4451 42.3063 53.3166 39.7144 50.6088 38.2375C49.9862 37.8899 49.4215 37.6003 49.3491 37.5714C49.2912 37.5569 49.436 37.2383 49.6821 36.8764C50.6812 35.3705 51.1446 33.7487 51.1446 31.6781C51.1446 28.8835 50.3482 26.9722 48.3934 25.0174C47.0468 23.6708 45.7871 22.9178 44.1074 22.4979C42.8767 22.1793 40.3427 22.2083 39.1554 22.5413ZM43.5717 27.0735C44.7011 27.479 45.9319 28.7242 46.3518 29.8681C46.7572 30.9541 46.7572 32.4021 46.3518 33.5026C45.9319 34.632 44.6721 35.8772 43.5282 36.3116C42.3699 36.746 40.6757 36.6881 39.6332 36.1668C38.6051 35.6745 37.4757 34.4727 37.1137 33.4881C36.7083 32.4021 36.7083 30.9541 37.1137 29.8536C37.5192 28.7677 38.7934 27.479 39.8649 27.0735C40.9509 26.6536 42.4712 26.6536 43.5717 27.0735ZM46.9889 41.5823C47.5971 41.785 48.379 42.1325 48.7265 42.3352C49.5808 42.871 50.6523 43.928 51.2315 44.8113C51.7238 45.5642 52.4478 47.4756 52.4478 48.0258V48.3299H41.7328H31.0177V48.0258C31.0177 47.8665 31.177 47.2439 31.3797 46.6357C32.3788 43.6674 34.8549 41.6257 37.968 41.2348C38.4893 41.1624 40.473 41.1334 42.3843 41.1479C45.7002 41.1913 45.9029 41.2058 46.9889 41.5823Z" fill="#50265C"/>
<path d="M23.1412 57.2935C22.4751 57.7424 22.1855 58.2926 22.1855 59.1903C22.1855 60.0881 22.4751 60.6383 23.1412 61.0872C23.5177 61.3333 23.8652 61.3623 26.5295 61.3623C29.8019 61.3623 29.9901 61.3189 30.5983 60.4066C30.9748 59.8419 30.9748 58.5387 30.5983 57.974C29.9901 57.0618 29.8019 57.0184 26.5295 57.0184C23.8652 57.0184 23.5177 57.0473 23.1412 57.2935Z" fill="#50265C"/>
<path d="M23.1412 65.981C22.4751 66.4299 22.1855 66.9801 22.1855 67.8778C22.1855 68.7756 22.4751 69.3258 23.1412 69.7747C23.5177 70.0208 23.8652 70.0498 26.5295 70.0498C29.8019 70.0498 29.9901 70.0064 30.5983 69.0941C30.9748 68.5294 30.9748 67.2262 30.5983 66.6615C29.9901 65.7493 29.8019 65.7059 26.5295 65.7059C23.8652 65.7059 23.5177 65.7348 23.1412 65.981Z" fill="#50265C"/>
<path d="M23.1412 74.6685C22.4751 75.1174 22.1855 75.6676 22.1855 76.5653C22.1855 77.4631 22.4751 78.0133 23.1412 78.4622C23.5177 78.7083 23.8652 78.7373 26.5295 78.7373C29.8019 78.7373 29.9901 78.6939 30.5983 77.7816C30.9748 77.2169 30.9748 75.9137 30.5983 75.349C29.9901 74.4368 29.8019 74.3934 26.5295 74.3934C23.8652 74.3934 23.5177 74.4223 23.1412 74.6685Z" fill="#50265C"/>
<ellipse cx="71.063" cy="65.7652" rx="17.4438" ry="17.4439" fill="#F4A7A3"/>
<path d="M75.881 59.4772C75.6493 59.593 73.9117 61.2147 72.0439 63.0971L68.6411 66.5143L67.2655 65.1388C65.9334 63.8211 65.1805 63.3288 64.4854 63.3288C63.8918 63.3433 62.9361 63.879 62.632 64.3713C62.2845 64.936 62.2411 66.051 62.5451 66.6302C62.7913 67.0935 67.2076 71.4809 67.6565 71.7126C68.1054 71.9443 69.2348 71.9153 69.6981 71.6692C70.176 71.4085 78.6032 62.9523 78.8349 62.5034C78.9217 62.3297 78.9941 61.8663 78.9941 61.4754C78.9941 59.8536 77.3579 58.8111 75.881 59.4772Z" fill="#50265C"/>
</svg>
