<svg width="101" height="100" viewBox="0 0 101 100" fill="none" xmlns="http://www.w3.org/2000/svg">
<rect width="100" height="100" transform="translate(0.333984)" fill="white"/>
<g clip-path="url(#clip0_2503_21369)">
<path d="M70.0752 8.44891C69.0791 8.96355 68.2158 9.97626 67.9336 10.9557C67.8506 11.2878 67.7676 13.28 67.7676 15.4216V19.2897H66.0078C63.7334 19.2897 63.0859 19.4889 62.0068 20.5348C60.5625 21.946 60.6289 21.2155 60.6289 36.0905V49.0065H58.5537H56.4785V48.5085C56.4785 47.8776 55.9307 46.7819 55.4658 46.4499C55.2666 46.3171 54.3369 45.902 53.4238 45.5202L51.7471 44.8561L51.4482 43.8932C51.2822 43.3786 50.9004 42.4655 50.6182 41.8679L50.0869 40.7887L50.8008 39.1452C51.6143 37.2194 51.7139 36.1735 51.1494 35.2438C50.6348 34.3805 48.0615 31.9069 47.4141 31.6413C46.4844 31.2428 45.6211 31.3591 43.8613 32.0895L42.2178 32.7702L40.6074 32.0729C39.7109 31.7077 38.7812 31.3425 38.5322 31.2927C38.1338 31.2096 37.9844 31.0104 37.3867 29.4997C36.5566 27.4245 36.3906 27.1755 35.5107 26.7272C34.8965 26.4118 34.5478 26.3786 32.4062 26.3786C30.2812 26.3786 29.916 26.4118 29.3184 26.7272C28.4883 27.1589 28.2559 27.4743 27.459 29.5163L26.8115 31.1266L25.749 31.4919C25.1514 31.6911 24.2217 32.0729 23.6904 32.3386L22.6943 32.8366L21.0508 32.1227C18.3281 30.944 17.6143 31.0934 15.3066 33.4011C12.999 35.7087 12.8496 36.3893 14.0283 39.1286L14.7422 40.7887L14.2773 41.7018C14.0283 42.1999 13.6465 43.113 13.4473 43.7272L13.082 44.8395L11.5879 45.4538C8.5166 46.6657 8.35059 46.9313 8.33398 50.4841C8.33398 52.5759 8.38379 52.9743 8.66602 53.5886C9.09766 54.4518 9.36328 54.6345 11.4219 55.4645L13.0488 56.0954L13.4141 57.1579C13.5967 57.7389 13.9951 58.6686 14.2607 59.2165L14.7588 60.2126L14.0449 61.8727C12.8662 64.612 13.0156 65.2761 15.3232 67.5837C17.6309 69.8913 18.3447 70.0573 21.0508 68.8786L22.6943 68.1647L23.6904 68.6628C24.2217 68.9284 25.1514 69.3102 25.749 69.5095L26.8115 69.8747L27.459 71.485C28.2559 73.527 28.4883 73.8425 29.3184 74.2741C29.916 74.5729 30.2812 74.6227 32.4062 74.6227C34.5478 74.6227 34.8965 74.5729 35.5107 74.2575C36.3906 73.8259 36.5566 73.5768 37.3867 71.5016C37.9844 69.9909 38.1338 69.7917 38.5322 69.7087C38.7812 69.6589 39.7109 69.2936 40.6074 68.9284L42.2178 68.2311L43.8613 68.9118C45.7705 69.7087 46.7666 69.7917 47.6631 69.2438C48.3769 68.8122 50.7178 66.4714 51.1494 65.7575C51.7139 64.8444 51.6143 63.7487 50.834 61.9225C50.4521 61.0759 50.1865 60.2624 50.2363 60.1296C50.2861 59.9968 50.6514 59.0505 51.0664 58.0544C51.8965 56.029 51.7969 56.1286 54.0381 55.2155C55.7314 54.5182 56.2959 53.9206 56.4453 52.7419L56.5283 51.9948H58.5703H60.6289V64.9108C60.6289 79.7858 60.5625 79.0554 62.0068 80.4665C63.0859 81.5124 63.7334 81.7116 66.0078 81.7116H67.7676V85.5632C67.7676 87.7214 67.8506 89.7136 67.9336 90.0456C68.2158 91.0251 69.0791 92.0378 70.0752 92.5524L70.9883 93.0007H80.584C91.209 93.0007 90.7441 93.0505 92.0059 91.8884C93.3838 90.6598 93.334 91.1745 93.334 80.2839V70.655L92.8857 69.7419C92.3545 68.7292 91.3418 67.8659 90.3457 67.6003C89.9141 67.4841 86.4775 67.4343 80.2686 67.4675C71.3203 67.5173 70.8057 67.5339 70.1914 67.8327C69.3613 68.2477 68.581 69.028 68.166 69.8581C67.8838 70.4391 67.8506 70.9372 67.8008 74.6227L67.751 78.7233H66.1074C64.4971 78.7233 64.4805 78.7233 64.0488 78.2087L63.6172 77.694V64.8444V51.9948H65.6924H67.7676V55.863C67.7676 60.1296 67.8672 60.7272 68.7637 61.8229C69.0459 62.155 69.6436 62.6198 70.125 62.8522L70.9883 63.2839H80.5342H90.0967L90.9268 62.8854C91.8398 62.4704 92.7529 61.5407 93.1016 60.694C93.4502 59.8806 93.4502 41.1208 93.1016 40.3073C92.7529 39.4606 91.8398 38.5309 90.9268 38.1159L90.0967 37.7175H80.5342H70.9883L70.125 38.1491C69.6436 38.3815 69.0459 38.8464 68.7637 39.1784C67.8672 40.2741 67.7676 40.8718 67.7676 45.1384V49.0065H65.6924H63.6172V36.1569V23.3073L64.0488 22.7927C64.4805 22.278 64.4971 22.278 66.1074 22.278H67.751L67.8008 26.3786C67.8506 30.0641 67.8838 30.5622 68.166 31.1432C68.581 31.9733 69.3613 32.7536 70.1914 33.1686C70.8057 33.4675 71.3203 33.4841 80.2686 33.5339C86.4775 33.5671 89.9141 33.5173 90.3457 33.4011C91.3418 33.1354 92.3545 32.2721 92.8857 31.2595L93.334 30.3464V20.7507C93.334 10.0759 93.3672 10.4909 92.2051 9.26238C90.9434 7.95086 91.458 8.00066 80.6172 8.00066H70.9883L70.0752 8.44891ZM89.9639 11.3542L90.3457 11.7028V20.7341V29.7653L89.9307 30.1637L89.5322 30.5788H80.584H71.6357L71.1875 30.1471L70.7559 29.6989V20.7507V11.8024L71.1709 11.404L71.5693 10.9889H80.5674H89.582L89.9639 11.3542ZM34.8301 31.3093C35.2285 32.3053 35.6768 33.2516 35.8262 33.4177C35.9756 33.5837 36.7061 33.8991 37.4365 34.1481C38.1836 34.3805 39.4619 34.9118 40.2588 35.3268C41.0723 35.7253 41.8691 36.0573 42.0352 36.0573C42.2012 36.0573 43.1641 35.6921 44.1934 35.2272L46.0527 34.3971L46.8662 35.0944C47.3145 35.4762 47.8623 36.0075 48.0781 36.2897L48.4766 36.821L47.6631 38.7136C47.2148 39.7595 46.8496 40.7555 46.8496 40.905C46.8496 41.0544 47.1816 41.8346 47.5801 42.6481C47.9951 43.445 48.5098 44.7067 48.7588 45.4206C48.9912 46.1511 49.29 46.8815 49.4395 47.0309C49.5723 47.1804 50.5352 47.6286 51.5645 48.027L53.457 48.7409L53.5234 49.6706C53.5732 50.1686 53.5566 50.9489 53.5068 51.3805L53.4072 52.194L51.5977 52.9245C50.6016 53.3229 49.6553 53.7712 49.4893 53.9206C49.3232 54.07 49.0078 54.8005 48.7588 55.5309C48.5264 56.278 47.9951 57.5563 47.5801 58.3532C47.1816 59.1667 46.8496 59.9304 46.8496 60.0798C46.8496 60.2126 47.2148 61.1921 47.6797 62.238L48.5098 64.1305L47.8125 64.9606C47.4473 65.4089 46.8994 65.9567 46.6172 66.1725L46.1025 66.5544L44.2266 65.7575C43.1807 65.3093 42.2012 64.944 42.0186 64.944C41.8525 64.944 41.0557 65.2761 40.2422 65.6745C39.4453 66.0895 38.2002 66.6042 37.4697 66.8532C36.7559 67.0856 36.0254 67.3845 35.876 67.5339C35.7266 67.6667 35.2617 68.6462 34.8633 69.6921L34.1494 71.6013L32.4395 71.5514L30.7129 71.5016L29.9824 69.6921C29.584 68.696 29.1357 67.7497 28.9863 67.5837C28.8369 67.4177 28.1064 67.0856 27.3594 66.8366C26.6289 66.5876 25.3506 66.0563 24.5371 65.6579C22.8105 64.7946 22.8437 64.778 20.4365 65.8571L18.7432 66.6208L17.5312 65.4089L16.3359 64.197L17.1494 62.321C17.5977 61.2751 17.9629 60.279 17.9629 60.113C17.9629 59.9304 17.6309 59.1335 17.2324 58.3366C16.834 57.5397 16.3193 56.278 16.0703 55.5309C15.7881 54.6677 15.4727 54.0368 15.2236 53.8542C15.0078 53.6882 14.0449 53.2565 13.0654 52.8913L11.3057 52.2604L11.3555 50.5339L11.4053 48.8073L13.2148 48.0768C14.2109 47.6784 15.1572 47.2302 15.3232 47.0807C15.4893 46.9313 15.8213 46.2009 16.0703 45.4538C16.3193 44.7233 16.834 43.4616 17.2324 42.6647C17.6309 41.8678 17.9629 41.0544 17.9629 40.8718C17.9629 40.6891 17.5811 39.7096 17.1328 38.6803L16.2861 36.821L17.498 35.6091L18.71 34.4137L20.3701 35.1442C22.7773 36.2067 22.8105 36.2067 24.5371 35.3434C25.3506 34.945 26.6289 34.4137 27.376 34.1647C28.2559 33.8659 28.8701 33.5671 29.0693 33.3014C29.2353 33.0856 29.667 32.1227 30.0156 31.1598L30.6631 29.4167L32.373 29.4499L34.0996 29.4997L34.8301 31.3093ZM89.9141 41.0544L90.3457 41.3864V50.5007V59.6149L89.9141 59.947C89.4824 60.2956 89.3164 60.2956 80.5176 60.2956H71.5693L71.1709 59.8805L70.7559 59.4821V50.5007V41.5192L71.1709 41.1208L71.5693 40.7057H80.5176C89.3164 40.7057 89.4824 40.7057 89.9141 41.0544ZM89.9307 70.8376L90.3457 71.236V80.2341V89.2487L89.9805 89.6305L89.6318 90.0124H80.6006H71.5693L71.1709 89.5973L70.7559 89.1989V80.2507V71.3024L71.1875 70.8542L71.6357 70.4225H80.584H89.5322L89.9307 70.8376Z" fill="#50265C"/>
<path d="M84.0703 15.2227C83.8545 15.3721 82.626 17.0986 81.3145 19.0576L78.957 22.5937L78.21 21.8467C77.0146 20.6016 76.1348 20.4023 75.2881 21.166C75.0059 21.415 74.9062 21.6973 74.9062 22.1621C74.9062 22.7764 75.0225 22.9424 76.6826 24.6191C78.376 26.3457 78.4922 26.4287 79.1396 26.4287C79.6709 26.4287 79.9199 26.3291 80.252 25.9639C80.4844 25.7148 81.9619 23.5732 83.5391 21.2158C86.1787 17.2314 86.3945 16.8496 86.2949 16.3184C86.2451 16.0029 86.0625 15.6045 85.8965 15.4385C85.4648 14.9902 84.5352 14.8906 84.0703 15.2227Z" fill="#50265C"/>
<path d="M84.2031 44.9059C83.9541 45.0221 82.8252 46.5494 81.3809 48.691L78.9736 52.2936L78.0107 51.3971C77.1807 50.6168 76.9648 50.5006 76.3838 50.5006C75.4873 50.5006 74.9062 51.0651 74.9062 51.9449C74.9062 52.526 75.0391 52.7086 76.6992 54.3356C77.6787 55.3151 78.625 56.1451 78.791 56.2115C78.957 56.278 79.3555 56.2447 79.6377 56.1451C80.1025 55.9957 80.6338 55.2819 83.2734 51.3141C84.9668 48.7574 86.3613 46.5328 86.3613 46.3502C86.3613 45.7028 86.0293 45.1715 85.4482 44.9391C84.7676 44.6403 84.7344 44.6403 84.2031 44.9059Z" fill="#50265C"/>
<g clip-path="url(#clip1_2503_21369)">
<rect width="47.9785" height="85" transform="translate(8.33398 8)" fill="white"/>
<path d="M12.0814 24.7533C11.1633 25.0531 10.5543 25.4278 9.87979 26.1117C9.51442 26.4771 9.08346 27.0298 8.9242 27.3484C8.34335 28.4445 8.33398 28.5475 8.33398 33.6721C8.33398 38.9091 8.35272 39.1058 9.05536 40.4361C9.47694 41.2418 10.6574 42.4597 11.4443 42.9188C12.4936 43.5371 13.1775 43.7058 14.8264 43.762L16.2972 43.7994V54.6201C16.2972 66.4618 16.2785 66.059 16.8593 67.5486C17.3933 68.9351 18.6674 70.4903 19.9322 71.3054C20.691 71.7831 21.5436 72.1485 22.4148 72.3546C23.1643 72.5326 23.5672 72.542 36.3083 72.542H49.4336L50.3236 72.3171C51.7945 71.9424 52.9936 71.2491 54.0616 70.1343C54.7924 69.3754 55.1671 68.8508 55.5981 67.9233C56.3101 66.4244 56.2539 68.0826 56.2539 48.465V30.899L56.0009 30.1495C55.1203 27.6013 53.2747 25.7557 50.7264 24.8751L49.977 24.6221L31.2868 24.6034C13.5616 24.5847 12.5685 24.594 12.0814 24.7533ZM14.995 28.1166C15.5477 28.3976 16.0349 29.0066 16.2035 29.6155C16.2597 29.831 16.2972 31.9389 16.2972 35.246V40.5205L15.1074 40.4924C14.0207 40.4549 13.8614 40.4268 13.3742 40.1926C12.7091 39.8647 12.0626 39.162 11.8097 38.4781C11.6223 37.991 11.613 37.7755 11.613 33.7939C11.613 29.194 11.6036 29.3064 12.2125 28.6225C12.9527 27.8074 14.03 27.6107 14.995 28.1166ZM49.5648 28.0042C50.7639 28.3602 51.9725 29.3251 52.4971 30.365C53.0592 31.4705 53.0217 30.262 53.0217 48.5586C53.0217 66.9022 53.0592 65.6468 52.4784 66.7804C52.1786 67.38 51.1387 68.4199 50.5391 68.7196C49.4149 69.2911 50.258 69.263 36.2896 69.263C23.8482 69.263 23.5203 69.263 22.9395 69.0756C22.2743 68.8695 21.3749 68.3262 20.9159 67.839C20.5224 67.4362 19.9884 66.5274 19.7823 65.9372C19.6324 65.5063 19.623 64.1384 19.5762 47.247C19.5293 27.9573 19.5481 28.9597 19.1546 28.0135C19.089 27.8636 19.8385 27.8543 34.0693 27.8543C47.5131 27.8543 49.1057 27.873 49.5648 28.0042Z" fill="#50265C"/>
<path d="M30.0034 34.3654C29.0197 34.9649 28.9822 36.4733 29.9472 37.1291L30.2938 37.3633H36.4864H42.6884L43.0256 37.101C43.8219 36.5014 43.9437 35.4427 43.3067 34.6839C42.8289 34.1124 43.0069 34.1311 36.4208 34.1311H30.3969L30.0034 34.3654Z" fill="#50265C"/>
<path d="M26.8652 43.7809C26.1532 43.9963 25.7598 44.5678 25.7598 45.4016C25.7598 45.9825 25.994 46.4134 26.4999 46.7507L26.8184 46.9662H37.0675C48.5252 46.9662 47.7476 47.013 48.2161 46.301C48.7969 45.4297 48.4784 44.2868 47.5509 43.8652C47.1855 43.6966 46.7077 43.6872 37.1425 43.6966C31.6338 43.6966 27.0058 43.734 26.8652 43.7809Z" fill="#50265C"/>
<path d="M26.8263 51.9215C25.6927 52.6148 25.8051 54.2918 27.023 54.8445C27.3791 55.0131 27.8849 55.0225 37.2347 55.0131C47.6618 55.0131 47.4932 55.0225 47.9804 54.5822C48.2521 54.348 48.5238 53.7297 48.5238 53.3362C48.5238 52.8678 48.224 52.2775 47.8586 52.0152L47.5401 51.7904L37.3284 51.7623C27.4259 51.7435 27.1074 51.7529 26.8263 51.9215Z" fill="#50265C"/>
<path d="M26.6494 59.8378C26.2653 60.0064 25.8811 60.4655 25.7406 60.9339C25.5158 61.7021 26.031 62.6765 26.7899 62.9013C27.0054 62.9575 29.1601 62.9856 32.945 62.9669C38.6879 62.9388 38.7722 62.9388 39.0345 62.742C39.8871 62.1143 40.0276 61.0463 39.3718 60.2594C38.894 59.6973 39.0533 59.7066 32.7202 59.7066C28.1202 59.716 26.8742 59.7441 26.6494 59.8378Z" fill="#50265C"/>
</g>
<rect width="19.5898" height="19.5898" transform="translate(70.7559 10.9883)" fill="#F4A7A3"/>
<rect width="19.5898" height="19.5898" transform="translate(70.7559 40.7051)" fill="#F4A7A3"/>
<rect width="19.5898" height="19.5898" transform="translate(70.7559 70.4219)" fill="#F4A7A3"/>
<path d="M84.0703 15.1689C83.8545 15.3184 82.626 17.0449 81.3145 19.0039L78.957 22.54L78.21 21.793C77.0146 20.5479 76.1348 20.3486 75.2881 21.1123C75.0059 21.3613 74.9062 21.6436 74.9062 22.1084C74.9062 22.7227 75.0225 22.8887 76.6826 24.5654C78.376 26.292 78.4922 26.375 79.1396 26.375C79.6709 26.375 79.9199 26.2754 80.252 25.9102C80.4844 25.6611 81.9619 23.5195 83.5391 21.1621C86.1787 17.1777 86.3945 16.7959 86.2949 16.2646C86.2451 15.9492 86.0625 15.5508 85.8965 15.3848C85.4648 14.9365 84.5352 14.8369 84.0703 15.1689Z" fill="#50265C"/>
<path d="M84.2031 44.8531C83.9541 44.9694 82.8252 46.4967 81.3809 48.6383L78.9736 52.2408L78.0107 51.3444C77.1807 50.5641 76.9648 50.4479 76.3838 50.4479C75.4873 50.4479 74.9062 51.0123 74.9062 51.8922C74.9062 52.4733 75.0391 52.6559 76.6992 54.2828C77.6787 55.2623 78.625 56.0924 78.791 56.1588C78.957 56.2252 79.3555 56.192 79.6377 56.0924C80.1025 55.943 80.6338 55.2291 83.2734 51.2614C84.9668 48.7047 86.3613 46.4801 86.3613 46.2975C86.3613 45.65 86.0293 45.1188 85.4482 44.8863C84.7676 44.5875 84.7344 44.5875 84.2031 44.8531Z" fill="#50265C"/>
</g>
<defs>
<clipPath id="clip0_2503_21369">
<rect width="85" height="85" fill="white" transform="translate(8.33398 8)"/>
</clipPath>
<clipPath id="clip1_2503_21369">
<rect width="47.9785" height="85" fill="white" transform="translate(8.33398 8)"/>
</clipPath>
</defs>
</svg>
