<svg width="101" height="100" viewBox="0 0 101 100" fill="none" xmlns="http://www.w3.org/2000/svg">
<rect width="100" height="100" transform="translate(0.666016)" fill="white"/>
<path d="M19.5264 14.1865C17.8564 14.5088 16.2744 15.7686 15.5127 17.3945L15.0586 18.3467V50.5V82.6533L15.5127 83.6055C16.3037 85.2754 17.8564 86.4912 19.6582 86.8281C20.1709 86.916 27.4072 86.9746 40.0195 86.9746H59.5898L66.4014 80.1777L73.2129 73.3662L73.2861 72.2676L73.3594 71.1836L77.168 75.2705C81.3721 79.7969 81.5918 79.9727 83.2617 80.0605C84.0234 80.1045 84.375 80.0459 84.9902 79.7969C86.9678 78.9326 87.9053 76.3984 86.9678 74.4209C86.6162 73.7031 86.3672 73.4541 80.0244 67.5508L74.6631 62.5703L75.1318 61.5596C75.9082 59.8896 76.1426 58.6152 76.1426 56.2861C76.1279 54.6455 76.0693 54.0156 75.8203 53.1367C75.3809 51.6133 74.9121 50.6025 74.0771 49.4014L73.3594 48.376L73.2861 33.4346L73.2129 18.4932L72.876 17.6436C72.1875 15.959 70.415 14.5088 68.6133 14.1719C67.6318 13.9814 20.4785 13.9961 19.5264 14.1865ZM68.8184 16.7939C69.5801 17.1455 70.1074 17.6582 70.4883 18.3906C70.7959 18.9912 70.7959 19.0938 70.7959 32.4678V45.9297L69.4043 45.2266C67.5293 44.2744 65.9326 43.9082 63.6768 43.9082C60.1904 43.9082 57.4658 44.9922 54.9902 47.3359C52.4268 49.7822 51.167 52.7852 51.167 56.4326C51.167 61.3984 53.6865 65.4561 58.1396 67.6826C59.707 68.4736 61.0986 68.8105 63.1055 68.9131C65.2295 69.001 67.0605 68.6787 68.7598 67.9023L69.8438 67.4043L70.3271 67.9463L70.7959 68.4736V70.0996V71.7256L66.2256 71.7695L61.6406 71.8135L60.791 72.2529C59.707 72.7949 58.6084 73.9668 58.1689 75.0801C57.8613 75.8711 57.832 76.1348 57.7881 80.1924L57.7441 84.4844H38.877H20.0244L19.2627 84.1035C18.3691 83.6641 17.8271 83.0195 17.5342 82.0527C17.2266 81.0127 17.2266 19.9873 17.5342 18.9473C17.8271 17.9805 18.3691 17.3359 19.2627 16.8965L20.0244 16.5156H44.1211C67.2363 16.5156 68.2617 16.5303 68.8184 16.7939ZM65.6396 46.4717C66.3135 46.6035 67.3242 46.9697 68.1592 47.3799C69.3164 47.9512 69.7559 48.2734 70.8105 49.3135C72.8467 51.3496 73.7842 53.6055 73.7695 56.4326C73.7549 58.6006 73.2861 60.1973 72.085 61.999L71.4844 62.9219L70.9131 62.0723C70.2832 61.1348 69.4043 60.4609 68.291 60.0947C66.9727 59.6553 66.6064 58.6592 67.4268 57.7217C68.9941 55.9492 69.4922 52.9609 68.54 51.0273C66.2256 46.3105 59.1797 47.3213 58.3447 52.4922C58.0664 54.1475 58.7109 56.3447 59.8828 57.7656C60.1611 58.1025 60.3955 58.5273 60.3955 58.6885C60.3955 59.1426 59.6777 59.8018 58.8867 60.0947C58.4912 60.2266 57.9053 60.5488 57.5684 60.8125C56.9824 61.252 56.1035 62.292 55.957 62.6875C55.8545 62.9951 55.3271 62.2773 54.6094 60.8271C53.584 58.7471 53.2764 56.5498 53.7158 54.4551C54.8877 48.918 60.1611 45.3877 65.6396 46.4717ZM65.2295 50.8516C65.9033 51.291 66.3281 51.9062 66.5625 52.7412C67.0752 54.6162 64.9219 57.6631 63.3398 57.3115C62.2412 57.0771 60.9229 55.2754 60.7471 53.7666C60.4395 51.2617 63.1787 49.4893 65.2295 50.8516ZM64.9365 60.4023C65.3467 61.2373 66.2402 61.999 67.1924 62.3066C68.1885 62.6436 68.7012 63.0098 69.0381 63.6836C69.4922 64.5771 69.4336 64.7822 68.54 65.2803C68.1152 65.5293 67.7197 65.7344 67.6611 65.7344C67.6172 65.7344 67.5732 65.5293 67.5732 65.2656C67.5732 64.5918 67.0752 64.123 66.3721 64.123C65.5371 64.123 65.2295 64.5039 65.2295 65.5732V66.4229L64.4824 66.5254C64.0869 66.584 63.3545 66.584 62.8711 66.5254L62.0068 66.4229V65.6172C62.0068 64.5771 61.6406 64.123 60.8057 64.123C60.0879 64.123 59.6631 64.5332 59.6631 65.2363V65.749L58.7842 65.2803C58.3008 65.0312 57.9053 64.7383 57.9053 64.6504C57.9199 64.2549 58.4912 63.2734 58.9746 62.8633C59.2529 62.5996 59.8389 62.2773 60.2637 62.1455C61.1426 61.8525 62.168 60.915 62.4463 60.1533L62.6221 59.6553L63.6328 59.6992L64.6289 59.7578L64.9365 60.4023ZM79.1455 70.1143C84.917 75.4756 84.8584 75.4023 84.8584 76.0469C84.8584 76.7939 84.5947 77.2627 84.0234 77.5264C83.0859 77.9805 82.9395 77.8486 77.1973 71.6816L71.8945 65.998L72.5537 65.3096L73.2129 64.6357L73.9453 65.3096C74.3555 65.6758 76.6846 67.8438 79.1455 70.1143ZM64.6436 78.4053L60.3223 82.7266L60.2783 79.5771C60.2344 76.1055 60.293 75.8125 61.2305 74.9336C62.0361 74.1572 62.4023 74.0986 65.8154 74.084H68.9648L64.6436 78.4053Z" fill="#50265C"/>
<path d="M25.6363 17.4092C24.2154 17.7461 22.8238 18.8594 22.1353 20.2363C21.1099 22.2725 21.5494 25.041 23.2632 27.1211C23.7759 27.751 23.7906 27.7803 23.5855 28.2637C23.3218 28.8789 23.146 29.0254 22.1353 29.4062C19.191 30.5049 17.7701 34.6943 19.6158 36.8477C20.524 37.917 20.6265 37.9316 26.9986 37.9316C33.1949 37.9316 33.2535 37.917 34.1177 37.0527C34.8502 36.3203 35.0552 35.7344 35.0552 34.3281C35.0552 32.6143 34.689 31.6475 33.605 30.5635C32.9752 29.9482 32.5357 29.6553 31.7593 29.3623C30.9976 29.0693 30.6607 28.8496 30.4703 28.542C30.1187 27.9561 30.148 27.8389 30.7486 27.1797C31.0416 26.8574 31.525 26.0811 31.8179 25.4658C32.3306 24.3965 32.3453 24.2939 32.3453 22.7412C32.3453 21.2617 32.316 21.0713 31.9498 20.3682C31.4224 19.3721 30.8072 18.6982 29.9576 18.1562C28.6978 17.3506 27.0718 17.0723 25.6363 17.4092ZM28.4048 20.0752C29.5035 20.6465 30.1773 21.9062 30.0162 23.0928C29.8257 24.499 28.522 26.3154 27.5259 26.5645C26.1636 26.9014 24.523 25.3779 24.0689 23.3564C23.5123 20.8369 26.105 18.874 28.4048 20.0752ZM28.2291 29.5674C28.5806 30.3584 29.606 31.2227 30.5289 31.5303C31.8765 31.9697 32.6968 33.0391 32.7115 34.3428C32.7115 35.1631 32.3306 35.5586 31.5396 35.5586H30.9537V34.7676C30.9537 34.0791 30.8951 33.9326 30.5728 33.6689C30.0455 33.2588 29.4156 33.2734 28.9761 33.7275C28.6832 34.0059 28.6099 34.2256 28.6099 34.8262V35.5586H26.9986H25.3873V34.7676C25.3873 34.0791 25.3287 33.9326 25.0064 33.6689C24.4791 33.2588 23.8492 33.2734 23.4097 33.7275C23.1168 34.0059 23.0435 34.2256 23.0435 34.8262V35.5586H22.4283C21.5787 35.5586 21.2857 35.251 21.2857 34.3721C21.2857 32.9512 21.813 32.292 23.5855 31.4424C24.8013 30.8564 25.4166 30.2998 25.7681 29.4795C25.9439 29.0547 25.9732 29.04 26.9693 29.04H27.9947L28.2291 29.5674Z" fill="#50265C"/>
<path d="M39.0825 20.251C38.6284 20.6904 38.6137 21.3203 39.0239 21.8477L39.3169 22.2285H46.4067H53.4966L53.7895 21.8477C54.1997 21.3203 54.185 20.6904 53.7309 20.251L53.3794 19.8848H46.4067H39.4341L39.0825 20.251Z" fill="#50265C"/>
<path d="M39.0825 26.8428C38.6284 27.2822 38.6137 27.9121 39.0239 28.4395L39.3169 28.8203H52.9253H66.5337L66.8266 28.4395C67.2368 27.9121 67.2221 27.2822 66.768 26.8428L66.4165 26.4766H52.9253H39.4341L39.0825 26.8428Z" fill="#50265C"/>
<path d="M39.0825 33.4346C38.6284 33.874 38.6137 34.5039 39.0239 35.0312L39.3169 35.4121H52.9253H66.5337L66.8266 35.0312C67.2368 34.5039 67.2221 33.874 66.768 33.4346L66.4165 33.0684H52.9253H39.4341L39.0825 33.4346Z" fill="#50265C"/>
<path d="M25.0479 39.645C23.5684 40.2456 22.3672 41.4907 21.8545 42.9849C21.6055 43.6587 21.5615 44.0689 21.6201 45.0064C21.6934 46.4712 22.1182 47.5991 23.041 48.8149C23.583 49.5181 23.7148 49.8257 23.6709 50.1187C23.5684 50.646 23.1143 51.0415 22.1328 51.437C20.0674 52.2866 18.793 54.1763 18.793 56.4321C18.793 58.1753 19.6572 59.4351 21.1514 59.8892C21.8984 60.1089 32.0938 60.0796 32.8408 59.8599C33.6758 59.6108 34.54 58.8345 34.833 58.0435C35.0234 57.5454 35.0674 57.0767 35.0234 56.0366C34.9795 54.8355 34.9063 54.5718 34.4668 53.7515C33.8076 52.5063 32.6504 51.5688 31.4492 51.3198C30.9365 51.2026 30.4531 50.7485 30.292 50.2505C30.2188 50.0015 30.3213 49.7524 30.7021 49.2983C31.9912 47.687 32.4893 46.2515 32.3867 44.3618C32.3135 42.8677 31.8887 41.9155 30.8633 40.8755C29.8379 39.8501 28.8125 39.4546 27.1426 39.4106C26.0439 39.3814 25.6045 39.4253 25.0479 39.645ZM27.9336 41.8862C28.6807 42.1206 29.6768 43.0874 29.9258 43.8345C30.3359 45.0796 29.5596 47.1597 28.3584 48.0825C27.4795 48.7563 27.1133 48.8442 26.3955 48.522C25.1797 47.9653 24.0078 46.105 24.0078 44.7134C24.0078 43.1753 25.3848 41.769 26.9082 41.7251C27.1426 41.7105 27.5967 41.7983 27.9336 41.8862ZM28.3438 51.8325C28.8271 52.6675 29.6475 53.312 30.5996 53.5757C31.874 53.9419 32.709 55.0845 32.709 56.4907C32.709 57.2085 32.3574 57.5308 31.5811 57.5308H30.9512V56.7983C30.9512 55.8608 30.6143 55.48 29.7939 55.48C29.0322 55.48 28.6074 55.978 28.6074 56.8862V57.5308H26.9961H25.3848V56.7983C25.3848 55.8608 25.0479 55.48 24.2275 55.48C23.4658 55.48 23.041 55.978 23.041 56.8862V57.5308H22.3379C21.957 57.5308 21.5615 57.4575 21.459 57.355C21.1807 57.0767 21.2393 55.6851 21.5615 55.0698C21.9424 54.3374 22.2061 54.1177 23.4805 53.5317C24.623 53.019 25.458 52.272 25.7949 51.4517C25.9707 51.0122 25.9854 51.0122 26.9668 51.0562L27.9482 51.1001L28.3438 51.8325Z" fill="#50265C"/>
<path d="M39.3758 42.0331C38.6726 42.4139 38.4969 43.3075 38.9949 43.9227L39.2732 44.2743L46.1287 44.3182C50.8601 44.3475 53.116 44.3036 53.3797 44.2011C54.1707 43.8641 54.3025 42.9266 53.6726 42.2821L53.2478 41.8573H46.451C41.8221 41.8719 39.5808 41.9159 39.3758 42.0331Z" fill="#50265C"/>
<path d="M39.3758 48.6244C38.6726 49.0053 38.4969 49.8989 38.9949 50.5141L39.2732 50.8657L43.8582 50.9096C48.7508 50.9535 49.0877 50.9096 49.3953 50.2651C49.659 49.6791 49.5857 49.3422 49.1316 48.8735L48.7068 48.4487H44.1805C41.2068 48.4633 39.5662 48.5073 39.3758 48.6244Z" fill="#50265C"/>
<path d="M39.3758 55.2168C38.6726 55.5977 38.4969 56.4912 38.9949 57.1064L39.2732 57.458H43.5506H47.8279L48.1062 57.1064C48.2527 56.916 48.3846 56.5791 48.3846 56.3594C48.3846 55.0996 48.1355 55.041 43.5213 55.041C41.0164 55.0557 39.5662 55.0996 39.3758 55.2168Z" fill="#50265C"/>
<path d="M25.5337 61.4279C23.9371 61.8527 22.7652 62.8634 22.0328 64.4015C21.6959 65.1193 21.6519 65.3976 21.6519 66.6866C21.6666 68.4591 21.9742 69.382 23.0582 70.8175C23.7466 71.7111 23.7759 71.799 23.6294 72.2531C23.4244 72.8829 23.1314 73.1173 22.1353 73.4982C19.191 74.5968 17.7701 78.7863 19.6158 80.9396C20.524 81.9943 20.5972 82.0089 27.233 81.965L33.0923 81.921L33.6343 81.5548C33.9419 81.3497 34.3668 80.9249 34.5865 80.6027C34.938 80.09 34.982 79.8556 35.0259 78.6251C35.0699 77.4679 35.0259 77.087 34.7476 76.3546C34.2789 75.0948 33.1216 73.9669 31.7593 73.4542C30.9976 73.1613 30.6607 72.9415 30.4703 72.6339C30.1041 72.0187 30.1627 71.7697 30.7486 71.1251C31.0416 70.8029 31.525 70.0265 31.8179 69.4113C32.3306 68.3419 32.3453 68.2394 32.3453 66.6866C32.3453 65.2072 32.316 65.0167 31.9351 64.299C31.1441 62.7902 29.7232 61.7062 28.0533 61.3546C27.0572 61.1495 26.5298 61.1642 25.5337 61.4279ZM28.5953 64.1671C28.9175 64.3868 29.3716 64.8409 29.5914 65.1779C29.9283 65.6759 30.0015 65.9396 29.9869 66.672C29.9869 68.1808 29.0347 69.8361 27.8335 70.4073C27.3062 70.6564 27.1158 70.6857 26.6617 70.5538C25.563 70.2609 24.4498 68.8693 24.0689 67.3165C23.732 66.0128 24.4205 64.6505 25.7535 63.9181C26.4419 63.5372 27.8335 63.6691 28.5953 64.1671ZM27.2037 73.0587C27.9507 73.0587 27.98 73.0734 28.2144 73.63C28.5806 74.4503 29.5914 75.3146 30.5289 75.6222C31.8765 76.0616 32.6968 77.131 32.7115 78.4347C32.7115 79.255 32.3306 79.6505 31.5396 79.6505H30.9537V78.8741C30.9537 77.9659 30.69 77.5118 30.0894 77.38C29.606 77.2775 28.8443 77.5997 28.6978 77.9659C28.6539 78.0978 28.6099 78.5372 28.6099 78.9327V79.6505H26.9986H25.3873V78.8741C25.3873 77.9659 25.1236 77.5118 24.523 77.38C24.0396 77.2775 23.2779 77.5997 23.1314 77.9659C23.0875 78.0978 23.0435 78.5372 23.0435 78.9327V79.6505H22.4283C21.5787 79.6505 21.2857 79.3429 21.2857 78.464C21.2857 77.0431 21.813 76.3839 23.5855 75.5343C24.8599 74.9191 25.5484 74.2599 25.8414 73.381C25.9585 73.0441 26.0757 72.9122 26.2222 72.9708C26.3394 73.0148 26.7789 73.0587 27.2037 73.0587Z" fill="#50265C"/>
<path d="M39.0827 64.1963C38.5846 64.6797 38.5846 65.4121 39.0973 65.8955L39.4782 66.2471H44.8981H50.318L50.6696 65.8369C51.1237 65.2949 51.1237 64.6504 50.6549 64.1963L50.3034 63.8301H44.8688H39.4342L39.0827 64.1963Z" fill="#50265C"/>
<path d="M39.0827 70.7881C38.5846 71.2715 38.5846 72.0039 39.0973 72.4873L39.4782 72.8389H47.6813H55.8844L56.236 72.4287C56.6901 71.8867 56.6901 71.2422 56.2213 70.7881L55.8698 70.4219H47.652H39.4342L39.0827 70.7881Z" fill="#50265C"/>
<path d="M39.0825 77.5264C38.6284 77.9658 38.6137 78.5957 39.0239 79.123L39.3169 79.5039H46.9048C55.1958 79.5039 55.0053 79.5185 55.1958 78.6396C55.2983 78.1562 54.976 77.3945 54.6098 77.248C54.478 77.2041 51.0063 77.1601 46.9048 77.1601H39.4341L39.0825 77.5264Z" fill="#50265C"/>
<circle cx="63.8369" cy="56.2861" r="12.8174" fill="#F4A7A3"/>
<path d="M62.4071 49.3675C61.2732 49.8279 60.3526 50.7824 59.9597 51.9278C59.7688 52.4443 59.7351 52.7587 59.78 53.4774C59.8362 54.6003 60.1617 55.465 60.869 56.397C61.2844 56.936 61.3854 57.1718 61.3518 57.3964C61.2732 57.8007 60.9252 58.1038 60.173 58.407C58.59 59.0583 57.6133 60.5069 57.6133 62.2362C57.6133 63.5725 58.2757 64.5382 59.4208 64.8863C59.9933 65.0547 67.8071 65.0323 68.3797 64.8638C69.0196 64.6729 69.682 64.0778 69.9065 63.4714C70.0524 63.0896 70.0861 62.7303 70.0524 61.933C70.0188 61.0122 69.9626 60.8101 69.6258 60.1813C69.1206 59.2268 68.2337 58.5081 67.3131 58.3172C66.9202 58.2274 66.5497 57.8793 66.4262 57.4975C66.3701 57.3066 66.4487 57.1157 66.7406 56.7676C67.7285 55.5324 68.1102 54.4319 68.0316 52.9833C67.9755 51.8379 67.6499 51.108 66.8641 50.3108C66.0782 49.5247 65.2923 49.2215 64.0125 49.1879C63.1705 49.1654 62.8337 49.1991 62.4071 49.3675ZM64.6187 51.0856C65.1913 51.2653 65.9547 52.0064 66.1456 52.5791C66.4599 53.5336 65.8649 55.1281 64.9443 55.8355C64.2707 56.3521 63.99 56.4195 63.4399 56.1724C62.5081 55.7457 61.61 54.3196 61.61 53.2528C61.61 52.0738 62.6653 50.9958 63.8329 50.9621C64.0125 50.9508 64.3605 51.0182 64.6187 51.0856ZM64.9331 58.7102C65.3036 59.3503 65.9323 59.8444 66.662 60.0465C67.6387 60.3272 68.2786 61.2031 68.2786 62.2811C68.2786 62.8313 68.0092 63.0784 67.4142 63.0784H66.9314V62.5169C66.9314 61.7983 66.6732 61.5063 66.0445 61.5063C65.4607 61.5063 65.1352 61.8881 65.1352 62.5843V63.0784H63.9002H62.6653V62.5169C62.6653 61.7983 62.4071 61.5063 61.7784 61.5063C61.1946 61.5063 60.869 61.8881 60.869 62.5843V63.0784H60.3301C60.0382 63.0784 59.7351 63.0222 59.6565 62.9436C59.4432 62.7303 59.4881 61.6635 59.7351 61.1919C60.027 60.6304 60.2291 60.462 61.2058 60.0128C62.0815 59.6198 62.7214 59.0471 62.9796 58.4183C63.1144 58.0814 63.1256 58.0814 63.8778 58.1151L64.63 58.1488L64.9331 58.7102Z" fill="#50265C"/>
</svg>
