<svg width="104" height="104" viewBox="0 0 104 104" fill="none" xmlns="http://www.w3.org/2000/svg">
<path d="M51.9993 103.639C80.5635 103.639 103.719 80.4834 103.719 51.9192C103.719 23.3551 80.5635 0.199219 51.9993 0.199219C23.4351 0.199219 0.279297 23.3551 0.279297 51.9192C0.279297 80.4834 23.4351 103.639 51.9993 103.639Z" fill="#E85046"/>
<path d="M42.3011 71.6646C40.9558 71.6613 39.6656 71.1295 38.7087 70.1838L25.2989 57.1304C24.8196 56.6516 24.4394 56.0831 24.18 55.4573C23.9206 54.8314 23.7871 54.1607 23.7871 53.4832C23.7871 52.8058 23.9206 52.1348 24.18 51.509C24.4394 50.8832 24.8196 50.3147 25.2989 49.8359C25.7777 49.3566 26.3462 48.9764 26.9721 48.717C27.5979 48.4576 28.2686 48.3241 28.9461 48.3241C29.6236 48.3241 30.2944 48.4576 30.9202 48.717C31.5461 48.9764 32.1146 49.3566 32.5934 49.8359L42.4109 59.4065L70.4373 32.285C70.9142 31.8025 71.4822 31.4194 72.1083 31.1579C72.7344 30.8964 73.4061 30.7617 74.0846 30.7617C74.7631 30.7617 75.4348 30.8964 76.0608 31.1579C76.6869 31.4194 77.2549 31.8025 77.7318 32.285C78.6931 33.2555 79.2324 34.5664 79.2324 35.9323C79.2324 37.2983 78.6931 38.6091 77.7318 39.5797L46.0855 70.1838C45.5889 70.6755 44.9971 71.0604 44.3463 71.3151C43.6956 71.5698 42.9996 71.6886 42.3011 71.6646Z" fill="white"/>
</svg>
