<svg width="24" height="25" viewBox="0 0 24 25" fill="none" xmlns="http://www.w3.org/2000/svg">
<path fill-rule="evenodd" clip-rule="evenodd" d="M16.939 3.41089C18.28 3.41089 19.57 3.94089 20.519 4.89189C21.469 5.84089 22 7.12089 22 8.46089V16.3609C22 19.1509 19.73 21.4109 16.939 21.4109H7.06C4.269 21.4109 2 19.1509 2 16.3609V8.46089C2 5.67089 4.259 3.41089 7.06 3.41089H16.939ZM18.5319 9.95091L18.6119 9.87091C18.8509 9.58091 18.8509 9.16091 18.6009 8.87091C18.4619 8.72191 18.2709 8.63091 18.0719 8.61091C17.8619 8.59991 17.6619 8.67091 17.5109 8.81091L13.0019 12.4109C12.4219 12.8919 11.5909 12.8919 11.0019 12.4109L6.50188 8.81091C6.19088 8.58091 5.76088 8.61091 5.50188 8.88091C5.23188 9.15091 5.20188 9.58091 5.43088 9.88091L5.56188 10.0109L10.1119 13.5609C10.6719 14.0009 11.3509 14.2409 12.0619 14.2409C12.7709 14.2409 13.4619 14.0009 14.0209 13.5609L18.5319 9.95091Z" fill="#E85046"/>
</svg>
