<svg width="100" height="100" viewBox="0 0 100 100" fill="none" xmlns="http://www.w3.org/2000/svg">
<path fill-rule="evenodd" clip-rule="evenodd" d="M49.1533 17.9861C31.2037 17.9861 16.6526 32.5372 16.6526 50.4868C16.6526 68.4365 31.2037 82.9875 49.1533 82.9875C67.103 82.9875 81.654 68.4365 81.654 50.4868C81.654 46.9512 80.9957 43.1004 79.9489 39.9076L82.6564 39.0198C83.7925 42.4847 84.5034 46.6347 84.5034 50.4868C84.5034 70.0101 68.6766 85.8369 49.1533 85.8369C29.63 85.8369 13.8032 70.0101 13.8032 50.4868C13.8032 30.9635 29.63 15.1367 49.1533 15.1367C51.5573 15.1367 53.9066 15.3769 56.1781 15.835C58.0656 16.2156 59.8988 16.7466 61.6645 17.4149L60.6559 20.0798C59.0336 19.4658 57.3492 18.9779 55.6148 18.6281C53.5277 18.2072 51.367 17.9861 49.1533 17.9861Z" fill="white"/>
<path fill-rule="evenodd" clip-rule="evenodd" d="M46.9775 26.5635C47.6939 26.4992 48.4196 26.4664 49.1534 26.4664C50.7897 26.4664 52.3867 26.6298 53.9291 26.9409L54.4302 24.4562C52.7237 24.112 50.959 23.9316 49.1534 23.9316C47.9281 23.9316 46.7215 24.0147 45.5391 24.1757L44.4427 24.325V33.0581H46.9775V26.5635ZM25.1657 49.2195C25.582 41.2094 29.9218 34.2367 36.3052 30.1875L34.9474 28.0471C27.5276 32.7538 22.5981 41.0442 22.5981 50.4869V51.7542H31.5528V49.2195H25.1657ZM66.0726 49.2195H75.7086V50.4869C75.7086 60.5806 70.0765 69.3571 61.7895 73.8485L60.5817 71.62C67.7345 67.7433 72.6944 60.3451 73.141 51.7542H66.0726V49.2195ZM47.886 74.4745C37.76 73.948 29.2909 67.1501 26.2943 57.888L23.8827 58.6682C27.3318 69.3294 37.3402 77.0421 49.1534 77.0421H50.4207V68.5338H47.886V74.4745Z" fill="white"/>
<path fill-rule="evenodd" clip-rule="evenodd" d="M55.0619 49.6816H43.0511C41.4001 49.6816 40.0617 51.02 40.0617 52.671V59.9204H58.0513V52.671C58.0513 51.02 56.7129 49.6816 55.0619 49.6816ZM43.0511 47.9551C40.4466 47.9551 38.3352 50.0665 38.3352 52.671V61.6469H59.7778V52.671C59.7778 50.0665 57.6664 47.9551 55.0619 47.9551H43.0511Z" fill="white"/>
<path fill-rule="evenodd" clip-rule="evenodd" d="M49.0565 47.4173C50.9618 47.4173 52.5064 45.8727 52.5064 43.9674C52.5064 42.0621 50.9618 40.5175 49.0565 40.5175C47.1512 40.5175 45.6066 42.0621 45.6066 43.9674C45.6066 45.8727 47.1512 47.4173 49.0565 47.4173ZM49.0565 49.1438C51.9154 49.1438 54.2329 46.8263 54.2329 43.9674C54.2329 41.1086 51.9154 38.791 49.0565 38.791C46.1977 38.791 43.8801 41.1086 43.8801 43.9674C43.8801 46.8263 46.1977 49.1438 49.0565 49.1438Z" fill="white"/>
<path fill-rule="evenodd" clip-rule="evenodd" d="M67.0924 15.2986C67.0924 14.672 67.6004 14.1641 68.227 14.1641H73.1668C73.7934 14.1641 74.3014 14.672 74.3014 15.2986V17.1952L77.0651 18.3176L78.8358 17.0391C79.3064 16.6993 79.9576 16.7695 80.345 17.2018L83.0682 20.2413C83.4617 20.6805 83.4532 21.3479 83.0486 21.7768L81.5754 23.339L82.622 25.9434H85.0617C85.6883 25.9434 86.1962 26.4513 86.1962 27.0779V31.4099C86.1962 31.9821 85.7702 32.4647 85.2024 32.5357L83.0296 32.8075L82.0379 35.3011L83.1637 36.9696C83.4483 37.3913 83.4173 37.9509 83.088 38.3387L80.3647 41.5451C80.0038 41.9701 79.3876 42.0698 78.911 41.7804L77.1597 40.7168L74.618 41.9517L74.2778 43.5918C74.1758 44.0832 73.7631 44.4492 73.263 44.4917L68.9798 44.8561C68.428 44.9031 67.923 44.5448 67.7849 44.0085L67.2616 41.9759L64.6988 40.7763L63.3589 42.0098C63.1352 42.2158 62.8381 42.3233 62.5343 42.3082C62.2305 42.2932 61.9456 42.1568 61.7433 41.9297L58.5628 38.3588C58.2227 37.977 58.18 37.4148 58.4587 36.986L59.4994 35.3844L58.3128 33.1804L56.4014 32.8863C55.848 32.8011 55.4395 32.3249 55.4395 31.7649V27.0779C55.4395 26.4513 55.9474 25.9434 56.574 25.9434H58.3067L59.4909 23.279L58.1788 21.7324C57.7749 21.2563 57.8315 20.5432 58.3056 20.1369L61.8522 17.0974C62.2788 16.7318 62.9088 16.7335 63.3335 17.1015L64.6905 18.2772L67.0924 17.219V15.2986ZM69.3616 16.4332V17.9589C69.3616 18.4086 69.096 18.8159 68.6844 18.9972L64.9479 20.6434C64.5464 20.8203 64.079 20.7499 63.7475 20.4626L62.5864 19.4566L60.6394 21.1253L61.6824 22.3546C61.9643 22.6869 62.031 23.1512 61.854 23.5494L60.0807 27.5388C59.8986 27.9485 59.4923 28.2125 59.044 28.2125H57.7086V30.7916L59.2165 31.0237C59.5683 31.0778 59.8742 31.2938 60.0429 31.6072L61.8162 34.9009C62.0128 35.266 61.9945 35.7093 61.7685 36.057L60.8332 37.4963L62.6706 39.5592L63.722 38.5913C64.0608 38.2795 64.5544 38.2033 64.9714 38.3985L68.708 40.1475C69.0147 40.2911 69.2413 40.5642 69.3257 40.8922L69.7432 42.5138L72.2278 42.3025L72.5095 40.9445C72.581 40.6001 72.8082 40.3083 73.1246 40.1546L76.7242 38.4056C77.0709 38.2371 77.4795 38.2562 77.809 38.4563L79.2617 39.3386L80.8015 37.5256L79.8216 36.0734C79.6118 35.7625 79.5692 35.368 79.7078 35.0195L81.169 31.3456C81.3219 30.9612 81.6719 30.6904 82.0824 30.6391L83.9271 30.4084V28.2125H81.8552C81.3919 28.2125 80.9752 27.9309 80.8025 27.501L79.1992 23.5116C79.0342 23.1011 79.123 22.632 79.4266 22.3101L80.6822 20.9787L79.3363 19.4765L77.8842 20.525C77.5674 20.7538 77.1552 20.8034 76.7931 20.6563L72.7399 19.0101C72.3121 18.8363 72.0323 18.4207 72.0323 17.9589V16.4332H69.3616Z" fill="white"/>
<path d="M78.488 29.5138C78.488 33.7498 75.054 37.1838 70.818 37.1838C66.5819 37.1838 63.1479 33.7498 63.1479 29.5138C63.1479 25.2777 66.5819 21.8438 70.818 21.8438C75.054 21.8438 78.488 25.2777 78.488 29.5138Z" fill="#72517E"/>
<path fill-rule="evenodd" clip-rule="evenodd" d="M70.818 34.9146C73.8008 34.9146 76.2188 32.4966 76.2188 29.5138C76.2188 26.5309 73.8008 24.1129 70.818 24.1129C67.8351 24.1129 65.4171 26.5309 65.4171 29.5138C65.4171 32.4966 67.8351 34.9146 70.818 34.9146ZM70.818 37.1838C75.054 37.1838 78.488 33.7498 78.488 29.5138C78.488 25.2777 75.054 21.8438 70.818 21.8438C66.5819 21.8438 63.1479 25.2777 63.1479 29.5138C63.1479 33.7498 66.5819 37.1838 70.818 37.1838Z" fill="white"/>
</svg>
