<svg width="100" height="100" viewBox="0 0 100 100" fill="none" xmlns="http://www.w3.org/2000/svg">
<path fill-rule="evenodd" clip-rule="evenodd" d="M33.2708 17.4347C33.2708 16.6423 33.9131 16 34.7054 16H79.3761C80.1684 16 80.8108 16.6423 80.8108 17.4347V44.1772C80.8108 44.5611 80.6569 44.9289 80.3836 45.1985C80.1104 45.4681 79.7404 45.617 79.3566 45.6117L34.6859 45.004C33.9012 44.9933 33.2708 44.3542 33.2708 43.5694V34.5543H36.1401V42.1541L77.9414 42.7229V18.8694H36.1401V29.3885H33.2708V17.4347Z" fill="white"/>
<path fill-rule="evenodd" clip-rule="evenodd" d="M46.5107 25.6417C46.5107 24.8494 47.1531 24.207 47.9454 24.207H57.1632C57.9556 24.207 58.5979 24.8494 58.5979 25.6417C58.5979 26.4341 57.9556 27.0764 57.1632 27.0764H47.9454C47.1531 27.0764 46.5107 26.4341 46.5107 25.6417Z" fill="#72517E"/>
<path fill-rule="evenodd" clip-rule="evenodd" d="M46.5107 31.0831C46.5107 30.2908 47.1531 29.6484 47.9454 29.6484H74.2284C75.0207 29.6484 75.6631 30.2908 75.6631 31.0831C75.6631 31.8755 75.0207 32.5178 74.2284 32.5178H47.9454C47.1531 32.5178 46.5107 31.8755 46.5107 31.0831Z" fill="#72517E"/>
<path fill-rule="evenodd" clip-rule="evenodd" d="M46.5107 36.8624C46.5107 36.0701 47.1531 35.4277 47.9454 35.4277H74.2284C75.0207 35.4277 75.6631 36.0701 75.6631 36.8624C75.6631 37.6548 75.0207 38.2971 74.2284 38.2971H47.9454C47.1531 38.2971 46.5107 37.6548 46.5107 36.8624Z" fill="#72517E"/>
<path fill-rule="evenodd" clip-rule="evenodd" d="M17.8694 36.8781V43.5993H22.194V37.0888C20.4948 34.7873 19.5566 34.9508 19.326 35.0279C19.0892 35.107 18.7963 35.319 18.4914 35.7255C18.2368 36.065 18.0241 36.475 17.8694 36.8781ZM25.0633 43.5993V36.6283C25.0633 36.3354 24.9737 36.0495 24.8064 35.8091C22.7911 32.9118 20.6065 31.5745 18.4164 32.3065C17.4372 32.6338 16.7075 33.3218 16.1959 34.0039C15.6781 34.6943 15.3089 35.4764 15.0751 36.1702C15.0254 36.3178 15 36.4726 15 36.6283V45.034C15 45.8263 15.6423 46.4687 16.4347 46.4687H29.4594V43.5993H25.0633Z" fill="white"/>
<path fill-rule="evenodd" clip-rule="evenodd" d="M41.0443 28.9253L27.5269 34.4473L24.5427 37.2904L22.5635 35.213L25.7439 32.1829C25.8735 32.0594 26.0252 31.9613 26.1909 31.8935L39.9964 26.2539C40.0194 26.2445 40.0427 26.2356 40.0662 26.2275C40.7307 25.9955 41.8037 25.7416 42.8275 25.8308C43.3465 25.876 43.9741 26.0197 44.525 26.4168C45.1219 26.8472 45.5083 27.4904 45.617 28.2757C45.7227 29.0391 45.3657 29.6601 45.096 30.0242C44.8013 30.4219 44.4065 30.7879 43.9986 31.1142C43.1747 31.7732 42.0595 32.4561 40.8804 33.1015C38.5369 34.3844 35.7173 35.6397 33.8065 36.4175L30.7612 38.065L30.8859 46.4577L28.0169 46.5004L27.8792 37.2382C27.8712 36.7038 28.161 36.2093 28.6311 35.955L32.5106 33.8562C32.5571 33.831 32.605 33.8085 32.654 33.7886C34.5055 33.0376 37.2588 31.8128 39.5026 30.5845C40.6325 29.966 41.5767 29.377 42.2064 28.8734C42.2922 28.8047 42.3681 28.7409 42.4347 28.6821C41.9981 28.6745 41.4544 28.7862 41.0443 28.9253ZM42.8273 28.2596C42.8278 28.2595 42.8252 28.2651 42.8178 28.2767C42.8231 28.2655 42.8268 28.2597 42.8273 28.2596Z" fill="white"/>
<path fill-rule="evenodd" clip-rule="evenodd" d="M23.5532 28.2131C24.6464 28.2131 25.5326 27.3268 25.5326 26.2336C25.5326 25.1404 24.6464 24.2541 23.5532 24.2541C22.46 24.2541 21.5737 25.1404 21.5737 26.2336C21.5737 27.3268 22.46 28.2131 23.5532 28.2131ZM23.5532 31.0824C26.2311 31.0824 28.402 28.9115 28.402 26.2336C28.402 23.5557 26.2311 21.3848 23.5532 21.3848C20.8752 21.3848 18.7043 23.5557 18.7043 26.2336C18.7043 28.9115 20.8752 31.0824 23.5532 31.0824Z" fill="white"/>
<path fill-rule="evenodd" clip-rule="evenodd" d="M39.5063 67.7932H28.2462C24.2688 67.7932 21.0444 71.0175 21.0444 74.995V82.106H46.7081V74.995C46.7081 71.0175 43.4837 67.7932 39.5063 67.7932ZM28.2462 64.9238C22.6841 64.9238 18.175 69.4328 18.175 74.995V84.9753H49.5775V74.995C49.5775 69.4328 45.0685 64.9238 39.5063 64.9238H28.2462Z" fill="white"/>
<path fill-rule="evenodd" clip-rule="evenodd" d="M33.8764 63.1261C36.4785 63.1261 38.5878 61.0168 38.5878 58.4148C38.5878 55.8127 36.4785 53.7034 33.8764 53.7034C31.2744 53.7034 29.165 55.8127 29.165 58.4148C29.165 61.0168 31.2744 63.1261 33.8764 63.1261ZM33.8764 65.9955C38.0632 65.9955 41.4572 62.6015 41.4572 58.4148C41.4572 54.228 38.0632 50.834 33.8764 50.834C29.6897 50.834 26.2957 54.228 26.2957 58.4148C26.2957 62.6015 29.6897 65.9955 33.8764 65.9955Z" fill="white"/>
<path fill-rule="evenodd" clip-rule="evenodd" d="M74.9289 67.7932H63.6688C59.6914 67.7932 56.467 71.0175 56.467 74.995V82.106H82.1307V74.995C82.1307 71.0175 78.9064 67.7932 74.9289 67.7932ZM63.6688 64.9238C58.1067 64.9238 53.5977 69.4328 53.5977 74.995V84.9753H85.0001V74.995C85.0001 69.4328 80.4911 64.9238 74.9289 64.9238H63.6688Z" fill="white"/>
<path fill-rule="evenodd" clip-rule="evenodd" d="M69.299 63.1261C71.9011 63.1261 74.0104 61.0168 74.0104 58.4148C74.0104 55.8127 71.9011 53.7034 69.299 53.7034C66.697 53.7034 64.5876 55.8127 64.5876 58.4148C64.5876 61.0168 66.697 63.1261 69.299 63.1261ZM69.299 65.9955C73.4858 65.9955 76.8798 62.6015 76.8798 58.4148C76.8798 54.228 73.4858 50.834 69.299 50.834C65.1123 50.834 61.7183 54.228 61.7183 58.4148C61.7183 62.6015 65.1123 65.9955 69.299 65.9955Z" fill="white"/>
</svg>
