<svg width="100" height="100" viewBox="0 0 100 100" fill="none" xmlns="http://www.w3.org/2000/svg">
<path d="M22.9448 41.916L30.7286 45.5303L20.7838 66.9477L13 63.3335L22.9448 41.916Z" fill="#F4A7A3"/>
<path d="M68.854 46.1406L76.8196 42.9469L85.6072 64.8646L77.6417 68.0583L68.854 46.1406Z" fill="#F4A7A3"/>
<path d="M23.3606 41.1493C22.131 41.6068 22.0309 41.7784 17.3984 51.887C13.3807 60.6802 13.0805 61.3951 13.009 62.2815C12.9375 63.4254 13.2949 64.3404 14.0384 64.8838C14.9249 65.5415 19.0141 67.3001 19.8148 67.3716C20.6583 67.4431 21.6449 67.1428 22.0595 66.6853C22.2025 66.528 22.3884 66.3993 22.4742 66.3993C22.56 66.3993 23.5036 66.7854 24.576 67.2715C25.9343 67.872 26.5777 68.2295 26.6777 68.4582C26.7492 68.6298 26.9208 69.2875 27.0638 69.9023C27.1925 70.5314 27.364 71.2463 27.4355 71.5037C27.5642 71.9183 27.507 72.1042 26.8636 73.3195C25.777 75.3927 25.7484 77.0084 26.7492 78.5097C27.5356 79.6821 28.3935 80.1968 30.0092 80.4685L30.5239 80.5543L30.5954 81.5408C30.7241 83.2423 31.6105 84.5291 33.1404 85.244C34.0698 85.6872 35.5567 85.7444 36.529 85.3726L37.1438 85.1439L37.344 85.5299C37.6585 86.1304 38.5307 86.9454 39.2742 87.2886C39.7889 87.5459 40.1893 87.6174 41.1472 87.6174C41.8192 87.6174 42.4912 87.5602 42.6342 87.4601C42.8773 87.3315 42.9488 87.3743 43.1775 87.8462C43.5636 88.6326 44.3928 89.4046 45.265 89.8193C45.9513 90.1195 46.1801 90.1624 47.2667 90.1052C48.6679 90.0338 49.4114 89.7335 50.1835 88.9328L50.6553 88.461L51.7705 89.0472C52.7285 89.5476 53.0574 89.6334 53.9438 89.6763C55.2735 89.7478 56.2029 89.4618 57.0751 88.6755C57.9901 87.8748 58.462 87.0312 58.5478 86.0017L58.6335 85.1725L59.5057 85.101C61.5503 84.9294 63.1803 83.3852 63.5234 81.2977L63.6235 80.6972H64.3813C67.1408 80.6972 69.3713 78.0521 68.7708 75.4642L68.6421 74.8923L69.4142 74.4919C70.7867 73.7628 71.5731 72.5474 71.7304 70.9318L71.8162 69.9309L74.0896 68.9587L76.3629 67.9864L76.7347 68.3867C77.3495 69.0444 78.0072 69.3161 78.9652 69.3161C79.68 69.3018 80.2234 69.1445 82.2537 68.3438C83.5834 67.8148 84.8845 67.2286 85.1418 67.0284C85.8424 66.4994 86.1856 65.713 86.1856 64.6979C86.1856 63.9115 85.8567 62.9964 82.3966 54.1603C80.3092 48.8415 78.479 44.2662 78.3074 43.9945C77.8356 43.2367 76.8777 42.7506 75.8339 42.7649C75.1047 42.7649 74.5614 42.9365 72.5311 43.7372C71.2014 44.2662 69.9003 44.8524 69.6572 45.0383C68.9137 45.5959 68.5706 46.4824 68.6278 47.6977L68.6707 48.7414L66.8119 49.728C64.4099 51.0148 63.9953 51.072 61.9507 50.3142C58.4477 49.0131 57.3324 48.6699 56.1171 48.5413C53.9581 48.2982 52.0565 48.6413 50.0119 49.6708L48.9396 50.1998L48.2962 49.871C46.8664 49.1132 45.7797 48.8844 43.7923 48.8987C42.2196 48.8987 41.6191 48.9702 39.8604 49.3848C38.6165 49.6708 37.3869 49.871 36.7864 49.871C35.8427 49.871 35.6711 49.8281 33.4978 48.8129C32.2396 48.2267 31.1816 47.7406 31.153 47.712C31.1244 47.6977 31.2102 47.426 31.3389 47.0972C31.7821 45.9676 31.539 44.6522 30.7098 43.8087C30.3523 43.4369 29.523 42.9794 27.7215 42.1644C25.0335 40.9634 24.3329 40.7918 23.3606 41.1493ZM26.5348 44.3377C28.6795 45.3099 29.137 45.5816 29.137 45.8819C29.137 46.082 20.7298 64.5263 20.5297 64.7837C20.2866 65.0982 19.9577 64.9981 17.8274 64.0259C15.4968 62.9535 15.411 62.8964 15.411 62.5103C15.411 62.11 23.8039 43.7658 24.0898 43.5513C24.2185 43.4655 24.3615 43.3797 24.3901 43.3797C24.4187 43.3797 25.3909 43.8087 26.5348 44.3377ZM79.9946 54.7465C81.9963 59.8652 83.6692 64.2404 83.7121 64.4977C83.8121 65.0696 83.6835 65.1554 80.9955 66.1992C78.9223 66.9855 78.8651 66.9998 78.6077 66.7425C78.3217 66.4279 71.0298 47.8407 71.0298 47.4117C71.0298 46.9971 71.2157 46.897 73.6177 45.9676C75.4622 45.2528 75.8625 45.1384 76.077 45.2813C76.2486 45.3957 77.6783 48.8415 79.9946 54.7465ZM32.5828 51.0863C35.8141 52.559 36.5004 52.6305 40.2893 51.7869C42.6342 51.2722 44.2499 51.1435 45.3079 51.3865C46.9093 51.7583 46.9093 51.6582 45.3794 53.1166C42.8916 55.49 40.6325 57.2344 38.0732 58.75C36.672 59.5792 36.4289 59.8509 36.4289 60.5229C36.4289 61.5095 38.402 63.5398 40.2607 64.4691C42.6342 65.6558 45.2507 65.4557 49.6402 63.7256C53.7294 62.1243 54.8303 61.8526 56.0599 62.11C56.5889 62.2243 58.4906 63.2252 62.737 65.6558C69.214 69.359 69.3141 69.4448 69.3141 70.6458C69.3141 71.1748 69.2283 71.3607 68.7708 71.8468C68.3275 72.333 68.113 72.4473 67.5697 72.5045C66.9263 72.576 66.7833 72.5045 62.5798 70.1311C59.9061 68.6298 58.0902 67.6861 57.8472 67.6861C57.6327 67.6861 57.2895 67.8434 57.0751 68.0293C56.5318 68.4868 56.5175 69.3018 57.0322 69.745C57.2181 69.9023 59.277 71.1033 61.5789 72.4045C65.9684 74.8637 66.1971 75.0496 66.3973 76.079C66.5117 76.6938 66.097 77.5231 65.4679 77.9377C64.5386 78.5668 64.3813 78.4954 59.0768 75.55C56.3888 74.063 54.0582 72.8334 53.9009 72.8334C53.186 72.8334 52.5855 73.4053 52.5855 74.1059C52.5855 74.6635 53.2718 75.1639 56.689 77.0656C58.6478 78.1665 60.3779 79.1817 60.5495 79.3532C60.721 79.5248 60.9355 79.9108 61.0213 80.2254C61.1786 80.7258 61.1643 80.8831 60.9069 81.455C60.5638 82.2271 60.0919 82.5703 59.2626 82.656C58.705 82.7132 58.4191 82.5846 55.6739 81.0547C54.0296 80.1396 52.4283 79.1817 52.1137 78.91C50.9556 77.9091 49.3399 77.4659 48.1389 77.8091C47.6242 77.952 47.6099 77.9377 47.4526 77.4087C47.2381 76.6795 46.2659 75.6072 45.3794 75.1496C44.7503 74.8208 44.4643 74.7636 43.3205 74.7493L42.0051 74.735L41.6333 74.0058C40.9327 72.6046 39.6745 71.8182 37.9731 71.7182L36.8864 71.661L36.7149 71.0319C36.2573 69.4162 34.9133 68.2295 33.2405 67.9292C32.0824 67.7433 31.0386 67.9435 30.0806 68.544C29.6231 68.8443 29.3943 68.9158 29.3515 68.7871C29.3229 68.7013 29.1942 68.2867 29.0655 67.872C28.6652 66.5995 28.0503 66.0848 25.7484 65.0696C24.6332 64.5835 23.7038 64.126 23.6895 64.0688C23.6466 63.8257 30.0664 49.9568 30.2093 50.0139C30.2808 50.0425 31.3532 50.5287 32.5828 51.0863ZM57.0751 51.1864C57.5326 51.3008 58.705 51.7154 59.663 52.1014C62.1079 53.0737 62.9944 53.2882 64.3956 53.2167C65.4536 53.1595 65.6824 53.088 67.0407 52.4017C67.8557 51.9728 68.785 51.4866 69.0996 51.3008L69.6715 50.9719L72.5025 58.2209C74.061 62.21 75.3478 65.5272 75.3478 65.613C75.3478 65.6844 74.3183 66.1849 73.0601 66.7139L70.7582 67.6861L70.3149 67.2858C69.7716 66.7854 58.462 60.337 57.4182 59.9367C56.832 59.7079 56.3459 59.6364 55.3021 59.6507C53.7008 59.6507 52.5426 59.9653 49.2398 61.2521C46.5089 62.3101 45.3794 62.6533 44.2499 62.7677C42.72 62.9249 40.9327 62.2958 39.9319 61.2521C39.7031 61.0233 39.5459 60.8089 39.5887 60.7803C39.6173 60.7517 40.3322 60.2655 41.1758 59.7079C43.1489 58.3925 44.6788 57.1486 46.9808 55.0182C51.0414 51.2579 53.5864 50.2856 57.0751 51.1864ZM33.5264 70.6172C34.127 71.0176 34.4558 71.6896 34.3843 72.4045C34.3128 73.1193 32.2253 77.1514 31.6963 77.5803C30.8813 78.2523 29.7232 78.1522 29.0083 77.3372C28.2505 76.4651 28.2648 76.0075 29.1227 74.349C30.6526 71.3893 30.9957 70.8603 31.6248 70.5457C32.2825 70.2169 32.9402 70.2455 33.5264 70.6172ZM39.0025 74.6206C39.503 75.0925 39.7746 75.8502 39.6745 76.3793C39.5602 76.9369 36.7578 82.127 36.3145 82.5989C35.0706 83.9143 32.8258 82.8705 33.0403 81.069C33.0832 80.6972 33.6265 79.5105 34.5702 77.7662C35.3709 76.2649 36.1001 74.9638 36.2001 74.8494C36.8721 74.0201 38.259 73.9057 39.0025 74.6206ZM44.2499 77.3658C44.9219 77.6804 45.2936 78.3238 45.2936 79.1245C45.2936 79.6678 45.0648 80.1682 43.9639 82.1842C42.4912 84.9008 42.2053 85.2011 41.1472 85.2011C39.9748 85.2011 39.0597 84.2145 39.1884 83.1136C39.2599 82.6274 41.3617 78.4954 41.8478 77.9234C42.5055 77.1514 43.3777 76.9512 44.2499 77.3658ZM50.112 80.4828C50.6124 80.8116 51.0128 81.5408 51.0128 82.127C51.0128 82.8848 48.8109 86.9454 48.1675 87.3743C47.2381 88.0035 45.8655 87.6746 45.3651 86.7166C44.9362 85.8731 45.0791 85.3583 46.3374 82.9849C47.4383 80.926 47.567 80.7401 48.1532 80.4399C48.8681 80.0681 49.4972 80.0967 50.112 80.4828ZM55.8455 84.2717C56.4603 85.1868 56.1314 86.5594 55.1735 87.0598C54.3728 87.4601 53.4577 87.2743 52.1995 86.445L51.8706 86.2448L52.4997 85.0724C52.8429 84.4433 53.2146 83.6426 53.3147 83.3137L53.4863 82.6989L54.5015 83.2423C55.1163 83.5711 55.6453 83.9857 55.8455 84.2717Z" fill="#50265C"/>
<path fill-rule="evenodd" clip-rule="evenodd" d="M68.5086 22.6126C69.5935 22.6126 70.473 21.7332 70.473 20.6483C70.473 19.5634 69.5935 18.6839 68.5086 18.6839C67.4238 18.6839 66.5443 19.5634 66.5443 20.6483C66.5443 21.7332 67.4238 22.6126 68.5086 22.6126ZM68.5086 25.2087C71.0273 25.2087 73.069 23.1669 73.069 20.6483C73.069 18.1296 71.0273 16.0879 68.5086 16.0879C65.99 16.0879 63.9482 18.1296 63.9482 20.6483C63.9482 23.1669 65.99 25.2087 68.5086 25.2087Z" fill="#50265C"/>
<path fill-rule="evenodd" clip-rule="evenodd" d="M32.3218 26.5962C30.7366 26.5916 29.014 26.6799 27.5984 26.8696C26.5707 27.0073 25.8226 27.5293 25.2941 28.1744C24.7741 28.8092 24.5059 29.5191 24.4295 29.9723V34.501H37.1603V27.4042C36.6773 27.0834 36.256 26.9028 36.0207 26.8536C35.2923 26.7013 33.9297 26.6009 32.3218 26.5962ZM36.5519 24.3125C35.5551 24.1041 33.976 24.005 32.3294 24.0002C30.66 23.9953 28.8151 24.0873 27.2537 24.2965C25.4638 24.5363 24.1551 25.4682 23.2859 26.5293C22.437 27.5656 21.9669 28.7703 21.8444 29.7092L21.8335 29.7928V37.0971H39.7564V26.129L39.2743 25.7394C38.4174 25.0468 37.4095 24.4918 36.5519 24.3125Z" fill="#50265C"/>
<path fill-rule="evenodd" clip-rule="evenodd" d="M68.9769 26.5962C67.3918 26.5916 65.6691 26.6799 64.2536 26.8696C64.0229 26.9005 63.8082 26.9503 63.6083 27.0155V34.501H75.9213C75.9381 33.3571 75.942 31.7643 75.8934 30.2348C75.873 29.5915 75.4424 28.8151 74.6728 28.0865C73.9032 27.3579 73.0665 26.9353 72.6759 26.8536C71.9474 26.7013 70.5849 26.6009 68.9769 26.5962ZM63.8952 37.0971L63.517 38.0518L61.0122 37.5737V25.4323L61.6604 25.0574C62.3094 24.6821 63.0595 24.4103 63.9088 24.2965C65.4703 24.0873 67.3151 23.9953 68.9845 24.0002C70.6311 24.005 72.2102 24.1041 73.2071 24.3125M63.8952 37.0971H78.447L78.4881 35.8416C78.5189 34.9033 78.5616 32.4663 78.4882 30.1524C78.4363 28.5173 77.4439 27.1351 76.4576 26.2014C75.4715 25.2677 74.2196 24.5242 73.2071 24.3125" fill="#50265C"/>
<path fill-rule="evenodd" clip-rule="evenodd" d="M31.7166 22.6126C32.8015 22.6126 33.681 21.7332 33.681 20.6483C33.681 19.5634 32.8015 18.6839 31.7166 18.6839C30.6318 18.6839 29.7523 19.5634 29.7523 20.6483C29.7523 21.7332 30.6318 22.6126 31.7166 22.6126ZM31.7166 25.2087C34.2353 25.2087 36.277 23.1669 36.277 20.6483C36.277 18.1296 34.2353 16.0879 31.7166 16.0879C29.198 16.0879 27.1562 18.1296 27.1562 20.6483C27.1562 23.1669 29.198 25.2087 31.7166 25.2087Z" fill="#50265C"/>
<path fill-rule="evenodd" clip-rule="evenodd" d="M54.7552 24.0785H46.2997C42.6494 24.0785 39.6903 27.0376 39.6903 30.6879V36.0415H61.3646V30.6879C61.3646 27.0376 58.4055 24.0785 54.7552 24.0785ZM46.2997 21.4824C41.2157 21.4824 37.0942 25.6038 37.0942 30.6879V38.6375H63.9607V30.6879C63.9607 25.6038 59.8392 21.4824 54.7552 21.4824H46.2997Z" fill="#50265C"/>
<path fill-rule="evenodd" clip-rule="evenodd" d="M50.5273 21.1273C53.0907 21.1273 55.1689 19.0492 55.1689 16.4857C55.1689 13.9223 53.0907 11.8441 50.5273 11.8441C47.9638 11.8441 45.8857 13.9223 45.8857 16.4857C45.8857 19.0492 47.9638 21.1273 50.5273 21.1273ZM50.5273 22.9715C54.1092 22.9715 57.013 20.0677 57.013 16.4857C57.013 12.9038 54.1092 10 50.5273 10C46.9453 10 44.0415 12.9038 44.0415 16.4857C44.0415 20.0677 46.9453 22.9715 50.5273 22.9715Z" fill="#50265C"/>
<path fill-rule="evenodd" clip-rule="evenodd" d="M63.3653 29.9629C63.6374 29.9629 63.858 30.1835 63.858 30.4556L63.858 34.4622C63.858 34.7343 63.6374 34.9549 63.3653 34.9549C63.0932 34.9549 62.8726 34.7343 62.8726 34.4622L62.8726 30.4556C62.8726 30.1835 63.0932 29.9629 63.3653 29.9629Z" fill="#50265C"/>
<path fill-rule="evenodd" clip-rule="evenodd" d="M50.5273 20.3755C52.6755 20.3755 54.417 18.634 54.417 16.4858C54.417 14.3375 52.6755 12.5961 50.5273 12.5961C48.379 12.5961 46.6376 14.3375 46.6376 16.4858C46.6376 18.634 48.379 20.3755 50.5273 20.3755ZM50.5273 22.9715C54.1093 22.9715 57.013 20.0678 57.013 16.4858C57.013 12.9038 54.1093 10 50.5273 10C46.9453 10 44.0415 12.9038 44.0415 16.4858C44.0415 20.0678 46.9453 22.9715 50.5273 22.9715Z" fill="#50265C"/>
</svg>
