<svg width="101" height="101" viewBox="0 0 101 101" fill="none" xmlns="http://www.w3.org/2000/svg">
<path fill-rule="evenodd" clip-rule="evenodd" d="M17.3092 75.1922L12.731 75.1922C12.1893 75.1922 11.7501 74.753 11.7501 74.2113C11.7501 73.6696 12.1893 73.2305 12.731 73.2305L17.3092 73.2305C17.8509 73.2305 18.29 73.6696 18.29 74.2113C18.29 74.753 17.8509 75.1922 17.3092 75.1922ZM24.1932 74.2113C24.1932 73.6696 24.6323 73.2305 25.174 73.2305L46.9015 73.2305C47.4433 73.2305 47.8824 73.6696 47.8824 74.2113C47.8824 74.753 47.4433 75.1922 46.9015 75.1922L25.174 75.1922C24.6323 75.1922 24.1932 74.753 24.1932 74.2113ZM54.0709 74.2113C54.0709 73.6696 54.5101 73.2305 55.0518 73.2305L77.2964 73.2305C77.8381 73.2305 78.2772 73.6696 78.2772 74.2113C78.2772 74.753 77.8381 75.1922 77.2964 75.1922L55.0518 75.1922C54.5101 75.1922 54.0709 74.753 54.0709 74.2113ZM84.3432 74.2113C84.3432 73.6696 84.7823 73.2305 85.3241 73.2305L89.2724 73.2305C89.8141 73.2305 90.2532 73.6696 90.2532 74.2113C90.2532 74.753 89.8141 75.1922 89.2724 75.1922L85.3241 75.1922C84.7823 75.1922 84.3432 74.753 84.3432 74.2113Z" fill="#50265C"/>
<path fill-rule="evenodd" clip-rule="evenodd" d="M18.3481 51.9422V62.9181H24.3574V51.9422H18.3481ZM18.1294 49.5801C16.9456 49.5801 15.986 50.5397 15.986 51.7235V65.2802H26.7195V51.7235C26.7195 50.5397 25.7599 49.5801 24.5761 49.5801H18.1294Z" fill="#50265C"/>
<path d="M30.9279 35.8621C30.9279 34.6784 31.8875 33.7188 33.0712 33.7188H39.518C40.7018 33.7188 41.6614 34.6784 41.6614 35.8621V65.2828H30.9279V35.8621Z" fill="#F4A7A3"/>
<path fill-rule="evenodd" clip-rule="evenodd" d="M33.29 36.0809V62.9207H39.2993V36.0809H33.29ZM33.0712 33.7188C31.8875 33.7188 30.9279 34.6784 30.9279 35.8621V65.2828H41.6614V35.8621C41.6614 34.6784 40.7018 33.7188 39.518 33.7188H33.0712Z" fill="#50265C"/>
<path fill-rule="evenodd" clip-rule="evenodd" d="M48.2324 25.3074V62.9193H54.2417V25.3074H48.2324ZM48.0136 22.9453C46.8299 22.9453 45.8702 23.9049 45.8702 25.0887V65.2814H56.6038V25.0887C56.6038 23.9049 55.6442 22.9453 54.4604 22.9453H48.0136Z" fill="#50265C"/>
<path d="M60.8121 43.2606C60.8121 42.0768 61.7718 41.1172 62.9555 41.1172H69.4023C70.5861 41.1172 71.5457 42.0768 71.5457 43.2606V65.2813H60.8121V43.2606Z" fill="#F4A7A3"/>
<path fill-rule="evenodd" clip-rule="evenodd" d="M63.1743 43.4793V62.9192H69.1836V43.4793H63.1743ZM62.9555 41.1172C61.7718 41.1172 60.8121 42.0768 60.8121 43.2606V65.2813H71.5457V43.2606C71.5457 42.0768 70.5861 41.1172 69.4023 41.1172H62.9555Z" fill="#50265C"/>
<path fill-rule="evenodd" clip-rule="evenodd" d="M78.1166 36.0809V62.9207H84.1259V36.0809H78.1166ZM77.8979 33.7188C76.7141 33.7188 75.7545 34.6784 75.7545 35.8621V65.2828H86.4881V35.8621C86.4881 34.6784 85.5285 33.7188 84.3447 33.7188H77.8979Z" fill="#50265C"/>
<path fill-rule="evenodd" clip-rule="evenodd" d="M21.1225 76.9851C22.6547 76.9851 23.8969 75.743 23.8969 74.2107C23.8969 72.6785 22.6547 71.4363 21.1225 71.4363C19.5902 71.4363 18.3481 72.6785 18.3481 74.2107C18.3481 75.743 19.5902 76.9851 21.1225 76.9851ZM21.1225 79.3473C23.9593 79.3473 26.259 77.0476 26.259 74.2107C26.259 71.3739 23.9593 69.0742 21.1225 69.0742C18.2857 69.0742 15.986 71.3739 15.986 74.2107C15.986 77.0476 18.2857 79.3473 21.1225 79.3473Z" fill="#50265C"/>
<path fill-rule="evenodd" clip-rule="evenodd" d="M51.0356 76.9851C52.5678 76.9851 53.81 75.743 53.81 74.2107C53.81 72.6785 52.5678 71.4363 51.0356 71.4363C49.5033 71.4363 48.2612 72.6785 48.2612 74.2107C48.2612 75.743 49.5033 76.9851 51.0356 76.9851ZM51.0356 79.3473C53.8724 79.3473 56.1721 77.0476 56.1721 74.2107C56.1721 71.3739 53.8724 69.0742 51.0356 69.0742C48.1987 69.0742 45.899 71.3739 45.899 74.2107C45.899 77.0476 48.1987 79.3473 51.0356 79.3473Z" fill="#50265C"/>
<path fill-rule="evenodd" clip-rule="evenodd" d="M81.352 76.9851C82.8842 76.9851 84.1264 75.743 84.1264 74.2107C84.1264 72.6785 82.8842 71.4363 81.352 71.4363C79.8197 71.4363 78.5776 72.6785 78.5776 74.2107C78.5776 75.743 79.8197 76.9851 81.352 76.9851ZM81.352 79.3473C84.1888 79.3473 86.4885 77.0476 86.4885 74.2107C86.4885 71.3739 84.1888 69.0742 81.352 69.0742C78.5152 69.0742 76.2155 71.3739 76.2155 74.2107C76.2155 77.0476 78.5152 79.3473 81.352 79.3473Z" fill="#50265C"/>
<path d="M41.2155 74.2107C41.2155 77.0476 38.9158 79.3473 36.079 79.3473C33.2422 79.3473 30.9425 77.0476 30.9425 74.2107C30.9425 71.3739 33.2422 69.0742 36.079 69.0742C38.9158 69.0742 41.2155 71.3739 41.2155 74.2107Z" fill="#F4A7A3"/>
<path fill-rule="evenodd" clip-rule="evenodd" d="M36.079 76.9851C37.6113 76.9851 38.8534 75.743 38.8534 74.2107C38.8534 72.6785 37.6113 71.4363 36.079 71.4363C34.5468 71.4363 33.3046 72.6785 33.3046 74.2107C33.3046 75.743 34.5468 76.9851 36.079 76.9851ZM36.079 79.3473C38.9158 79.3473 41.2155 77.0476 41.2155 74.2107C41.2155 71.3739 38.9158 69.0742 36.079 69.0742C33.2422 69.0742 30.9425 71.3739 30.9425 74.2107C30.9425 77.0476 33.2422 79.3473 36.079 79.3473Z" fill="#50265C"/>
<path d="M71.6125 74.2107C71.6125 77.0476 69.3128 79.3473 66.476 79.3473C63.6392 79.3473 61.3395 77.0476 61.3395 74.2107C61.3395 71.3739 63.6392 69.0742 66.476 69.0742C69.3128 69.0742 71.6125 71.3739 71.6125 74.2107Z" fill="#F4A7A3"/>
<path fill-rule="evenodd" clip-rule="evenodd" d="M66.476 76.9851C68.0082 76.9851 69.2504 75.743 69.2504 74.2107C69.2504 72.6785 68.0082 71.4363 66.476 71.4363C64.9437 71.4363 63.7016 72.6785 63.7016 74.2107C63.7016 75.743 64.9437 76.9851 66.476 76.9851ZM66.476 79.3473C69.3128 79.3473 71.6125 77.0476 71.6125 74.2107C71.6125 71.3739 69.3128 69.0742 66.476 69.0742C63.6392 69.0742 61.3395 71.3739 61.3395 74.2107C61.3395 77.0476 63.6392 79.3473 66.476 79.3473Z" fill="#50265C"/>
</svg>
