<svg width="100" height="100" viewBox="0 0 100 100" fill="none" xmlns="http://www.w3.org/2000/svg">
<path fill-rule="evenodd" clip-rule="evenodd" d="M50.0078 19C33.435 19 20 32.435 20 49.0078C20 60.595 26.5671 70.6509 36.1895 75.652L34.8059 78.3139C24.2295 72.817 17 61.7579 17 49.0078C17 30.7781 31.7781 16 50.0078 16C68.2375 16 83.0156 30.7781 83.0156 49.0078C83.0156 52.143 82.5781 55.1784 81.7599 58.0553L78.8743 57.2346C79.6174 54.622 80.0156 51.8627 80.0156 49.0078C80.0156 32.435 66.5807 19 50.0078 19Z" fill="white"/>
<path fill-rule="evenodd" clip-rule="evenodd" d="M77.9539 61.0665C78.7823 61.0584 79.4604 61.7235 79.4684 62.5518L79.5995 76.0512C79.6075 76.8796 78.9425 77.5577 78.1141 77.5657C77.2857 77.5737 76.6076 76.9087 76.5996 76.0803L76.5037 66.2021L61.3127 81.691C61.0324 81.9768 60.6494 82.1387 60.2491 82.1407C59.8487 82.1426 59.4642 81.9844 59.1811 81.7013L51.2372 73.7574L41.1744 84.4498C40.6066 85.053 39.6573 85.0818 39.054 84.5141C38.4507 83.9463 38.4219 82.997 38.9897 82.3937L50.1123 70.5754C50.3903 70.2799 50.7762 70.1097 51.1819 70.1036C51.5875 70.0974 51.9784 70.2558 52.2653 70.5427L60.2314 78.509L74.3619 64.1015L64.4837 64.1974C63.6553 64.2054 62.9772 63.5404 62.9692 62.712C62.9611 61.8836 63.6262 61.2056 64.4545 61.1975L77.9539 61.0665Z" fill="white"/>
<path fill-rule="evenodd" clip-rule="evenodd" d="M51.9437 34.1023C52.4577 34.3543 52.7835 34.8768 52.7835 35.4492V62.5669C52.7835 63.3953 52.1119 64.0669 51.2835 64.0669C50.4551 64.0669 49.7835 63.3953 49.7835 62.5669V38.5093L43.5248 43.3595C42.87 43.8669 41.9278 43.7475 41.4204 43.0927C40.9129 42.4378 41.0324 41.4956 41.6872 40.9882L50.3647 34.2636C50.8172 33.9129 51.4297 33.8504 51.9437 34.1023Z" fill="white"/>
</svg>
