<svg width="100" height="100" viewBox="0 0 100 100" fill="none" xmlns="http://www.w3.org/2000/svg">
<path d="M70.7148 52.8432C70.7148 64.8799 60.9571 74.6376 48.9204 74.6376C36.8837 74.6376 27.126 64.8799 27.126 52.8432C27.126 40.8065 36.8837 31.0488 48.9204 31.0488C60.9571 31.0488 70.7148 40.8065 70.7148 52.8432Z" fill="#F4A7A3"/>
<path fill-rule="evenodd" clip-rule="evenodd" d="M48.9204 72.0315C59.5177 72.0315 68.1086 63.4406 68.1086 52.8432C68.1086 42.2459 59.5177 33.655 48.9204 33.655C38.323 33.655 29.7321 42.2459 29.7321 52.8432C29.7321 63.4406 38.323 72.0315 48.9204 72.0315ZM48.9204 74.6376C60.9571 74.6376 70.7148 64.8799 70.7148 52.8432C70.7148 40.8065 60.9571 31.0488 48.9204 31.0488C36.8837 31.0488 27.126 40.8065 27.126 52.8432C27.126 64.8799 36.8837 74.6376 48.9204 74.6376Z" fill="#50265C"/>
<path d="M36.9131 56.5542C36.9131 52.6227 40.1002 49.4355 44.0317 49.4355H53.8091C57.7406 49.4355 60.9278 52.6227 60.9278 56.5542V64.7697H36.9131V56.5542Z" fill="white"/>
<path fill-rule="evenodd" clip-rule="evenodd" d="M53.8091 52.0417H44.0317C41.5395 52.0417 39.5192 54.062 39.5192 56.5542V62.1636H58.3216V56.5542C58.3216 54.062 56.3013 52.0417 53.8091 52.0417ZM44.0317 49.4355C40.1002 49.4355 36.9131 52.6227 36.9131 56.5542V64.7697H60.9278V56.5542C60.9278 52.6227 57.7406 49.4355 53.8091 49.4355H44.0317Z" fill="#50265C"/>
<path d="M54.7177 44.9692C54.7177 48.171 52.1221 50.7665 48.9204 50.7665C45.7186 50.7665 43.123 48.171 43.123 44.9692C43.123 41.7674 45.7186 39.1719 48.9204 39.1719C52.1221 39.1719 54.7177 41.7674 54.7177 44.9692Z" fill="white"/>
<path fill-rule="evenodd" clip-rule="evenodd" d="M48.9204 48.1603C50.6828 48.1603 52.1115 46.7316 52.1115 44.9692C52.1115 43.2068 50.6828 41.778 48.9204 41.778C47.1579 41.778 45.7292 43.2068 45.7292 44.9692C45.7292 46.7316 47.1579 48.1603 48.9204 48.1603ZM48.9204 50.7665C52.1221 50.7665 54.7177 48.171 54.7177 44.9692C54.7177 41.7674 52.1221 39.1719 48.9204 39.1719C45.7186 39.1719 43.123 41.7674 43.123 44.9692C43.123 48.171 45.7186 50.7665 48.9204 50.7665Z" fill="#50265C"/>
<path fill-rule="evenodd" clip-rule="evenodd" d="M43.1229 57.4766C43.8426 57.4766 44.426 58.06 44.426 58.7796L44.426 62.6894C44.426 63.4091 43.8426 63.9925 43.1229 63.9925C42.4032 63.9925 41.8198 63.4091 41.8198 62.6894L41.8198 58.7796C41.8198 58.06 42.4032 57.4766 43.1229 57.4766Z" fill="#50265C"/>
<path fill-rule="evenodd" clip-rule="evenodd" d="M54.7181 57.4766C55.4378 57.4766 56.0212 58.06 56.0212 58.7796L56.0212 62.6894C56.0212 63.4091 55.4378 63.9925 54.7181 63.9925C53.9984 63.9925 53.415 63.4091 53.415 62.6894L53.415 58.7796C53.415 58.06 53.9984 57.4766 54.7181 57.4766Z" fill="#50265C"/>
<path fill-rule="evenodd" clip-rule="evenodd" d="M41.139 17.3031C41.139 16.5834 41.7224 16 42.4421 16H54.7945C55.5141 16 56.0975 16.5834 56.0975 17.3031V23.0781L64.7518 26.5931L69.868 22.8988C70.4086 22.5085 71.1565 22.5892 71.6014 23.0857L78.411 30.6862C78.863 31.1906 78.8532 31.9571 78.3885 32.4498L74.0312 37.0699L77.401 45.4549H84.5382C85.2579 45.4549 85.8413 46.0383 85.8413 46.758V57.5904C85.8413 58.2475 85.352 58.8019 84.6999 58.8834L78.3457 59.678L75.8942 65.4323C75.6121 66.0944 74.8467 66.4025 74.1846 66.1204C73.5225 65.8383 73.2145 65.0729 73.4965 64.4109L76.2417 57.9673C76.4235 57.5405 76.8185 57.2425 77.2788 57.185L83.2351 56.4401V48.061H76.5203C75.9882 48.061 75.5096 47.7376 75.3112 47.2439L71.3022 37.2682C71.1127 36.7967 71.2146 36.258 71.5633 35.8883L75.6707 31.5331L70.4429 25.6983L65.6926 29.1283C65.3287 29.391 64.8552 29.448 64.4394 29.2791L54.3041 25.1626C53.8128 24.963 53.4914 24.4856 53.4914 23.9553V18.6062H43.7451V23.9553C43.7451 24.4718 43.4401 24.9395 42.9674 25.1478L33.624 29.2643C33.1629 29.4674 32.626 29.3866 32.2453 29.0567L28.343 25.6754L21.3117 31.7014L24.9071 35.9393C25.2308 36.321 25.3074 36.8543 25.1042 37.3116L20.67 47.2872C20.4609 47.7578 19.9942 48.061 19.4793 48.061H14.6062V57.3601L19.6775 58.1406C20.0815 58.2028 20.4329 58.4509 20.6267 58.8108L25.0608 67.047C25.2865 67.4664 25.2656 67.9754 25.0061 68.3748L22.0293 72.9556L28.4397 80.1528L32.216 76.6765C32.6051 76.3184 33.1721 76.2309 33.651 76.4551L42.9945 80.8285C43.3468 80.9934 43.607 81.3071 43.704 81.6838L45.0713 86.9948L53.7159 86.2594L54.6528 81.7439C54.73 81.3721 54.9655 81.0524 55.2978 80.8685L60.7456 77.8542C61.3753 77.5057 62.1683 77.7337 62.5167 78.3635C62.8651 78.9932 62.6371 79.7861 62.0074 80.1345L57.0831 82.8592L56.0704 87.7402C55.9533 88.3046 55.4793 88.725 54.9049 88.7738L44.1945 89.685C43.5607 89.7389 42.9807 89.3274 42.8221 88.7115L41.3333 82.9285L33.3379 79.1861L29.2302 82.9674C28.9732 83.204 28.632 83.3275 28.2831 83.3102C27.9343 83.2929 27.6069 83.1362 27.3746 82.8754L19.4216 73.9463C19.031 73.5077 18.982 72.862 19.302 72.3696L22.3999 67.6023L18.6396 60.6177L13.1049 59.7659C12.4692 59.6681 12 59.1211 12 58.478V46.758C12 46.0383 12.5834 45.4549 13.3031 45.4549H18.6325L22.3902 37.0011L18.4856 32.3987C18.0217 31.8519 18.0868 31.0329 18.6313 30.5663L27.4997 22.9659C27.9897 22.5459 28.7133 22.5479 29.201 22.9705L33.3283 26.5467L41.139 23.1055V17.3031Z" fill="#50265C"/>
<path fill-rule="evenodd" clip-rule="evenodd" d="M70.7144 83.7083C75.7223 83.7083 79.782 79.6486 79.782 74.6406C79.782 69.6327 75.7223 65.573 70.7144 65.573C65.7064 65.573 61.6467 69.6327 61.6467 74.6406C61.6467 79.6486 65.7064 83.7083 70.7144 83.7083ZM70.7144 86.3145C77.1616 86.3145 82.3882 81.0879 82.3882 74.6406C82.3882 68.1934 77.1616 62.9668 70.7144 62.9668C64.2671 62.9668 59.0405 68.1934 59.0405 74.6406C59.0405 81.0879 64.2671 86.3145 70.7144 86.3145Z" fill="#50265C"/>
<path fill-rule="evenodd" clip-rule="evenodd" d="M77.9027 69.6431C78.4849 70.2325 78.4791 71.1822 77.8897 71.7644L69.9063 79.6507C69.3418 80.2084 68.4407 80.2299 67.8502 79.6999L63.5923 75.8781C62.9758 75.3247 62.9246 74.3764 63.478 73.7599C64.0313 73.1434 64.9797 73.0922 65.5962 73.6455L68.8029 76.5238L75.7814 69.6301C76.3707 69.0479 77.3205 69.0538 77.9027 69.6431Z" fill="#50265C"/>
</svg>
