<svg width="100" height="100" viewBox="0 0 100 100" fill="none" xmlns="http://www.w3.org/2000/svg">
<path fill-rule="evenodd" clip-rule="evenodd" d="M67.0723 16H29.8161L11.9997 33.8164V82.4505H67.0723V16ZM64.5131 18.5592V79.8913H14.5589V34.8765L30.8761 18.5592H64.5131Z" fill="#50265C"/>
<path fill-rule="evenodd" clip-rule="evenodd" d="M32.5742 17.2793H30.015V33.4122L13.3086 33.0325L13.2505 35.591L32.5742 36.0302V17.2793Z" fill="#50265C"/>
<path fill-rule="evenodd" clip-rule="evenodd" d="M18.2397 51.473C18.2397 50.7663 18.8126 50.1934 19.5193 50.1934H59.554C60.2607 50.1934 60.8336 50.7663 60.8336 51.473C60.8336 52.1797 60.2607 52.7525 59.554 52.7525H19.5193C18.8126 52.7525 18.2397 52.1797 18.2397 51.473Z" fill="#50265C"/>
<path fill-rule="evenodd" clip-rule="evenodd" d="M18.2397 59.7464C18.2397 59.0397 18.8126 58.4668 19.5193 58.4668H59.554C60.2607 58.4668 60.8336 59.0397 60.8336 59.7464C60.8336 60.4531 60.2607 61.026 59.554 61.026H19.5193C18.8126 61.026 18.2397 60.4531 18.2397 59.7464Z" fill="#50265C"/>
<path fill-rule="evenodd" clip-rule="evenodd" d="M18.2393 69.5999C18.2393 68.8932 18.8122 68.3203 19.5188 68.3203H59.5535C60.2602 68.3203 60.8331 68.8932 60.8331 69.5999C60.8331 70.3066 60.2602 70.8795 59.5535 70.8795H19.5188C18.8122 70.8795 18.2393 70.3066 18.2393 69.5999Z" fill="#50265C"/>
<path fill-rule="evenodd" clip-rule="evenodd" d="M18.2393 41.9241C18.2393 41.2174 18.8122 40.6445 19.5189 40.6445L40.9859 40.6445C41.6926 40.6445 42.2655 41.2174 42.2655 41.9241C42.2655 42.6308 41.6926 43.2037 40.9859 43.2037L19.5189 43.2037C18.8122 43.2037 18.2393 42.6308 18.2393 41.9241Z" fill="#50265C"/>
<path d="M83.2822 62.6299C83.2822 72.2889 75.452 80.1192 65.793 80.1192C56.1339 80.1192 48.3037 72.2889 48.3037 62.6299C48.3037 52.9708 56.1339 45.1406 65.793 45.1406C75.452 45.1406 83.2822 52.9708 83.2822 62.6299Z" fill="#F4A7A3"/>
<path fill-rule="evenodd" clip-rule="evenodd" d="M65.793 77.56C74.0386 77.56 80.7231 70.8756 80.7231 62.6299C80.7231 54.3842 74.0386 47.6998 65.793 47.6998C57.5473 47.6998 50.8629 54.3842 50.8629 62.6299C50.8629 70.8756 57.5473 77.56 65.793 77.56ZM65.793 80.1192C75.452 80.1192 83.2822 72.2889 83.2822 62.6299C83.2822 52.9708 75.452 45.1406 65.793 45.1406C56.1339 45.1406 48.3037 52.9708 48.3037 62.6299C48.3037 72.2889 56.1339 80.1192 65.793 80.1192Z" fill="#50265C"/>
<path fill-rule="evenodd" clip-rule="evenodd" d="M81.6438 82.6783H49.9415C49.4704 82.6783 49.0885 83.0603 49.0885 83.5314V85.8077C49.0885 86.2788 49.4704 86.6607 49.9415 86.6607H81.6438C82.1149 86.6607 82.4969 86.2788 82.4969 85.8076V83.5314C82.4969 83.0603 82.1149 82.6783 81.6438 82.6783ZM49.9415 80.1191C48.057 80.1191 46.5293 81.6469 46.5293 83.5314V85.8077C46.5293 87.6922 48.057 89.2199 49.9415 89.2199H81.6438C83.5283 89.2199 85.0561 87.6922 85.0561 85.8076V83.5314C85.0561 81.6469 83.5283 80.1191 81.6438 80.1191H49.9415Z" fill="#50265C"/>
<path fill-rule="evenodd" clip-rule="evenodd" d="M81.6438 89.3307H49.9415C49.4704 89.3307 49.0885 89.7126 49.0885 90.1837V92.46C49.0885 92.9311 49.4704 93.3131 49.9415 93.3131H81.6438C82.1149 93.3131 82.4969 92.9311 82.4969 92.46V90.1837C82.4969 89.7126 82.1149 89.3307 81.6438 89.3307ZM49.9415 86.7715C48.057 86.7715 46.5293 88.2992 46.5293 90.1837V92.46C46.5293 94.3445 48.057 95.8722 49.9415 95.8722H81.6438C83.5283 95.8722 85.0561 94.3445 85.0561 92.46V90.1837C85.0561 88.2992 83.5283 86.7715 81.6438 86.7715H49.9415Z" fill="#50265C"/>
<path fill-rule="evenodd" clip-rule="evenodd" d="M60.0479 55.5042C60.0479 54.7975 60.6207 54.2246 61.3274 54.2246H71.5282C72.2349 54.2246 72.8078 54.7975 72.8078 55.5042C72.8078 56.2109 72.2349 56.7838 71.5282 56.7838H61.3274C60.6207 56.7838 60.0479 56.2109 60.0479 55.5042Z" fill="#50265C"/>
<path fill-rule="evenodd" clip-rule="evenodd" d="M60.0479 59.0726C60.0479 58.3659 60.6207 57.793 61.3274 57.793H71.5282C72.2349 57.793 72.8078 58.3659 72.8078 59.0726C72.8078 59.7793 72.2349 60.3522 71.5282 60.3522H61.3274C60.6207 60.3522 60.0479 59.7793 60.0479 59.0726Z" fill="#50265C"/>
<path fill-rule="evenodd" clip-rule="evenodd" d="M63.9996 55.5592C64.2154 54.8862 64.9359 54.5156 65.6088 54.7314C67.2319 55.2518 68.431 56.9565 68.6937 58.6606C68.8325 59.5609 68.7297 60.55 68.2316 61.4626C67.729 62.3835 66.8803 63.1229 65.7099 63.6102C65.554 63.675 65.3869 63.7084 65.2181 63.7084H64.1922L68.8465 68.9025C69.3181 69.4288 69.2738 70.2378 68.7475 70.7094C68.2211 71.181 67.4122 71.1367 66.9406 70.6104L60.3745 63.2828C60.0376 62.9068 59.9532 62.3679 60.1591 61.907C60.365 61.4461 60.8226 61.1492 61.3275 61.1492H64.9442C65.5175 60.869 65.822 60.5356 65.9852 60.2365C66.1725 59.8935 66.2319 59.4886 66.1644 59.0505C66.0145 58.0779 65.327 57.3285 64.8274 57.1683C64.1545 56.9526 63.7839 56.2321 63.9996 55.5592Z" fill="#50265C"/>
</svg>
