<svg width="101" height="101" viewBox="0 0 101 101" fill="none" xmlns="http://www.w3.org/2000/svg">
<path fill-rule="evenodd" clip-rule="evenodd" d="M43.6808 21.5457C38.7961 21.5457 34.2107 22.8121 30.2314 25.0337L29.1095 23.0241C33.4229 20.616 38.3934 19.2441 43.6808 19.2441C60.1439 19.2441 73.5738 31.2763 73.5738 47.8752H71.2722C71.2722 32.681 59.0107 21.5457 43.6808 21.5457ZM21.3649 32.879C18.0217 37.4482 16.0483 43.081 16.0483 49.1781C16.0483 64.4391 28.4198 76.8106 43.6808 76.8106C43.8276 76.8106 43.9774 76.8108 44.1296 76.811C45.787 76.813 47.7233 76.8155 49.0859 76.5788L49.4797 78.8464C47.9048 79.1199 45.7595 79.1158 44.1527 79.1127C43.9894 79.1124 43.8318 79.1121 43.6808 79.1121C27.1487 79.1121 13.7468 65.7102 13.7468 49.1781C13.7468 42.5761 15.8855 36.4702 19.5075 31.5199L21.3649 32.879Z" fill="#50265C"/>
<path fill-rule="evenodd" clip-rule="evenodd" d="M43.6807 30.3796C40.4982 30.3796 37.5036 31.1696 34.879 32.5631L33.7997 30.5303C36.7487 28.9646 40.1129 28.0781 43.6807 28.0781C54.595 28.0781 63.5726 36.3642 64.668 46.9895L62.3786 47.2256C61.4029 37.7616 53.4032 30.3796 43.6807 30.3796ZM27.9773 38.8408C26.0213 41.8059 24.8828 45.357 24.8828 49.1776C24.8828 59.5594 33.2989 67.9755 43.6807 67.9755C45.4266 67.9755 47.1152 67.7378 48.7166 67.2936L49.3317 69.5114C47.5319 70.0106 45.6365 70.277 43.6807 70.277C32.0278 70.277 22.5813 60.8305 22.5813 49.1776C22.5813 44.8928 23.8597 40.9032 26.0562 37.5735L27.9773 38.8408Z" fill="#50265C"/>
<path d="M54.0109 49.1796C54.0109 54.8847 49.386 59.5096 43.6808 59.5096C37.9757 59.5096 33.3508 54.8847 33.3508 49.1796C33.3508 43.4745 37.9757 38.8496 43.6808 38.8496C49.386 38.8496 54.0109 43.4745 54.0109 49.1796Z" fill="#F4A7A3"/>
<path fill-rule="evenodd" clip-rule="evenodd" d="M43.6808 57.2081C48.1149 57.2081 51.7094 53.6136 51.7094 49.1796C51.7094 44.7456 48.1149 41.1511 43.6808 41.1511C39.2468 41.1511 35.6523 44.7456 35.6523 49.1796C35.6523 53.6136 39.2468 57.2081 43.6808 57.2081ZM43.6808 59.5096C49.386 59.5096 54.0109 54.8847 54.0109 49.1796C54.0109 43.4745 49.386 38.8496 43.6808 38.8496C37.9757 38.8496 33.3508 43.4745 33.3508 49.1796C33.3508 54.8847 37.9757 59.5096 43.6808 59.5096Z" fill="#50265C"/>
<path fill-rule="evenodd" clip-rule="evenodd" d="M25.5882 19.06C26.0251 18.9033 26.5134 19.0244 26.8264 19.3672L35.3503 28.7016C35.5578 28.9287 35.6656 29.2295 35.6498 29.5367L35.1766 38.7336C35.1601 39.0528 35.0117 39.3507 34.7668 39.5561C34.5219 39.7615 34.2027 39.8558 33.8855 39.8164L24.9384 38.7051C24.6548 38.6699 24.3943 38.5303 24.2079 38.3136L15.7118 28.4383C15.4115 28.0892 15.3482 27.5946 15.5509 27.1812C15.7536 26.7677 16.1834 26.5149 16.6433 26.5385L24.4745 26.9415L24.8274 20.084C24.8513 19.6205 25.1513 19.2166 25.5882 19.06ZM26.9843 22.9532L26.7139 28.209C26.6812 28.8437 26.1402 29.3318 25.5055 29.2991L19.2097 28.9752L25.6629 36.4759L32.9416 37.38L33.3266 29.8985L26.9843 22.9532Z" fill="#50265C"/>
<path fill-rule="evenodd" clip-rule="evenodd" d="M24.6268 27.6749C25.0935 27.2435 25.8216 27.2721 26.253 27.7388L45.3511 48.3996C45.7825 48.8663 45.7539 49.5943 45.2872 50.0257C44.8205 50.4571 44.0924 50.4285 43.661 49.9618L24.5629 29.301C24.1315 28.8343 24.1601 28.1063 24.6268 27.6749Z" fill="#50265C"/>
<path fill-rule="evenodd" clip-rule="evenodd" d="M83.7404 56.5502H51.8995C50.8937 56.5502 50.0783 57.3431 50.0783 58.3212V78.0884C50.0783 79.0665 50.8937 79.8593 51.8995 79.8593H83.7404C84.7462 79.8593 85.5616 79.0665 85.5616 78.0884V58.3211C85.5616 57.3431 84.7462 56.5502 83.7404 56.5502ZM51.8995 54.7793C49.8878 54.7793 48.2571 56.365 48.2571 58.3212V78.0884C48.2571 80.0445 49.8878 81.6303 51.8995 81.6303H83.7404C85.752 81.6303 87.3828 80.0445 87.3828 78.0884V58.3211C87.3828 56.365 85.752 54.7793 83.7404 54.7793H51.8995Z" fill="white"/>
<path fill-rule="evenodd" clip-rule="evenodd" d="M51.8995 56.5502H83.7404C84.7462 56.5502 85.5616 57.3431 85.5616 58.3211V78.0884C85.5616 79.0665 84.7462 79.8593 83.7404 79.8593H51.8995C50.8937 79.8593 50.0783 79.0665 50.0783 78.0884V58.3212C50.0783 57.3431 50.8937 56.5502 51.8995 56.5502ZM48.2571 58.3212C48.2571 56.365 49.8878 54.7793 51.8995 54.7793H83.7404C85.752 54.7793 87.3828 56.365 87.3828 58.3211V78.0884C87.3828 80.0445 85.752 81.6303 83.7404 81.6303H51.8995C49.8878 81.6303 48.2571 80.0445 48.2571 78.0884V58.3212Z" fill="#50265C"/>
<path fill-rule="evenodd" clip-rule="evenodd" d="M59.8257 54.2996V51.1735C59.8257 49.6095 61.0935 48.3417 62.6575 48.3417H72.2164C73.7803 48.3417 75.0482 49.6095 75.0482 51.1735V54.2996H59.8257ZM58.1266 51.1735C58.1266 48.6711 60.1552 46.6426 62.6575 46.6426H72.2164C74.7187 46.6426 76.7473 48.6711 76.7473 51.1735V55.9987H58.1266V51.1735Z" fill="#50265C"/>
<path fill-rule="evenodd" clip-rule="evenodd" d="M86.8579 65.533C87.0849 66.1266 86.7878 66.7918 86.1942 67.0189C83.8254 67.9248 81.5465 68.6915 79.1475 69.2023C78.5259 69.3347 77.9147 68.938 77.7823 68.3164C77.65 67.6948 78.0466 67.0836 78.6682 66.9513C80.9006 66.476 83.0539 65.7558 85.372 64.8692C85.9656 64.6422 86.6309 64.9393 86.8579 65.533ZM48.5138 65.5088C48.7541 64.9205 49.4259 64.6384 50.0142 64.8787C51.5499 65.5061 53.792 66.2166 56.5502 66.7991C57.172 66.9304 57.5696 67.541 57.4383 68.1628C57.307 68.7846 56.6964 69.1823 56.0746 69.0509C53.2027 68.4444 50.8259 67.6965 49.1438 67.0093C48.5555 66.769 48.2734 66.0972 48.5138 65.5088ZM75.5004 68.5918C75.5801 69.2223 75.1335 69.798 74.503 69.8777C70.0653 70.4387 66.1012 70.373 62.3387 70.0083C61.7061 69.947 61.243 69.3845 61.3044 68.7519C61.3657 68.1193 61.9282 67.6562 62.5608 67.7175C66.1872 68.069 69.9769 68.1301 74.2144 67.5944C74.8449 67.5147 75.4207 67.9612 75.5004 68.5918Z" fill="#50265C"/>
<path fill-rule="evenodd" clip-rule="evenodd" d="M77.4726 70.7974C77.7429 70.4766 77.9607 69.9652 77.9607 69.3302C77.9607 68.6952 77.7429 68.1839 77.4726 67.863C77.2065 67.5471 76.9412 67.4597 76.7474 67.4597C76.5536 67.4597 76.2883 67.5471 76.0221 67.863C75.7518 68.1839 75.5341 68.6952 75.5341 69.3302C75.5341 69.9652 75.7518 70.4766 76.0221 70.7974C76.2883 71.1133 76.5536 71.2007 76.7474 71.2007C76.9412 71.2007 77.2065 71.1133 77.4726 70.7974ZM76.7474 73.5022C78.6886 73.5022 80.2622 71.6343 80.2622 69.3302C80.2622 67.0261 78.6886 65.1582 76.7474 65.1582C74.8062 65.1582 73.2325 67.0261 73.2325 69.3302C73.2325 71.6343 74.8062 73.5022 76.7474 73.5022Z" fill="#50265C"/>
<path fill-rule="evenodd" clip-rule="evenodd" d="M60.2846 70.7974C60.5549 70.4766 60.7727 69.9652 60.7727 69.3302C60.7727 68.6952 60.5549 68.1839 60.2846 67.863C60.0185 67.5471 59.7532 67.4597 59.5594 67.4597C59.3656 67.4597 59.1003 67.5471 58.8342 67.863C58.5639 68.1839 58.3461 68.6952 58.3461 69.3302C58.3461 69.9652 58.5639 70.4766 58.8342 70.7974C59.1003 71.1133 59.3656 71.2007 59.5594 71.2007C59.7532 71.2007 60.0185 71.1133 60.2846 70.7974ZM59.5594 73.5022C61.5006 73.5022 63.0742 71.6343 63.0742 69.3302C63.0742 67.0261 61.5006 65.1582 59.5594 65.1582C57.6182 65.1582 56.0446 67.0261 56.0446 69.3302C56.0446 71.6343 57.6182 73.5022 59.5594 73.5022Z" fill="#50265C"/>
</svg>
