<svg width="101" height="100" viewBox="0 0 101 100" fill="none" xmlns="http://www.w3.org/2000/svg">
<path d="M60.8593 41.4705C60.8593 38.6914 59.7553 36.0263 57.7902 34.0612C55.8252 32.0961 53.16 30.9922 50.381 30.9922C47.602 30.9922 44.9368 32.0961 42.9717 34.0612C41.0067 36.0263 39.9027 38.6914 39.9027 41.4705L50.381 41.4705H60.8593Z" fill="#F4A7A3"/>
<circle cx="82.3529" cy="59.9747" r="6.42589" stroke="#50265C" stroke-width="3"/>
<path d="M30.1261 70.5743C28.7954 69.4988 27.3667 68.7604 26.3511 68.5481C23.3526 67.9211 16.1261 67.855 10.9521 68.5481C6.05521 69.2041 3.80255 73.602 3.48828 76.0112V86.3034H28.9051" stroke="#50265C" stroke-width="3"/>
<path d="M71.5801 69.5874C72.4603 69.0783 73.483 68.7055 74.658 68.5481C79.832 67.855 87.0585 67.9211 90.057 68.5481C92.4958 69.0579 97.3166 72.6014 97.4423 76.5611C97.568 80.5209 97.4947 84.7059 97.4423 86.3034H96.8923H72.8019" stroke="#50265C" stroke-width="3"/>
<circle cx="18.409" cy="59.9747" r="6.42589" stroke="#50265C" stroke-width="3"/>
<path d="M29.2546 76.4029C29.2546 68.9608 35.2877 62.9277 42.7298 62.9277H59.4729C66.915 62.9277 72.948 68.9608 72.948 76.4029V89.743H29.2546V76.4029Z" stroke="#50265C" stroke-width="3"/>
<path d="M60.8733 52.7448C60.8733 58.1418 56.4982 62.5169 51.1012 62.5169C45.7042 62.5169 41.3291 58.1418 41.3291 52.7448C41.3291 47.3478 45.7042 42.9727 51.1012 42.9727C56.4982 42.9727 60.8733 47.3478 60.8733 52.7448Z" stroke="#50265C" stroke-width="3"/>
<path d="M46.321 78.8389L48.1003 62.7656H53.4733L55.9255 78.8389L51.6342 83.3345L46.321 78.8389Z" fill="#F4A7A3" stroke="#50265C" stroke-width="3" stroke-linecap="round"/>
<path d="M38.3887 88.7744L38.3887 78.8711" stroke="#50265C" stroke-width="3" stroke-linecap="round"/>
<path d="M73.4139 83.983L73.4139 77.0195" stroke="#50265C" stroke-width="1.60307" stroke-linecap="round"/>
<path d="M10.4833 85.8345L10.4833 78.8711" stroke="#50265C" stroke-width="3" stroke-linecap="round"/>
<path d="M64.496 88.7744L64.496 78.8711" stroke="#50265C" stroke-width="3" stroke-linecap="round"/>
<path d="M90.2789 85.8345L90.2789 78.8711" stroke="#50265C" stroke-width="3" stroke-linecap="round"/>
<circle cx="51.1014" cy="52.7448" r="9.77216" stroke="#50265C" stroke-width="3"/>
<path d="M24.1789 46.2483L18.6823 45.4024V34.9719H24.1789L28.1252 26.0938L24.1789 21.4423L32.0715 14.6781L36.2997 18.3417L44.6152 14.6781V8.75781H55.6085V14.6781L64.6286 18.3417L69.7024 14.6781L75.7628 21.4423L71.376 26.0938L74.9438 34.9719H82.0796V44.6124L75.7628 45.4024" stroke="#50265C" stroke-width="3" stroke-linecap="round" stroke-linejoin="round"/>
<path d="M65.9994 41.4719C65.9994 32.8461 59.0068 25.8535 50.381 25.8535C41.7552 25.8535 34.7626 32.8461 34.7626 41.4719" stroke="#50265C" stroke-width="3"/>
</svg>
