<svg width="100" height="100" viewBox="0 0 100 100" fill="none" xmlns="http://www.w3.org/2000/svg">
<path fill-rule="evenodd" clip-rule="evenodd" d="M45.0078 19C28.435 19 15 32.435 15 49.0078C15 60.595 21.5671 70.6509 31.1895 75.652L29.8059 78.3139C19.2295 72.817 12 61.7579 12 49.0078C12 30.7781 26.7781 16 45.0078 16C63.2375 16 78.0156 30.7781 78.0156 49.0078C78.0156 52.143 77.5781 55.1784 76.7599 58.0553L73.8743 57.2346C74.6174 54.622 75.0156 51.8627 75.0156 49.0078C75.0156 32.435 61.5807 19 45.0078 19Z" fill="white"/>
<path fill-rule="evenodd" clip-rule="evenodd" d="M72.9539 61.0665C73.7823 61.0584 74.4604 61.7235 74.4684 62.5518L74.5995 76.0512C74.6075 76.8796 73.9425 77.5577 73.1141 77.5657C72.2857 77.5737 71.6076 76.9087 71.5996 76.0803L71.5037 66.2021L56.3127 81.691C56.0324 81.9768 55.6494 82.1387 55.2491 82.1407C54.8487 82.1426 54.4642 81.9844 54.1811 81.7013L46.2372 73.7574L36.1744 84.4498C35.6066 85.053 34.6573 85.0818 34.054 84.5141C33.4507 83.9463 33.4219 82.997 33.9897 82.3937L45.1123 70.5754C45.3903 70.2799 45.7762 70.1097 46.1819 70.1036C46.5875 70.0974 46.9784 70.2558 47.2653 70.5427L55.2314 78.509L69.3619 64.1015L59.4837 64.1974C58.6553 64.2054 57.9772 63.5404 57.9692 62.712C57.9611 61.8836 58.6262 61.2056 59.4545 61.1975L72.9539 61.0665Z" fill="white"/>
<path fill-rule="evenodd" clip-rule="evenodd" d="M46.944 34.1023C47.458 34.3543 47.7838 34.8768 47.7838 35.4492V62.5669C47.7838 63.3953 47.1122 64.0669 46.2838 64.0669C45.4553 64.0669 44.7838 63.3953 44.7838 62.5669V38.5093L38.5251 43.3595C37.8703 43.8669 36.9281 43.7475 36.4206 43.0927C35.9132 42.4378 36.0326 41.4956 36.6875 40.9882L45.3649 34.2636C45.8174 33.9129 46.43 33.8504 46.944 34.1023Z" fill="#72517E"/>
</svg>
