<svg width="101" height="100" viewBox="0 0 101 100" fill="none" xmlns="http://www.w3.org/2000/svg">
<path fill-rule="evenodd" clip-rule="evenodd" d="M72.6219 22.882C73.1479 23.4596 73.1061 24.3542 72.5285 24.8801L61.8405 34.6138C61.263 35.1398 60.3684 35.098 59.8424 34.5205C59.3164 33.9429 59.3582 33.0483 59.9357 32.5223L70.6237 22.7886C71.2013 22.2626 72.0959 22.3044 72.6219 22.882ZM40.0173 26.3922L54.0812 33.2723C54.7829 33.6156 55.0734 34.4627 54.7302 35.1644C54.3869 35.8662 53.5397 36.1567 52.838 35.8134L40.4735 29.7646L27.202 41.4957C26.6167 42.0131 25.7228 41.958 25.2055 41.3727C24.6881 40.7874 24.7432 39.8935 25.3285 39.3762L40.0173 26.3922Z" fill="#50265C"/>
<path fill-rule="evenodd" clip-rule="evenodd" d="M27.307 72.8094H20.0463V86.0477H27.307V72.8094ZM20.0463 69.9805C18.484 69.9805 17.2174 71.247 17.2174 72.8094V88.8766H30.1359V72.8094C30.1359 71.247 28.8693 69.9805 27.307 69.9805H20.0463Z" fill="#50265C"/>
<path d="M33.5597 53.7137C33.5597 52.1513 34.8262 50.8848 36.3886 50.8848H43.6493C45.2116 50.8848 46.4782 52.1513 46.4782 53.7137V88.874H33.5597V53.7137Z" fill="#F4A7A3"/>
<path fill-rule="evenodd" clip-rule="evenodd" d="M43.6493 53.7137L36.3886 53.7137V86.0451H43.6493V53.7137ZM36.3886 50.8848C34.8262 50.8848 33.5597 52.1513 33.5597 53.7137V88.874H46.4782V53.7137C46.4782 52.1513 45.2116 50.8848 43.6493 50.8848H36.3886Z" fill="#50265C"/>
<path fill-rule="evenodd" clip-rule="evenodd" d="M60.6683 62.618H53.4076V86.0431H60.6683V62.618ZM53.4076 59.7891C51.8452 59.7891 50.5787 61.0556 50.5787 62.618V88.872H63.4972V62.618C63.4972 61.0556 62.2306 59.7891 60.6683 59.7891H53.4076Z" fill="#50265C"/>
<path d="M67.9535 40.7488C67.9535 39.1865 69.22 37.9199 70.7824 37.9199H78.0431C79.6054 37.9199 80.872 39.1865 80.872 40.7488V88.874H67.9535V40.7488Z" fill="#F4A7A3"/>
<path fill-rule="evenodd" clip-rule="evenodd" d="M78.0431 40.7488H70.7824V86.0451H78.0431V40.7488ZM70.7824 37.9199C69.22 37.9199 67.9535 39.1865 67.9535 40.7488V88.874H80.872V40.7488C80.872 39.1865 79.6054 37.9199 78.0431 37.9199H70.7824Z" fill="#50265C"/>
<path fill-rule="evenodd" clip-rule="evenodd" d="M23.6767 45.9944C25.0228 45.9944 26.114 44.9032 26.114 43.5572C26.114 42.2111 25.0228 41.1199 23.6767 41.1199C22.3307 41.1199 21.2395 42.2111 21.2395 43.5572C21.2395 44.9032 22.3307 45.9944 23.6767 45.9944ZM23.6767 48.8233C26.5852 48.8233 28.9429 46.4656 28.9429 43.5572C28.9429 40.6488 26.5852 38.291 23.6767 38.291C20.7683 38.291 18.4106 40.6488 18.4106 43.5572C18.4106 46.4656 20.7683 48.8233 23.6767 48.8233Z" fill="#50265C"/>
<path d="M45.2852 28.2466C45.2852 31.155 42.9274 33.5128 40.019 33.5128C37.1106 33.5128 34.7529 31.155 34.7529 28.2466C34.7529 25.3382 37.1106 22.9805 40.019 22.9805C42.9274 22.9805 45.2852 25.3382 45.2852 28.2466Z" fill="#F4A7A3"/>
<path fill-rule="evenodd" clip-rule="evenodd" d="M40.019 30.6839C41.3651 30.6839 42.4563 29.5927 42.4563 28.2466C42.4563 26.9006 41.3651 25.8094 40.019 25.8094C38.673 25.8094 37.5818 26.9006 37.5818 28.2466C37.5818 29.5927 38.673 30.6839 40.019 30.6839ZM40.019 33.5128C42.9274 33.5128 45.2852 31.155 45.2852 28.2466C45.2852 25.3382 42.9274 22.9805 40.019 22.9805C37.1106 22.9805 34.7529 25.3382 34.7529 28.2466C34.7529 31.155 37.1106 33.5128 40.019 33.5128Z" fill="#50265C"/>
<path fill-rule="evenodd" clip-rule="evenodd" d="M57.4924 38.7386C58.8385 38.7386 59.9297 37.6474 59.9297 36.3013C59.9297 34.9553 58.8385 33.8641 57.4924 33.8641C56.1464 33.8641 55.0552 34.9553 55.0552 36.3013C55.0552 37.6474 56.1464 38.7386 57.4924 38.7386ZM57.4924 41.5675C60.4008 41.5675 62.7586 39.2097 62.7586 36.3013C62.7586 33.3929 60.4008 31.0352 57.4924 31.0352C54.584 31.0352 52.2263 33.3929 52.2263 36.3013C52.2263 39.2097 54.584 41.5675 57.4924 41.5675Z" fill="#50265C"/>
<path d="M79.6785 21.2681C79.6785 24.1765 77.3207 26.5343 74.4123 26.5343C71.5039 26.5343 69.1462 24.1765 69.1462 21.2681C69.1462 18.3597 71.5039 16.002 74.4123 16.002C77.3207 16.002 79.6785 18.3597 79.6785 21.2681Z" fill="#F4A7A3"/>
<path fill-rule="evenodd" clip-rule="evenodd" d="M74.4123 23.7054C75.7584 23.7054 76.8496 22.6142 76.8496 21.2681C76.8496 19.9221 75.7584 18.8309 74.4123 18.8309C73.0663 18.8309 71.9751 19.9221 71.9751 21.2681C71.9751 22.6142 73.0663 23.7054 74.4123 23.7054ZM74.4123 26.5343C77.3207 26.5343 79.6785 24.1765 79.6785 21.2681C79.6785 18.3597 77.3207 16.002 74.4123 16.002C71.5039 16.002 69.1462 18.3597 69.1462 21.2681C69.1462 24.1765 71.5039 26.5343 74.4123 26.5343Z" fill="#50265C"/>
<path fill-rule="evenodd" clip-rule="evenodd" d="M12.2505 87.5902C12.2505 86.8091 12.8838 86.1758 13.6649 86.1758H84.1767C84.9579 86.1758 85.5911 86.8091 85.5911 87.5902C85.5911 88.3714 84.9579 89.0047 84.1767 89.0047H13.6649C12.8838 89.0047 12.2505 88.3714 12.2505 87.5902Z" fill="#50265C"/>
<path fill-rule="evenodd" clip-rule="evenodd" d="M72.6211 22.88C73.1471 23.4576 73.1053 24.3522 72.5278 24.8782L61.8398 34.6119C61.2622 35.1379 60.3676 35.0961 59.8416 34.5185C59.3157 33.9409 59.3575 33.0463 59.935 32.5203L70.623 22.7867C71.2005 22.2607 72.0951 22.3025 72.6211 22.88ZM40.0166 26.3902L54.0804 33.2704C54.7821 33.6136 55.0727 34.4608 54.7294 35.1625C54.3861 35.8642 53.539 36.1548 52.8373 35.8115L40.4728 29.7627L27.2013 41.4938C26.616 42.0111 25.7221 41.9561 25.2047 41.3708C24.6874 40.7855 24.7424 39.8916 25.3277 39.3742L40.0166 26.3902Z" fill="#50265C"/>
<path fill-rule="evenodd" clip-rule="evenodd" d="M27.3063 72.8074H20.0456V86.0457H27.3063V72.8074ZM20.0456 69.9785C18.4832 69.9785 17.2167 71.2451 17.2167 72.8074V88.8746H30.1352V72.8074C30.1352 71.2451 28.8686 69.9785 27.3063 69.9785H20.0456Z" fill="#50265C"/>
<path d="M33.559 53.7117C33.559 52.1494 34.8256 50.8828 36.3879 50.8828H43.6486C45.211 50.8828 46.4775 52.1494 46.4775 53.7117V88.872H33.559V53.7117Z" fill="#F4A7A3"/>
<path fill-rule="evenodd" clip-rule="evenodd" d="M43.6486 53.7117L36.3879 53.7117V86.0431H43.6486V53.7117ZM36.3879 50.8828C34.8256 50.8828 33.559 52.1494 33.559 53.7117V88.872H46.4775V53.7117C46.4775 52.1494 45.211 50.8828 43.6486 50.8828H36.3879Z" fill="#50265C"/>
<path fill-rule="evenodd" clip-rule="evenodd" d="M60.6675 62.616H53.4068V86.0412H60.6675V62.616ZM53.4068 59.7871C51.8445 59.7871 50.5779 61.0537 50.5779 62.616V88.8701H63.4964V62.616C63.4964 61.0537 62.2299 59.7871 60.6675 59.7871H53.4068Z" fill="#50265C"/>
<path d="M67.9528 40.7469C67.9528 39.1845 69.2193 37.918 70.7817 37.918H78.0423C79.6047 37.918 80.8712 39.1845 80.8712 40.7469V88.872H67.9528V40.7469Z" fill="#F4A7A3"/>
<path fill-rule="evenodd" clip-rule="evenodd" d="M78.0423 40.7469H70.7817V86.0431H78.0423V40.7469ZM70.7817 37.918C69.2193 37.918 67.9528 39.1845 67.9528 40.7469V88.872H80.8712V40.7469C80.8712 39.1845 79.6047 37.918 78.0423 37.918H70.7817Z" fill="#50265C"/>
<path fill-rule="evenodd" clip-rule="evenodd" d="M23.676 45.9925C25.0221 45.9925 26.1133 44.9013 26.1133 43.5552C26.1133 42.2092 25.0221 41.118 23.676 41.118C22.3299 41.118 21.2388 42.2092 21.2388 43.5552C21.2388 44.9013 22.3299 45.9925 23.676 45.9925ZM23.676 48.8214C26.5844 48.8214 28.9422 46.4636 28.9422 43.5552C28.9422 40.6468 26.5844 38.2891 23.676 38.2891C20.7676 38.2891 18.4099 40.6468 18.4099 43.5552C18.4099 46.4636 20.7676 48.8214 23.676 48.8214Z" fill="#50265C"/>
<path d="M45.2844 28.2447C45.2844 31.1531 42.9267 33.5108 40.0183 33.5108C37.1099 33.5108 34.7521 31.1531 34.7521 28.2447C34.7521 25.3363 37.1099 22.9785 40.0183 22.9785C42.9267 22.9785 45.2844 25.3363 45.2844 28.2447Z" fill="#F4A7A3"/>
<path fill-rule="evenodd" clip-rule="evenodd" d="M40.0183 30.6819C41.3643 30.6819 42.4555 29.5907 42.4555 28.2447C42.4555 26.8986 41.3643 25.8074 40.0183 25.8074C38.6722 25.8074 37.581 26.8986 37.581 28.2447C37.581 29.5907 38.6722 30.6819 40.0183 30.6819ZM40.0183 33.5108C42.9267 33.5108 45.2844 31.1531 45.2844 28.2447C45.2844 25.3363 42.9267 22.9785 40.0183 22.9785C37.1099 22.9785 34.7521 25.3363 34.7521 28.2447C34.7521 31.1531 37.1099 33.5108 40.0183 33.5108Z" fill="#50265C"/>
<path fill-rule="evenodd" clip-rule="evenodd" d="M57.4917 38.7366C58.8377 38.7366 59.9289 37.6454 59.9289 36.2994C59.9289 34.9533 58.8377 33.8621 57.4917 33.8621C56.1456 33.8621 55.0544 34.9533 55.0544 36.2994C55.0544 37.6454 56.1456 38.7366 57.4917 38.7366ZM57.4917 41.5655C60.4001 41.5655 62.7578 39.2078 62.7578 36.2994C62.7578 33.3909 60.4001 31.0332 57.4917 31.0332C54.5833 31.0332 52.2255 33.3909 52.2255 36.2994C52.2255 39.2078 54.5833 41.5655 57.4917 41.5655Z" fill="#50265C"/>
<path d="M79.6778 21.2662C79.6778 24.1746 77.32 26.5323 74.4116 26.5323C71.5032 26.5323 69.1454 24.1746 69.1454 21.2662C69.1454 18.3577 71.5032 16 74.4116 16C77.32 16 79.6778 18.3577 79.6778 21.2662Z" fill="#F4A7A3"/>
<path fill-rule="evenodd" clip-rule="evenodd" d="M74.4116 23.7034C75.7577 23.7034 76.8488 22.6122 76.8488 21.2662C76.8488 19.9201 75.7577 18.8289 74.4116 18.8289C73.0655 18.8289 71.9744 19.9201 71.9744 21.2662C71.9744 22.6122 73.0655 23.7034 74.4116 23.7034ZM74.4116 26.5323C77.32 26.5323 79.6778 24.1746 79.6778 21.2662C79.6778 18.3577 77.32 16 74.4116 16C71.5032 16 69.1454 18.3577 69.1454 21.2662C69.1454 24.1746 71.5032 26.5323 74.4116 26.5323Z" fill="#50265C"/>
<path fill-rule="evenodd" clip-rule="evenodd" d="M12.2498 87.5883C12.2498 86.8071 12.883 86.1738 13.6642 86.1738H84.1759C84.9571 86.1738 85.5904 86.8071 85.5904 87.5883C85.5904 88.3695 84.9571 89.0027 84.1759 89.0027H13.6642C12.883 89.0027 12.2498 88.3695 12.2498 87.5883Z" fill="#50265C"/>
</svg>
