<svg width="101" height="100" viewBox="0 0 101 100" fill="none" xmlns="http://www.w3.org/2000/svg">
<path d="M52.2042 72.1959C52.2042 71.118 53.078 70.2441 54.156 70.2441H60.0265C61.1044 70.2441 61.9783 71.118 61.9783 72.1959V89.9758H52.2042V72.1959Z" fill="#F4A7A3"/>
<path fill-rule="evenodd" clip-rule="evenodd" d="M55.4601 73.5001V86.7198H58.7224V73.5001H55.4601ZM54.156 70.2441C53.078 70.2441 52.2042 71.118 52.2042 72.1959V89.9758H61.9783V72.1959C61.9783 71.118 61.1044 70.2441 60.0265 70.2441H54.156Z" fill="#50265C"/>
<path fill-rule="evenodd" clip-rule="evenodd" d="M67.4049 66.6485V86.7174H70.6672V66.6485H67.4049ZM66.1008 63.3926C65.0228 63.3926 64.149 64.2664 64.149 65.3444V89.9733H73.9231V65.3444C73.9231 64.2664 73.0493 63.3926 71.9713 63.3926H66.1008Z" fill="#50265C"/>
<path fill-rule="evenodd" clip-rule="evenodd" d="M12.25 16H53.8457L73.7183 35.8727V60.2712C73.7183 61.1703 72.9895 61.8991 72.0904 61.8991C71.1913 61.8991 70.4624 61.1703 70.4624 60.2712V37.2213L52.4971 19.2559H15.5059V86.8251H41.027V90.0811H12.25V16Z" fill="#50265C"/>
<path fill-rule="evenodd" clip-rule="evenodd" d="M50.3796 17.5137H53.6356V35.1831L71.9408 34.7671L72.0148 38.0222L50.3796 38.5139V17.5137Z" fill="#50265C"/>
<path fill-rule="evenodd" clip-rule="evenodd" d="M19.1191 62.4209C19.1191 61.5218 19.848 60.793 20.7471 60.793H44.624C45.5231 60.793 46.2519 61.5218 46.2519 62.4209C46.2519 63.32 45.5231 64.0489 44.624 64.0489H20.7471C19.848 64.0489 19.1191 63.32 19.1191 62.4209Z" fill="#50265C"/>
<path fill-rule="evenodd" clip-rule="evenodd" d="M19.1191 69.128C19.1191 68.2289 19.848 67.5 20.7471 67.5H34.8562C35.7553 67.5 36.4841 68.2289 36.4841 69.128C36.4841 70.0271 35.7553 70.7559 34.8562 70.7559H20.7471C19.848 70.7559 19.1191 70.0271 19.1191 69.128Z" fill="#50265C"/>
<path fill-rule="evenodd" clip-rule="evenodd" d="M42.9929 80.1329V86.718H46.2552V80.1329H42.9929ZM41.6888 76.877C40.6109 76.877 39.737 77.7508 39.737 78.8288V89.974H49.5111V78.8288C49.5111 77.7508 48.6373 76.877 47.5593 76.877H41.6888Z" fill="#50265C"/>
<path d="M76.0489 56.5944C76.0489 55.5164 76.9227 54.6426 78.0007 54.6426H83.8712C84.9492 54.6426 85.823 55.5164 85.823 56.5944V89.9745H76.0489V56.5944Z" fill="#F4A7A3"/>
<path fill-rule="evenodd" clip-rule="evenodd" d="M79.3048 57.8985V86.7186H82.5671V57.8985H79.3048ZM78.0007 54.6426C76.9227 54.6426 76.0489 55.5164 76.0489 56.5944V89.9745H85.823V56.5944C85.823 55.5164 84.9492 54.6426 83.8712 54.6426H78.0007Z" fill="#50265C"/>
<path fill-rule="evenodd" clip-rule="evenodd" d="M30.5282 33.6466C25.1799 33.6466 20.8443 37.9822 20.8443 43.3304C20.8443 48.6787 25.1799 53.0143 30.5282 53.0143C35.8765 53.0143 40.2121 48.6787 40.2121 43.3304C40.2121 42.7395 40.1593 42.1623 40.0587 41.6028C40.0181 41.3772 39.9698 41.1545 39.9139 40.9348L43.0693 40.1322C43.1442 40.4264 43.2089 40.7246 43.2632 41.0264C43.3979 41.7752 43.468 42.5453 43.468 43.3304C43.468 50.4769 37.6747 56.2703 30.5282 56.2703C23.3817 56.2703 17.5884 50.4769 17.5884 43.3304C17.5884 36.184 23.3817 30.3906 30.5282 30.3906C31.1915 30.3906 31.8442 30.4407 32.4825 30.5375L31.9943 33.7566C31.5171 33.6842 31.0276 33.6466 30.5282 33.6466Z" fill="#50265C"/>
<path fill-rule="evenodd" clip-rule="evenodd" d="M84.5152 90.0098H13.7857V86.7539H84.5152V90.0098Z" fill="#50265C"/>
<path fill-rule="evenodd" clip-rule="evenodd" d="M42.5085 40.074C42.3596 39.5032 42.1713 38.9421 41.9446 38.3947C41.2965 36.8301 40.3466 35.4084 39.149 34.2109C37.9515 33.0134 36.5298 32.0634 34.9652 31.4153C34.4178 31.1886 33.8567 31.0004 33.286 30.8515V40.074H42.5085ZM45.8506 40.074C46.0706 41.1427 46.1822 42.2335 46.1822 43.3299H30.03L30.03 27.1777C31.1264 27.1777 32.2172 27.2894 33.286 27.5093C34.2849 27.7149 35.2645 28.0151 36.2112 28.4072C38.1709 29.219 39.9515 30.4087 41.4513 31.9086C42.9512 33.4085 44.141 35.1891 44.9527 37.1487C45.3448 38.0955 45.6451 39.0751 45.8506 40.074Z" fill="#50265C"/>
</svg>
