<svg width="101" height="100" viewBox="0 0 101 100" fill="none" xmlns="http://www.w3.org/2000/svg">
<path d="M68.3134 71.7086L69.5254 60.7598H73.1854L74.8558 71.7086L71.9326 74.7711L68.3134 71.7086Z" fill="#F4A7A3"/>
<path fill-rule="evenodd" clip-rule="evenodd" d="M68.1917 59.2695H74.4647L76.4384 72.2067L72.0413 76.8132L66.7457 72.3324L68.1917 59.2695ZM70.8589 62.2483L69.8809 71.0832L71.8237 72.7271L73.273 71.2089L71.9059 62.2483H70.8589Z" fill="#50265C"/>
<path fill-rule="evenodd" clip-rule="evenodd" d="M75.9274 63.1819H67.2417C62.5021 63.1819 58.6598 67.0241 58.6598 71.7637V77.5342H84.5093V71.7637C84.5093 67.0241 80.6671 63.1819 75.9274 63.1819ZM67.2417 60.2031C60.857 60.2031 55.6811 65.379 55.6811 71.7637V80.5129H87.488V71.7637C87.488 65.379 82.3122 60.2031 75.9274 60.2031H67.2417Z" fill="#50265C"/>
<path fill-rule="evenodd" clip-rule="evenodd" d="M71.5839 58.9875C74.1795 58.9875 76.2836 56.8834 76.2836 54.2878C76.2836 51.6922 74.1795 49.5881 71.5839 49.5881C68.9884 49.5881 66.8843 51.6922 66.8843 54.2878C66.8843 56.8834 68.9884 58.9875 71.5839 58.9875ZM71.5839 61.9662C75.8246 61.9662 79.2624 58.5285 79.2624 54.2878C79.2624 50.0471 75.8246 46.6094 71.5839 46.6094C67.3433 46.6094 63.9055 50.0471 63.9055 54.2878C63.9055 58.5285 67.3433 61.9662 71.5839 61.9662Z" fill="#50265C"/>
<path fill-rule="evenodd" clip-rule="evenodd" d="M71.5834 58.9875C74.1789 58.9875 76.2831 56.8834 76.2831 54.2878C76.2831 51.6923 74.1789 49.5881 71.5834 49.5881C68.9878 49.5881 66.8837 51.6923 66.8837 54.2878C66.8837 56.8834 68.9878 58.9875 71.5834 58.9875ZM71.5834 61.9663C75.824 61.9663 79.2618 58.5285 79.2618 54.2878C79.2618 50.0471 75.824 46.6094 71.5834 46.6094C67.3427 46.6094 63.9049 50.0471 63.9049 54.2878C63.9049 58.5285 67.3427 61.9663 71.5834 61.9663Z" fill="#50265C"/>
<path fill-rule="evenodd" clip-rule="evenodd" d="M50.1732 18.9787H15.4787V26.4302H50.1732V18.9787ZM12.5 16V29.4089H53.1519V16H12.5Z" fill="#50265C"/>
<path fill-rule="evenodd" clip-rule="evenodd" d="M50.1732 36.1799H15.4787V43.6314H50.1732V36.1799ZM12.5 33.2012V46.6101H53.1519V33.2012H12.5Z" fill="#50265C"/>
<path fill-rule="evenodd" clip-rule="evenodd" d="M50.1732 53.8713H15.4787V61.3228H50.1732V53.8713ZM12.5 50.8926V64.3015H53.1519V50.8926H12.5Z" fill="#50265C"/>
<path fill-rule="evenodd" clip-rule="evenodd" d="M31.0308 61.9668C31.8533 61.9668 32.5201 62.5116 32.5201 63.1837V79.0515H49.5289C50.3514 79.0515 51.0183 79.5963 51.0183 80.2684C51.0183 80.9404 50.3514 81.4852 49.5289 81.4852H31.0308C30.2082 81.4852 29.5414 80.9404 29.5414 80.2684V63.1837C29.5414 62.5116 30.2082 61.9668 31.0308 61.9668Z" fill="#50265C"/>
<path fill-rule="evenodd" clip-rule="evenodd" d="M50.4528 23.4288C50.4528 22.6063 51.1196 21.9395 51.9421 21.9395H72.528C73.3506 21.9395 74.0174 22.6063 74.0174 23.4288V41.7575C74.0174 42.58 73.3506 43.2468 72.528 43.2468C71.7055 43.2468 71.0387 42.58 71.0387 41.7575V24.9182H51.9421C51.1196 24.9182 50.4528 24.2514 50.4528 23.4288Z" fill="#50265C"/>
<path fill-rule="evenodd" clip-rule="evenodd" d="M17.3641 39.9054C17.3641 39.0828 18.031 38.416 18.8535 38.416H29.5414C30.364 38.416 31.0308 39.0828 31.0308 39.9054C31.0308 40.7279 30.364 41.3948 29.5414 41.3948H18.8535C18.031 41.3948 17.3641 40.7279 17.3641 39.9054Z" fill="#50265C"/>
<path fill-rule="evenodd" clip-rule="evenodd" d="M17.3641 22.7042C17.3641 21.8817 18.031 21.2148 18.8535 21.2148H29.5414C30.364 21.2148 31.0308 21.8817 31.0308 22.7042C31.0308 23.5268 30.364 24.1936 29.5414 24.1936H18.8535C18.031 24.1936 17.3641 23.5268 17.3641 22.7042Z" fill="#50265C"/>
<path fill-rule="evenodd" clip-rule="evenodd" d="M17.3641 57.5968C17.3641 56.7742 18.031 56.1074 18.8535 56.1074H29.5414C30.364 56.1074 31.0308 56.7742 31.0308 57.5968C31.0308 58.4194 30.364 59.0862 29.5414 59.0862H18.8535C18.031 59.0862 17.3641 58.4194 17.3641 57.5968Z" fill="#50265C"/>
</svg>
