<svg width="101" height="100" viewBox="0 0 101 100" fill="none" xmlns="http://www.w3.org/2000/svg">
<path d="M62.9217 31.2477C62.9217 38.5901 56.9695 44.5423 49.6271 44.5423C42.2847 44.5423 36.3325 38.5901 36.3325 31.2477C36.3325 23.9053 42.2847 17.9531 49.6271 17.9531C56.9695 17.9531 62.9217 23.9053 62.9217 31.2477Z" fill="#72517E"/>
<path fill-rule="evenodd" clip-rule="evenodd" d="M18.3386 29.4429C17.6391 32.866 16.0252 40.9369 15.1324 45.9963C14.3236 50.5798 16.4298 52.7884 17.1993 53.2411C17.2845 53.2912 17.3637 53.3507 17.4355 53.4186L25.8118 61.3462C26.073 61.5935 26.221 61.9373 26.221 62.297V65.6996H40.0294C40.0183 64.6432 40.019 63.0951 40.0564 61.15C40.107 58.5227 38.6843 56.1465 37.9537 55.2801L25.9922 44.2551C25.4281 44.3021 25.0445 44.4284 24.7868 44.5678C24.2943 44.8342 24.0545 45.2677 23.9903 45.8944C23.9314 46.4698 24.0412 47.115 24.2157 47.6465L33.4775 56.7691C33.9926 57.2765 33.9989 58.1053 33.4915 58.6204C32.9842 59.1356 32.1553 59.1418 31.6402 58.6345L22.1668 49.3035C22.0361 49.1747 21.9339 49.02 21.8669 48.8492C21.5382 48.012 21.2633 46.8225 21.3857 45.6275C21.4898 44.6114 21.8973 43.5244 22.8468 42.7331C22.8236 40.497 22.8013 36.1014 22.8549 31.9165C22.8832 29.7152 22.507 28.5169 22.1633 27.9189C21.9352 27.5221 21.7533 27.4265 21.7102 27.4076C21.6296 27.4039 21.5495 27.3927 21.4709 27.3742C20.3812 27.1178 19.7163 27.4246 19.2641 27.8362C18.7528 28.3017 18.4466 28.9775 18.3386 29.4429ZM25.4557 41.6794C25.7814 41.638 26.1237 41.6174 26.4824 41.6174C26.8112 41.6174 27.1279 41.7411 27.3697 41.964L39.7845 53.4068C39.8196 53.4391 39.8528 53.4733 39.8841 53.5092C40.8633 54.6324 42.7423 57.6581 42.6742 61.2004C42.6147 64.2963 42.6498 66.3436 42.6735 66.9584C42.6872 67.314 42.5554 67.66 42.3086 67.9164C42.0618 68.1729 41.7212 68.3178 41.3653 68.3178H24.9119C24.1889 68.3178 23.6027 67.7317 23.6027 67.0087V62.8605L15.7333 55.4127C13.9705 54.2819 11.5933 50.9851 12.554 45.5413C13.4548 40.4369 15.0782 32.3199 15.7765 28.9036C15.7783 28.8946 15.7802 28.8856 15.7823 28.8767C15.976 28.0213 16.499 26.8128 17.5015 25.9001C18.5448 24.9503 20.0434 24.3883 21.9456 24.7974C22.9013 24.8701 23.813 25.535 24.4333 26.6142C25.0955 27.7662 25.5046 29.4847 25.473 31.9501C25.427 35.5411 25.4372 39.2924 25.4557 41.6794Z" fill="white"/>
<path fill-rule="evenodd" clip-rule="evenodd" d="M43.8734 68.2628H23.0738V74.8971H43.8734V68.2628ZM23.0738 65.6445C21.6278 65.6445 20.4556 66.8168 20.4556 68.2628V74.8971C20.4556 76.3431 21.6278 77.5154 23.0738 77.5154H43.8734C45.3194 77.5154 46.4916 76.3431 46.4916 74.8971V68.2628C46.4916 66.8168 45.3194 65.6445 43.8734 65.6445H23.0738Z" fill="white"/>
<path fill-rule="evenodd" clip-rule="evenodd" d="M79.6018 29.4449C80.3013 32.8679 81.9152 40.9388 82.808 45.9983C83.6169 50.5817 81.5106 52.7904 80.7411 53.243C80.6559 53.2931 80.5767 53.3527 80.505 53.4206L72.1287 61.3482C71.8674 61.5954 71.7194 61.9393 71.7194 62.299V65.7015H57.911C57.9221 64.6451 57.9214 63.097 57.884 61.152C57.8335 58.5247 59.2561 56.1484 59.9867 55.2821L71.9483 44.2571C72.5123 44.3041 72.8959 44.4304 73.1536 44.5698C73.6461 44.8362 73.8859 45.2697 73.9501 45.8963C74.009 46.4717 73.8992 47.1169 73.7248 47.6484L64.4629 56.7711C63.9478 57.2784 63.9415 58.1073 64.4489 58.6224C64.9563 59.1375 65.7851 59.1438 66.3002 58.6364L75.7736 49.3054C75.9043 49.1767 76.0065 49.0219 76.0735 48.8512C76.4022 48.0139 76.6771 46.8245 76.5547 45.6295C76.4506 44.6133 76.0431 43.5264 75.0936 42.735C75.1169 40.4989 75.1391 36.1033 75.0855 31.9185C75.0573 29.7171 75.4334 28.5189 75.7771 27.9209C76.0052 27.5241 76.1872 27.4284 76.2302 27.4096C76.3108 27.4058 76.3909 27.3947 76.4695 27.3762C77.5592 27.1198 78.2241 27.4265 78.6763 27.8382C79.1876 28.3037 79.4938 28.9794 79.6018 29.4449ZM72.4847 41.6814C72.159 41.64 71.8167 41.6194 71.458 41.6194C71.1293 41.6194 70.8125 41.7431 70.5708 41.9659L58.1559 53.4088C58.1209 53.4411 58.0876 53.4752 58.0563 53.5111C57.0771 54.6344 55.1981 57.6601 55.2662 61.2023C55.3258 64.2982 55.2906 66.3456 55.2669 66.9603C55.2533 67.316 55.385 67.6619 55.6318 67.9184C55.8786 68.1749 56.2192 68.3198 56.5751 68.3198H73.0286C73.7516 68.3198 74.3377 67.7337 74.3377 67.0106V62.8625L82.2071 55.4146C83.9699 54.2838 86.3471 50.987 85.3864 45.5432C84.4857 40.4389 82.8622 32.3219 82.164 28.9056C82.1621 28.8966 82.1602 28.8876 82.1582 28.8786C81.9645 28.0233 81.4414 26.8147 80.4389 25.9021C79.3956 24.9523 77.897 24.3903 75.9948 24.7994C75.0391 24.8721 74.1274 25.5369 73.5071 26.6161C72.845 27.7681 72.4358 29.4866 72.4674 31.952C72.5135 35.5431 72.5032 39.2943 72.4847 41.6814Z" fill="white"/>
<path fill-rule="evenodd" clip-rule="evenodd" d="M54.4721 68.2648H75.2716V74.8991H54.4721V68.2648ZM75.2716 65.6465C76.7177 65.6465 77.8899 66.8187 77.8899 68.2648V74.8991C77.8899 76.3451 76.7177 77.5173 75.2716 77.5173H54.4721C53.0261 77.5173 51.8538 76.3451 51.8538 74.8991V68.2648C51.8538 66.8187 53.0261 65.6465 54.4721 65.6465H75.2716Z" fill="white"/>
<path fill-rule="evenodd" clip-rule="evenodd" d="M49.6273 43.8713C56.6008 43.8713 62.2539 38.2182 62.2539 31.2448C62.2539 24.2713 56.6008 18.6183 49.6273 18.6183C42.6539 18.6183 37.0008 24.2713 37.0008 31.2448C37.0008 38.2182 42.6539 43.8713 49.6273 43.8713ZM49.6273 46.4896C58.0468 46.4896 64.8721 39.6642 64.8721 31.2448C64.8721 22.8253 58.0468 16 49.6273 16C41.2079 16 34.3826 22.8253 34.3826 31.2448C34.3826 39.6642 41.2079 46.4896 49.6273 46.4896Z" fill="white"/>
<path fill-rule="evenodd" clip-rule="evenodd" d="M44.0593 25.0289C44.0593 24.4121 44.5593 23.9121 45.1761 23.9121H54.0789C54.6956 23.9121 55.1956 24.4121 55.1956 25.0289C55.1956 25.6457 54.6956 26.1457 54.0789 26.1457H45.1761C44.5593 26.1457 44.0593 25.6457 44.0593 25.0289Z" fill="white"/>
<path fill-rule="evenodd" clip-rule="evenodd" d="M44.0593 28.1441C44.0593 27.5273 44.5593 27.0273 45.1761 27.0273H54.0789C54.6956 27.0273 55.1956 27.5273 55.1956 28.1441C55.1956 28.7609 54.6956 29.2609 54.0789 29.2609H45.1761C44.5593 29.2609 44.0593 28.7609 44.0593 28.1441Z" fill="white"/>
<path fill-rule="evenodd" clip-rule="evenodd" d="M47.5083 25.0769C47.6966 24.4895 48.3254 24.1661 48.9127 24.3544C50.3292 24.8086 51.3758 26.2964 51.605 27.7837C51.7262 28.5694 51.6365 29.4327 51.2017 30.2292C50.7631 31.0328 50.0224 31.6782 49.0009 32.1034C48.8649 32.16 48.719 32.1892 48.5717 32.1892H47.6764L51.7384 36.7224C52.15 37.1817 52.1113 37.8877 51.652 38.2993C51.1926 38.7109 50.4866 38.6722 50.075 38.2129L44.3444 31.8177C44.0504 31.4896 43.9768 31.0192 44.1564 30.617C44.3361 30.2147 44.7355 29.9556 45.1761 29.9556H48.3326C48.833 29.7111 49.0987 29.4201 49.2412 29.1591C49.4046 28.8597 49.4565 28.5063 49.3976 28.124C49.2667 27.2752 48.6667 26.6211 48.2307 26.4813C47.6434 26.293 47.3199 25.6642 47.5083 25.0769Z" fill="white"/>
</svg>
