<svg width="24" height="25" viewBox="0 0 24 25" fill="none" xmlns="http://www.w3.org/2000/svg">
<path d="M12 11.9109C11.337 11.9109 10.7011 11.6475 10.2322 11.1787C9.76339 10.7098 9.5 10.0739 9.5 9.41089C9.5 8.74785 9.76339 8.11196 10.2322 7.64312C10.7011 7.17428 11.337 6.91089 12 6.91089C12.663 6.91089 13.2989 7.17428 13.7678 7.64312C14.2366 8.11196 14.5 8.74785 14.5 9.41089C14.5 9.73919 14.4353 10.0643 14.3097 10.3676C14.1841 10.6709 13.9999 10.9465 13.7678 11.1787C13.5356 11.4108 13.26 11.595 12.9567 11.7206C12.6534 11.8462 12.3283 11.9109 12 11.9109ZM12 2.41089C10.1435 2.41089 8.36301 3.14839 7.05025 4.46114C5.7375 5.7739 5 7.55437 5 9.41089C5 14.6609 12 22.4109 12 22.4109C12 22.4109 19 14.6609 19 9.41089C19 7.55437 18.2625 5.7739 16.9497 4.46114C15.637 3.14839 13.8565 2.41089 12 2.41089Z" fill="#E85046"/>
</svg>
