<svg width="29" height="29" viewBox="0 0 29 29" fill="none" xmlns="http://www.w3.org/2000/svg">
<path d="M15.9995 1C15.9995 1 19.2995 1.3 23.4995 5.5C27.6995 9.7 27.9995 13 27.9995 13M16.31 6.304C16.31 6.304 17.795 6.727 20.0225 8.9545C22.25 11.182 22.6745 12.667 22.6745 12.667M10.0565 5.974L11.03 7.7185C11.9075 9.2935 11.555 11.3575 10.172 12.742C10.172 12.742 8.49199 14.4205 11.537 17.464C14.5775 20.5045 16.2575 18.829 16.2575 18.829C17.642 17.4445 19.7075 17.092 21.281 17.9695L23.0255 18.9445C25.403 20.2705 25.6835 23.6035 23.594 25.6945C22.3385 26.9485 20.7995 27.9265 19.1 27.9895C16.238 28.099 11.3765 27.3745 6.49999 22.4995C1.62499 17.623 0.900491 12.7615 1.00999 9.8995C1.07449 8.2 2.05099 6.661 3.30499 5.4055C5.39599 3.316 8.72899 3.5965 10.055 5.9755L10.0565 5.974Z" stroke="#50265C" stroke-width="1.5" stroke-linecap="round"/>
</svg>
