<svg width="24" height="25" viewBox="0 0 24 25" fill="none" xmlns="http://www.w3.org/2000/svg">
<path fill-rule="evenodd" clip-rule="evenodd" d="M5.00846 11.1054C5.00846 10.4868 5.01591 9.86815 5.02339 9.24664L5.02339 9.24663C5.02719 8.93154 5.03099 8.61571 5.03384 8.29877C5.03384 4.89347 7.16556 2.41064 10.1094 2.41064H13.8906C16.8344 2.41064 18.9662 4.89347 18.9662 8.29877C18.9915 9.66285 19 11.0269 19 12.4008C19 13.7747 18.9915 15.1584 18.9662 16.5225C18.9662 19.9278 16.8344 22.4106 13.8906 22.4106H10.1094C7.16556 22.4106 5.03384 19.9278 5.03384 16.5127C5.01692 15.2271 5 13.9121 5 12.5775L5.00846 11.1054ZM13.2787 20.0509V20.2109C13.2787 20.8845 12.7155 21.4109 11.9987 21.4109C11.299 21.4109 10.7188 20.8845 10.7188 20.2109V20.0509C10.7188 19.3949 11.299 18.8509 11.9987 18.8509C12.7155 18.8509 13.2787 19.3949 13.2787 20.0509ZM7.01671 8.85429C7.01136 9.25827 7.00604 9.66039 7.00604 10.0625L7 11.0193C7 11.8868 7.01208 12.7416 7.02417 13.5772C7.02417 15.7971 8.54683 17.4109 10.6495 17.4109H13.3505C15.4532 17.4109 16.9758 15.7971 16.9758 13.5836C16.994 12.697 17 11.7975 17 10.9045C17 10.0115 16.994 9.12482 16.9758 8.23817C16.9758 6.02472 15.4532 4.41089 13.3505 4.41089H10.6495C8.54683 4.41089 7.02417 6.02472 7.02417 8.23817C7.02214 8.44418 7.01942 8.64948 7.01671 8.85429Z" fill="#E85046"/>
</svg>
