<svg width="80" height="80" viewBox="0 0 80 80" fill="none" xmlns="http://www.w3.org/2000/svg">
<path d="M43.56 27.5C43.5 27.58 43.32 27.66 43.16 27.68C41.94 27.9 40.72 28.88 39.82 30.32C39.3 31.18 39.2 31.58 39.16 32.72C39.12 34.26 39.22 34.88 39.66 35.72C40.08 36.52 41.42 38.02 41.6 37.9C41.7 37.84 41.92 37.94 42.1 38.12C42.28 38.3 42.76 38.52 43.16 38.62C44.08 38.84 46.08 38.86 46.28 38.64C46.44 38.5 46.54 38.48 47.08 38.42C47.46 38.4 50 35.86 50.02 35.48C50.06 35.12 50.1 35 50.3 34.54C50.54 33.96 50.3 31.56 49.9 30.72C49.44 29.76 48.04 28.36 47.06 27.9C46.3 27.54 43.82 27.26 43.56 27.5ZM46.46 29.76C46.64 29.92 46.8 29.98 46.8 29.9C46.8 29.6 47.82 30.9 48.22 31.68C48.8 32.9 48.66 34.16 47.76 35.46C46.82 36.8 44.1 37.26 42.66 36.32C41 35.24 40.56 33.26 41.5 31.22C41.78 30.62 42.06 30.2 42.12 30.26C42.18 30.32 42.56 30.14 42.96 29.88C43.56 29.46 43.9 29.38 44.9 29.42C45.62 29.44 46.24 29.58 46.46 29.76Z" fill="#F4A7A3"/>
<path d="M31.54 28.14C31.5 28.16 30.76 28.24 29.88 28.3C27.8 28.44 26.9 28.54 26.9 28.6C26.9 28.62 26.58 28.68 26.2 28.74C25.82 28.78 25.36 28.92 25.18 29.02C24.98 29.12 24.56 29.2 24.22 29.2C23.88 29.2 23.6 29.28 23.6 29.36C23.6 29.52 21.84 30.1 21.56 30.04C21.46 30.02 21.4 30.1 21.4 30.22C21.4 30.32 21.32 30.36 21.2 30.3C21.1 30.24 21 30.28 21 30.4C21 30.52 20.92 30.56 20.8 30.5C20.7 30.44 20.6 30.48 20.6 30.6C20.6 30.72 20.52 30.76 20.4 30.7C20.3 30.64 20.2 30.68 20.2 30.8C20.2 30.92 20.12 30.96 20 30.9C19.9 30.84 19.8 30.88 19.8 31C19.8 31.12 19.72 31.16 19.6 31.1C19.5 31.04 19.4 31.08 19.4 31.18C19.4 31.3 19.26 31.4 19.1 31.4C18.94 31.4 18.8 31.48 18.8 31.6C18.8 31.7 18.46 31.94 18.06 32.1C17.64 32.28 17.12 32.6 16.9 32.8C16.68 33.02 16.2 33.44 15.84 33.72C15 34.4 14.58 35.2 14.82 35.64C15.02 36.02 15.8 36.2 17.56 36.32C19.82 36.48 20 36.5 20 36.64C20 36.72 20.12 36.74 20.28 36.68C20.44 36.62 20.62 36.68 20.7 36.78C20.76 36.9 20.9 36.96 21 36.9C21.08 36.84 21.6 36.98 22.14 37.22C22.66 37.44 23.28 37.68 23.5 37.72C23.72 37.76 24.14 37.98 24.44 38.2C24.96 38.58 25 38.58 25.18 38.24C25.28 38.06 25.42 37.58 25.5 37.18C25.62 36.56 25.58 36.46 25.1 36.24C24.82 36.1 24.48 36 24.34 36C24.2 36 23.76 35.82 23.34 35.6C22.94 35.38 22.54 35.2 22.46 35.2C22.36 35.2 21.98 35.1 21.58 35C20.88 34.8 19.26 34.56 18.56 34.52C18.3 34.52 18.28 34.44 18.42 34.16C18.52 33.96 18.74 33.8 18.88 33.8C19.04 33.8 19.2 33.66 19.28 33.5C19.34 33.34 19.52 33.2 19.7 33.2C19.86 33.2 20 33.1 20 33C20 32.88 20.06 32.82 20.16 32.84C20.24 32.88 20.8 32.66 21.4 32.36C23.32 31.44 23.7 31.3 24.7 31.1C25.04 31.04 25.66 30.88 26.1 30.76C26.54 30.64 27.02 30.56 27.16 30.58C27.32 30.6 27.54 30.54 27.66 30.44C27.8 30.34 28.16 30.28 28.46 30.3C28.76 30.32 29.06 30.26 29.12 30.18C29.16 30.1 29.64 30.06 30.16 30.1C31.1 30.18 31.16 30.14 32.08 29.22L33.04 28.24L32.32 28.16C31.92 28.12 31.56 28.1 31.54 28.14Z" fill="#F4A7A3"/>
<path d="M48.8401 45.66C48.0601 46.46 47.9801 46.62 47.9001 47.82C47.8401 48.96 47.6801 50.32 47.5401 51.2C47.5201 51.36 47.4201 51.6 47.3601 51.72C47.2801 51.84 47.1601 52.32 47.1001 52.8C47.0401 53.26 46.8801 53.92 46.7201 54.28C46.2801 55.26 46.1401 55.68 46.1601 55.84C46.1801 55.94 46.1001 56 45.9801 56C45.8801 56 45.8401 56.08 45.9001 56.2C45.9601 56.3 45.9201 56.4 45.8001 56.4C45.6801 56.4 45.6401 56.48 45.7001 56.6C45.7601 56.7 45.7201 56.8 45.6001 56.8C45.4801 56.8 45.4401 56.88 45.5001 57C45.5601 57.1 45.5201 57.2 45.4001 57.2C45.2801 57.2 45.2401 57.28 45.3001 57.4C45.3601 57.5 45.3201 57.6 45.2201 57.6C45.1001 57.6 45.0001 57.7 45.0001 57.84C45.0001 57.96 44.7801 58.36 44.5001 58.7C44.2401 59.06 44.0401 59.38 44.0801 59.42C44.1201 59.46 44.0401 59.62 43.8801 59.76C43.7201 59.9 43.5801 59.94 43.5801 59.86C43.5601 59.78 43.5201 59.42 43.4801 59.1C43.4401 58.76 43.3201 58.04 43.2001 57.5C43.0801 56.94 42.9601 56.36 42.9201 56.2C42.9001 56.04 42.7201 55.56 42.5401 55.14C42.3601 54.72 42.2201 54.32 42.2401 54.24C42.2601 54.16 42.0601 53.66 41.8201 53.14C41.4201 52.3 41.3001 52.18 40.9401 52.3C40.7001 52.38 40.1801 52.5 39.8001 52.58C39.3401 52.66 39.1801 52.76 39.3601 52.86C39.6601 53.06 40.4801 54.58 40.5201 55.04C40.5401 55.22 40.6201 55.54 40.7001 55.74C40.8801 56.16 40.9001 56.18 41.2801 57.6C41.6001 58.76 41.8601 60.8 41.8401 62.04C41.8401 62.6 41.9601 62.86 42.3401 63.1C42.9801 63.52 43.4401 63.34 44.1201 62.44C44.4201 62.04 44.9201 61.44 45.2401 61.12C45.5401 60.78 45.8001 60.4 45.8001 60.26C45.8001 60.12 45.9001 60 46.0201 60C46.1201 60 46.1801 59.92 46.1201 59.84C46.0601 59.74 46.2001 59.52 46.4201 59.34C46.6401 59.14 46.8601 58.72 46.9401 58.4C47.0001 58.06 47.1201 57.8 47.1801 57.8C47.2601 57.8 47.4801 57.42 47.6801 56.94C47.8801 56.48 48.1801 55.74 48.3601 55.3C48.5401 54.88 48.7201 54.44 48.7201 54.36C48.7401 54.28 48.7601 54.18 48.8001 54.14C48.8201 54.12 48.8601 53.96 48.9001 53.8C49.0601 53.08 49.2601 52.08 49.3001 51.7C49.3401 51.48 49.3801 51.3 49.4001 51.3C49.6601 51.3 50.0401 45.74 49.8201 45.14C49.7201 44.84 49.5601 44.92 48.8401 45.66Z" fill="#F4A7A3"/>
<path d="M21.4 50.4C21.26 50.48 20.98 50.5 20.78 50.46C20.58 50.4 20.4 50.46 20.4 50.58C20.4 50.7 20.34 50.78 20.26 50.78C19.9 50.72 19.64 50.82 19.24 51.2C19 51.44 18.8 51.56 18.8 51.48C18.8 51.4 18.62 51.5 18.4 51.7C18.18 51.9 18 52.18 18 52.3C18 52.44 17.88 52.6 17.74 52.66C17.4 52.78 16.14 55.14 16.28 55.38C16.36 55.48 16.3 55.6 16.2 55.64C16.08 55.68 15.9 56.02 15.8 56.4C15.7 56.78 15.44 57.82 15.22 58.7C14.98 59.58 14.76 60.66 14.72 61.1C14.68 61.54 14.58 62.14 14.5 62.42C14.32 63.16 14.78 63.56 15.74 63.5C17.62 63.34 20.82 62.66 21.02 62.36C21.08 62.26 21.18 62.18 21.22 62.2C21.38 62.28 22.52 61.94 22.9 61.7C23.12 61.58 23.64 61.34 24.06 61.22C25.06 60.88 27.28 58.68 27.24 58.08C27.24 57.98 27.32 57.78 27.44 57.64C27.74 57.28 27.8 54.94 27.52 54.14C27.14 53.02 25.2 50.8 24.74 50.96C24.66 50.98 24.44 50.88 24.28 50.7C24.1 50.54 23.78 50.38 23.54 50.36C22 50.26 21.64 50.26 21.4 50.4ZM23.62 52.44C24.02 52.54 24.82 53.2 25.16 53.7C25.9 54.88 26.04 55.82 25.62 56.9C25.2 57.96 24.84 58.44 24.1 58.92C23.78 59.12 23.44 59.38 23.36 59.5C23.28 59.6 23.2 59.64 23.2 59.56C23.2 59.48 22.78 59.64 22.26 59.9C21.74 60.18 21.1 60.44 20.82 60.5C20.54 60.54 19.86 60.72 19.3 60.9C18.76 61.06 17.92 61.26 17.46 61.32C16.56 61.42 16.56 61.44 16.9 59.94C16.96 59.7 17.06 59.18 17.12 58.8C17.2 58.42 17.32 58 17.4 57.9C17.52 57.74 17.66 57.32 17.9 56.4C17.9 56.34 18.16 55.82 18.46 55.24C18.76 54.68 18.94 54.2 18.88 54.2C18.64 54.2 19.46 53.38 20.24 52.8C20.88 52.32 21.14 52.26 22.14 52.32C22.78 52.34 23.44 52.4 23.62 52.44Z" fill="#F4A7A3"/>
<path d="M54.0999 16.3C48.4599 17.2 42.7599 19.82 37.6999 23.9C35.5599 25.6 29.8799 31.48 27.6199 34.3C25.4599 37 24.8799 38.82 25.6799 40.38C25.9799 40.92 25.9599 41.08 25.5999 42.24C24.9999 44.12 24.8999 45.68 25.2799 47.16C26.4399 51.7 30.7799 53.98 35.4999 52.54C36.9199 52.1 37.1599 52.08 37.7399 52.32C39.5399 53.08 41.0599 52.42 44.7799 49.32C47.1999 47.32 52.4399 42.16 53.8399 40.42C57.5399 35.82 59.9999 30.96 61.1599 25.9C62.0999 21.86 62.1799 16.9 61.3199 16.3C60.7999 15.92 56.4599 15.92 54.0999 16.3ZM59.8599 18.72C60.1399 20.38 59.4999 24.78 58.5799 27.54L58.1799 28.78L57.1599 28.4C55.1599 27.64 53.2799 26.16 51.4999 23.94C50.3799 22.54 48.9799 19.94 49.2199 19.72C49.4199 19.52 53.0199 18.56 54.4999 18.32C55.3799 18.16 56.9199 18.04 57.9199 18.02L59.7399 18L59.8599 18.72ZM47.6599 21.58C48.6599 24.4 52.1199 28.14 55.1599 29.66C56.1399 30.14 57.0399 30.58 57.1799 30.62C57.6999 30.8 55.2999 35.16 52.9999 38.22C50.0399 42.16 40.7199 50.6 39.3599 50.6C38.5799 50.6 37.7599 49.9 32.6599 44.76C26.5799 38.66 26.7599 38.98 28.2199 36.88C30.4999 33.66 36.7999 27.06 39.7599 24.82C42.0999 23.04 46.3599 20.6 47.0999 20.6C47.2199 20.6 47.4599 21.04 47.6599 21.58ZM35.2999 50.4C35.2599 50.48 34.7199 50.66 34.1199 50.8C30.9799 51.54 27.8399 49.58 27.1999 46.46C26.9599 45.36 26.9999 44.9 27.4199 43.32L27.6399 42.54L31.4999 46.4C33.6399 48.54 35.3399 50.34 35.2999 50.4Z" fill="#F4A7A3"/>
</svg>
