<svg width="80" height="80" viewBox="0 0 80 80" fill="none" xmlns="http://www.w3.org/2000/svg">
<path d="M24.88 24.42C24.82 24.52 24.66 24.54 24.5 24.46C24.34 24.4 24.2 24.46 24.2 24.58C24.2 24.7 24.14 24.78 24.06 24.78C23.96 24.76 23.82 24.76 23.7 24.78C23.46 24.8 22.28 25.8 22.48 25.8C22.56 25.8 22.4 26.02 22.12 26.26C21.84 26.52 21.66 26.8 21.74 26.86C21.8 26.94 21.76 27 21.64 27C21.36 27 20.78 28.9 20.94 29.3C21 29.46 20.96 29.6 20.84 29.6C20.72 29.6 20.66 29.76 20.7 29.94C20.72 30.14 20.7 30.38 20.62 30.5C20.56 30.6 20.5 30.78 20.48 30.9C20.46 31 20.36 31.42 20.28 31.8C20.2 32.18 20.12 32.74 20.12 33.04C20.1 33.36 20.02 33.6 19.92 33.6C19.84 33.6 19.8 33.82 19.84 34.1C19.9 34.38 19.88 34.6 19.8 34.6C19.72 34.6 19.66 34.72 19.66 34.84C19.64 35.08 19.56 35.54 19.3 36.8C19.04 38.06 18.96 38.54 18.9 39C18.86 39.28 18.82 39.5 18.8 39.5C18.74 39.5 18.6 40.26 18.52 41.06C18.46 41.64 18.54 41.94 18.82 42.22C19.18 42.58 19.54 42.6 23.68 42.6C26.16 42.6 28.4 42.52 28.66 42.42C29.02 42.28 29.2 42 29.36 41.26C29.46 40.74 29.7 39.66 29.86 38.9C30.04 38.12 30.22 37.18 30.28 36.78C30.34 36.38 30.42 35.94 30.48 35.78C30.52 35.62 30.62 35.26 30.68 34.94C30.84 34.28 30.98 34.26 31.72 34.9C32.3 35.42 33.68 35.9 35 36.08C35.38 36.12 35.7 36.18 35.7 36.2C35.7 36.26 36.5 36.44 37.16 36.5C37.52 36.54 37.9 36.64 38.02 36.72C38.62 37.08 41.92 37.24 42.16 36.9C42.24 36.78 42.54 36.54 42.82 36.36C43.5 35.92 44.34 34.42 44.5 33.34C44.6 32.66 44.56 32.4 44.22 31.96C43.98 31.68 43.64 31.46 43.44 31.5C43.26 31.52 43.02 31.48 42.9 31.4C42.8 31.32 41.98 31.1 41.1 30.9C40.22 30.72 39.14 30.48 38.7 30.36C38.26 30.24 37.72 30.12 37.5 30.08C36.1 29.84 35.08 29.5 34.7 29.12C34.02 28.48 33.16 27.9 32.96 27.96C32.86 27.98 32.82 27.94 32.86 27.86C32.92 27.76 32.5 27.38 31.94 27C31.38 26.62 30.7 26.1 30.44 25.84C30.16 25.6 29.84 25.4 29.7 25.4C29.56 25.4 29.3 25.22 29.1 25C28.9 24.76 28.62 24.62 28.48 24.68C28.36 24.72 28.14 24.66 28.02 24.54C27.78 24.3 25.02 24.2 24.88 24.42ZM27.24 26.28C27.66 26.38 28.08 26.56 28.22 26.72C28.34 26.88 28.58 27 28.72 27C28.88 27 29 27.06 29 27.16C29 27.24 29.46 27.6 30 27.96C30.56 28.32 31 28.7 31 28.8C31 28.92 31.12 29 31.26 29C31.4 29 31.96 29.4 32.52 29.9C33.06 30.38 33.62 30.78 33.76 30.8C33.88 30.8 34 30.88 34 31C34 31.1 34.18 31.2 34.4 31.2C34.62 31.2 34.8 31.28 34.8 31.38C34.8 31.48 35.2 31.62 35.66 31.68C37.04 31.9 38.3 32.14 38.3 32.22C38.3 32.24 38.48 32.28 38.7 32.32C39.2 32.4 39.88 32.56 39.96 32.6C39.98 32.64 40.16 32.66 40.36 32.68C40.54 32.7 40.82 32.78 40.96 32.88C41.1 32.96 41.28 32.98 41.34 32.92C41.4 32.86 41.58 32.9 41.72 33C41.84 33.12 42.04 33.18 42.16 33.16C42.42 33.08 42.46 33.34 42.32 34.12C42.22 34.62 42.04 34.78 41.2 35.08C40.4 35.36 40.08 35.4 39.64 35.22C39.16 35.04 38.84 34.96 37.5 34.7C37.28 34.66 36.88 34.58 36.6 34.5C36.32 34.42 35.94 34.34 35.76 34.34C35.56 34.32 35.4 34.26 35.4 34.2C35.4 34.12 35.28 34.06 35.16 34.06C34.62 34.04 33.28 33.6 32.9 33.3C32.68 33.14 32.02 32.64 31.46 32.18C30.88 31.74 30.4 31.44 30.4 31.52C30.4 31.62 30.26 31.48 30.08 31.24C29.92 31 29.66 30.8 29.54 30.8C29.4 30.8 28.98 30.52 28.6 30.2C28.22 29.86 27.76 29.48 27.6 29.34C26.96 28.76 26.02 28.2 25.76 28.2C25.32 28.2 24.78 28.88 24.86 29.36C24.9 29.62 25.6 30.3 26.68 31.08C27.64 31.82 28.48 32.4 28.54 32.4C28.58 32.4 28.76 32.54 28.92 32.7C29.18 32.96 29.18 33.14 28.9 34.22C28.72 34.9 28.62 35.48 28.68 35.54C28.72 35.58 28.68 35.92 28.56 36.26C28.46 36.62 28.34 37.08 28.32 37.3C28.28 37.52 28.14 38.1 28.02 38.58C27.88 39.06 27.76 39.68 27.74 39.98L27.7 40.5L24.04 40.56C20.5 40.6 20.38 40.6 20.58 40.24C20.7 40.02 20.74 39.8 20.68 39.76C20.64 39.7 20.68 39.4 20.8 39.08C20.92 38.78 21.06 38.2 21.1 37.8C21.26 36.5 21.38 35.8 21.48 35.64C21.52 35.56 21.62 35.1 21.7 34.6C21.78 34.12 21.9 33.58 22 33.4C22.08 33.24 22.22 32.64 22.3 32.1C22.38 31.54 22.48 30.88 22.52 30.6C22.58 30.32 22.66 29.88 22.7 29.6C22.84 28.68 23.38 27.66 24 27.12C24.36 26.84 24.56 26.6 24.46 26.58C24.38 26.58 24.7 26.46 25.2 26.32C26.16 26.06 26.14 26.06 27.24 26.28Z" fill="#F4A7A3"/>
<path d="M27.9601 13.8C26.8801 14.38 26.3001 15.28 25.7201 17.3C25.1201 19.36 25.0801 20.12 25.5001 21.16C26.1401 22.66 27.0401 23.26 29.8401 24L31.5801 24.44L32.2601 24.02C32.9801 23.58 33.1801 23.06 34.2001 19.06C34.6601 17.28 34.5801 16.46 33.8401 15.36C32.7001 13.64 29.7401 12.86 27.9601 13.8ZM30.8401 15.6C31.7401 15.86 32.4001 16.64 32.4001 17.44C32.4001 18.12 31.4401 21.82 31.2001 22.06C30.9601 22.32 28.1801 21.46 27.7001 21C27.1801 20.46 27.2001 19.34 27.7801 17.46C28.3601 15.52 29.0601 15.12 30.8401 15.6Z" fill="#F4A7A3"/>
<path d="M11.6 24.36L11.14 24.74L12.08 29.48C13.06 34.5 13.38 37.48 13.4 41.62C13.4 44.64 13.68 45.64 14.86 46.8C16.3 48.26 16.4 48.28 22.76 48.36L28.42 48.42L28.36 53.26C28.3 58.68 28.2 59.06 26.8 59.9C26.14 60.28 25.72 60.3 20 60.36C16.08 60.4 13.82 60.5 13.66 60.64C13.3 60.94 13.34 61.7 13.72 62.1C14.02 62.38 14.74 62.42 20.38 62.36C25.98 62.3 26.78 62.26 27.34 61.94C28.38 61.38 29.38 60.4 29.86 59.52C30.26 58.76 30.3 58.38 30.36 53.54L30.44 48.4H31.62C32.44 48.4 32.8 48.48 32.8 48.64C32.8 48.78 33.12 51.74 33.52 55.2C33.98 59.22 34.34 61.66 34.52 61.94C34.8 62.4 34.88 62.4 38.66 62.4C40.76 62.4 42.7 62.34 42.94 62.28C43.5 62.12 43.88 61.02 43.7 60.08C43.58 59.4 42.18 57.72 41.38 57.28C41.1 57.12 40.96 56.04 40.5 50.8C40.22 47.34 39.88 44.16 39.78 43.72C39.66 43.28 39.2 42.56 38.68 41.98C37.52 40.76 36.82 40.6 32.72 40.6C29.46 40.6 29.4 40.62 29.4 41.6C29.4 41.8 29.26 42.12 29.08 42.28C28.8 42.58 29 42.6 31.24 42.62C35.16 42.64 36.7 42.82 37.26 43.38C37.9 43.96 37.88 43.9 38.5 51.3C38.78 54.7 39.06 57.7 39.12 57.94C39.16 58.2 39.66 58.68 40.28 59.1C42.1 60.3 41.98 60.4 38.9 60.4H36.22L36.1 59.74C36.04 59.4 35.68 56.36 35.3 53.02C34.92 49.7 34.52 46.84 34.4 46.7C34.22 46.48 32.92 46.4 28.34 46.36C22.92 46.3 22.46 46.28 21.82 45.9C20.98 45.4 20.4 44.36 20.4 43.36C20.4 42.6 20.38 42.6 19.62 42.6C19.02 42.6 18.74 42.48 18.5 42.14C18.18 41.72 18.16 41.78 18.3 43.2C18.38 44.02 18.6 45.04 18.82 45.48C19.02 45.92 19.16 46.3 19.12 46.34C19.08 46.4 18.62 46.36 18.1 46.28C16.98 46.12 15.92 45.28 15.62 44.34C15.52 43.98 15.38 41.76 15.34 39.4C15.24 34.98 15.06 33.6 13.6 26.5C13.1 24.04 12.62 23.54 11.6 24.36Z" fill="#F4A7A3"/>
<path d="M51.68 24.28C51.44 24.46 50.72 26.26 49.6 29.5401L47.9 34.5L46.06 34.56C44.24 34.62 44.24 34.62 44 35.22C43.86 35.54 43.46 36.04 43.12 36.3L42.5 36.8H53.56H64.6V37.9V39H52.8H41V38.14C41 37.4 40.94 37.3 40.56 37.3C40.3 37.2801 39.86 37.22 39.56 37.14L39 37V38.68C39 39.96 39.08 40.4401 39.32 40.68C39.6 40.96 41.04 41 52.12 41H64.6V49.7C64.6 59.08 64.56 59.46 63.56 60.04C63.22 60.24 61.5 60.32 56.7 60.4L50.32 60.5L50.06 61C49.86 61.4 49.86 61.58 50.08 61.9C50.34 62.28 50.6 62.3 56.88 62.36C63.02 62.4 63.46 62.38 64.18 62.02C65.18 61.5 66.12 60.4 66.38 59.46C66.52 58.96 66.6 54.54 66.6 46.98C66.6 36.32 66.56 35.22 66.26 34.98C66.02 34.76 64.9 34.68 61.48 34.64L57.02 34.58L58.62 29.8801C59.48 27.3 60.2 25.0801 60.2 24.92C60.2 24.78 60.04 24.5201 59.84 24.34C59.52 24.0401 58.94 24 55.78 24C52.9 24 51.98 24.0601 51.68 24.28ZM57.76 26.2401C57.7 26.3801 57.04 28.32 56.28 30.54L54.9 34.6H52.46H50.02L51.3 30.84C51.98 28.78 52.66 26.8601 52.78 26.5401L53 26H55.42C57.28 26 57.82 26.0601 57.76 26.2401Z" fill="#F4A7A3"/>
</svg>
