<svg width="80" height="80" viewBox="0 0 80 80" fill="none" xmlns="http://www.w3.org/2000/svg">
<path d="M38.5 9.08004C37.72 9.42004 36.9 10.38 36.6 11.32C36.3 12.2 36.48 15.14 36.88 16.1C37.22 16.9 38.22 17.72 39.18 18.02C40.74 18.48 42.38 17.72 43.16 16.2C43.52 15.46 43.6 14.92 43.64 13.24C43.66 11.26 43.64 11.16 43.08 10.34C42.76 9.88004 42.18 9.34004 41.8 9.16004C40.98 8.74004 39.36 8.70004 38.5 9.08004ZM41.16 11.2C41.54 11.56 41.6 11.82 41.6 13.22C41.6 14.1 41.5 15.02 41.38 15.26C40.88 16.2 39.88 16.4 39.14 15.72C38.64 15.24 38.6 15.12 38.6 13.4C38.6 11.86 38.66 11.54 39 11.2C39.52 10.68 40.6 10.68 41.16 11.2Z" fill="#F4A7A3"/>
<path d="M37.56 18.94C37.14 18.98 36.8 19.1 36.8 19.2C36.8 19.3 36.66 19.34 36.5 19.28C36.34 19.2 36.2 19.26 36.2 19.38C36.2 19.5 36.08 19.6 35.94 19.6C35.64 19.6 35.08 20.16 34.68 20.86C34.04 21.98 33.86 22.58 33.82 23.8C33.76 25.64 34.1 25.98 36.3 26.32C37.44 26.5 37.34 26.46 38 26.74C38.82 27.08 41.26 27.04 42.34 26.68C43.5 26.28 43.72 26.24 44.54 26.22C44.94 26.2 45.4 26 45.74 25.68C46.26 25.2 46.3 25.06 46.28 23.6C46.26 22.3 46.18 21.9 45.74 21.14C44.72 19.4 43.24 18.78 40.22 18.84C39.16 18.86 37.96 18.9 37.56 18.94ZM43.12 21.28C43.48 21.5 43.92 22 44.08 22.36C44.5 23.2 44.5 24.2 44.1 24.22C43.54 24.28 43.44 24.3 43.3 24.44C43.22 24.52 43.04 24.52 42.9 24.48C42.76 24.42 42.58 24.46 42.52 24.58C42.44 24.7 42.26 24.74 42.12 24.68C41.96 24.62 41.78 24.68 41.7 24.78C41.64 24.9 41.5 24.96 41.4 24.9C41.3 24.84 41.18 24.86 41.12 24.96C41.06 25.06 40.46 25.04 39.76 24.94C39.06 24.84 38.3 24.76 38.06 24.74C37.8 24.72 37.6 24.62 37.6 24.54C37.6 24.44 37.44 24.4 37.26 24.42C37.06 24.46 36.64 24.42 36.32 24.34C35.78 24.18 35.76 24.14 35.84 23.3C35.98 22.2 36.6 21.32 37.44 21.04C37.8 20.92 39.08 20.84 40.3 20.84C42.18 20.84 42.58 20.9 43.12 21.28Z" fill="#F4A7A3"/>
<path d="M14.82 30.76C13.74 30.86 12.68 31.64 12.12 32.74C11.68 33.6 11.68 36.72 12.1 37.76C12.72 39.24 13.9 40.04 15.4 40.04C17 40.04 18.36 39 18.8 37.44C19.16 36.1 19.06 33.64 18.58 32.66C17.9 31.28 16.56 30.6 14.82 30.76ZM16.6 33.34C17 33.84 17.04 34.06 16.94 35.4C16.8 37.3 16.7 37.54 15.96 37.92C15.42 38.2 15.32 38.2 14.74 37.86C14.02 37.44 13.86 36.94 13.82 35.08C13.8 33.48 14.26 32.8 15.4 32.8C16 32.8 16.26 32.92 16.6 33.34Z" fill="#F4A7A3"/>
<path d="M64 30.8C63 30.98 62.08 31.72 61.58 32.76C61.2 33.52 61.16 33.88 61.24 35.56C61.34 37.6 61.6 38.38 62.44 39.12C63.18 39.8 63.8 40.04 64.8 40.04C65.92 40.04 66.74 39.66 67.56 38.72C68.28 37.88 68.48 36.94 68.38 34.54C68.3 33.06 68.24 32.78 67.74 32.12C66.94 31.08 65.46 30.56 64 30.8ZM66 33.24C66.32 33.6 66.4 33.94 66.4 35.12C66.4 36.9 66.2 37.5 65.4 37.9C64.86 38.18 64.74 38.18 64.2 37.9C63.5 37.54 63.4 37.22 63.34 35.18C63.3 33.92 63.36 33.58 63.68 33.22C64.2 32.64 65.44 32.64 66 33.24Z" fill="#F4A7A3"/>
<path d="M11.9 41.18C10.5 41.82 9.04002 43.74 9.26002 44.62C9.32002 44.84 9.28002 45.06 9.18002 45.12C8.94002 45.26 8.96002 46.54 9.20002 46.7C9.32002 46.78 9.36002 46.9 9.30002 47C9.10002 47.32 9.96002 47.98 10.74 48.1C11.16 48.16 12.14 48.4 12.9 48.6C14.3 49 16.6 49.14 16.88 48.84C16.96 48.76 17.12 48.68 17.22 48.68C17.32 48.66 17.42 48.64 17.46 48.6C17.52 48.56 18.02 48.46 19.42 48.22C20.04 48.12 20.74 47.94 20.96 47.82C21.58 47.5 22.08 45.4 21.62 45.12C21.52 45.06 21.48 44.84 21.54 44.62C21.76 43.78 20.36 41.9 18.98 41.2C17.94 40.66 13.06 40.66 11.9 41.18ZM18.42 43.26C19.24 43.8 19.6 44.46 19.6 45.4C19.6 46.1 19.58 46.12 18.56 46.34C17.98 46.46 17.02 46.68 16.44 46.82C15.52 47.02 15.12 47 13.74 46.7C12.84 46.5 11.92 46.32 11.7 46.3C11.14 46.26 10.96 45.06 11.4 44.22C12 43.06 12.62 42.84 15.32 42.82C17.52 42.8 17.8 42.84 18.42 43.26Z" fill="#F4A7A3"/>
<path d="M61.2 41.18C59.46 42.1 58.66 43.52 58.62 45.74C58.58 47.42 58.88 47.9 60.14 48.1C60.56 48.16 61.26 48.32 61.68 48.42C62.94 48.76 63.22 48.82 64.66 48.92C65.56 48.98 66.14 48.94 66.32 48.78C66.48 48.66 66.6 48.6 66.6 48.66C66.6 48.72 67.02 48.64 67.56 48.48C68.08 48.32 68.9 48.14 69.38 48.08C70.46 47.98 70.7 47.78 71 46.88C71.36 45.84 70.98 43.56 70.34 42.9C70.22 42.76 69.98 42.46 69.82 42.24C69.66 42 69.46 41.86 69.36 41.92C69.28 41.98 69.2 41.92 69.2 41.8C69.2 41.68 68.82 41.4 68.36 41.2C67.12 40.64 62.24 40.64 61.2 41.18ZM67.88 43.22C68.62 43.64 69.12 44.32 69.08 44.8C69.06 44.96 69.04 45.34 69.02 45.62C69 46.16 68.96 46.18 67.3 46.42C67.2 46.44 66.88 46.54 66.6 46.64C65.68 47.02 64.6 47.04 63.14 46.72C62.36 46.54 61.48 46.38 61.2 46.34C60.8 46.28 60.68 46.14 60.64 45.6C60.5 44.32 61.02 43.44 62.1 43.04C62.44 42.92 63.7 42.82 64.94 42.82C66.86 42.8 67.28 42.86 67.88 43.22Z" fill="#F4A7A3"/>
<path d="M39.18 52.76C38.24 52.84 36.92 53.96 36.6 54.92C36.26 55.94 36.42 59.32 36.86 60.14C37.04 60.5 37.54 61.04 37.94 61.34C38.56 61.82 38.86 61.9 40 61.9C41.14 61.9 41.44 61.82 42.06 61.34C43.22 60.46 43.48 59.8 43.56 57.4C43.62 55.62 43.56 55.2 43.24 54.6C42.44 53.16 41.18 52.58 39.18 52.76ZM40.66 54.82C41.3 55.12 41.6 55.8 41.6 56.96C41.58 59 41.06 59.98 40 59.98C38.94 59.98 38.42 59 38.4 56.96C38.4 55.12 39.34 54.22 40.66 54.82Z" fill="#F4A7A3"/>
<path d="M37.48 62.78C36.52 62.94 35.76 63.4 34.94 64.28C34.14 65.16 33.86 65.74 33.72 67C33.5 68.92 34.06 69.84 35.6 70.1C35.98 70.16 36.96 70.38 37.78 70.6C39.44 71.02 41.34 71 42.42 70.54C42.8 70.38 43.62 70.2 44.24 70.12C45.9 69.9 46.3 69.4 46.26 67.52C46.26 66.62 46.12 65.82 45.92 65.44C45.52 64.68 44.3 63.46 43.52 63.06C42.86 62.72 38.84 62.52 37.48 62.78ZM43.48 65.46C43.92 65.9 44.08 66.32 44.16 67.02C44.26 68.04 44.22 68.08 43.2 68.28C42.92 68.34 42.48 68.44 42.2 68.5C41.48 68.7 38.8 68.92 38.68 68.82C38.56 68.7 38.4 68.66 36.92 68.34L35.76 68.1L35.84 67.1C35.9 66.32 36.06 65.94 36.5 65.46L37.1 64.84H40H42.9L43.48 65.46Z" fill="#F4A7A3"/>
<path d="M28.6 15.78C25.04 17.38 22.98 18.8 20.28 21.5C18.38 23.42 16.4 26.1 16.4 26.78C16.4 27.26 16.92 27.8 17.38 27.8C17.8 27.8 18.28 27.28 19.36 25.66C21.54 22.42 25.62 19.22 29.8 17.5C31.8 16.68 32.24 16.06 31.44 15.34C30.92 14.86 30.52 14.92 28.6 15.78Z" fill="#F4A7A3"/>
<path d="M48.54 15.36C47.82 16.16 48.22 16.68 50.2 17.5C54.36 19.22 58.46 22.42 60.6 25.62C61.72 27.28 62.2 27.8 62.62 27.8C63.08 27.8 63.6 27.26 63.6 26.78C63.6 25.66 59.3 20.68 56.72 18.8C55.18 17.68 53.1 16.52 51.16 15.68C49.34 14.9 48.98 14.86 48.54 15.36Z" fill="#F4A7A3"/>
<path d="M38.98 30.02C37.54 30.24 36.28 30.88 35.22 31.98C33.7 33.54 33.3 34.54 33.3 36.72C33.3 38.4 33.36 38.62 34.04 40.02C34.44 40.82 35.1 41.88 35.48 42.34L36.2 43.16V45.24C36.2 46.88 36.28 47.46 36.58 48C37.74 50.16 42.26 50.16 43.42 48C43.72 47.46 43.8 46.88 43.8 45.24C43.8 43.18 43.8 43.16 44.46 42.38C45.86 40.76 46.8 38.44 46.8 36.62C46.8 34.12 45.02 31.46 42.66 30.48C41.64 30.04 40.1 29.86 38.98 30.02ZM41.92 32.42C45.26 34 45.62 37.82 42.74 41.18C41.9 42.16 41.8 42.38 41.8 43.24V44.2H40H38.2V43.24C38.2 42.38 38.1 42.16 37.26 41.18C36.1 39.82 35.2 37.96 35.2 36.88C35.2 33.4 38.84 30.98 41.92 32.42ZM41.8 46.56C41.8 47.2 41.36 47.4 40 47.4C38.64 47.4 38.2 47.2 38.2 46.56C38.2 46.24 38.4 46.2 40 46.2C41.6 46.2 41.8 46.24 41.8 46.56Z" fill="#F4A7A3"/>
<path d="M16.76 52.42C16.56 52.52 16.4 52.84 16.4 53.12C16.4 54.42 20.7 59.38 23.66 61.46C25.12 62.52 28.6 64.34 29.98 64.8C30.88 65.1 31.28 64.98 31.68 64.34C31.84 64.1 31.84 63.9 31.68 63.64C31.44 63.26 31.3 63.18 28.6 61.92C27.56 61.44 25.98 60.56 25.1 59.96C23.2 58.68 20.52 56.06 19.38 54.34C17.94 52.2 17.58 51.94 16.76 52.42Z" fill="#F4A7A3"/>
<path d="M61.86 52.64C61.64 52.9 61.06 53.68 60.6 54.38C59.46 56.08 56.82 58.66 54.86 59.98C54 60.56 52.44 61.44 51.4 61.92C48.7 63.18 48.56 63.26 48.32 63.64C48.16 63.9 48.16 64.1 48.32 64.34C48.72 64.98 49.12 65.1 50.02 64.8C51.38 64.34 54.86 62.52 56.34 61.48C59.22 59.44 63.6 54.4 63.6 53.12C63.6 52.2 62.52 51.92 61.86 52.64Z" fill="#F4A7A3"/>
</svg>
